<?xml version="1.0" encoding="utf-8"?>
<!-- Generator: Adobe Illustrator 25.3.1, SVG Export Plug-In . SVG Version: 6.00 Build 0)  -->
<svg version="1.1" id="Layer_1" xmlns="http://www.w3.org/2000/svg" xmlns:xlink="http://www.w3.org/1999/xlink" x="0px" y="0px"
	 viewBox="0 0 823.67 97" style="enable-background:new 0 0 823.67 97;" xml:space="preserve">
<style type="text/css">
	.st0{fill:#FFFFFF;}
	.st1{fill:none;stroke:#FFFFFF;stroke-miterlimit:10;}
	.st2{fill-rule:evenodd;clip-rule:evenodd;fill:#FFFFFF;}
</style>
<path class="st0" d="M348.71,76.78l15.14-12.86c1.51-1.25,2.78-2.39,3.83-3.42c1.05-1.03,1.89-2,2.54-2.92
	c0.65-0.92,1.12-1.82,1.41-2.7c0.29-0.88,0.44-1.82,0.44-2.82c0-2.17-0.68-3.86-2.04-5.05c-1.36-1.2-3.05-1.79-5.06-1.79
	c-2.01,0-3.78,0.54-5.31,1.63c-1.53,1.09-3.15,2.74-4.87,4.96l-5.47-4.27c1.05-1.47,2.11-2.78,3.21-3.94
	c1.09-1.16,2.27-2.13,3.55-2.91c1.27-0.78,2.68-1.39,4.21-1.81c1.52-0.42,3.28-0.63,5.24-0.63c2.14,0,4.1,0.31,5.88,0.94
	c1.78,0.63,3.31,1.52,4.58,2.67c1.28,1.15,2.27,2.54,2.99,4.15c0.71,1.61,1.07,3.4,1.07,5.37v0.12c0,1.72-0.23,3.28-0.69,4.68
	c-0.46,1.41-1.16,2.75-2.1,4.05c-0.95,1.3-2.14,2.61-3.58,3.93c-1.45,1.32-3.13,2.78-5.06,4.37l-9.05,7.54h20.92v6.78h-31.79V76.78z
	"/>
<path class="st0" d="M407.02,82.87c-3.39,0-6.49-0.59-9.3-1.79c-2.81-1.19-5.22-2.82-7.23-4.87c-2.01-2.05-3.58-4.45-4.71-7.19
	c-1.13-2.74-1.7-5.66-1.7-8.76v-0.13c0-3.1,0.57-6.02,1.7-8.77c1.13-2.74,2.72-5.15,4.77-7.23c2.05-2.07,4.48-3.71,7.29-4.93
	c2.8-1.21,5.9-1.82,9.3-1.82c3.4,0,6.49,0.6,9.3,1.79c2.81,1.19,5.22,2.82,7.23,4.87c2.01,2.05,3.58,4.45,4.71,7.19
	c1.13,2.75,1.7,5.67,1.7,8.77v0.12c0,3.1-0.57,6.02-1.7,8.76c-1.13,2.75-2.72,5.15-4.78,7.22c-2.05,2.08-4.48,3.72-7.29,4.93
	C413.51,82.26,410.41,82.87,407.02,82.87 M407.14,75.77c2.17,0,4.16-0.41,5.98-1.23c1.81-0.82,3.37-1.93,4.66-3.33
	c1.29-1.4,2.3-3.05,3.04-4.93c0.73-1.88,1.09-3.89,1.09-6.03v-0.13c0-2.14-0.36-4.16-1.09-6.06c-0.73-1.9-1.75-3.56-3.07-4.96
	c-1.32-1.41-2.89-2.52-4.72-3.36c-1.84-0.84-3.84-1.26-6.01-1.26c-2.17,0-4.16,0.41-5.98,1.22c-1.81,0.82-3.37,1.93-4.66,3.33
	c-1.29,1.4-2.3,3.05-3.04,4.93c-0.73,1.88-1.1,3.89-1.1,6.03v0.12c0,2.14,0.37,4.16,1.1,6.06c0.73,1.91,1.75,3.56,3.07,4.96
	c1.32,1.4,2.89,2.53,4.73,3.36C402.97,75.35,404.97,75.77,407.14,75.77"/>
<path class="st0" d="M433.09,76.78l15.15-12.86c1.5-1.25,2.78-2.39,3.83-3.42c1.05-1.03,1.89-2,2.54-2.92
	c0.65-0.92,1.12-1.82,1.41-2.7c0.29-0.88,0.44-1.82,0.44-2.82c0-2.17-0.68-3.86-2.04-5.05c-1.36-1.2-3.05-1.79-5.06-1.79
	c-2.01,0-3.78,0.54-5.31,1.63c-1.53,1.09-3.16,2.74-4.87,4.96l-5.47-4.27c1.05-1.47,2.11-2.78,3.21-3.94
	c1.09-1.16,2.27-2.13,3.55-2.91c1.28-0.78,2.68-1.39,4.21-1.81c1.53-0.42,3.27-0.63,5.24-0.63c2.14,0,4.1,0.31,5.88,0.94
	c1.78,0.63,3.31,1.52,4.59,2.67c1.28,1.15,2.27,2.54,2.98,4.15c0.72,1.61,1.07,3.4,1.07,5.37v0.12c0,1.72-0.23,3.28-0.69,4.68
	c-0.46,1.41-1.16,2.75-2.11,4.05c-0.94,1.3-2.13,2.61-3.58,3.93c-1.45,1.32-3.13,2.78-5.06,4.37l-9.05,7.54h20.92v6.78h-31.79V76.78
	z"/>
<path class="st0" d="M491.4,82.87c-3.39,0-6.49-0.59-9.3-1.79c-2.8-1.19-5.21-2.82-7.22-4.87c-2.02-2.05-3.58-4.45-4.71-7.19
	c-1.13-2.74-1.7-5.66-1.7-8.76v-0.13c0-3.1,0.57-6.02,1.7-8.77c1.13-2.74,2.72-5.15,4.77-7.23c2.05-2.07,4.48-3.71,7.28-4.93
	c2.81-1.21,5.91-1.82,9.31-1.82c3.39,0,6.49,0.6,9.29,1.79c2.81,1.19,5.21,2.82,7.23,4.87c2.01,2.05,3.58,4.45,4.71,7.19
	c1.13,2.75,1.7,5.67,1.7,8.77v0.12c0,3.1-0.57,6.02-1.7,8.76c-1.13,2.75-2.72,5.15-4.77,7.22c-2.06,2.08-4.48,3.72-7.29,4.93
	C497.9,82.26,494.8,82.87,491.4,82.87 M491.53,75.77c2.16,0,4.15-0.41,5.97-1.23c1.82-0.82,3.37-1.93,4.66-3.33
	c1.29-1.4,2.3-3.05,3.03-4.93c0.73-1.88,1.09-3.89,1.09-6.03v-0.13c0-2.14-0.36-4.16-1.09-6.06c-0.73-1.9-1.75-3.56-3.06-4.96
	c-1.32-1.41-2.89-2.52-4.72-3.36c-1.83-0.84-3.84-1.26-6.01-1.26c-2.17,0-4.17,0.41-5.97,1.22c-1.81,0.82-3.37,1.93-4.67,3.33
	c-1.29,1.4-2.3,3.05-3.03,4.93c-0.73,1.88-1.09,3.89-1.09,6.03v0.12c0,2.14,0.37,4.16,1.09,6.06c0.73,1.91,1.75,3.56,3.06,4.96
	c1.31,1.4,2.89,2.53,4.72,3.36C487.36,75.35,489.35,75.77,491.53,75.77"/>
<path class="st0" d="M353.47,23.88c-0.22,0-0.5,0-0.79-0.03v2.65c0.55,0.03,1.12,0.12,1.6,0.22v1.48h-5.56v-1.48
	c0.48-0.09,1.04-0.19,1.59-0.22v-8.94c-0.55-0.04-1.12-0.13-1.59-0.22v-1.48h1.43c0.58,0,2.19-0.07,3.47-0.07
	c3.01,0,4.68,1.41,4.68,3.82C358.29,22,356.47,23.88,353.47,23.88 M353.5,17.73c-0.29,0-0.55,0-0.83,0.01v4.12
	c0.24,0.04,0.48,0.06,0.69,0.06c1.45-0.02,2.46-0.83,2.46-2.16C355.83,18.51,355.13,17.73,353.5,17.73 M364.96,28.39
	c-3.77,0-5.61-2.39-5.61-6.21c0-4.08,2.72-6.53,6.03-6.53c3.29,0,5.62,1.98,5.62,6.2C371,25.92,368.31,28.39,364.96,28.39
	 M365.17,17.8c-1.7,0-3.27,1.35-3.27,4.13c0,2.61,1.03,4.32,3.24,4.32c1.61,0,3.32-1.24,3.32-4.2
	C368.45,19.29,367.29,17.8,365.17,17.8 M379.15,28.19l-3.02-5.09h-0.33v3.4c0.35,0.03,0.75,0.09,1.12,0.2v1.5h-5.08v-1.48
	c0.48-0.09,1.04-0.19,1.59-0.22v-8.94c-0.55-0.04-1.11-0.13-1.59-0.22v-1.48h1.42c0.48,0,2.19-0.07,3.71-0.07
	c2.73,0,4.48,0.95,4.48,3.47c0,1.72-1.17,2.99-2.91,3.35c0.22,0.29,0.43,0.6,0.62,0.89l1.9,2.98c0.35,0.05,0.78,0.12,1.21,0.2v1.51
	H379.15z M376.71,17.73c-0.33,0-0.67,0.01-0.91,0.05v3.57c0.17,0.02,0.48,0.03,0.84,0.03c1.45,0,2.31-0.73,2.31-1.88
	C378.94,18.3,378.23,17.73,376.71,17.73 M390.71,19.33c-0.08-0.56-0.18-1.06-0.21-1.52h-1.9v8.69c0.55,0.03,1.11,0.12,1.59,0.22
	v1.48h-5.56v-1.48c0.48-0.09,1.04-0.19,1.59-0.22v-8.69h-1.88c-0.04,0.46-0.13,0.96-0.21,1.52h-1.76v-3.47h10.1v3.47H390.71z
	 M404.47,17.56v5.9c0,3.27-1.81,4.93-5.1,4.93c-3.9,0-4.77-2.12-4.77-4.47v-6.36c-0.41-0.04-0.81-0.11-1.16-0.2v-1.5h4.84v1.5
	c-0.42,0.11-0.89,0.16-1.32,0.2v6.22c0,1.56,0.5,2.65,2.54,2.65c1.82,0,2.61-0.77,2.61-2.87v-6c-0.44-0.04-0.91-0.09-1.31-0.2v-1.5
	h4.79v1.5C405.25,17.45,404.87,17.52,404.47,17.56 M416.73,23.42v4.19c-1.23,0.49-2.76,0.76-4.26,0.76c-3.89,0-6.2-2.31-6.2-6.07
	c0-3.93,2.63-6.64,6.84-6.64c1.15,0,2.3,0.16,3.44,0.46v3.31h-1.83c-0.1-0.53-0.16-1-0.22-1.48c-0.49-0.13-1.03-0.18-1.52-0.18
	c-2.39,0-4.13,1.52-4.13,4.31c0,2.62,1.43,4.15,3.93,4.15c0.58,0,1.09-0.07,1.56-0.22v-2.57c-0.54-0.04-1.11-0.13-1.56-0.24v-1.48
	h4.97v1.52C417.43,23.31,417.08,23.37,416.73,23.42 M425.31,28.19v-1.48c0.39-0.08,0.88-0.17,1.3-0.2l-0.53-1.46h-4.5l-0.51,1.46
	c0.42,0.03,0.92,0.12,1.3,0.2v1.48h-4.64v-1.48c0.3-0.09,0.66-0.17,0.97-0.19l3.76-10.68h2.91l3.84,10.68
	c0.31,0.02,0.68,0.09,0.97,0.19v1.48H425.31z M424.4,20.17c-0.23-0.68-0.41-1.26-0.56-1.94h-0.02c-0.15,0.62-0.33,1.34-0.58,2.02
	l-1.06,2.95h3.33L424.4,20.17z M430.73,28.19v-1.48c0.48-0.09,1.05-0.19,1.59-0.22v-8.94c-0.55-0.04-1.12-0.13-1.59-0.22v-1.48h5.56
	v1.48c-0.48,0.09-1.04,0.18-1.6,0.22v8.68h2.36c0.04-0.44,0.13-0.97,0.22-1.51h1.75v3.47H430.73z"/>
<path class="st0" d="M311.71,16.17c-10.88,4.3-17.65,15.66-17.65,33.14v26.54c0,0,2.23-17.06,17.65-21.97V16.17z"/>
<path class="st0" d="M316.97,56.5c-6.32,1.26-15.58,6.33-18.31,13.47c13.57-16.48,41.28-0.55,42.51-31.55
	c0.39-9.82,0.43-21.9,0.43-21.9c-14.47,0.81-24.62,4.67-24.62,4.67V56.5z"/>
<path class="st0" d="M315.21,65.45c0,0-14.73,1.19-15.98,9.6c-0.99,6.57,15.98,6.75,15.98,6.75V65.45z"/>
<path class="st0" d="M669.87,27.52h1.59v4.26c0,0.68,0.02,1.12,0.06,1.32c0.07,0.32,0.23,0.58,0.49,0.78
	c0.26,0.2,0.6,0.29,1.05,0.29c0.45,0,0.79-0.09,1.02-0.28c0.23-0.18,0.37-0.41,0.41-0.68c0.05-0.27,0.07-0.71,0.07-1.34v-4.35h1.59
	v4.14c0,0.94-0.04,1.61-0.13,2c-0.09,0.39-0.25,0.72-0.47,0.99c-0.23,0.27-0.54,0.48-0.93,0.64c-0.39,0.16-0.89,0.24-1.51,0.24
	c-0.75,0-1.32-0.09-1.71-0.26c-0.39-0.17-0.7-0.4-0.92-0.68c-0.23-0.28-0.37-0.57-0.45-0.87c-0.1-0.45-0.16-1.12-0.16-2V27.52z"/>
<polygon class="st0" points="677.84,35.39 677.84,27.52 679.39,27.52 682.61,32.78 682.61,27.52 684.09,27.52 684.09,35.39
	682.49,35.39 679.32,30.26 679.32,35.39 "/>
<rect x="685.72" y="27.52" class="st0" width="1.59" height="7.87"/>
<path class="st0" d="M695.92,35.39h-1.73l-0.69-1.79h-3.15l-0.65,1.79h-1.69l3.07-7.87h1.68L695.92,35.39z M690.68,27.08h-0.69
	c0-0.08-0.01-0.15-0.01-0.19c0-0.38,0.09-0.66,0.28-0.87c0.18-0.2,0.42-0.3,0.7-0.3c0.12,0,0.24,0.01,0.35,0.04
	c0.11,0.03,0.3,0.1,0.59,0.23c0.29,0.13,0.51,0.19,0.67,0.19c0.11,0,0.21-0.04,0.29-0.11c0.08-0.07,0.13-0.19,0.15-0.36h0.7
	c0,0.48-0.09,0.83-0.27,1.04c-0.18,0.21-0.41,0.31-0.68,0.31c-0.12,0-0.24-0.01-0.36-0.04c-0.08-0.02-0.29-0.09-0.62-0.22
	c-0.33-0.13-0.57-0.19-0.72-0.19c-0.12,0-0.2,0.03-0.27,0.1C690.72,26.79,690.68,26.91,690.68,27.08 M692.99,32.28l-1.08-2.92
	l-1.06,2.92H692.99z"/>
<path class="st0" d="M696.44,31.5c0-0.8,0.12-1.48,0.36-2.02c0.18-0.4,0.42-0.76,0.73-1.08c0.31-0.32,0.65-0.55,1.02-0.71
	c0.49-0.21,1.05-0.31,1.7-0.31c1.16,0,2.09,0.36,2.78,1.08c0.7,0.72,1.04,1.72,1.04,3c0,1.27-0.35,2.26-1.04,2.98
	c-0.69,0.72-1.61,1.08-2.77,1.08c-1.17,0-2.1-0.36-2.79-1.07C696.79,33.74,696.44,32.76,696.44,31.5 M698.08,31.45
	c0,0.89,0.21,1.57,0.62,2.03c0.41,0.46,0.93,0.69,1.57,0.69c0.63,0,1.15-0.23,1.56-0.69c0.41-0.46,0.61-1.14,0.61-2.05
	c0-0.9-0.2-1.58-0.59-2.02c-0.4-0.44-0.92-0.67-1.58-0.67c-0.66,0-1.18,0.22-1.58,0.67C698.28,29.87,698.08,30.54,698.08,31.45"/>
<polygon class="st0" points="708.37,35.39 708.37,27.52 714.21,27.52 714.21,28.85 709.96,28.85 709.96,30.6 713.91,30.6
	713.91,31.92 709.96,31.92 709.96,34.06 714.36,34.06 714.36,35.39 "/>
<path class="st0" d="M715.69,27.52h1.59v4.26c0,0.68,0.02,1.12,0.06,1.32c0.07,0.32,0.23,0.58,0.49,0.78
	c0.26,0.2,0.6,0.29,1.05,0.29c0.45,0,0.79-0.09,1.02-0.28c0.23-0.18,0.37-0.41,0.41-0.68c0.05-0.27,0.07-0.71,0.07-1.34v-4.35h1.59
	v4.14c0,0.94-0.04,1.61-0.13,2c-0.09,0.39-0.25,0.72-0.47,0.99c-0.23,0.27-0.54,0.48-0.93,0.64c-0.39,0.16-0.89,0.24-1.51,0.24
	c-0.75,0-1.32-0.09-1.71-0.26c-0.39-0.17-0.7-0.4-0.92-0.68c-0.23-0.28-0.37-0.57-0.45-0.87c-0.1-0.45-0.16-1.12-0.16-2V27.52z"/>
<path class="st0" d="M723.65,35.39v-7.87H727c0.84,0,1.45,0.07,1.83,0.21c0.38,0.14,0.69,0.39,0.92,0.75
	c0.23,0.36,0.34,0.77,0.34,1.24c0,0.59-0.17,1.08-0.52,1.46c-0.35,0.38-0.87,0.63-1.56,0.73c0.34,0.2,0.63,0.42,0.85,0.66
	c0.22,0.24,0.53,0.67,0.9,1.28l0.96,1.53h-1.9l-1.15-1.71c-0.41-0.61-0.69-1-0.84-1.16c-0.15-0.16-0.31-0.27-0.48-0.33
	c-0.17-0.06-0.43-0.09-0.8-0.09h-0.32v3.29H723.65z M725.24,30.85h1.18c0.76,0,1.24-0.03,1.43-0.1c0.19-0.06,0.34-0.17,0.45-0.33
	c0.11-0.16,0.16-0.35,0.16-0.59c0-0.26-0.07-0.48-0.21-0.64c-0.14-0.16-0.34-0.27-0.6-0.31c-0.13-0.02-0.51-0.03-1.16-0.03h-1.24
	V30.85z"/>
<path class="st0" d="M731.26,31.5c0-0.8,0.12-1.48,0.36-2.02c0.18-0.4,0.42-0.76,0.73-1.08c0.31-0.32,0.65-0.55,1.02-0.71
	c0.49-0.21,1.05-0.31,1.7-0.31c1.16,0,2.09,0.36,2.78,1.08c0.7,0.72,1.04,1.72,1.04,3c0,1.27-0.35,2.26-1.04,2.98
	c-0.69,0.72-1.62,1.08-2.77,1.08c-1.17,0-2.1-0.36-2.79-1.07C731.61,33.74,731.26,32.76,731.26,31.5 M732.9,31.45
	c0,0.89,0.21,1.57,0.62,2.03c0.41,0.46,0.93,0.69,1.57,0.69c0.63,0,1.15-0.23,1.56-0.69c0.41-0.46,0.61-1.14,0.61-2.05
	c0-0.9-0.2-1.58-0.59-2.02c-0.4-0.44-0.92-0.67-1.58-0.67c-0.66,0-1.18,0.22-1.58,0.67C733.1,29.87,732.9,30.54,732.9,31.45"/>
<path class="st0" d="M740.14,35.39v-7.87h2.55c0.97,0,1.6,0.04,1.89,0.12c0.45,0.12,0.83,0.38,1.13,0.77
	c0.3,0.4,0.46,0.91,0.46,1.53c0,0.48-0.09,0.89-0.26,1.22c-0.17,0.33-0.4,0.59-0.67,0.78c-0.27,0.19-0.54,0.31-0.82,0.37
	c-0.38,0.08-0.93,0.11-1.65,0.11h-1.04v2.97H740.14z M741.73,28.85v2.23h0.87c0.63,0,1.05-0.04,1.26-0.12
	c0.21-0.08,0.38-0.21,0.5-0.39c0.12-0.18,0.18-0.38,0.18-0.61c0-0.29-0.08-0.52-0.25-0.71c-0.17-0.19-0.38-0.3-0.64-0.35
	c-0.19-0.04-0.57-0.05-1.14-0.05H741.73z"/>
<polygon class="st0" points="747.47,35.39 747.47,27.52 753.31,27.52 753.31,28.85 749.07,28.85 749.07,30.6 753.02,30.6
	753.02,31.92 749.07,31.92 749.07,34.06 753.46,34.06 753.46,35.39 "/>
<rect x="754.76" y="27.52" class="st0" width="1.59" height="7.87"/>
<path class="st0" d="M764.96,35.39h-1.73l-0.69-1.79h-3.15l-0.65,1.79h-1.69l3.07-7.87h1.68L764.96,35.39z M762.04,32.28l-1.08-2.92
	l-1.06,2.92H762.04z"/>
<polygon class="st0" points="669.99,61.44 669.99,53.57 675.3,53.57 675.3,54.5 671.03,54.5 671.03,56.94 674.72,56.94
	674.72,57.87 671.03,57.87 671.03,61.44 "/>
<path class="st0" d="M680.26,61.44v-0.84c-0.44,0.64-1.05,0.97-1.81,0.97c-0.34,0-0.65-0.07-0.94-0.19
	c-0.29-0.13-0.51-0.29-0.65-0.49c-0.14-0.2-0.24-0.43-0.3-0.72c-0.04-0.19-0.06-0.49-0.06-0.9v-3.53h0.97v3.16
	c0,0.5,0.02,0.84,0.06,1.02c0.06,0.25,0.19,0.45,0.39,0.6c0.2,0.15,0.44,0.22,0.73,0.22c0.29,0,0.56-0.07,0.82-0.22
	c0.25-0.15,0.43-0.35,0.54-0.61c0.11-0.26,0.16-0.63,0.16-1.11v-3.05h0.97v5.7H680.26z"/>
<path class="st0" d="M682.64,61.44v-5.7h0.87v0.81c0.42-0.63,1.02-0.94,1.82-0.94c0.34,0,0.66,0.06,0.95,0.18
	c0.29,0.12,0.5,0.29,0.65,0.49c0.14,0.2,0.24,0.44,0.3,0.71c0.04,0.18,0.05,0.49,0.05,0.94v3.51h-0.97v-3.47
	c0-0.39-0.04-0.69-0.11-0.88c-0.08-0.2-0.21-0.35-0.4-0.47c-0.19-0.12-0.42-0.17-0.67-0.17c-0.41,0-0.77,0.13-1.07,0.39
	c-0.3,0.26-0.45,0.76-0.45,1.49v3.11H682.64z"/>
<path class="st0" d="M692.46,61.44v-0.72c-0.36,0.57-0.89,0.85-1.59,0.85c-0.45,0-0.87-0.13-1.25-0.38
	c-0.38-0.25-0.68-0.6-0.89-1.05c-0.21-0.45-0.31-0.97-0.31-1.55c0-0.57,0.09-1.09,0.28-1.55c0.19-0.46,0.48-0.82,0.85-1.07
	c0.38-0.25,0.8-0.37,1.27-0.37c0.34,0,0.65,0.07,0.92,0.22c0.27,0.15,0.49,0.33,0.65,0.57v-2.82h0.96v7.87H692.46z M689.4,58.6
	c0,0.73,0.15,1.28,0.46,1.64c0.31,0.36,0.67,0.54,1.09,0.54c0.42,0,0.78-0.17,1.08-0.52s0.44-0.87,0.44-1.58
	c0-0.78-0.15-1.35-0.45-1.72c-0.3-0.37-0.67-0.55-1.11-0.55c-0.43,0-0.79,0.18-1.08,0.53C689.54,57.29,689.4,57.84,689.4,58.6"/>
<path class="st0" d="M694.51,58.59c0-1.06,0.29-1.84,0.88-2.35c0.49-0.42,1.09-0.63,1.79-0.63c0.78,0,1.42,0.26,1.92,0.77
	c0.5,0.51,0.75,1.22,0.75,2.13c0,0.73-0.11,1.31-0.33,1.73c-0.22,0.42-0.54,0.75-0.96,0.98c-0.42,0.23-0.88,0.35-1.38,0.35
	c-0.8,0-1.44-0.26-1.94-0.77C694.76,60.29,694.51,59.55,694.51,58.59 M695.5,58.59c0,0.73,0.16,1.28,0.48,1.64
	c0.32,0.36,0.72,0.55,1.2,0.55c0.48,0,0.88-0.18,1.2-0.55c0.32-0.37,0.48-0.92,0.48-1.67c0-0.71-0.16-1.24-0.48-1.6
	c-0.32-0.36-0.72-0.54-1.19-0.54c-0.48,0-0.88,0.18-1.2,0.54C695.66,57.32,695.5,57.86,695.5,58.59"/>
<path class="st0" d="M700.6,59.74l0.96-0.15c0.05,0.38,0.2,0.68,0.45,0.88c0.25,0.21,0.59,0.31,1.03,0.31
	c0.44,0,0.77-0.09,0.99-0.27c0.21-0.18,0.32-0.39,0.32-0.64c0-0.22-0.1-0.39-0.29-0.52c-0.13-0.09-0.46-0.19-0.99-0.33
	c-0.71-0.18-1.2-0.33-1.48-0.46c-0.27-0.13-0.48-0.31-0.62-0.54c-0.14-0.23-0.21-0.49-0.21-0.76c0-0.25,0.06-0.49,0.18-0.71
	c0.12-0.22,0.27-0.4,0.48-0.54c0.15-0.11,0.35-0.21,0.61-0.28c0.26-0.08,0.54-0.12,0.84-0.12c0.45,0,0.84,0.07,1.18,0.19
	c0.34,0.13,0.59,0.3,0.75,0.52c0.16,0.22,0.27,0.51,0.33,0.88l-0.95,0.13c-0.04-0.29-0.17-0.52-0.37-0.69
	c-0.21-0.17-0.5-0.25-0.87-0.25c-0.44,0-0.76,0.07-0.95,0.22c-0.19,0.15-0.28,0.32-0.28,0.51c0,0.13,0.04,0.24,0.12,0.34
	c0.08,0.1,0.2,0.19,0.37,0.26c0.1,0.04,0.38,0.12,0.85,0.25c0.68,0.18,1.16,0.33,1.43,0.45c0.27,0.12,0.48,0.29,0.64,0.51
	c0.15,0.22,0.23,0.5,0.23,0.83c0,0.32-0.09,0.62-0.28,0.91c-0.19,0.29-0.46,0.5-0.81,0.66c-0.36,0.16-0.75,0.23-1.2,0.23
	c-0.74,0-1.3-0.15-1.69-0.46C700.95,60.8,700.71,60.35,700.6,59.74"/>
<polygon class="st0" points="709.68,61.44 709.68,53.57 715.38,53.57 715.38,54.5 710.72,54.5 710.72,56.91 715.08,56.91
	715.08,57.83 710.72,57.83 710.72,60.51 715.56,60.51 715.56,61.44 "/>
<path class="st0" d="M720.61,61.44v-0.84c-0.44,0.64-1.05,0.97-1.81,0.97c-0.34,0-0.65-0.07-0.94-0.19
	c-0.29-0.13-0.51-0.29-0.65-0.49c-0.14-0.2-0.24-0.43-0.3-0.72c-0.04-0.19-0.06-0.49-0.06-0.9v-3.53h0.97v3.16
	c0,0.5,0.02,0.84,0.06,1.02c0.06,0.25,0.19,0.45,0.39,0.6c0.2,0.15,0.44,0.22,0.73,0.22c0.29,0,0.56-0.07,0.82-0.22
	c0.25-0.15,0.43-0.35,0.54-0.61c0.11-0.26,0.16-0.63,0.16-1.11v-3.05h0.97v5.7H720.61z"/>
<path class="st0" d="M722.98,61.44v-5.7h0.87v0.86c0.22-0.4,0.43-0.67,0.61-0.8c0.19-0.13,0.4-0.19,0.62-0.19
	c0.33,0,0.66,0.1,0.99,0.31l-0.33,0.9c-0.24-0.14-0.47-0.21-0.71-0.21c-0.21,0-0.4,0.06-0.57,0.19c-0.17,0.13-0.29,0.3-0.36,0.53
	c-0.11,0.34-0.16,0.72-0.16,1.13v2.99H722.98z"/>
<path class="st0" d="M726.29,58.59c0-1.06,0.29-1.84,0.88-2.35c0.49-0.42,1.09-0.63,1.79-0.63c0.78,0,1.42,0.26,1.92,0.77
	c0.5,0.51,0.75,1.22,0.75,2.13c0,0.73-0.11,1.31-0.33,1.73c-0.22,0.42-0.54,0.75-0.96,0.98c-0.42,0.23-0.88,0.35-1.38,0.35
	c-0.8,0-1.44-0.26-1.94-0.77C726.54,60.29,726.29,59.55,726.29,58.59 M727.28,58.59c0,0.73,0.16,1.28,0.48,1.64
	c0.32,0.36,0.72,0.55,1.2,0.55c0.48,0,0.88-0.18,1.2-0.55c0.32-0.37,0.48-0.92,0.48-1.67c0-0.71-0.16-1.24-0.48-1.6
	c-0.32-0.36-0.72-0.54-1.19-0.54c-0.48,0-0.88,0.18-1.2,0.54C727.44,57.32,727.28,57.86,727.28,58.59"/>
<path class="st0" d="M732.76,63.63v-7.89h0.88v0.74c0.21-0.29,0.44-0.51,0.7-0.65c0.26-0.15,0.58-0.22,0.95-0.22
	c0.49,0,0.92,0.12,1.29,0.38c0.37,0.25,0.65,0.6,0.84,1.06c0.19,0.46,0.29,0.96,0.29,1.5c0,0.58-0.1,1.11-0.31,1.58
	c-0.21,0.47-0.51,0.83-0.91,1.08c-0.4,0.25-0.82,0.37-1.26,0.37c-0.32,0-0.61-0.07-0.87-0.2c-0.26-0.14-0.47-0.31-0.63-0.52v2.78
	H732.76z M733.64,58.62c0,0.73,0.15,1.28,0.45,1.63c0.3,0.35,0.66,0.53,1.08,0.53c0.43,0,0.8-0.18,1.1-0.54
	c0.31-0.36,0.46-0.93,0.46-1.69c0-0.73-0.15-1.27-0.45-1.63c-0.3-0.36-0.66-0.54-1.07-0.54c-0.41,0-0.78,0.19-1.09,0.58
	C733.8,57.33,733.64,57.89,733.64,58.62"/>
<path class="st0" d="M742.78,59.61l1,0.12c-0.16,0.58-0.45,1.04-0.88,1.36c-0.43,0.32-0.97,0.48-1.63,0.48
	c-0.83,0-1.5-0.26-1.98-0.77c-0.49-0.51-0.73-1.23-0.73-2.16c0-0.96,0.25-1.7,0.74-2.23c0.5-0.53,1.13-0.79,1.92-0.79
	c0.76,0,1.39,0.26,1.87,0.78c0.48,0.52,0.72,1.25,0.72,2.19c0,0.06,0,0.14,0,0.26h-4.25c0.04,0.63,0.21,1.11,0.53,1.44
	c0.32,0.33,0.71,0.5,1.19,0.5c0.35,0,0.66-0.09,0.91-0.28C742.44,60.31,742.64,60.01,742.78,59.61 M739.61,58.04h3.18
	c-0.04-0.48-0.16-0.84-0.37-1.08c-0.31-0.37-0.71-0.56-1.2-0.56c-0.44,0-0.82,0.15-1.12,0.45
	C739.81,57.15,739.64,57.55,739.61,58.04"/>
<path class="st0" d="M748.73,61.44v-0.84c-0.44,0.64-1.05,0.97-1.81,0.97c-0.34,0-0.65-0.07-0.94-0.19
	c-0.29-0.13-0.51-0.29-0.65-0.49c-0.14-0.2-0.24-0.43-0.3-0.72c-0.04-0.19-0.06-0.49-0.06-0.9v-3.53h0.97v3.16
	c0,0.5,0.02,0.84,0.06,1.02c0.06,0.25,0.19,0.45,0.39,0.6c0.2,0.15,0.44,0.22,0.73,0.22c0.29,0,0.56-0.07,0.82-0.22
	c0.25-0.15,0.43-0.35,0.54-0.61c0.11-0.26,0.16-0.63,0.16-1.11v-3.05h0.97v5.7H748.73z"/>
<path class="st0" d="M750.72,59.74l0.96-0.15c0.05,0.38,0.2,0.68,0.45,0.88c0.25,0.21,0.59,0.31,1.03,0.31
	c0.44,0,0.77-0.09,0.99-0.27c0.21-0.18,0.32-0.39,0.32-0.64c0-0.22-0.1-0.39-0.29-0.52c-0.13-0.09-0.46-0.19-0.99-0.33
	c-0.71-0.18-1.2-0.33-1.48-0.46c-0.27-0.13-0.48-0.31-0.62-0.54c-0.14-0.23-0.21-0.49-0.21-0.76c0-0.25,0.06-0.49,0.18-0.71
	c0.12-0.22,0.27-0.4,0.48-0.54c0.15-0.11,0.35-0.21,0.61-0.28c0.26-0.08,0.54-0.12,0.83-0.12c0.45,0,0.84,0.07,1.18,0.19
	c0.34,0.13,0.59,0.3,0.75,0.52c0.16,0.22,0.27,0.51,0.33,0.88l-0.95,0.13c-0.04-0.29-0.17-0.52-0.37-0.69
	c-0.21-0.17-0.5-0.25-0.87-0.25c-0.44,0-0.76,0.07-0.95,0.22c-0.19,0.15-0.28,0.32-0.28,0.51c0,0.13,0.04,0.24,0.12,0.34
	c0.08,0.1,0.2,0.19,0.37,0.26c0.1,0.04,0.38,0.12,0.85,0.25c0.68,0.18,1.16,0.33,1.43,0.45c0.27,0.12,0.48,0.29,0.64,0.51
	c0.15,0.22,0.23,0.5,0.23,0.83c0,0.32-0.09,0.62-0.28,0.91c-0.19,0.29-0.46,0.5-0.81,0.66c-0.36,0.16-0.75,0.23-1.2,0.23
	c-0.74,0-1.3-0.15-1.69-0.46C751.08,60.8,750.83,60.35,750.72,59.74"/>
<polygon class="st0" points="669.95,74.64 669.95,66.77 675.64,66.77 675.64,67.7 670.99,67.7 670.99,70.11 675.35,70.11
	675.35,71.03 670.99,71.03 670.99,73.71 675.83,73.71 675.83,74.64 "/>
<path class="st0" d="M676.76,72.94l0.96-0.15c0.05,0.38,0.2,0.68,0.45,0.88c0.25,0.21,0.59,0.31,1.03,0.31
	c0.44,0,0.77-0.09,0.99-0.27c0.21-0.18,0.32-0.39,0.32-0.64c0-0.22-0.1-0.39-0.29-0.52c-0.13-0.09-0.46-0.2-0.99-0.33
	c-0.71-0.18-1.2-0.33-1.48-0.46c-0.27-0.13-0.48-0.31-0.62-0.54c-0.14-0.23-0.21-0.49-0.21-0.76c0-0.25,0.06-0.49,0.18-0.71
	c0.12-0.22,0.27-0.4,0.48-0.54c0.15-0.11,0.35-0.21,0.61-0.28c0.26-0.08,0.54-0.12,0.84-0.12c0.45,0,0.84,0.07,1.18,0.19
	c0.34,0.13,0.59,0.3,0.75,0.52c0.16,0.22,0.27,0.51,0.33,0.88l-0.95,0.13c-0.04-0.29-0.17-0.52-0.37-0.69
	c-0.21-0.17-0.5-0.25-0.87-0.25c-0.44,0-0.76,0.07-0.95,0.22c-0.19,0.15-0.28,0.32-0.28,0.51c0,0.13,0.04,0.24,0.12,0.34
	c0.08,0.1,0.2,0.19,0.37,0.26c0.1,0.04,0.38,0.12,0.85,0.25c0.68,0.18,1.16,0.33,1.43,0.45c0.27,0.12,0.48,0.29,0.64,0.51
	c0.15,0.22,0.23,0.5,0.23,0.83c0,0.32-0.09,0.62-0.28,0.91c-0.19,0.29-0.46,0.5-0.81,0.66c-0.36,0.16-0.75,0.23-1.2,0.23
	c-0.74,0-1.3-0.15-1.69-0.46C677.11,74,676.86,73.54,676.76,72.94"/>
<path class="st0" d="M684.75,73.77l0.14,0.85c-0.27,0.06-0.52,0.08-0.73,0.08c-0.35,0-0.62-0.05-0.81-0.17
	c-0.19-0.11-0.33-0.26-0.41-0.44c-0.08-0.18-0.12-0.56-0.12-1.14v-3.28h-0.71v-0.75h0.71v-1.41l0.96-0.58v1.99h0.97v0.75h-0.97v3.33
	c0,0.28,0.02,0.45,0.05,0.53c0.03,0.08,0.09,0.14,0.17,0.19c0.08,0.05,0.19,0.07,0.33,0.07C684.43,73.81,684.57,73.8,684.75,73.77"
	/>
<path class="st0" d="M685.68,74.64v-5.7h0.87v0.86c0.22-0.4,0.43-0.67,0.61-0.8c0.19-0.13,0.4-0.19,0.62-0.19
	c0.33,0,0.66,0.1,0.99,0.31l-0.33,0.9c-0.24-0.14-0.47-0.21-0.71-0.21c-0.21,0-0.4,0.06-0.57,0.19c-0.17,0.13-0.29,0.3-0.36,0.53
	c-0.11,0.34-0.16,0.72-0.16,1.13v2.99H685.68z"/>
<path class="st0" d="M693.09,74.64V73.8c-0.44,0.64-1.05,0.97-1.81,0.97c-0.34,0-0.65-0.07-0.94-0.19
	c-0.29-0.13-0.51-0.29-0.65-0.49c-0.14-0.2-0.24-0.43-0.3-0.72c-0.04-0.19-0.06-0.49-0.06-0.9v-3.53h0.97v3.16
	c0,0.5,0.02,0.84,0.06,1.02c0.06,0.25,0.19,0.45,0.39,0.6c0.2,0.15,0.44,0.22,0.73,0.22c0.29,0,0.56-0.07,0.82-0.22
	c0.25-0.15,0.43-0.35,0.54-0.61c0.11-0.26,0.16-0.63,0.16-1.11v-3.05h0.97v5.7H693.09z"/>
<path class="st0" d="M697.58,73.77l0.14,0.85c-0.27,0.06-0.52,0.08-0.73,0.08c-0.35,0-0.62-0.05-0.81-0.17
	c-0.19-0.11-0.33-0.26-0.41-0.44c-0.08-0.18-0.12-0.56-0.12-1.14v-3.28h-0.71v-0.75h0.71v-1.41l0.96-0.58v1.99h0.97v0.75h-0.97v3.33
	c0,0.28,0.02,0.45,0.05,0.53c0.03,0.08,0.09,0.14,0.17,0.19c0.08,0.05,0.19,0.07,0.33,0.07C697.27,73.81,697.41,73.8,697.58,73.77"
	/>
<path class="st0" d="M702.26,74.64V73.8c-0.44,0.64-1.05,0.97-1.81,0.97c-0.34,0-0.65-0.07-0.94-0.19
	c-0.29-0.13-0.51-0.29-0.65-0.49c-0.14-0.2-0.24-0.43-0.3-0.72c-0.04-0.19-0.06-0.49-0.06-0.9v-3.53h0.97v3.16
	c0,0.5,0.02,0.84,0.06,1.02c0.06,0.25,0.19,0.45,0.39,0.6c0.2,0.15,0.44,0.22,0.73,0.22c0.29,0,0.56-0.07,0.82-0.22
	c0.25-0.15,0.43-0.35,0.54-0.61c0.11-0.26,0.16-0.63,0.16-1.11v-3.05h0.97v5.7H702.26z"/>
<path class="st0" d="M704.63,74.64v-5.7h0.87v0.86c0.22-0.4,0.43-0.67,0.61-0.8c0.19-0.13,0.4-0.19,0.62-0.19
	c0.33,0,0.66,0.1,0.99,0.31l-0.33,0.9c-0.24-0.14-0.47-0.21-0.71-0.21c-0.21,0-0.4,0.06-0.57,0.19c-0.17,0.13-0.29,0.3-0.36,0.53
	c-0.11,0.34-0.16,0.72-0.16,1.13v2.99H704.63z"/>
<path class="st0" d="M712.02,73.93c-0.36,0.3-0.7,0.52-1.03,0.64c-0.33,0.12-0.69,0.19-1.07,0.19c-0.63,0-1.11-0.15-1.44-0.46
	c-0.34-0.31-0.5-0.7-0.5-1.17c0-0.28,0.06-0.53,0.19-0.77c0.13-0.23,0.29-0.42,0.5-0.55c0.21-0.14,0.44-0.25,0.69-0.32
	c0.19-0.05,0.48-0.1,0.86-0.14c0.78-0.09,1.36-0.2,1.72-0.33c0-0.13,0.01-0.22,0.01-0.25c0-0.39-0.09-0.67-0.28-0.83
	c-0.25-0.22-0.61-0.33-1.1-0.33c-0.46,0-0.79,0.08-1.01,0.24c-0.22,0.16-0.38,0.44-0.48,0.85l-0.95-0.13
	c0.09-0.41,0.23-0.73,0.42-0.98s0.48-0.44,0.85-0.57c0.37-0.13,0.8-0.2,1.29-0.2c0.49,0,0.88,0.06,1.19,0.17
	c0.31,0.11,0.53,0.26,0.67,0.43c0.14,0.17,0.24,0.39,0.3,0.66c0.03,0.17,0.05,0.46,0.05,0.89v1.29c0,0.9,0.02,1.47,0.06,1.7
	c0.04,0.24,0.12,0.47,0.24,0.69h-1.01C712.12,74.44,712.05,74.2,712.02,73.93 M711.95,71.78c-0.35,0.14-0.88,0.26-1.58,0.37
	c-0.4,0.06-0.68,0.12-0.84,0.19c-0.16,0.07-0.29,0.18-0.38,0.31c-0.09,0.14-0.13,0.29-0.13,0.46c0,0.26,0.1,0.47,0.29,0.64
	c0.2,0.17,0.48,0.26,0.86,0.26c0.37,0,0.7-0.08,0.99-0.24c0.29-0.16,0.5-0.38,0.64-0.67c0.1-0.22,0.16-0.54,0.16-0.97V71.78z"/>
<path class="st0" d="M714.42,66.77h0.97v1.11h-0.97V66.77z M714.42,68.94h0.97v5.7h-0.97V68.94z"/>
<path class="st0" d="M716.48,72.94l0.96-0.15c0.05,0.38,0.2,0.68,0.45,0.88c0.25,0.21,0.59,0.31,1.03,0.31
	c0.44,0,0.77-0.09,0.99-0.27c0.21-0.18,0.32-0.39,0.32-0.64c0-0.22-0.1-0.39-0.29-0.52c-0.13-0.09-0.46-0.2-0.99-0.33
	c-0.71-0.18-1.2-0.33-1.48-0.46c-0.27-0.13-0.48-0.31-0.62-0.54c-0.14-0.23-0.21-0.49-0.21-0.76c0-0.25,0.06-0.49,0.18-0.71
	c0.12-0.22,0.27-0.4,0.48-0.54c0.15-0.11,0.35-0.21,0.61-0.28c0.26-0.08,0.54-0.12,0.84-0.12c0.45,0,0.84,0.07,1.18,0.19
	c0.34,0.13,0.59,0.3,0.75,0.52c0.16,0.22,0.27,0.51,0.33,0.88l-0.95,0.13c-0.04-0.29-0.17-0.52-0.37-0.69
	c-0.21-0.17-0.5-0.25-0.87-0.25c-0.44,0-0.76,0.07-0.95,0.22c-0.19,0.15-0.28,0.32-0.28,0.51c0,0.13,0.04,0.24,0.12,0.34
	c0.08,0.1,0.2,0.19,0.37,0.26c0.1,0.04,0.38,0.12,0.85,0.25c0.68,0.18,1.16,0.33,1.43,0.45c0.27,0.12,0.48,0.29,0.64,0.51
	c0.15,0.22,0.23,0.5,0.23,0.83c0,0.32-0.09,0.62-0.28,0.91c-0.19,0.29-0.46,0.5-0.81,0.66c-0.36,0.16-0.75,0.23-1.2,0.23
	c-0.74,0-1.3-0.15-1.69-0.46C716.83,74,716.58,73.54,716.48,72.94"/>
<path class="st0" d="M729.32,72.8l1,0.12c-0.16,0.58-0.45,1.04-0.88,1.36c-0.43,0.32-0.97,0.48-1.63,0.48
	c-0.83,0-1.5-0.26-1.98-0.77c-0.49-0.51-0.73-1.23-0.73-2.16c0-0.96,0.25-1.7,0.74-2.23c0.5-0.53,1.13-0.79,1.92-0.79
	c0.76,0,1.39,0.26,1.87,0.78c0.48,0.52,0.72,1.25,0.72,2.19c0,0.06,0,0.14,0,0.26h-4.25c0.04,0.63,0.21,1.11,0.53,1.44
	s0.71,0.5,1.19,0.5c0.35,0,0.66-0.09,0.91-0.28C728.97,73.51,729.17,73.21,729.32,72.8 M726.15,71.24h3.18
	c-0.04-0.48-0.16-0.84-0.37-1.08c-0.31-0.37-0.71-0.56-1.2-0.56c-0.44,0-0.82,0.15-1.12,0.45
	C726.34,70.34,726.18,70.74,726.15,71.24"/>
<path class="st0" d="M738.29,74.64v-0.72c-0.36,0.57-0.89,0.85-1.59,0.85c-0.46,0-0.87-0.13-1.25-0.38
	c-0.38-0.25-0.68-0.6-0.89-1.05c-0.21-0.45-0.31-0.97-0.31-1.55c0-0.57,0.09-1.09,0.28-1.55c0.19-0.46,0.48-0.82,0.85-1.07
	c0.38-0.25,0.8-0.37,1.27-0.37c0.34,0,0.65,0.07,0.92,0.22c0.27,0.15,0.49,0.33,0.65,0.57v-2.82h0.96v7.87H738.29z M735.23,71.79
	c0,0.73,0.15,1.28,0.46,1.64c0.31,0.36,0.67,0.54,1.09,0.54c0.42,0,0.78-0.17,1.08-0.52c0.3-0.35,0.44-0.87,0.44-1.58
	c0-0.78-0.15-1.35-0.45-1.72c-0.3-0.37-0.67-0.55-1.11-0.55c-0.43,0-0.79,0.18-1.08,0.53C735.38,70.48,735.23,71.04,735.23,71.79"/>
<path class="st0" d="M744.6,72.8l1,0.12c-0.16,0.58-0.45,1.04-0.88,1.36c-0.43,0.32-0.97,0.48-1.63,0.48
	c-0.83,0-1.49-0.26-1.98-0.77c-0.49-0.51-0.73-1.23-0.73-2.16c0-0.96,0.25-1.7,0.74-2.23c0.5-0.53,1.13-0.79,1.92-0.79
	c0.76,0,1.39,0.26,1.87,0.78c0.48,0.52,0.72,1.25,0.72,2.19c0,0.06,0,0.14,0,0.26h-4.25c0.04,0.63,0.21,1.11,0.53,1.44
	c0.32,0.33,0.71,0.5,1.19,0.5c0.35,0,0.66-0.09,0.91-0.28C744.26,73.51,744.46,73.21,744.6,72.8 M741.43,71.24h3.18
	c-0.04-0.48-0.16-0.84-0.37-1.08c-0.31-0.37-0.71-0.56-1.2-0.56c-0.44,0-0.82,0.15-1.12,0.45
	C741.63,70.34,741.46,70.74,741.43,71.24"/>
<rect x="750.17" y="66.77" class="st0" width="1.04" height="7.87"/>
<path class="st0" d="M752.93,74.64v-5.7h0.87v0.81c0.42-0.63,1.02-0.94,1.82-0.94c0.34,0,0.66,0.06,0.95,0.18s0.5,0.29,0.65,0.49
	c0.14,0.2,0.24,0.44,0.3,0.71c0.04,0.18,0.05,0.49,0.05,0.94v3.51h-0.97v-3.47c0-0.39-0.04-0.69-0.11-0.88
	c-0.08-0.2-0.21-0.35-0.4-0.47c-0.19-0.12-0.42-0.17-0.67-0.17c-0.41,0-0.77,0.13-1.07,0.39c-0.3,0.26-0.45,0.76-0.45,1.49v3.11
	H752.93z"/>
<path class="st0" d="M760.62,74.64l-2.17-5.7h1.02l1.22,3.42c0.13,0.37,0.25,0.75,0.37,1.15c0.09-0.3,0.21-0.66,0.36-1.08l1.27-3.48
	h0.99l-2.16,5.7H760.62z"/>
<path class="st0" d="M768.44,72.8l1,0.12c-0.16,0.58-0.45,1.04-0.88,1.36c-0.43,0.32-0.97,0.48-1.63,0.48
	c-0.83,0-1.5-0.26-1.98-0.77c-0.49-0.51-0.73-1.23-0.73-2.16c0-0.96,0.25-1.7,0.74-2.23c0.5-0.53,1.13-0.79,1.92-0.79
	c0.76,0,1.39,0.26,1.87,0.78c0.48,0.52,0.72,1.25,0.72,2.19c0,0.06,0,0.14,0,0.26h-4.25c0.04,0.63,0.21,1.11,0.53,1.44
	c0.32,0.33,0.71,0.5,1.19,0.5c0.35,0,0.66-0.09,0.91-0.28C768.1,73.51,768.29,73.21,768.44,72.8 M765.27,71.24h3.18
	c-0.04-0.48-0.16-0.84-0.37-1.08c-0.31-0.37-0.71-0.56-1.2-0.56c-0.44,0-0.82,0.15-1.12,0.45C765.47,70.34,765.3,70.74,765.27,71.24
	"/>
<path class="st0" d="M770.27,72.94l0.96-0.15c0.05,0.38,0.2,0.68,0.45,0.88c0.25,0.21,0.59,0.31,1.03,0.31
	c0.44,0,0.77-0.09,0.99-0.27c0.21-0.18,0.32-0.39,0.32-0.64c0-0.22-0.1-0.39-0.29-0.52c-0.13-0.09-0.46-0.2-0.99-0.33
	c-0.71-0.18-1.2-0.33-1.48-0.46c-0.27-0.13-0.48-0.31-0.62-0.54c-0.14-0.23-0.21-0.49-0.21-0.76c0-0.25,0.06-0.49,0.18-0.71
	c0.12-0.22,0.27-0.4,0.48-0.54c0.15-0.11,0.35-0.21,0.61-0.28c0.26-0.08,0.54-0.12,0.83-0.12c0.45,0,0.84,0.07,1.18,0.19
	c0.34,0.13,0.59,0.3,0.75,0.52c0.16,0.22,0.27,0.51,0.33,0.88l-0.95,0.13c-0.04-0.29-0.17-0.52-0.37-0.69
	c-0.21-0.17-0.5-0.25-0.87-0.25c-0.44,0-0.76,0.07-0.95,0.22c-0.19,0.15-0.28,0.32-0.28,0.51c0,0.13,0.04,0.24,0.12,0.34
	c0.08,0.1,0.2,0.19,0.37,0.26c0.1,0.04,0.38,0.12,0.85,0.25c0.68,0.18,1.16,0.33,1.43,0.45c0.27,0.12,0.48,0.29,0.64,0.51
	c0.15,0.22,0.23,0.5,0.23,0.83c0,0.32-0.09,0.62-0.28,0.91c-0.19,0.29-0.46,0.5-0.81,0.66c-0.36,0.16-0.75,0.23-1.2,0.23
	c-0.74,0-1.3-0.15-1.69-0.46C770.62,74,770.37,73.54,770.27,72.94"/>
<path class="st0" d="M778.26,73.77l0.14,0.85c-0.27,0.06-0.52,0.08-0.73,0.08c-0.35,0-0.62-0.05-0.81-0.17
	c-0.19-0.11-0.33-0.26-0.41-0.44c-0.08-0.18-0.12-0.56-0.12-1.14v-3.28h-0.71v-0.75h0.71v-1.41l0.96-0.58v1.99h0.97v0.75h-0.97v3.33
	c0,0.28,0.02,0.45,0.05,0.53c0.03,0.08,0.09,0.14,0.17,0.19c0.08,0.05,0.19,0.07,0.33,0.07C777.95,73.81,778.09,73.8,778.26,73.77"
	/>
<path class="st0" d="M779.21,66.77h0.97v1.11h-0.97V66.77z M779.21,68.94h0.97v5.7h-0.97V68.94z"/>
<path class="st0" d="M781.65,74.64v-5.7h0.86v0.8c0.18-0.28,0.42-0.5,0.71-0.67c0.3-0.17,0.64-0.25,1.02-0.25
	c0.42,0,0.77,0.09,1.04,0.26c0.27,0.17,0.46,0.42,0.57,0.74c0.45-0.67,1.04-1,1.76-1c0.56,0,1,0.16,1.3,0.47
	c0.3,0.31,0.46,0.8,0.46,1.45v3.91h-0.96v-3.59c0-0.39-0.03-0.67-0.09-0.83c-0.06-0.17-0.18-0.31-0.34-0.41
	c-0.17-0.1-0.36-0.16-0.58-0.16c-0.4,0-0.73,0.13-1,0.4c-0.27,0.27-0.4,0.69-0.4,1.28v3.31h-0.96v-3.71c0-0.43-0.08-0.75-0.24-0.97
	c-0.16-0.21-0.42-0.32-0.77-0.32c-0.27,0-0.52,0.07-0.76,0.21c-0.23,0.14-0.4,0.35-0.5,0.63c-0.1,0.28-0.15,0.67-0.15,1.19v2.96
	H781.65z"/>
<path class="st0" d="M794.71,72.8l1,0.12c-0.16,0.58-0.45,1.04-0.88,1.36c-0.43,0.32-0.97,0.48-1.63,0.48
	c-0.83,0-1.5-0.26-1.98-0.77c-0.49-0.51-0.73-1.23-0.73-2.16c0-0.96,0.25-1.7,0.74-2.23c0.5-0.53,1.13-0.79,1.92-0.79
	c0.76,0,1.39,0.26,1.87,0.78c0.48,0.52,0.72,1.25,0.72,2.19c0,0.06,0,0.14,0,0.26h-4.25c0.04,0.63,0.21,1.11,0.53,1.44
	c0.32,0.33,0.71,0.5,1.19,0.5c0.35,0,0.66-0.09,0.91-0.28C794.37,73.51,794.57,73.21,794.71,72.8 M791.54,71.24h3.18
	c-0.04-0.48-0.16-0.84-0.37-1.08c-0.31-0.37-0.71-0.56-1.2-0.56c-0.44,0-0.82,0.15-1.12,0.45
	C791.74,70.34,791.57,70.74,791.54,71.24"/>
<path class="st0" d="M796.93,74.64v-5.7h0.87v0.81c0.42-0.63,1.02-0.94,1.82-0.94c0.34,0,0.66,0.06,0.95,0.18s0.5,0.29,0.65,0.49
	c0.14,0.2,0.24,0.44,0.3,0.71c0.04,0.18,0.05,0.49,0.05,0.94v3.51h-0.97v-3.47c0-0.39-0.04-0.69-0.11-0.88
	c-0.08-0.2-0.21-0.35-0.4-0.47c-0.19-0.12-0.42-0.17-0.67-0.17c-0.41,0-0.77,0.13-1.07,0.39c-0.3,0.26-0.45,0.76-0.45,1.49v3.11
	H796.93z"/>
<path class="st0" d="M805.15,73.77l0.14,0.85c-0.27,0.06-0.52,0.08-0.73,0.08c-0.35,0-0.62-0.05-0.81-0.17
	c-0.19-0.11-0.33-0.26-0.41-0.44c-0.08-0.18-0.12-0.56-0.12-1.14v-3.28h-0.71v-0.75h0.71v-1.41l0.96-0.58v1.99h0.97v0.75h-0.97v3.33
	c0,0.28,0.02,0.45,0.05,0.53c0.03,0.08,0.09,0.14,0.17,0.19c0.08,0.05,0.19,0.07,0.33,0.07C804.84,73.81,804.97,73.8,805.15,73.77"
	/>
<path class="st0" d="M805.74,71.79c0-1.06,0.29-1.84,0.88-2.35c0.49-0.42,1.09-0.63,1.79-0.63c0.78,0,1.42,0.26,1.92,0.77
	c0.5,0.51,0.75,1.22,0.75,2.13c0,0.73-0.11,1.31-0.33,1.73c-0.22,0.42-0.54,0.75-0.96,0.98c-0.42,0.23-0.88,0.35-1.38,0.35
	c-0.8,0-1.44-0.26-1.94-0.77C805.98,73.49,805.74,72.75,805.74,71.79 M806.73,71.79c0,0.73,0.16,1.28,0.48,1.64
	c0.32,0.36,0.72,0.54,1.2,0.54c0.48,0,0.88-0.18,1.2-0.55c0.32-0.37,0.48-0.92,0.48-1.67c0-0.71-0.16-1.24-0.48-1.6
	c-0.32-0.36-0.72-0.54-1.19-0.54c-0.48,0-0.88,0.18-1.2,0.54C806.89,70.51,806.73,71.06,806.73,71.79"/>
<rect x="559.3" y="15.67" class="st1" width="101.23" height="67.49"/>
<polygon class="st0" points="607.76,30.37 609.9,28.81 612.04,30.37 611.22,27.85 613.39,26.29 610.72,26.29 609.9,23.74
	609.08,26.3 606.41,26.29 608.58,27.85 "/>
<polygon class="st0" points="596.71,33.34 598.85,31.78 600.98,33.34 600.17,30.82 602.34,29.26 599.66,29.26 598.85,26.71
	598.03,29.27 595.35,29.26 597.52,30.82 "/>
<polygon class="st0" points="590.76,34.82 589.94,37.37 587.27,37.37 589.43,38.93 588.62,41.45 590.76,39.89 592.89,41.45
	592.08,38.93 594.25,37.37 591.57,37.37 "/>
<polygon class="st0" points="587.79,50.93 589.92,52.49 589.11,49.97 591.28,48.41 588.61,48.41 587.79,45.86 586.97,48.42
	584.3,48.41 586.47,49.97 585.65,52.49 "/>
<polygon class="st0" points="591.57,59.48 590.76,56.93 589.94,59.49 587.26,59.48 589.43,61.04 588.62,63.56 590.76,62
	592.89,63.56 592.08,61.04 594.25,59.48 "/>
<polygon class="st0" points="599.68,67.59 598.86,65.04 598.04,67.59 595.37,67.59 597.54,69.15 596.73,71.67 598.86,70.11
	601,71.67 600.19,69.15 602.35,67.59 "/>
<polygon class="st0" points="610.72,70.53 609.9,67.97 609.08,70.53 606.41,70.53 608.58,72.08 607.77,74.6 609.9,73.04
	612.04,74.6 611.22,72.08 613.4,70.53 "/>
<polygon class="st0" points="621.76,67.59 620.94,65.04 620.12,67.59 617.45,67.59 619.62,69.15 618.81,71.67 620.94,70.11
	623.08,71.67 622.27,69.15 624.44,67.59 "/>
<polygon class="st0" points="629.87,59.48 629.05,56.93 628.23,59.49 625.56,59.48 627.73,61.04 626.91,63.56 629.05,62
	631.18,63.56 630.37,61.04 632.54,59.48 "/>
<polygon class="st0" points="635.47,48.38 632.8,48.38 631.98,45.83 631.16,48.38 628.49,48.38 630.66,49.94 629.85,52.46
	631.98,50.9 634.12,52.46 633.3,49.94 "/>
<polygon class="st0" points="626.91,41.42 629.05,39.86 631.18,41.42 630.37,38.89 632.54,37.34 629.87,37.34 629.05,34.79
	628.23,37.34 625.56,37.34 627.73,38.89 "/>
<polygon class="st0" points="620.97,26.71 620.16,29.27 617.48,29.26 619.65,30.83 618.84,33.35 620.98,31.78 623.11,33.35
	622.3,30.83 624.47,29.26 621.79,29.26 "/>
<path class="st0" d="M14.6,16.79v37.59c23.06,5.57,44.69-28.49,63.31-21.63v-7.11C63.39,14.17,30.73,12.79,14.6,16.79"/>
<path class="st0" d="M77.9,82.04V44.46c-23.06-5.57-44.69,28.49-63.31,21.63v7.11C29.11,84.66,61.77,86.04,77.9,82.04"/>
<path class="st0" d="M97.73,71.63c0.02-1.17-0.34-2.05-1.07-2.63c-0.73-0.58-1.93-0.87-3.6-0.87c-0.69,0-1.38,0.06-2.07,0.17
	c-0.69,0.11-1.3,0.24-1.82,0.4c-0.1,0.03-0.18,0.07-0.24,0.12c-0.07,0.06-0.1,0.13-0.1,0.22v1.43c0,0.1,0.03,0.19,0.09,0.26
	c0.06,0.07,0.14,0.1,0.24,0.11h0.02h0.02c0.57-0.06,1.17-0.11,1.8-0.16c0.63-0.05,1.23-0.08,1.8-0.08c0.73,0,1.24,0.08,1.53,0.26
	c0.29,0.17,0.43,0.45,0.41,0.84c0.01,0.28-0.04,0.51-0.13,0.69c-0.09,0.18-0.27,0.37-0.55,0.58c-0.27,0.21-0.67,0.49-1.19,0.86
	l-1.69,1.19c-0.71,0.5-1.3,1.15-1.76,1.94c-0.47,0.79-0.71,1.7-0.72,2.71v1.87c0,0.1,0.04,0.19,0.11,0.26
	c0.07,0.07,0.16,0.1,0.26,0.11h8.15c0.1,0,0.19-0.04,0.26-0.11c0.07-0.07,0.11-0.16,0.11-0.26v-1.88c0-0.1-0.04-0.19-0.11-0.25
	c-0.07-0.06-0.16-0.1-0.26-0.1h-5.79v-0.07c0.01-0.63,0.26-1.17,0.75-1.65c0.48-0.47,1.12-0.96,1.91-1.47l1.56-1.04
	c0.68-0.45,1.2-0.95,1.56-1.51C97.55,73.01,97.73,72.37,97.73,71.63"/>
<path class="st2" d="M109.95,75.9v-1.58c-0.01-2.18-0.45-3.76-1.3-4.74c-0.86-0.98-2.07-1.46-3.64-1.45
	c-1.57-0.02-2.78,0.46-3.63,1.45c-0.85,0.98-1.29,2.56-1.3,4.74v1.58c0.01,2.18,0.44,3.76,1.3,4.73c0.85,0.97,2.06,1.45,3.63,1.44
	c1.57,0.02,2.78-0.46,3.64-1.44C109.5,79.66,109.94,78.08,109.95,75.9 M106.82,75.9c0,0.95-0.09,1.69-0.24,2.21
	c-0.16,0.52-0.37,0.88-0.65,1.08c-0.27,0.2-0.58,0.29-0.92,0.28c-0.35,0.01-0.65-0.08-0.92-0.28c-0.27-0.2-0.48-0.56-0.64-1.08
	c-0.15-0.52-0.23-1.26-0.24-2.21v-1.58c0-0.96,0.08-1.7,0.24-2.22c0.16-0.52,0.37-0.88,0.64-1.09c0.27-0.2,0.58-0.3,0.92-0.29
	c0.35-0.01,0.65,0.09,0.92,0.29c0.27,0.2,0.49,0.56,0.65,1.09c0.16,0.52,0.24,1.26,0.24,2.22V75.9z"/>
<path class="st0" d="M121.36,71.63c0.02-1.17-0.34-2.05-1.07-2.63c-0.73-0.58-1.93-0.87-3.6-0.87c-0.69,0-1.38,0.06-2.07,0.17
	c-0.69,0.11-1.3,0.24-1.83,0.4c-0.09,0.03-0.17,0.07-0.24,0.12c-0.07,0.06-0.1,0.13-0.11,0.22v1.43c0,0.1,0.03,0.19,0.09,0.26
	c0.06,0.07,0.14,0.1,0.24,0.11h0.02h0.02c0.57-0.06,1.17-0.11,1.8-0.16c0.63-0.05,1.23-0.08,1.8-0.08c0.73,0,1.24,0.08,1.53,0.26
	c0.29,0.17,0.43,0.45,0.41,0.84c0.01,0.28-0.04,0.51-0.13,0.69c-0.09,0.18-0.27,0.37-0.54,0.58c-0.27,0.21-0.67,0.49-1.19,0.86
	l-1.69,1.19c-0.71,0.5-1.3,1.15-1.76,1.94c-0.47,0.79-0.71,1.7-0.72,2.71v1.87c0,0.1,0.04,0.19,0.11,0.26
	c0.07,0.07,0.16,0.1,0.26,0.11h8.15c0.1,0,0.19-0.04,0.26-0.11c0.07-0.07,0.1-0.16,0.11-0.26v-1.88c0-0.1-0.04-0.19-0.11-0.25
	c-0.07-0.06-0.16-0.1-0.26-0.1h-5.79v-0.07c0.01-0.63,0.26-1.17,0.74-1.65c0.48-0.47,1.12-0.96,1.91-1.47l1.56-1.04
	c0.68-0.45,1.2-0.95,1.56-1.51C121.17,73.01,121.35,72.37,121.36,71.63"/>
<path class="st2" d="M133.57,75.9v-1.58c-0.01-2.18-0.45-3.76-1.31-4.74c-0.86-0.98-2.07-1.46-3.64-1.45
	c-1.57-0.02-2.78,0.46-3.63,1.45c-0.85,0.98-1.28,2.56-1.29,4.74v1.58c0.01,2.18,0.44,3.76,1.29,4.73c0.85,0.97,2.06,1.45,3.63,1.44
	c1.57,0.02,2.78-0.46,3.64-1.44C133.12,79.66,133.56,78.08,133.57,75.9 M130.44,75.9c0,0.95-0.08,1.69-0.24,2.21
	c-0.16,0.52-0.37,0.88-0.65,1.08c-0.27,0.2-0.58,0.29-0.93,0.28c-0.35,0.01-0.65-0.08-0.92-0.28c-0.27-0.2-0.48-0.56-0.64-1.08
	c-0.15-0.52-0.23-1.26-0.24-2.21v-1.58c0-0.96,0.08-1.7,0.24-2.22c0.16-0.52,0.37-0.88,0.64-1.09c0.27-0.2,0.58-0.3,0.92-0.29
	c0.34-0.01,0.66,0.09,0.93,0.29c0.27,0.2,0.49,0.56,0.65,1.09c0.16,0.52,0.24,1.26,0.24,2.22V75.9z"/>
<path class="st2" d="M111.07,56.29c0-0.02-0.01-0.04-0.02-0.08c-0.01-0.03-0.02-0.06-0.02-0.1l-5.28-21.97
	c-0.45-1.65-1.22-2.73-2.31-3.24c-1.1-0.51-2.27-0.74-3.54-0.69c-1.26-0.05-2.45,0.18-3.55,0.69c-1.1,0.51-1.88,1.59-2.33,3.24
	l-5.28,21.97c0,0.04-0.01,0.07-0.02,0.1c-0.01,0.03-0.02,0.06-0.02,0.08c0,0.18,0.06,0.32,0.17,0.42c0.11,0.1,0.25,0.15,0.43,0.15
	h4.96c0.18,0,0.33-0.07,0.46-0.19c0.13-0.12,0.21-0.27,0.25-0.45l1.28-5.81h7.27l1.28,5.81c0.04,0.18,0.12,0.33,0.25,0.45
	c0.13,0.12,0.28,0.18,0.46,0.19h4.96c0.18,0,0.32-0.05,0.43-0.15C111.01,56.61,111.07,56.47,111.07,56.29 M102.53,45.56h-5.28
	l2.16-9.79c0.03-0.18,0.08-0.31,0.16-0.4c0.07-0.09,0.18-0.13,0.34-0.13c0.16,0,0.26,0.04,0.32,0.13c0.06,0.09,0.11,0.22,0.14,0.4
	L102.53,45.56z"/>
<path class="st0" d="M129.35,55.98v-3.29c-0.01-0.2-0.07-0.37-0.21-0.5c-0.13-0.13-0.3-0.2-0.5-0.21h-6.1
	c-0.82,0.02-1.41-0.16-1.76-0.51c-0.35-0.36-0.52-0.99-0.51-1.9V31.24c-0.01-0.2-0.07-0.37-0.21-0.5c-0.13-0.13-0.3-0.2-0.5-0.21
	h-4.64c-0.2,0-0.37,0.07-0.5,0.21c-0.13,0.13-0.2,0.3-0.21,0.5v18.32c0.02,2.12,0.43,3.74,1.23,4.84c0.8,1.1,1.84,1.85,3.15,2.23
	c1.3,0.39,2.73,0.57,4.27,0.54c0.99,0,2.04-0.05,3.15-0.14c1.11-0.09,1.99-0.2,2.62-0.32c0.25-0.05,0.43-0.13,0.54-0.24
	C129.3,56.37,129.36,56.2,129.35,55.98"/>
<path class="st0" d="M148.67,55.98v-3.29c-0.01-0.2-0.08-0.37-0.21-0.5c-0.13-0.13-0.3-0.2-0.5-0.21h-7.19
	c-0.82,0.02-1.41-0.16-1.76-0.51c-0.35-0.36-0.52-0.99-0.51-1.9V45.8h9.18c0.2-0.01,0.37-0.08,0.5-0.21c0.13-0.13,0.2-0.3,0.21-0.5
	v-3.37c0-0.2-0.07-0.37-0.21-0.5c-0.13-0.13-0.3-0.2-0.5-0.21h-9.18V37.8c-0.01-0.91,0.16-1.54,0.51-1.9
	c0.35-0.36,0.94-0.53,1.76-0.51h7.19c0.2,0,0.37-0.08,0.5-0.21c0.13-0.13,0.2-0.3,0.21-0.5v-3.29c0-0.23-0.06-0.39-0.17-0.5
	c-0.11-0.11-0.29-0.18-0.54-0.21c-0.59-0.1-1.4-0.2-2.45-0.3c-1.04-0.1-2.51-0.16-4.39-0.16c-1.55-0.03-2.97,0.15-4.27,0.53
	c-1.3,0.38-2.35,1.12-3.15,2.22c-0.79,1.1-1.2,2.71-1.22,4.83v11.77c0.02,2.12,0.42,3.74,1.22,4.84c0.79,1.1,1.83,1.85,3.13,2.23
	c1.3,0.39,2.72,0.57,4.26,0.54c1.88-0.01,3.35-0.06,4.41-0.16c1.06-0.1,1.88-0.2,2.47-0.3c0.25-0.03,0.43-0.11,0.54-0.23
	C148.61,56.38,148.67,56.21,148.67,55.98"/>
<path class="st0" d="M174.02,55.52V31.21c-0.01-0.2-0.08-0.36-0.21-0.48c-0.14-0.12-0.3-0.19-0.5-0.19h-4.18
	c-0.2,0-0.36,0.07-0.5,0.19c-0.13,0.12-0.2,0.28-0.21,0.48V46.2c0,0.12-0.02,0.21-0.06,0.25c-0.04,0.04-0.08,0.07-0.11,0.07
	c-0.05,0-0.09-0.02-0.13-0.06c-0.04-0.04-0.09-0.12-0.16-0.22l-8.4-14.6c-0.2-0.37-0.42-0.65-0.64-0.83
	c-0.22-0.18-0.5-0.27-0.85-0.27h-3.58c-0.38,0.01-0.7,0.14-0.95,0.39c-0.25,0.25-0.38,0.57-0.39,0.95v24.27
	c0.01,0.2,0.07,0.37,0.21,0.5c0.13,0.13,0.3,0.2,0.5,0.21h4.18c0.2,0,0.37-0.08,0.5-0.21c0.13-0.13,0.2-0.3,0.21-0.5V41.8
	c0-0.11,0.02-0.18,0.05-0.22c0.03-0.04,0.07-0.06,0.13-0.06c0.05,0,0.1,0.02,0.15,0.06c0.05,0.04,0.1,0.12,0.17,0.22l8.09,13.96
	c0.28,0.46,0.56,0.77,0.85,0.91c0.29,0.14,0.62,0.21,0.99,0.19h3.47c0.38-0.01,0.71-0.14,0.97-0.39
	C173.87,56.21,174.01,55.9,174.02,55.52"/>
<path class="st0" d="M196.42,34.85v-3.65c-0.01-0.2-0.08-0.36-0.23-0.48c-0.14-0.12-0.32-0.19-0.52-0.19H178.1
	c-0.2,0-0.37,0.07-0.5,0.19c-0.13,0.12-0.2,0.28-0.21,0.48v3.65c0,0.2,0.07,0.36,0.21,0.48c0.13,0.12,0.3,0.19,0.5,0.19h5.78v20.62
	c0,0.2,0.07,0.37,0.21,0.5c0.13,0.13,0.3,0.2,0.5,0.21h4.64c0.2,0,0.37-0.07,0.5-0.21c0.13-0.13,0.2-0.3,0.21-0.5V35.53h5.74
	c0.2,0,0.38-0.07,0.52-0.19C196.34,35.21,196.41,35.05,196.42,34.85"/>
<path class="st0" d="M215.89,55.98v-3.29c0-0.2-0.07-0.37-0.21-0.5c-0.13-0.13-0.3-0.2-0.5-0.21h-7.19
	c-0.82,0.02-1.41-0.16-1.76-0.51c-0.35-0.36-0.52-0.99-0.51-1.9V45.8h9.18c0.2-0.01,0.37-0.08,0.5-0.21c0.13-0.13,0.2-0.3,0.21-0.5
	v-3.37c0-0.2-0.07-0.37-0.21-0.5c-0.13-0.13-0.3-0.2-0.5-0.21h-9.18V37.8c-0.01-0.91,0.16-1.54,0.51-1.9
	c0.35-0.36,0.93-0.53,1.76-0.51h7.19c0.2,0,0.37-0.08,0.5-0.21c0.13-0.13,0.2-0.3,0.21-0.5v-3.29c0-0.23-0.05-0.39-0.17-0.5
	c-0.11-0.11-0.29-0.18-0.54-0.21c-0.59-0.1-1.4-0.2-2.45-0.3c-1.04-0.1-2.51-0.16-4.39-0.16c-1.54-0.03-2.97,0.15-4.27,0.53
	c-1.3,0.38-2.35,1.12-3.15,2.22c-0.79,1.1-1.2,2.71-1.23,4.83v11.77c0.02,2.12,0.43,3.74,1.22,4.84c0.79,1.1,1.83,1.85,3.13,2.23
	c1.3,0.39,2.72,0.57,4.26,0.54c1.88-0.01,3.35-0.06,4.41-0.16c1.05-0.1,1.88-0.2,2.47-0.3c0.25-0.03,0.43-0.11,0.54-0.23
	C215.84,56.38,215.9,56.21,215.89,55.98"/>
<path class="st0" d="M226.43,57.08V31.21c0-0.2-0.07-0.36-0.21-0.48c-0.13-0.12-0.3-0.19-0.5-0.19h-4.64c-0.2,0-0.37,0.07-0.5,0.19
	c-0.13,0.12-0.2,0.28-0.21,0.48v25.87c0.01,0.44-0.04,0.76-0.15,0.97c-0.12,0.21-0.37,0.31-0.77,0.31h-1.77
	c-0.12,0-0.22,0.06-0.29,0.16c-0.07,0.1-0.1,0.21-0.1,0.34v3.61c0,0.16,0.05,0.3,0.15,0.41c0.1,0.11,0.22,0.17,0.39,0.2
	c0.46,0.05,0.86,0.09,1.19,0.11c0.33,0.02,0.69,0.03,1.08,0.03c1.83,0.05,3.33-0.37,4.51-1.26
	C225.78,61.06,226.39,59.44,226.43,57.08"/>
<path class="st2" d="M251.8,45.81v-4.22c-0.02-2.73-0.49-4.93-1.42-6.6c-0.92-1.67-2.18-2.89-3.75-3.65
	c-1.57-0.76-3.35-1.13-5.32-1.12c-1.97-0.01-3.75,0.36-5.32,1.12c-1.58,0.76-2.83,1.97-3.75,3.65c-0.92,1.67-1.4,3.87-1.42,6.6v4.22
	c0.02,2.73,0.5,4.93,1.42,6.6c0.93,1.67,2.18,2.89,3.75,3.65c1.57,0.76,3.35,1.13,5.32,1.12c1.97,0.01,3.74-0.36,5.32-1.12
	c1.58-0.76,2.83-1.97,3.75-3.65C251.3,50.74,251.77,48.54,251.8,45.81 M245.7,45.81c0,2.11-0.36,3.66-1.08,4.63
	c-0.72,0.97-1.83,1.45-3.31,1.44c-1.49,0.01-2.58-0.46-3.3-1.44c-0.71-0.97-1.07-2.51-1.06-4.63v-4.22
	c-0.01-2.11,0.35-3.66,1.06-4.63c0.71-0.97,1.81-1.45,3.3-1.44c1.49-0.01,2.59,0.46,3.31,1.44c0.73,0.97,1.08,2.51,1.08,4.63V45.81z
	"/>
</svg>
