<?xml version="1.0" encoding="UTF-8" standalone="no"?>
<svg
   xmlns:dc="http://purl.org/dc/elements/1.1/"
   xmlns:cc="http://creativecommons.org/ns#"
   xmlns:rdf="http://www.w3.org/1999/02/22-rdf-syntax-ns#"
   xmlns:svg="http://www.w3.org/2000/svg"
   xmlns="http://www.w3.org/2000/svg"
   xmlns:sodipodi="http://sodipodi.sourceforge.net/DTD/sodipodi-0.dtd"
   xmlns:inkscape="http://www.inkscape.org/namespaces/inkscape"
   version="1.1"
   id="svg2"
   xml:space="preserve"
   width="1098.2267"
   height="210.22667"
   viewBox="0 0 1098.2267 210.22667"
   sodipodi:docname="barra_cofin_FEEI.eps"><metadata
     id="metadata8"><rdf:RDF><cc:Work
         rdf:about=""><dc:format>image/svg+xml</dc:format><dc:type
           rdf:resource="http://purl.org/dc/dcmitype/StillImage" /></cc:Work></rdf:RDF></metadata><defs
     id="defs6" /><sodipodi:namedview
     pagecolor="#ffffff"
     bordercolor="#666666"
     borderopacity="1"
     objecttolerance="10"
     gridtolerance="10"
     guidetolerance="10"
     inkscape:pageopacity="0"
     inkscape:pageshadow="2"
     inkscape:window-width="640"
     inkscape:window-height="480"
     id="namedview4" /><g
     id="g10"
     inkscape:groupmode="layer"
     inkscape:label="ink_ext_XXXXXX"
     transform="matrix(1.3333333,0,0,-1.3333333,0,210.22667)"><g
       id="g12"
       transform="scale(0.1)"><path
         d="m 3487.1,202.172 151.44,128.566 c 15.1,12.551 27.85,23.942 38.33,34.172 10.47,10.281 18.94,19.981 25.44,29.192 6.52,9.187 11.2,18.199 14.13,26.968 2.94,8.77 4.4,18.18 4.4,28.239 0,21.73 -6.8,38.57 -20.42,50.461 -13.59,11.96 -30.47,17.902 -50.58,17.902 -20.08,0 -37.82,-5.442 -53.1,-16.332 -15.28,-10.91 -31.49,-27.43 -48.68,-49.629 l -54.67,42.699 c 10.46,14.692 21.14,27.828 32.05,39.449 10.87,11.61 22.7,21.34 35.5,29.11 12.75,7.84 26.81,13.898 42.11,18.105 15.25,4.239 32.76,6.348 52.44,6.348 21.38,0 40.96,-3.133 58.77,-9.442 17.77,-6.261 33.06,-15.16 45.85,-26.691 12.79,-11.539 22.73,-25.367 29.88,-41.488 7.09,-16.121 10.65,-34.02 10.65,-53.711 v -1.25 c 0,-17.199 -2.31,-32.781 -6.9,-46.809 -4.63,-14.051 -11.63,-27.551 -21.03,-40.531 -9.46,-13.02 -21.4,-26.09 -35.83,-39.262 -14.46,-13.187 -31.33,-27.758 -50.61,-43.687 l -90.45,-75.403 h 209.22 V 141.32 H 3487.1 v 60.852"
         style="fill:#d71e25;fill-opacity:1;fill-rule:nonzero;stroke:none"
         id="path14" /><path
         d="m 4071.45,212.289 c 21.7,0 41.59,4.09 59.77,12.262 18.1,8.179 33.66,19.281 46.58,33.289 12.94,14.051 23.05,30.469 30.36,49.34 7.32,18.851 10.93,38.929 10.93,60.308 v 1.274 c 0,21.367 -3.61,41.558 -10.93,60.636 -7.31,19.032 -17.51,35.614 -30.67,49.622 -13.15,14.062 -28.89,25.25 -47.21,33.621 -18.36,8.39 -38.4,12.578 -60.09,12.578 -21.69,0 -41.58,-4.09 -59.76,-12.239 -18.12,-8.191 -33.67,-19.3 -46.59,-33.332 -12.93,-14.007 -23.04,-30.457 -30.36,-49.328 -7.27,-18.832 -10.98,-38.929 -10.98,-60.332 v -1.226 c 0,-21.371 3.71,-41.582 10.98,-60.621 7.32,-19.11 17.54,-35.629 30.65,-49.641 13.16,-14.051 28.9,-25.27 47.28,-33.641 18.3,-8.339 38.32,-12.57 60.04,-12.57 m -1.26,-70.969 c -33.94,0 -64.93,5.95 -92.98,17.891 -28.07,11.918 -52.17,28.148 -72.28,48.719 -20.1,20.492 -35.79,44.461 -47.12,71.922 -11.3,27.437 -16.97,56.636 -16.97,87.636 v 1.274 c 0,30.988 5.67,60.226 16.97,87.668 11.33,27.422 27.23,51.5 47.74,72.25 20.53,20.718 44.84,37.14 72.93,49.328 28.05,12.121 59.03,18.215 92.97,18.215 33.96,0 64.92,-5.989 92.98,-17.93 28.09,-11.922 52.16,-28.164 72.27,-48.684 20.12,-20.519 35.8,-44.488 47.14,-71.918 11.3,-27.461 16.97,-56.66 16.97,-87.703 v -1.226 c 0,-31.024 -5.67,-60.223 -16.97,-87.653 -11.34,-27.468 -27.22,-51.539 -47.76,-72.238 -20.53,-20.75 -44.83,-37.211 -72.89,-49.32 -28.06,-12.18 -59.06,-18.231 -93,-18.231"
         style="fill:#d71e25;fill-opacity:1;fill-rule:nonzero;stroke:none"
         id="path16" /><path
         d="m 4330.94,202.172 151.46,128.566 c 15.03,12.551 27.81,23.942 38.31,34.172 10.46,10.281 18.95,19.981 25.44,29.192 6.49,9.187 11.2,18.199 14.13,26.968 2.92,8.77 4.38,18.18 4.38,28.239 0,21.73 -6.77,38.57 -20.4,50.461 -13.63,11.96 -30.48,17.902 -50.57,17.902 -20.14,0 -37.83,-5.442 -53.07,-16.332 -15.31,-10.91 -31.58,-27.43 -48.71,-49.629 l -54.69,42.699 c 10.5,14.692 21.14,27.828 32.06,39.449 10.91,11.61 22.72,21.34 35.51,29.11 12.78,7.84 26.78,13.898 42.09,18.105 15.26,4.239 32.74,6.348 52.45,6.348 21.38,0 40.95,-3.133 58.75,-9.442 17.79,-6.261 33.11,-15.16 45.87,-26.691 12.78,-11.539 22.71,-25.367 29.83,-41.488 7.16,-16.121 10.7,-34.02 10.7,-53.711 v -1.25 c 0,-17.199 -2.26,-32.781 -6.91,-46.809 -4.63,-14.051 -11.65,-27.551 -21.07,-40.531 -9.39,-13.02 -21.34,-26.09 -35.79,-39.262 -14.5,-13.187 -31.33,-27.758 -50.58,-43.687 l -90.51,-75.403 h 209.25 V 141.32 h -317.93 v 60.852"
         style="fill:#d71e25;fill-opacity:1;fill-rule:nonzero;stroke:none"
         id="path18" /><path
         d="m 4915.31,212.289 c 21.64,0 41.55,4.09 59.7,12.262 18.17,8.179 33.69,19.281 46.64,33.289 12.91,14.051 23,30.469 30.34,49.34 7.29,18.851 10.93,38.929 10.93,60.308 v 1.274 c 0,21.367 -3.64,41.558 -10.93,60.636 -7.34,19.032 -17.54,35.614 -30.64,49.622 -13.2,14.062 -28.88,25.25 -47.25,33.621 -18.35,8.39 -38.4,12.578 -60.08,12.578 -21.72,0 -41.65,-4.09 -59.72,-12.239 -18.15,-8.191 -33.73,-19.3 -46.65,-33.332 -12.94,-14.007 -23.03,-30.457 -30.35,-49.328 -7.29,-18.832 -10.94,-38.929 -10.94,-60.332 v -1.226 c 0,-21.371 3.65,-41.582 10.94,-60.621 7.32,-19.11 17.53,-35.629 30.65,-49.641 13.14,-14.051 28.88,-25.27 47.24,-33.641 18.38,-8.339 38.35,-12.57 60.12,-12.57 m -1.29,-70.969 c -33.92,0 -64.92,5.95 -92.99,17.891 -28.05,11.918 -52.15,28.148 -72.24,48.719 -20.16,20.492 -35.82,44.461 -47.11,71.922 -11.32,27.437 -17,56.636 -17,87.636 v 1.274 c 0,30.988 5.68,60.226 17,87.668 11.29,27.422 27.21,51.5 47.73,72.25 20.49,20.718 44.83,37.14 72.85,49.328 28.11,12.121 59.09,18.215 93.05,18.215 33.88,0 64.88,-5.989 92.95,-17.93 28.06,-11.922 52.14,-28.164 72.29,-48.684 20.06,-20.519 35.8,-44.488 47.11,-71.918 11.29,-27.461 16.96,-56.66 16.96,-87.703 v -1.226 c 0,-31.024 -5.67,-60.223 -16.96,-87.653 -11.31,-27.468 -27.23,-51.539 -47.74,-72.238 -20.55,-20.75 -44.82,-37.211 -72.94,-49.32 -28.01,-12.18 -59.02,-18.231 -92.96,-18.231"
         style="fill:#d71e25;fill-opacity:1;fill-rule:nonzero;stroke:none"
         id="path20" /><path
         d="m 4307.34,688.086 v 14.758 c 4.79,0.937 10.48,1.875 15.95,2.176 v 89.429 c -5.47,0.375 -11.16,1.27 -15.95,2.207 v 14.821 h 55.62 v -14.821 c -4.76,-0.937 -10.43,-1.832 -15.96,-2.207 v -86.82 h 23.63 c 0.38,4.434 1.27,9.695 2.2,15.137 h 17.51 v -34.68 z m -63.35,80.227 c -2.32,6.777 -4.13,12.585 -5.63,19.375 h -0.2 c -1.48,-6.184 -3.29,-13.372 -5.84,-20.235 l -10.61,-29.504 h 33.26 z m 9.14,-80.227 v 14.758 c 3.87,0.75 8.78,1.668 12.96,1.992 l -5.27,14.629 h -44.97 l -5.13,-14.629 c 4.25,-0.324 9.18,-1.242 13.03,-1.992 v -14.758 h -46.45 v 14.758 c 2.97,0.937 6.56,1.668 9.68,1.875 l 37.64,106.758 h 29.07 l 38.41,-106.758 c 3.09,-0.207 6.77,-0.938 9.68,-1.875 v -14.758 z m -85.83,47.676 v -41.914 c -12.25,-4.883 -27.59,-7.625 -42.57,-7.625 -38.93,0 -62,23.086 -62,60.664 0,39.32 26.33,66.39 68.38,66.39 11.53,0 23.04,-1.648 34.41,-4.601 v -33.078 h -18.34 c -1.05,5.3 -1.61,10.027 -2.17,14.836 -4.92,1.336 -10.26,1.851 -15.19,1.851 -23.94,0 -41.27,-15.203 -41.27,-43.125 0,-26.199 14.26,-41.531 39.33,-41.531 5.79,0 10.93,0.703 15.62,2.215 v 25.734 c -5.42,0.379 -11.11,1.289 -15.62,2.371 v 14.824 h 49.71 v -15.164 c -3.33,-0.742 -6.83,-1.289 -10.29,-1.847 m -122.61,58.687 v -59.047 c 0,-32.714 -18.1,-49.316 -51,-49.316 -38.98,0 -47.68,21.172 -47.68,44.727 v 63.636 c -4.05,0.375 -8.07,1.059 -11.55,2.016 v 15.012 h 48.42 v -15.012 c -4.2,-1.086 -8.94,-1.641 -13.17,-2.016 v -62.164 c 0,-15.566 4.96,-26.512 25.45,-26.512 18.24,0 26.11,7.684 26.11,28.711 v 59.965 c -4.41,0.375 -9.12,0.93 -13.12,2.016 v 15.012 h 47.86 v -15.012 c -3.48,-0.957 -7.29,-1.641 -11.32,-2.016 M 3907.11,776.73 c -0.84,5.625 -1.82,10.555 -2.15,15.184 h -19.04 V 705.02 c 5.48,-0.301 11.12,-1.239 15.93,-2.176 v -14.758 h -55.59 v 14.758 c 4.77,0.937 10.44,1.875 15.91,2.176 v 86.894 h -18.82 c -0.35,-4.629 -1.29,-9.559 -2.15,-15.184 h -17.6 v 34.747 h 101.04 V 776.73 Z m -139.98,16.016 c -3.28,0 -6.72,-0.09 -9.12,-0.461 v -35.691 c 1.66,-0.156 4.76,-0.332 8.38,-0.332 14.47,0 23.06,7.273 23.06,18.828 0,11.871 -7.15,17.656 -22.32,17.656 m 24.33,-104.66 -30.18,50.898 h -3.27 V 705.02 c 3.5,-0.301 7.46,-0.879 11.18,-1.981 v -14.953 h -50.84 v 14.758 c 4.75,0.937 10.43,1.875 15.89,2.176 v 89.429 c -5.46,0.375 -11.14,1.27 -15.89,2.207 v 14.821 h 14.25 c 4.79,0 21.91,0.703 37.08,0.703 27.26,0 44.83,-9.453 44.83,-34.7 0,-17.226 -11.73,-29.851 -29.08,-33.515 2.23,-2.891 4.35,-6.016 6.24,-8.914 l 19.01,-29.824 c 3.46,-0.508 7.82,-1.25 12.08,-2.012 v -15.129 z m -139.79,103.961 c -17,0 -32.72,-13.551 -32.72,-41.266 0,-26.133 10.26,-43.152 32.36,-43.152 16.09,0 33.23,12.422 33.23,42.031 0,27.422 -11.64,42.387 -32.87,42.387 m -2.04,-105.961 c -37.66,0 -56.09,23.914 -56.09,62.098 0,40.8 27.21,65.304 60.31,65.304 32.89,0 56.16,-19.773 56.16,-61.984 0,-40.742 -26.9,-65.418 -60.38,-65.418 m -114.59,106.66 c -2.92,0 -5.47,0 -8.26,-0.09 v -41.152 c 2.41,-0.352 4.75,-0.586 6.92,-0.586 14.49,0.234 24.57,8.254 24.57,21.582 0,12.438 -6.96,20.246 -23.23,20.246 m -0.37,-61.523 c -2.21,0 -4.98,0 -7.89,0.32 V 705.02 c 5.51,-0.301 11.16,-1.239 15.95,-2.176 v -14.758 h -55.62 v 14.758 c 4.75,0.937 10.42,1.875 15.91,2.176 v 89.429 c -5.49,0.375 -11.16,1.27 -15.91,2.207 v 14.821 h 14.33 c 5.79,0 21.9,0.703 34.71,0.703 30.14,0 46.76,-14.094 46.76,-38.203 0,-23.938 -18.24,-42.754 -48.24,-42.754"
         style="fill:#005d32;fill-opacity:1;fill-rule:nonzero;stroke:none"
         id="path22" /><path
         d="M 3117.06,808.254 C 3008.22,765.215 2940.57,651.699 2940.57,476.871 V 211.449 c 0,0 22.26,170.602 176.49,219.731 v 377.074"
         style="fill:#005d32;fill-opacity:1;fill-rule:nonzero;stroke:none"
         id="path24" /><path
         d="m 3169.71,404.969 c -63.22,-12.617 -155.84,-63.309 -183.1,-134.668 135.72,164.82 412.78,5.519 425.06,315.5 3.87,98.156 4.28,218.969 4.28,218.969 -144.66,-8.129 -246.24,-46.665 -246.24,-46.665 V 404.969"
         style="fill:#d71e25;fill-opacity:1;fill-rule:nonzero;stroke:none"
         id="path26" /><path
         d="m 3152.08,315.461 c 0,0 -147.29,-11.93 -159.81,-96.039 -9.89,-65.742 159.81,-67.461 159.81,-67.461 v 163.5"
         style="fill:#005d32;fill-opacity:1;fill-rule:nonzero;stroke:none"
         id="path28" /><path
         d="m 242.738,1337.75 17.051,-4.31 c -3.566,-13.99 -10,-24.67 -19.293,-32.02 -9.285,-7.37 -20.637,-11.03 -34.055,-11.03 -13.89,0 -25.179,2.81 -33.882,8.47 -8.704,5.65 -15.317,13.85 -19.86,24.56 -4.539,10.74 -6.82,22.24 -6.82,34.54 0,13.42 2.566,25.14 7.691,35.13 5.129,9.99 12.43,17.57 21.891,22.75 9.457,5.2 19.875,7.79 31.238,7.79 12.903,0 23.739,-3.29 32.52,-9.84 8.789,-6.58 14.922,-15.81 18.371,-27.7 l -16.777,-3.96 c -2.997,9.39 -7.336,16.21 -13.016,20.48 -5.688,4.28 -12.824,6.43 -21.449,6.43 -9.899,0 -18.18,-2.37 -24.828,-7.13 -6.653,-4.75 -11.321,-11.11 -14.008,-19.12 -2.703,-7.99 -4.055,-16.24 -4.055,-24.74 0,-10.94 1.602,-20.51 4.789,-28.68 3.203,-8.19 8.164,-14.3 14.902,-18.33 6.739,-4.05 14.032,-6.06 21.879,-6.06 9.563,0 17.645,2.75 24.258,8.25 6.621,5.52 11.113,13.68 13.453,24.52"
         style="fill:#231f20;fill-opacity:1;fill-rule:nonzero;stroke:none"
         id="path30" /><path
         d="m 289.145,1339.25 c 0,-11.95 2.613,-20.9 7.824,-26.85 5.219,-5.95 11.777,-8.92 19.687,-8.92 7.852,0 14.379,2.99 19.598,8.96 5.211,5.98 7.824,15.09 7.824,27.34 0,11.54 -2.625,20.29 -7.863,26.23 -5.246,5.95 -11.766,8.92 -19.559,8.92 -7.91,0 -14.468,-2.96 -19.687,-8.87 -5.211,-5.92 -7.824,-14.86 -7.824,-26.81 m -16.258,0 c 0,17.29 4.801,30.09 14.41,38.41 8.031,6.91 17.82,10.37 29.359,10.37 12.832,0 23.321,-4.2 31.457,-12.61 8.153,-8.41 12.223,-20.03 12.223,-34.85 0,-12.01 -1.801,-21.46 -5.398,-28.35 -3.61,-6.88 -8.852,-12.23 -15.743,-16.04 -6.882,-3.8 -14.398,-5.71 -22.539,-5.71 -13.07,0 -23.629,4.19 -31.679,12.57 -8.063,8.38 -12.09,20.45 -12.09,36.21"
         style="fill:#231f20;fill-opacity:1;fill-rule:nonzero;stroke:none"
         id="path32" /><path
         d="m 382.66,1292.58 v 81.04 h -13.969 v 12.3 h 13.969 v 9.93 c 0,6.27 0.563,10.93 1.672,13.98 1.52,4.1 4.199,7.42 8.039,9.97 3.84,2.55 9.223,3.82 16.129,3.82 4.449,0 9.371,-0.52 14.77,-1.58 l -2.379,-13.8 c -3.278,0.59 -6.379,0.88 -9.309,0.88 -4.809,0 -8.215,-1.02 -10.199,-3.07 -1.992,-2.05 -2.992,-5.89 -2.992,-11.52 v -8.61 h 18.203 v -12.3 h -18.203 v -81.04 H 382.66"
         style="fill:#231f20;fill-opacity:1;fill-rule:nonzero;stroke:none"
         id="path34" /><path
         d="m 428.98,1385.92 h 15.821 v -93.34 H 428.98 Z m 0,35.51 h 15.821 v -18.19 H 428.98 v 18.19"
         style="fill:#231f20;fill-opacity:1;fill-rule:nonzero;stroke:none"
         id="path36" /><path
         d="m 468.883,1292.58 v 93.34 h 14.238 v -13.27 c 6.852,10.25 16.762,15.38 29.711,15.38 5.621,0 10.789,-1.01 15.508,-3.03 4.711,-2.02 8.254,-4.68 10.59,-7.96 2.34,-3.28 3.98,-7.17 4.922,-11.69 0.589,-2.93 0.878,-8.05 0.878,-15.39 v -57.38 h -15.82 v 56.78 c 0,6.44 -0.617,11.26 -1.847,14.46 -1.235,3.19 -3.411,5.73 -6.54,7.64 -3.14,1.91 -6.824,2.86 -11.031,2.86 -6.738,0 -12.558,-2.14 -17.449,-6.42 -4.891,-4.28 -7.34,-12.39 -7.34,-24.34 v -50.98 h -15.82"
         style="fill:#231f20;fill-opacity:1;fill-rule:nonzero;stroke:none"
         id="path38" /><path
         d="m 628.578,1339.43 c -5.742,-2.34 -14.359,-4.34 -25.84,-5.99 -6.5,-0.92 -11.097,-1.98 -13.797,-3.15 -2.691,-1.17 -4.769,-2.9 -6.242,-5.15 -1.461,-2.25 -2.203,-4.75 -2.203,-7.51 0,-4.23 1.606,-7.74 4.793,-10.54 3.203,-2.83 7.871,-4.22 14.02,-4.22 6.101,0 11.519,1.33 16.261,4 4.746,2.65 8.231,6.31 10.461,10.93 1.699,3.58 2.547,8.86 2.547,15.83 z m 1.32,-35.34 c -5.859,-4.97 -11.5,-8.49 -16.918,-10.54 -5.421,-2.05 -11.242,-3.09 -17.453,-3.09 -10.25,0 -18.129,2.51 -23.636,7.52 -5.512,5.01 -8.262,11.41 -8.262,19.2 0,4.57 1.039,8.75 3.117,12.53 2.082,3.79 4.801,6.81 8.172,9.09 3.375,2.29 7.172,4.02 11.383,5.2 3.109,0.82 7.797,1.61 14.07,2.36 12.77,1.53 22.168,3.34 28.207,5.46 0.059,2.16 0.09,3.55 0.09,4.12 0,6.45 -1.5,10.99 -4.48,13.63 -4.051,3.57 -10.047,5.36 -18.02,5.36 -7.438,0 -12.941,-1.3 -16.48,-3.9 -3.551,-2.62 -6.168,-7.23 -7.868,-13.86 l -15.472,2.11 c 1.41,6.62 3.718,11.97 6.953,16.04 3.219,4.09 7.875,7.22 13.969,9.42 6.097,2.19 13.16,3.28 21.175,3.28 7.977,0 14.453,-0.93 19.438,-2.81 4.976,-1.87 8.637,-4.22 10.972,-7.07 2.356,-2.85 3.993,-6.43 4.934,-10.76 0.52,-2.71 0.789,-7.56 0.789,-14.59 v -21.09 c 0,-14.72 0.328,-24.01 1.012,-27.91 0.672,-3.91 2,-7.64 4,-11.22 h -16.531 c -1.637,3.29 -2.688,7.12 -3.161,11.52"
         style="fill:#231f20;fill-opacity:1;fill-rule:nonzero;stroke:none"
         id="path40" /><path
         d="m 669.098,1292.58 v 93.34 h 14.238 v -13.27 c 6.852,10.25 16.762,15.38 29.711,15.38 5.621,0 10.793,-1.01 15.508,-3.03 4.711,-2.02 8.254,-4.68 10.59,-7.96 2.343,-3.28 3.98,-7.17 4.921,-11.69 0.59,-2.93 0.879,-8.05 0.879,-15.39 v -57.38 h -15.82 v 56.78 c 0,6.44 -0.617,11.26 -1.852,14.46 -1.226,3.19 -3.406,5.73 -6.535,7.64 -3.14,1.91 -6.82,2.86 -11.031,2.86 -6.738,0 -12.559,-2.14 -17.449,-6.42 -4.891,-4.28 -7.34,-12.39 -7.34,-24.34 v -50.98 h -15.82"
         style="fill:#231f20;fill-opacity:1;fill-rule:nonzero;stroke:none"
         id="path42" /><path
         d="m 830.113,1326.77 15.563,-2.02 c -1.707,-10.72 -6.051,-19.12 -13.063,-25.18 -7.004,-6.07 -15.601,-9.1 -25.793,-9.1 -12.765,0 -23.035,4.18 -30.808,12.53 -7.758,8.35 -11.641,20.3 -11.641,35.9 0,10.08 1.668,18.9 5.008,26.45 3.34,7.56 8.426,13.23 15.254,17.01 6.816,3.78 14.25,5.67 22.281,5.67 10.129,0 18.418,-2.56 24.867,-7.69 6.449,-5.13 10.582,-12.41 12.391,-21.84 l -15.379,-2.37 c -1.457,6.27 -4.063,10.98 -7.781,14.15 -3.723,3.16 -8.207,4.74 -13.492,4.74 -7.969,0 -14.438,-2.85 -19.418,-8.57 -4.981,-5.71 -7.473,-14.75 -7.473,-27.11 0,-12.54 2.402,-21.65 7.203,-27.34 4.809,-5.68 11.078,-8.52 18.809,-8.52 6.211,0 11.402,1.9 15.562,5.71 4.16,3.81 6.801,9.67 7.91,17.58"
         style="fill:#231f20;fill-opacity:1;fill-rule:nonzero;stroke:none"
         id="path44" /><path
         d="m 859.293,1385.92 h 15.82 v -93.34 h -15.82 z m 0,35.51 h 15.82 v -18.19 h -15.82 v 18.19"
         style="fill:#231f20;fill-opacity:1;fill-rule:nonzero;stroke:none"
         id="path46" /><path
         d="m 958.785,1339.43 c -5.742,-2.34 -14.359,-4.34 -25.84,-5.99 -6.5,-0.92 -11.097,-1.98 -13.8,-3.15 -2.692,-1.17 -4.77,-2.9 -6.239,-5.15 -1.461,-2.25 -2.203,-4.75 -2.203,-7.51 0,-4.23 1.602,-7.74 4.789,-10.54 3.203,-2.83 7.871,-4.22 14.02,-4.22 6.101,0 11.523,1.33 16.265,4 4.746,2.65 8.227,6.31 10.457,10.93 1.7,3.58 2.551,8.86 2.551,15.83 z m 1.317,-35.34 c -5.86,-4.97 -11.497,-8.49 -16.918,-10.54 -5.418,-2.05 -11.243,-3.09 -17.454,-3.09 -10.246,0 -18.128,2.51 -23.636,7.52 -5.512,5.01 -8.262,11.41 -8.262,19.2 0,4.57 1.039,8.75 3.121,12.53 2.078,3.79 4.801,6.81 8.168,9.09 3.375,2.29 7.176,4.02 11.383,5.2 3.109,0.82 7.797,1.61 14.07,2.36 12.77,1.53 22.168,3.34 28.211,5.46 0.059,2.16 0.086,3.55 0.086,4.12 0,6.45 -1.5,10.99 -4.476,13.63 -4.051,3.57 -10.047,5.36 -18.024,5.36 -7.433,0 -12.937,-1.3 -16.476,-3.9 -3.551,-2.62 -6.168,-7.23 -7.868,-13.86 l -15.472,2.11 c 1.41,6.62 3.718,11.97 6.953,16.04 3.215,4.09 7.875,7.22 13.969,9.42 6.097,2.19 13.16,3.28 21.175,3.28 7.973,0 14.453,-0.93 19.434,-2.81 4.98,-1.87 8.637,-4.22 10.977,-7.07 2.355,-2.85 3.988,-6.43 4.929,-10.76 0.52,-2.71 0.793,-7.56 0.793,-14.59 v -21.09 c 0,-14.72 0.328,-24.01 1.012,-27.91 0.668,-3.91 1.996,-7.64 4,-11.22 h -16.535 c -1.637,3.29 -2.688,7.12 -3.16,11.52"
         style="fill:#231f20;fill-opacity:1;fill-rule:nonzero;stroke:none"
         id="path48" /><path
         d="m 1009.85,1339.16 c 0,-11.95 2.52,-20.89 7.56,-26.81 5.04,-5.91 10.98,-8.87 17.84,-8.87 6.91,0 12.79,2.82 17.62,8.48 4.84,5.65 7.25,14.28 7.25,25.88 0,12.78 -2.46,22.15 -7.38,28.13 -4.92,5.97 -10.99,8.96 -18.19,8.96 -7.03,0 -12.91,-2.87 -17.62,-8.61 -4.72,-5.74 -7.08,-14.8 -7.08,-27.16 m 50.01,-46.58 v 11.78 c -5.92,-9.26 -14.62,-13.89 -26.1,-13.89 -7.45,0 -14.29,2.05 -20.53,6.15 -6.24,4.1 -11.07,9.83 -14.5,17.18 -3.433,7.36 -5.14,15.81 -5.14,25.36 0,9.32 1.547,17.77 4.656,25.36 3.104,7.58 7.764,13.4 13.974,17.44 6.21,4.05 13.16,6.07 20.83,6.07 5.63,0 10.64,-1.19 15.03,-3.56 4.4,-2.38 7.97,-5.47 10.73,-9.27 v 46.23 h 15.73 v -128.85 h -14.68"
         style="fill:#231f20;fill-opacity:1;fill-rule:nonzero;stroke:none"
         id="path50" /><path
         d="m 1109.78,1339.25 c 0,-11.95 2.61,-20.9 7.82,-26.85 5.22,-5.95 11.78,-8.92 19.69,-8.92 7.85,0 14.38,2.99 19.6,8.96 5.21,5.98 7.82,15.09 7.82,27.34 0,11.54 -2.62,20.29 -7.86,26.23 -5.25,5.95 -11.77,8.92 -19.56,8.92 -7.91,0 -14.47,-2.96 -19.69,-8.87 -5.21,-5.92 -7.82,-14.86 -7.82,-26.81 m -16.26,0 c 0,17.29 4.8,30.09 14.41,38.41 8.03,6.91 17.82,10.37 29.36,10.37 12.83,0 23.32,-4.2 31.46,-12.61 8.15,-8.41 12.22,-20.03 12.22,-34.85 0,-12.01 -1.8,-21.46 -5.4,-28.35 -3.61,-6.88 -8.85,-12.23 -15.74,-16.04 -6.88,-3.8 -14.4,-5.71 -22.54,-5.71 -13.07,0 -23.63,4.19 -31.68,12.57 -8.06,8.38 -12.09,20.45 -12.09,36.21"
         style="fill:#231f20;fill-opacity:1;fill-rule:nonzero;stroke:none"
         id="path52" /><path
         d="m 1263.85,1338.72 c 0,-12.01 2.43,-20.89 7.29,-26.63 4.87,-5.74 10.76,-8.61 17.67,-8.61 7.03,0 13.06,2.97 18.07,8.92 5,5.94 7.51,15.16 7.51,27.64 0,11.89 -2.45,20.8 -7.34,26.72 -4.89,5.92 -10.74,8.87 -17.54,8.87 -6.73,0 -12.7,-3.15 -17.88,-9.44 -5.18,-6.3 -7.78,-15.46 -7.78,-27.47 m -14.33,-81.91 v 129.11 h 14.43 v -12.13 c 3.39,4.74 7.22,8.3 11.5,10.68 4.28,2.37 9.46,3.56 15.56,3.56 7.97,0 15,-2.05 21.09,-6.16 6.1,-4.1 10.7,-9.88 13.8,-17.35 3.11,-7.47 4.66,-15.66 4.66,-24.57 0,-9.55 -1.71,-18.15 -5.14,-25.8 -3.43,-7.64 -8.41,-13.5 -14.94,-17.57 -6.53,-4.08 -13.4,-6.11 -20.61,-6.11 -5.28,0 -10.01,1.11 -14.2,3.34 -4.19,2.22 -7.63,5.04 -10.33,8.44 v -45.44 h -15.82"
         style="fill:#231f20;fill-opacity:1;fill-rule:nonzero;stroke:none"
         id="path54" /><path
         d="m 1360,1339.25 c 0,-11.95 2.62,-20.9 7.83,-26.85 5.22,-5.95 11.77,-8.92 19.68,-8.92 7.86,0 14.38,2.99 19.6,8.96 5.21,5.98 7.83,15.09 7.83,27.34 0,11.54 -2.63,20.29 -7.86,26.23 -5.25,5.95 -11.78,8.92 -19.57,8.92 -7.91,0 -14.46,-2.96 -19.68,-8.87 -5.21,-5.92 -7.83,-14.86 -7.83,-26.81 m -16.25,0 c 0,17.29 4.79,30.09 14.4,38.41 8.04,6.91 17.83,10.37 29.36,10.37 12.84,0 23.32,-4.2 31.46,-12.61 8.15,-8.41 12.23,-20.03 12.23,-34.85 0,-12.01 -1.81,-21.46 -5.4,-28.35 -3.62,-6.88 -8.86,-12.23 -15.75,-16.04 -6.88,-3.8 -14.4,-5.71 -22.54,-5.71 -13.07,0 -23.62,4.19 -31.68,12.57 -8.06,8.38 -12.08,20.45 -12.08,36.21"
         style="fill:#231f20;fill-opacity:1;fill-rule:nonzero;stroke:none"
         id="path56" /><path
         d="m 1449.57,1292.58 v 93.34 h 14.23 v -14.15 c 3.64,6.62 7,10.99 10.07,13.1 3.07,2.1 6.46,3.16 10.14,3.16 5.35,0 10.77,-1.7 16.26,-5.1 l -5.45,-14.68 c -3.85,2.29 -7.73,3.43 -11.6,3.43 -3.44,0 -6.55,-1.04 -9.3,-3.12 -2.76,-2.08 -4.73,-4.96 -5.89,-8.66 -1.77,-5.62 -2.64,-11.77 -2.64,-18.45 v -48.87 h -15.82"
         style="fill:#231f20;fill-opacity:1;fill-rule:nonzero;stroke:none"
         id="path58" /><path
         d="m 1514.08,1310.6 h 18.02 v -18.02 h -18.02 z m 0,75.32 h 18.02 v -18.02 h -18.02 v 18.02"
         style="fill:#231f20;fill-opacity:1;fill-rule:nonzero;stroke:none"
         id="path60" /><path
         d="m 6698.73,694.816 h 15.9 V 652.18 c 0,-6.77 0.18,-11.153 0.58,-13.157 0.69,-3.222 2.31,-5.808 4.87,-7.761 2.56,-1.953 6.04,-2.922 10.5,-2.922 4.5,0 7.91,0.918 10.18,2.765 2.31,1.836 3.67,4.11 4.14,6.797 0.46,2.676 0.7,7.129 0.7,13.368 v 43.546 h 15.89 v -41.359 c 0,-9.441 -0.43,-16.113 -1.28,-20.019 -0.86,-3.895 -2.46,-7.196 -4.75,-9.872 -2.32,-2.695 -5.4,-4.824 -9.27,-6.425 -3.87,-1.594 -8.91,-2.395 -15.15,-2.395 -7.51,0 -13.21,0.871 -17.09,2.609 -3.88,1.739 -6.96,3.993 -9.2,6.766 -2.26,2.774 -3.74,5.695 -4.47,8.731 -1.03,4.511 -1.55,11.164 -1.55,19.972 v 41.992"
         style="fill:#231f20;fill-opacity:1;fill-rule:nonzero;stroke:none"
         id="path62" /><path
         d="m 6778.42,616.094 v 78.722 h 15.46 l 32.21,-52.57 v 52.57 h 14.76 v -78.722 h -15.95 l -31.72,51.328 v -51.328 h -14.76"
         style="fill:#231f20;fill-opacity:1;fill-rule:nonzero;stroke:none"
         id="path64" /><path
         d="m 6857.18,694.816 h 15.89 v -78.722 h -15.89 v 78.722"
         style="fill:#231f20;fill-opacity:1;fill-rule:nonzero;stroke:none"
         id="path66" /><path
         d="m 6929.92,647.238 -10.84,29.207 -10.62,-29.207 z m -23.12,51.922 h -6.89 c -0.04,0.82 -0.06,1.465 -0.06,1.926 0,3.758 0.93,6.648 2.76,8.672 1.81,2.031 4.17,3.035 7.03,3.035 1.25,0 2.41,-0.137 3.48,-0.398 1.08,-0.266 3.03,-1.036 5.87,-2.305 2.86,-1.27 5.08,-1.914 6.69,-1.914 1.15,0 2.1,0.359 2.87,1.082 0.78,0.715 1.26,1.906 1.49,3.586 h 6.97 c -0.04,-4.824 -0.94,-8.281 -2.71,-10.352 -1.76,-2.082 -4.06,-3.125 -6.84,-3.125 -1.21,0 -2.41,0.125 -3.59,0.379 -0.82,0.207 -2.89,0.949 -6.18,2.199 -3.31,1.258 -5.7,1.883 -7.19,1.883 -1.15,0 -2.04,-0.34 -2.7,-1.043 -0.63,-0.695 -0.98,-1.906 -1,-3.625 m 52.4,-83.066 h -17.31 l -6.85,17.883 h -31.48 l -6.49,-17.883 h -16.86 l 30.66,78.711 h 16.8 l 31.53,-78.711"
         style="fill:#231f20;fill-opacity:1;fill-rule:nonzero;stroke:none"
         id="path68" /><path
         d="m 6980.77,655.508 c 0,-8.914 2.06,-15.672 6.18,-20.274 4.11,-4.597 9.35,-6.902 15.69,-6.902 6.32,0 11.53,2.293 15.58,6.856 4.07,4.558 6.1,11.406 6.1,20.527 0,9.031 -1.98,15.762 -5.92,20.195 -3.97,4.434 -9.21,6.649 -15.76,6.649 -6.57,0 -11.84,-2.246 -15.84,-6.739 -4.02,-4.492 -6.03,-11.257 -6.03,-20.312 m -16.38,-0.547 c 0,8.019 1.21,14.758 3.62,20.195 1.78,4.004 4.23,7.61 7.31,10.793 3.11,3.184 6.5,5.547 10.19,7.09 4.9,2.078 10.54,3.113 16.97,3.113 11.58,0 20.87,-3.601 27.82,-10.8 6.97,-7.188 10.45,-17.188 10.45,-30.008 0,-12.707 -3.46,-22.649 -10.36,-29.824 -6.9,-7.18 -16.14,-10.762 -27.7,-10.762 -11.7,0 -21.01,3.562 -27.93,10.703 -6.91,7.148 -10.37,16.973 -10.37,29.5"
         style="fill:#231f20;fill-opacity:1;fill-rule:nonzero;stroke:none"
         id="path70" /><path
         d="m 7083.71,616.094 v 78.722 h 58.37 v -13.32 h -42.47 v -17.453 h 39.5 v -13.262 h -39.5 v -21.426 h 43.96 v -13.261 h -59.86"
         style="fill:#231f20;fill-opacity:1;fill-rule:nonzero;stroke:none"
         id="path72" /><path
         d="m 7156.93,694.816 h 15.91 V 652.18 c 0,-6.77 0.19,-11.153 0.58,-13.157 0.69,-3.222 2.3,-5.808 4.87,-7.761 2.56,-1.953 6.05,-2.922 10.5,-2.922 4.5,0 7.91,0.918 10.18,2.765 2.31,1.836 3.68,4.11 4.15,6.797 0.45,2.676 0.69,7.129 0.69,13.368 v 43.546 h 15.9 v -41.359 c 0,-9.441 -0.43,-16.113 -1.29,-20.019 -0.86,-3.895 -2.45,-7.196 -4.75,-9.872 -2.31,-2.695 -5.4,-4.824 -9.27,-6.425 -3.86,-1.594 -8.91,-2.395 -15.14,-2.395 -7.52,0 -13.22,0.871 -17.1,2.609 -3.88,1.739 -6.95,3.993 -9.2,6.766 -2.27,2.774 -3.74,5.695 -4.46,8.731 -1.04,4.511 -1.57,11.164 -1.57,19.972 v 41.992"
         style="fill:#231f20;fill-opacity:1;fill-rule:nonzero;stroke:none"
         id="path74" /><path
         d="m 7252.4,661.523 h 11.77 c 7.62,0 12.37,0.313 14.28,0.969 1.9,0.633 3.38,1.746 4.46,3.328 1.06,1.575 1.61,3.535 1.61,5.899 0,2.648 -0.7,4.797 -2.13,6.418 -1.41,1.629 -3.41,2.664 -5.98,3.093 -1.29,0.168 -5.15,0.266 -11.61,0.266 h -12.4 z m -15.89,-45.418 v 78.7 h 33.46 c 8.41,0 14.51,-0.703 18.34,-2.117 3.81,-1.407 6.86,-3.926 9.15,-7.551 2.29,-3.602 3.44,-7.742 3.44,-12.403 0,-5.898 -1.74,-10.769 -5.22,-14.629 -3.47,-3.847 -8.65,-6.269 -15.56,-7.265 3.42,-2.012 6.27,-4.207 8.5,-6.61 2.25,-2.402 5.26,-6.66 9.05,-12.785 l 9.61,-15.34 h -19 l -11.49,17.118 c -4.09,6.113 -6.87,9.98 -8.37,11.574 -1.52,1.59 -3.11,2.683 -4.8,3.269 -1.68,0.598 -4.34,0.891 -7.99,0.891 h -3.23 v -32.852 h -15.89"
         style="fill:#231f20;fill-opacity:1;fill-rule:nonzero;stroke:none"
         id="path76" /><path
         d="m 7329.02,655.508 c 0,-8.914 2.06,-15.672 6.19,-20.274 4.11,-4.597 9.34,-6.902 15.68,-6.902 6.33,0 11.53,2.293 15.58,6.856 4.07,4.558 6.1,11.406 6.1,20.527 0,9.031 -1.97,15.762 -5.92,20.195 -3.96,4.434 -9.21,6.649 -15.76,6.649 -6.56,0 -11.83,-2.246 -15.84,-6.739 -4.01,-4.492 -6.03,-11.257 -6.03,-20.312 m -16.37,-0.547 c 0,8.019 1.2,14.758 3.61,20.195 1.78,4.004 4.23,7.61 7.31,10.793 3.11,3.184 6.5,5.547 10.19,7.09 4.89,2.078 10.55,3.113 16.96,3.113 11.59,0 20.88,-3.601 27.83,-10.8 6.97,-7.188 10.45,-17.188 10.45,-30.008 0,-12.707 -3.45,-22.649 -10.35,-29.824 -6.91,-7.18 -16.15,-10.762 -27.71,-10.762 -11.7,0 -21.01,3.562 -27.93,10.703 -6.91,7.148 -10.36,16.973 -10.36,29.5"
         style="fill:#231f20;fill-opacity:1;fill-rule:nonzero;stroke:none"
         id="path78" /><path
         d="m 7417.31,681.496 v -22.344 h 8.69 c 6.27,0 10.46,0.411 12.57,1.239 2.11,0.82 3.77,2.109 4.97,3.867 1.19,1.758 1.8,3.801 1.8,6.113 0,2.871 -0.84,5.234 -2.53,7.09 -1.68,1.867 -3.81,3.027 -6.39,3.496 -1.89,0.363 -5.71,0.539 -11.43,0.539 z m -15.9,-65.402 v 78.722 h 25.51 c 9.67,0 15.97,-0.402 18.9,-1.191 4.51,-1.184 8.29,-3.75 11.32,-7.695 3.05,-3.965 4.57,-9.075 4.57,-15.332 0,-4.836 -0.87,-8.907 -2.63,-12.188 -1.75,-3.293 -3.99,-5.89 -6.68,-7.765 -2.71,-1.883 -5.45,-3.125 -8.24,-3.731 -3.8,-0.75 -9.29,-1.133 -16.49,-1.133 h -10.36 v -29.687 h -15.9"
         style="fill:#231f20;fill-opacity:1;fill-rule:nonzero;stroke:none"
         id="path80" /><path
         d="m 7474.75,616.094 v 78.722 h 58.38 v -13.32 h -42.48 v -17.453 h 39.51 v -13.262 h -39.51 v -21.426 h 43.97 v -13.261 h -59.87"
         style="fill:#231f20;fill-opacity:1;fill-rule:nonzero;stroke:none"
         id="path82" /><path
         d="m 7547.61,694.816 h 15.89 v -78.722 h -15.89 v 78.722"
         style="fill:#231f20;fill-opacity:1;fill-rule:nonzero;stroke:none"
         id="path84" /><path
         d="m 7620.35,647.238 -10.84,29.207 -10.62,-29.207 z m 29.28,-31.144 h -17.31 l -6.85,17.883 h -31.48 l -6.49,-17.883 h -16.87 l 30.67,78.711 h 16.8 l 31.53,-78.711"
         style="fill:#231f20;fill-opacity:1;fill-rule:nonzero;stroke:none"
         id="path86" /><path
         d="m 6699.85,355.57 v 78.719 h 53.11 v -9.301 h -42.7 v -24.359 h 36.95 v -9.297 h -36.95 V 355.57 h -10.41"
         style="fill:#231f20;fill-opacity:1;fill-rule:nonzero;stroke:none"
         id="path88" /><path
         d="m 6802.62,355.57 v 8.379 c -4.44,-6.449 -10.47,-9.668 -18.1,-9.668 -3.36,0 -6.5,0.649 -9.42,1.93 -2.92,1.289 -5.08,2.91 -6.49,4.859 -1.42,1.961 -2.42,4.34 -2.98,7.168 -0.4,1.903 -0.6,4.91 -0.6,9.032 v 35.32 h 9.67 v -31.621 c 0,-5.047 0.2,-8.449 0.59,-10.199 0.61,-2.551 1.9,-4.54 3.86,-5.981 1.98,-1.457 4.41,-2.18 7.31,-2.18 2.91,0 5.61,0.743 8.16,2.223 2.54,1.488 4.34,3.508 5.39,6.066 1.06,2.563 1.59,6.274 1.59,11.141 v 30.551 h 9.66 v -57.02 h -8.64"
         style="fill:#231f20;fill-opacity:1;fill-rule:nonzero;stroke:none"
         id="path90" /><path
         d="m 6826.4,355.57 v 57.02 h 8.7 v -8.102 c 4.19,6.262 10.24,9.391 18.15,9.391 3.43,0 6.6,-0.609 9.48,-1.848 2.88,-1.242 5.04,-2.859 6.46,-4.859 1.44,-2.012 2.44,-4.391 3.01,-7.141 0.36,-1.793 0.54,-4.922 0.54,-9.39 V 355.57 h -9.67 v 34.692 c 0,3.929 -0.37,6.879 -1.12,8.828 -0.76,1.961 -2.09,3.512 -4.01,4.672 -1.9,1.16 -4.16,1.75 -6.74,1.75 -4.11,0 -7.66,-1.313 -10.65,-3.922 -2.99,-2.61 -4.48,-7.578 -4.48,-14.879 V 355.57 h -9.67"
         style="fill:#231f20;fill-opacity:1;fill-rule:nonzero;stroke:none"
         id="path92" /><path
         d="m 6894,384.02 c 0,-7.29 1.54,-12.75 4.62,-16.372 3.08,-3.617 6.71,-5.418 10.9,-5.418 4.22,0 7.8,1.731 10.76,5.18 2.96,3.461 4.43,8.731 4.43,15.809 0,7.812 -1.5,13.531 -4.51,17.191 -3.01,3.649 -6.71,5.481 -11.11,5.481 -4.3,0 -7.88,-1.762 -10.76,-5.27 -2.88,-3.512 -4.33,-9.039 -4.33,-16.601 m 30.55,-28.45 v 7.192 c -3.62,-5.653 -8.93,-8.481 -15.94,-8.481 -4.55,0 -8.73,1.258 -12.55,3.758 -3.81,2.512 -6.76,6.012 -8.85,10.5 -2.1,4.492 -3.14,9.652 -3.14,15.481 0,5.699 0.95,10.859 2.83,15.5 1.91,4.64 4.76,8.191 8.55,10.66 3.79,2.468 8.03,3.699 12.73,3.699 3.43,0 6.49,-0.731 9.18,-2.168 2.68,-1.461 4.86,-3.34 6.55,-5.66 v 28.238 h 9.61 V 355.57 h -8.97"
         style="fill:#231f20;fill-opacity:1;fill-rule:nonzero;stroke:none"
         id="path94" /><path
         d="m 6955.04,384.082 c 0,-7.301 1.59,-12.773 4.78,-16.391 3.2,-3.64 7.19,-5.453 12.04,-5.453 4.78,0 8.78,1.813 11.97,5.473 3.17,3.648 4.76,9.211 4.76,16.687 0,7.063 -1.6,12.403 -4.8,16.032 -3.19,3.629 -7.19,5.449 -11.93,5.449 -4.85,0 -8.84,-1.809 -12.04,-5.418 -3.19,-3.609 -4.78,-9.07 -4.78,-16.379 m -9.92,0 c 0,10.559 2.93,18.379 8.81,23.457 4.9,4.231 10.87,6.352 17.93,6.352 7.84,0 14.23,-2.582 19.21,-7.719 4.98,-5.121 7.47,-12.223 7.47,-21.281 0,-7.34 -1.11,-13.11 -3.31,-17.321 -2.19,-4.211 -5.4,-7.468 -9.6,-9.8 -4.21,-2.329 -8.8,-3.489 -13.77,-3.489 -7.98,0 -14.45,2.571 -19.37,7.68 -4.91,5.121 -7.37,12.488 -7.37,22.121"
         style="fill:#231f20;fill-opacity:1;fill-rule:nonzero;stroke:none"
         id="path96" /><path
         d="m 7006,372.602 9.55,1.488 c 0.54,-3.828 2.03,-6.758 4.48,-8.801 2.45,-2.051 5.88,-3.051 10.29,-3.051 4.45,0 7.73,0.903 9.89,2.703 2.14,1.821 3.21,3.93 3.21,6.36 0,2.187 -0.96,3.91 -2.85,5.168 -1.32,0.851 -4.62,1.941 -9.87,3.269 -7.09,1.782 -12,3.344 -14.75,4.653 -2.73,1.289 -4.81,3.097 -6.22,5.418 -1.42,2.3 -2.13,4.851 -2.13,7.64 0,2.539 0.59,4.903 1.76,7.063 1.15,2.168 2.73,3.968 4.75,5.386 1.51,1.122 3.54,2.063 6.14,2.832 2.6,0.77 5.38,1.161 8.35,1.161 4.47,0 8.41,-0.661 11.78,-1.942 3.38,-1.289 5.88,-3.027 7.49,-5.238 1.62,-2.199 2.72,-5.152 3.33,-8.832 l -9.45,-1.289 c -0.43,2.93 -1.67,5.23 -3.73,6.879 -2.06,1.652 -4.97,2.472 -8.72,2.472 -4.44,0 -7.61,-0.73 -9.51,-2.211 -1.9,-1.46 -2.84,-3.179 -2.84,-5.148 0,-1.262 0.39,-2.391 1.18,-3.383 0.8,-1.039 2.02,-1.898 3.71,-2.578 0.96,-0.351 3.81,-1.172 8.53,-2.461 6.84,-1.84 11.61,-3.32 14.31,-4.5 2.71,-1.16 4.83,-2.851 6.36,-5.058 1.54,-2.231 2.31,-4.981 2.31,-8.282 0,-3.218 -0.93,-6.25 -2.82,-9.101 -1.87,-2.848 -4.59,-5.047 -8.13,-6.61 -3.55,-1.55 -7.55,-2.32 -12.03,-2.32 -7.41,0 -13.05,1.531 -16.94,4.621 -3.89,3.059 -6.37,7.629 -7.43,13.692"
         style="fill:#231f20;fill-opacity:1;fill-rule:nonzero;stroke:none"
         id="path98" /><path
         d="m 7096.84,355.57 v 78.719 h 56.91 v -9.301 h -46.5 v -24.097 h 43.55 v -9.243 h -43.55 v -26.789 h 48.33 v -9.289 h -58.74"
         style="fill:#231f20;fill-opacity:1;fill-rule:nonzero;stroke:none"
         id="path100" /><path
         d="m 7206.1,355.57 v 8.379 c -4.44,-6.449 -10.47,-9.668 -18.1,-9.668 -3.36,0 -6.5,0.649 -9.43,1.93 -2.91,1.289 -5.07,2.91 -6.48,4.859 -1.43,1.961 -2.42,4.34 -2.98,7.168 -0.4,1.903 -0.6,4.91 -0.6,9.032 v 35.32 h 9.67 v -31.621 c 0,-5.047 0.2,-8.449 0.59,-10.199 0.61,-2.551 1.89,-4.54 3.86,-5.981 1.98,-1.457 4.41,-2.18 7.31,-2.18 2.9,0 5.61,0.743 8.16,2.223 2.53,1.488 4.34,3.508 5.39,6.066 1.06,2.563 1.59,6.274 1.59,11.141 v 30.551 h 9.66 v -57.02 h -8.64"
         style="fill:#231f20;fill-opacity:1;fill-rule:nonzero;stroke:none"
         id="path102" /><path
         d="m 7229.78,355.57 v 57.02 h 8.69 v -8.629 c 2.22,4.027 4.27,6.699 6.14,7.988 1.89,1.289 3.96,1.93 6.21,1.93 3.26,0 6.57,-1.039 9.94,-3.109 l -3.33,-8.969 c -2.37,1.398 -4.72,2.097 -7.09,2.097 -2.11,0 -4.02,-0.636 -5.7,-1.91 -1.68,-1.269 -2.88,-3.027 -3.59,-5.289 -1.07,-3.437 -1.61,-7.187 -1.61,-11.277 V 355.57 h -9.66"
         style="fill:#231f20;fill-opacity:1;fill-rule:nonzero;stroke:none"
         id="path104" /><path
         d="m 7272.83,384.082 c 0,-7.301 1.59,-12.773 4.79,-16.391 3.19,-3.64 7.18,-5.453 12.03,-5.453 4.78,0 8.79,1.813 11.97,5.473 3.17,3.648 4.77,9.211 4.77,16.687 0,7.063 -1.6,12.403 -4.81,16.032 -3.19,3.629 -7.19,5.449 -11.93,5.449 -4.85,0 -8.84,-1.809 -12.03,-5.418 -3.2,-3.609 -4.79,-9.07 -4.79,-16.379 m -9.92,0 c 0,10.559 2.93,18.379 8.81,23.457 4.9,4.231 10.88,6.352 17.93,6.352 7.84,0 14.24,-2.582 19.22,-7.719 4.98,-5.121 7.47,-12.223 7.47,-21.281 0,-7.34 -1.12,-13.11 -3.31,-17.321 -2.2,-4.211 -5.4,-7.468 -9.61,-9.8 -4.21,-2.329 -8.8,-3.489 -13.77,-3.489 -7.98,0 -14.44,2.571 -19.37,7.68 -4.91,5.121 -7.37,12.488 -7.37,22.121"
         style="fill:#231f20;fill-opacity:1;fill-rule:nonzero;stroke:none"
         id="path106" /><path
         d="m 7336.4,383.762 c 0,-7.34 1.49,-12.762 4.46,-16.274 2.97,-3.508 6.57,-5.258 10.79,-5.258 4.3,0 7.97,1.821 11.05,5.45 3.05,3.629 4.59,9.261 4.59,16.89 0,7.262 -1.51,12.7 -4.49,16.321 -2.99,3.609 -6.57,5.418 -10.72,5.418 -4.12,0 -7.76,-1.911 -10.92,-5.77 -3.17,-3.848 -4.76,-9.437 -4.76,-16.777 m -8.75,-50.043 v 78.871 h 8.81 v -7.399 c 2.08,2.891 4.42,5.071 7.03,6.52 2.62,1.449 5.78,2.168 9.5,2.168 4.87,0 9.17,-1.25 12.89,-3.758 3.72,-2.5 6.54,-6.039 8.43,-10.601 1.89,-4.559 2.85,-9.571 2.85,-15.008 0,-5.832 -1.05,-11.09 -3.14,-15.75 -2.1,-4.68 -5.14,-8.262 -9.13,-10.75 -4,-2.481 -8.19,-3.731 -12.59,-3.731 -3.22,0 -6.11,0.68 -8.67,2.039 -2.56,1.36 -4.67,3.078 -6.31,5.16 v -27.761 h -9.67"
         style="fill:#231f20;fill-opacity:1;fill-rule:nonzero;stroke:none"
         id="path108" /><path
         d="m 7396.1,389.559 h 31.85 c -0.43,4.8 -1.64,8.39 -3.65,10.793 -3.08,3.718 -7.07,5.589 -11.99,5.589 -4.42,0 -8.15,-1.492 -11.19,-4.461 -3.02,-2.96 -4.69,-6.941 -5.02,-11.921 m 31.74,-15.61 9.99,-1.238 c -1.57,-5.84 -4.49,-10.371 -8.75,-13.59 -4.27,-3.23 -9.7,-4.84 -16.34,-4.84 -8.34,0 -14.95,2.578 -19.82,7.707 -4.89,5.133 -7.34,12.344 -7.34,21.614 0,9.589 2.47,17.046 7.41,22.339 4.95,5.289 11.35,7.938 19.22,7.938 7.62,0 13.85,-2.598 18.69,-7.777 4.84,-5.192 7.24,-12.5 7.24,-21.911 0,-0.57 -0.01,-1.429 -0.04,-2.582 h -42.53 c 0.36,-6.257 2.13,-11.058 5.32,-14.39 3.19,-3.328 7.15,-4.989 11.92,-4.989 3.54,0 6.57,0.93 9.07,2.79 2.5,1.871 4.49,4.832 5.96,8.929"
         style="fill:#231f20;fill-opacity:1;fill-rule:nonzero;stroke:none"
         id="path110" /><path
         d="m 7487.32,355.57 v 8.379 c -4.43,-6.449 -10.46,-9.668 -18.09,-9.668 -3.36,0 -6.51,0.649 -9.43,1.93 -2.92,1.289 -5.07,2.91 -6.48,4.859 -1.43,1.961 -2.42,4.34 -2.98,7.168 -0.4,1.903 -0.6,4.91 -0.6,9.032 v 35.32 h 9.66 v -31.621 c 0,-5.047 0.21,-8.449 0.6,-10.199 0.61,-2.551 1.89,-4.54 3.86,-5.981 1.98,-1.457 4.41,-2.18 7.31,-2.18 2.9,0 5.61,0.743 8.16,2.223 2.54,1.488 4.34,3.508 5.39,6.066 1.06,2.563 1.59,6.274 1.59,11.141 v 30.551 h 9.66 v -57.02 h -8.65"
         style="fill:#231f20;fill-opacity:1;fill-rule:nonzero;stroke:none"
         id="path112" /><path
         d="m 7507.25,372.602 9.55,1.488 c 0.54,-3.828 2.03,-6.758 4.48,-8.801 2.45,-2.051 5.88,-3.051 10.29,-3.051 4.45,0 7.73,0.903 9.89,2.703 2.14,1.821 3.21,3.93 3.21,6.36 0,2.187 -0.96,3.91 -2.85,5.168 -1.32,0.851 -4.62,1.941 -9.87,3.269 -7.09,1.782 -12,3.344 -14.75,4.653 -2.73,1.289 -4.81,3.097 -6.22,5.418 -1.42,2.3 -2.13,4.851 -2.13,7.64 0,2.539 0.59,4.903 1.76,7.063 1.15,2.168 2.73,3.968 4.75,5.386 1.51,1.122 3.54,2.063 6.14,2.832 2.6,0.77 5.38,1.161 8.35,1.161 4.47,0 8.41,-0.661 11.78,-1.942 3.38,-1.289 5.88,-3.027 7.49,-5.238 1.62,-2.199 2.72,-5.152 3.33,-8.832 L 7543,396.59 c -0.43,2.93 -1.67,5.23 -3.73,6.879 -2.06,1.652 -4.97,2.472 -8.72,2.472 -4.44,0 -7.61,-0.73 -9.51,-2.211 -1.9,-1.46 -2.84,-3.179 -2.84,-5.148 0,-1.262 0.39,-2.391 1.18,-3.383 0.8,-1.039 2.02,-1.898 3.71,-2.578 0.96,-0.351 3.81,-1.172 8.53,-2.461 6.84,-1.84 11.61,-3.32 14.31,-4.5 2.71,-1.16 4.83,-2.851 6.36,-5.058 1.54,-2.231 2.31,-4.981 2.31,-8.282 0,-3.218 -0.93,-6.25 -2.82,-9.101 -1.87,-2.848 -4.59,-5.047 -8.13,-6.61 -3.55,-1.55 -7.55,-2.32 -12.03,-2.32 -7.41,0 -13.05,1.531 -16.94,4.621 -3.89,3.059 -6.37,7.629 -7.43,13.692"
         style="fill:#231f20;fill-opacity:1;fill-rule:nonzero;stroke:none"
         id="path114" /><path
         d="m 6699.53,223.609 v 78.723 h 56.92 v -9.293 h -46.51 v -24.098 h 43.56 v -9.242 h -43.56 V 232.91 h 48.33 v -9.301 h -58.74"
         style="fill:#231f20;fill-opacity:1;fill-rule:nonzero;stroke:none"
         id="path116" /><path
         d="m 6767.56,240.648 9.55,1.493 c 0.55,-3.832 2.03,-6.762 4.48,-8.801 2.45,-2.051 5.88,-3.059 10.29,-3.059 4.45,0 7.73,0.899 9.89,2.707 2.15,1.821 3.21,3.922 3.21,6.364 0,2.179 -0.96,3.898 -2.85,5.16 -1.32,0.859 -4.62,1.957 -9.86,3.269 -7.09,1.789 -12.01,3.34 -14.76,4.649 -2.72,1.3 -4.8,3.109 -6.22,5.422 -1.42,2.308 -2.13,4.867 -2.13,7.648 0,2.539 0.6,4.898 1.76,7.059 1.15,2.171 2.73,3.961 4.75,5.39 1.51,1.11 3.54,2.063 6.15,2.832 2.59,0.758 5.38,1.149 8.35,1.149 4.46,0 8.4,-0.649 11.77,-1.93 3.38,-1.289 5.88,-3.039 7.49,-5.238 1.62,-2.203 2.72,-5.153 3.33,-8.832 l -9.45,-1.289 c -0.43,2.929 -1.67,5.218 -3.73,6.871 -2.06,1.648 -4.97,2.468 -8.72,2.468 -4.43,0 -7.61,-0.73 -9.5,-2.199 -1.91,-1.472 -2.84,-3.191 -2.84,-5.152 0,-1.258 0.39,-2.391 1.18,-3.391 0.79,-1.027 2.01,-1.886 3.7,-2.578 0.97,-0.351 3.82,-1.172 8.53,-2.461 6.84,-1.828 11.61,-3.32 14.31,-4.488 2.72,-1.16 4.83,-2.852 6.37,-5.07 1.53,-2.219 2.3,-4.981 2.3,-8.27 0,-3.223 -0.93,-6.25 -2.82,-9.101 -1.87,-2.848 -4.59,-5.051 -8.13,-6.61 -3.55,-1.551 -7.54,-2.332 -12.03,-2.332 -7.41,0 -13.04,1.543 -16.94,4.621 -3.89,3.071 -6.37,7.641 -7.43,13.699"
         style="fill:#231f20;fill-opacity:1;fill-rule:nonzero;stroke:none"
         id="path118" /><path
         d="m 6847.5,232.27 1.41,-8.551 c -2.74,-0.571 -5.17,-0.848 -7.32,-0.848 -3.49,0 -6.23,0.551 -8.14,1.66 -1.95,1.117 -3.3,2.571 -4.08,4.379 -0.81,1.801 -1.2,5.61 -1.2,11.41 v 32.809 h -7.09 v 7.519 h 7.09 v 14.122 l 9.61,5.789 v -19.911 h 9.72 v -7.519 h -9.72 v -33.34 c 0,-2.769 0.18,-4.539 0.51,-5.328 0.34,-0.781 0.91,-1.41 1.67,-1.879 0.76,-0.461 1.88,-0.691 3.3,-0.691 1.09,0 2.48,0.121 4.24,0.379"
         style="fill:#231f20;fill-opacity:1;fill-rule:nonzero;stroke:none"
         id="path120" /><path
         d="m 6856.84,223.609 v 57.032 h 8.7 V 272 c 2.22,4.039 4.27,6.711 6.14,8 1.89,1.289 3.96,1.922 6.21,1.922 3.26,0 6.57,-1.031 9.94,-3.102 l -3.33,-8.98 c -2.37,1.41 -4.73,2.101 -7.09,2.101 -2.11,0 -4.02,-0.632 -5.7,-1.902 -1.68,-1.269 -2.88,-3.039 -3.58,-5.289 -1.08,-3.441 -1.62,-7.191 -1.62,-11.281 v -29.86 h -9.67"
         style="fill:#231f20;fill-opacity:1;fill-rule:nonzero;stroke:none"
         id="path122" /><path
         d="m 6930.94,223.609 v 8.379 c -4.44,-6.437 -10.47,-9.668 -18.1,-9.668 -3.36,0 -6.5,0.66 -9.42,1.942 -2.92,1.289 -5.08,2.91 -6.49,4.859 -1.42,1.949 -2.42,4.34 -2.97,7.168 -0.41,1.891 -0.61,4.902 -0.61,9.02 v 35.332 h 9.67 v -31.629 c 0,-5.043 0.2,-8.442 0.59,-10.192 0.61,-2.55 1.9,-4.539 3.86,-5.988 1.98,-1.453 4.41,-2.184 7.32,-2.184 2.9,0 5.6,0.75 8.15,2.231 2.54,1.492 4.35,3.512 5.39,6.07 1.06,2.551 1.59,6.27 1.59,11.141 v 30.551 h 9.66 v -57.032 h -8.64"
         style="fill:#231f20;fill-opacity:1;fill-rule:nonzero;stroke:none"
         id="path124" /><path
         d="m 6975.82,232.27 1.41,-8.551 c -2.74,-0.571 -5.17,-0.848 -7.32,-0.848 -3.49,0 -6.23,0.551 -8.14,1.66 -1.95,1.117 -3.3,2.571 -4.08,4.379 -0.81,1.801 -1.2,5.61 -1.2,11.41 v 32.809 h -7.09 v 7.519 h 7.09 v 14.122 l 9.61,5.789 v -19.911 h 9.72 v -7.519 h -9.72 v -33.34 c 0,-2.769 0.18,-4.539 0.51,-5.328 0.34,-0.781 0.91,-1.41 1.67,-1.879 0.76,-0.461 1.88,-0.691 3.3,-0.691 1.09,0 2.48,0.121 4.24,0.379"
         style="fill:#231f20;fill-opacity:1;fill-rule:nonzero;stroke:none"
         id="path126" /><path
         d="m 7022.65,223.609 v 8.379 c -4.45,-6.437 -10.48,-9.668 -18.11,-9.668 -3.36,0 -6.49,0.66 -9.42,1.942 -2.91,1.289 -5.08,2.91 -6.49,4.859 -1.42,1.949 -2.42,4.34 -2.98,7.168 -0.4,1.891 -0.6,4.902 -0.6,9.02 v 35.332 h 9.68 v -31.629 c 0,-5.043 0.19,-8.442 0.58,-10.192 0.61,-2.55 1.9,-4.539 3.86,-5.988 1.98,-1.453 4.41,-2.184 7.31,-2.184 2.9,0 5.61,0.75 8.16,2.231 2.54,1.492 4.34,3.512 5.39,6.07 1.06,2.551 1.59,6.27 1.59,11.141 v 30.551 h 9.66 v -57.032 h -8.63"
         style="fill:#231f20;fill-opacity:1;fill-rule:nonzero;stroke:none"
         id="path128" /><path
         d="m 7046.31,223.609 v 57.032 h 8.7 V 272 c 2.23,4.039 4.28,6.711 6.14,8 1.9,1.289 3.97,1.922 6.21,1.922 3.27,0 6.58,-1.031 9.94,-3.102 l -3.33,-8.98 c -2.37,1.41 -4.73,2.101 -7.09,2.101 -2.1,0 -4.02,-0.632 -5.7,-1.902 -1.68,-1.269 -2.88,-3.039 -3.58,-5.289 -1.08,-3.441 -1.61,-7.191 -1.61,-11.281 v -29.86 h -9.68"
         style="fill:#231f20;fill-opacity:1;fill-rule:nonzero;stroke:none"
         id="path130" /><path
         d="m 7119.45,252.238 c -3.51,-1.429 -8.78,-2.648 -15.78,-3.66 -3.98,-0.558 -6.79,-1.219 -8.45,-1.93 -1.64,-0.707 -2.91,-1.769 -3.8,-3.136 -0.9,-1.371 -1.34,-2.91 -1.34,-4.59 0,-2.57 0.96,-4.723 2.92,-6.442 1.96,-1.718 4.81,-2.582 8.57,-2.582 3.72,0 7.02,0.813 9.92,2.442 2.9,1.629 5.03,3.851 6.41,6.68 1.03,2.179 1.55,5.41 1.55,9.671 z m 0.79,-21.59 c -3.56,-3.039 -7.01,-5.187 -10.32,-6.437 -3.31,-1.25 -6.87,-1.891 -10.66,-1.891 -6.27,0 -11.09,1.539 -14.45,4.59 -3.36,3.07 -5.04,6.988 -5.04,11.738 0,2.801 0.64,5.34 1.91,7.661 1.27,2.3 2.94,4.16 4.99,5.55 2.06,1.391 4.37,2.461 6.94,3.172 1.91,0.5 4.78,0.981 8.6,1.449 7.81,0.918 13.55,2.04 17.24,3.329 0.04,1.32 0.06,2.16 0.06,2.511 0,3.95 -0.93,6.719 -2.75,8.328 -2.47,2.184 -6.14,3.282 -11,3.282 -4.55,0 -7.9,-0.801 -10.08,-2.399 -2.16,-1.59 -3.77,-4.402 -4.79,-8.449 l -9.46,1.289 c 0.86,4.051 2.28,7.309 4.24,9.801 1.97,2.488 4.82,4.398 8.55,5.738 3.72,1.352 8.03,2.012 12.94,2.012 4.86,0 8.81,-0.563 11.85,-1.711 3.06,-1.152 5.29,-2.582 6.72,-4.32 1.43,-1.743 2.43,-3.942 3.01,-6.571 0.32,-1.648 0.49,-4.621 0.49,-8.922 v -12.886 c 0,-8.981 0.19,-14.672 0.6,-17.043 0.41,-2.387 1.22,-4.668 2.45,-6.86 h -10.1 c -0.99,2.012 -1.64,4.36 -1.94,7.039"
         style="fill:#231f20;fill-opacity:1;fill-rule:nonzero;stroke:none"
         id="path132" /><path
         d="m 7144.25,280.648 h 9.66 v -57.027 h -9.66 z m 0,21.684 h 9.66 v -11.121 h -9.66 v 11.121"
         style="fill:#231f20;fill-opacity:1;fill-rule:nonzero;stroke:none"
         id="path134" /><path
         d="m 7164.77,240.648 9.55,1.493 c 0.54,-3.832 2.03,-6.762 4.48,-8.801 2.45,-2.051 5.88,-3.059 10.29,-3.059 4.45,0 7.73,0.899 9.88,2.707 2.15,1.821 3.22,3.922 3.22,6.364 0,2.179 -0.96,3.898 -2.85,5.16 -1.32,0.859 -4.62,1.957 -9.87,3.269 -7.09,1.789 -12,3.34 -14.75,4.649 -2.73,1.3 -4.81,3.109 -6.22,5.422 -1.42,2.308 -2.13,4.867 -2.13,7.648 0,2.539 0.59,4.898 1.76,7.059 1.15,2.171 2.73,3.961 4.75,5.39 1.5,1.11 3.54,2.063 6.14,2.832 2.6,0.758 5.38,1.149 8.35,1.149 4.47,0 8.41,-0.649 11.78,-1.93 3.38,-1.289 5.88,-3.039 7.49,-5.238 1.62,-2.203 2.72,-5.153 3.33,-8.832 l -9.45,-1.289 c -0.43,2.929 -1.67,5.218 -3.73,6.871 -2.06,1.648 -4.97,2.468 -8.72,2.468 -4.44,0 -7.61,-0.73 -9.51,-2.199 -1.9,-1.472 -2.84,-3.191 -2.84,-5.152 0,-1.258 0.39,-2.391 1.18,-3.391 0.8,-1.027 2.02,-1.886 3.71,-2.578 0.96,-0.351 3.81,-1.172 8.53,-2.461 6.84,-1.828 11.61,-3.32 14.31,-4.488 2.71,-1.16 4.83,-2.852 6.36,-5.07 1.54,-2.219 2.31,-4.981 2.31,-8.27 0,-3.223 -0.93,-6.25 -2.82,-9.101 -1.87,-2.848 -4.59,-5.051 -8.13,-6.61 -3.55,-1.551 -7.55,-2.332 -12.03,-2.332 -7.41,0 -13.05,1.543 -16.94,4.621 -3.89,3.071 -6.37,7.641 -7.43,13.699"
         style="fill:#231f20;fill-opacity:1;fill-rule:nonzero;stroke:none"
         id="path136" /><path
         d="m 7261.46,257.609 h 31.84 c -0.43,4.782 -1.64,8.391 -3.65,10.789 -3.08,3.723 -7.07,5.582 -11.98,5.582 -4.43,0 -8.16,-1.48 -11.19,-4.449 -3.03,-2.98 -4.7,-6.941 -5.02,-11.922 m 31.73,-15.629 9.99,-1.242 c -1.57,-5.84 -4.49,-10.347 -8.75,-13.566 -4.26,-3.231 -9.7,-4.852 -16.33,-4.852 -8.34,0 -14.96,2.571 -19.83,7.719 -4.89,5.133 -7.34,12.332 -7.34,21.609 0,9.59 2.47,17.043 7.41,22.332 4.95,5.301 11.35,7.942 19.22,7.942 7.63,0 13.86,-2.59 18.69,-7.774 4.84,-5.187 7.25,-12.5 7.25,-21.91 0,-0.566 -0.02,-1.429 -0.05,-2.578 h -42.53 c 0.36,-6.262 2.13,-11.07 5.32,-14.398 3.19,-3.332 7.15,-4.992 11.92,-4.992 3.54,0 6.57,0.941 9.07,2.8 2.51,1.86 4.49,4.828 5.96,8.91"
         style="fill:#231f20;fill-opacity:1;fill-rule:nonzero;stroke:none"
         id="path138" /><path
         d="m 7352.3,252.07 c 0,-7.289 1.54,-12.75 4.62,-16.379 3.08,-3.601 6.71,-5.421 10.9,-5.421 4.22,0 7.81,1.73 10.76,5.191 2.96,3.461 4.43,8.73 4.43,15.809 0,7.8 -1.5,13.531 -4.51,17.191 -3.01,3.648 -6.71,5.48 -11.11,5.48 -4.3,0 -7.88,-1.761 -10.76,-5.281 -2.88,-3.5 -4.33,-9.031 -4.33,-16.59 m 30.55,-28.461 v 7.2 c -3.62,-5.649 -8.93,-8.489 -15.94,-8.489 -4.55,0 -8.73,1.258 -12.54,3.758 -3.82,2.512 -6.77,6.024 -8.86,10.504 -2.1,4.488 -3.14,9.656 -3.14,15.488 0,5.692 0.95,10.86 2.84,15.5 1.9,4.641 4.75,8.18 8.54,10.649 3.79,2.472 8.03,3.703 12.73,3.703 3.43,0 6.49,-0.723 9.18,-2.16 2.68,-1.461 4.86,-3.34 6.55,-5.672 v 28.242 h 9.61 v -78.723 h -8.97"
         style="fill:#231f20;fill-opacity:1;fill-rule:nonzero;stroke:none"
         id="path140" /><path
         d="m 7414.32,257.609 h 31.83 c -0.43,4.782 -1.64,8.391 -3.65,10.789 -3.08,3.723 -7.07,5.582 -11.98,5.582 -4.43,0 -8.16,-1.48 -11.18,-4.449 -3.04,-2.98 -4.71,-6.941 -5.02,-11.922 m 31.72,-15.629 10,-1.242 c -1.58,-5.84 -4.5,-10.347 -8.75,-13.566 -4.27,-3.231 -9.71,-4.852 -16.34,-4.852 -8.34,0 -14.94,2.571 -19.83,7.719 -4.89,5.133 -7.34,12.332 -7.34,21.609 0,9.59 2.47,17.043 7.41,22.332 4.95,5.301 11.35,7.942 19.22,7.942 7.64,0 13.86,-2.59 18.69,-7.774 4.85,-5.187 7.25,-12.5 7.25,-21.91 0,-0.566 -0.02,-1.429 -0.05,-2.578 h -42.53 c 0.36,-6.262 2.13,-11.07 5.32,-14.398 3.2,-3.332 7.15,-4.992 11.93,-4.992 3.53,0 6.56,0.941 9.06,2.8 2.51,1.86 4.49,4.828 5.96,8.91"
         style="fill:#231f20;fill-opacity:1;fill-rule:nonzero;stroke:none"
         id="path142" /><path
         d="m 7501.71,302.332 h 10.42 v -78.723 h -10.42 v 78.723"
         style="fill:#231f20;fill-opacity:1;fill-rule:nonzero;stroke:none"
         id="path144" /><path
         d="m 7529.26,223.609 v 57.032 h 8.69 v -8.102 c 4.19,6.262 10.24,9.383 18.15,9.383 3.43,0 6.61,-0.602 9.49,-1.84 2.88,-1.242 5.04,-2.863 6.45,-4.863 1.45,-2.02 2.44,-4.387 3.01,-7.137 0.36,-1.793 0.55,-4.934 0.55,-9.402 v -35.071 h -9.68 v 34.7 c 0,3.929 -0.36,6.882 -1.12,8.832 -0.76,1.949 -2.09,3.507 -4.01,4.668 -1.9,1.16 -4.16,1.75 -6.74,1.75 -4.11,0 -7.65,-1.309 -10.65,-3.918 -2.99,-2.621 -4.47,-7.582 -4.47,-14.879 v -31.153 h -9.67"
         style="fill:#231f20;fill-opacity:1;fill-rule:nonzero;stroke:none"
         id="path146" /><path
         d="m 7606.25,223.609 -21.7,57.032 h 10.22 l 12.22,-34.161 c 1.33,-3.679 2.54,-7.5 3.65,-11.48 0.86,3.012 2.07,6.621 3.61,10.852 l 12.66,34.789 h 9.95 l -21.6,-57.032 h -9.01"
         style="fill:#231f20;fill-opacity:1;fill-rule:nonzero;stroke:none"
         id="path148" /><path
         d="m 7652.69,257.609 h 31.84 c -0.43,4.782 -1.64,8.391 -3.65,10.789 -3.08,3.723 -7.07,5.582 -11.98,5.582 -4.43,0 -8.16,-1.48 -11.19,-4.449 -3.03,-2.98 -4.7,-6.941 -5.02,-11.922 m 31.73,-15.629 9.99,-1.242 c -1.57,-5.84 -4.49,-10.347 -8.75,-13.566 -4.26,-3.231 -9.7,-4.852 -16.33,-4.852 -8.34,0 -14.95,2.571 -19.83,7.719 -4.89,5.133 -7.34,12.332 -7.34,21.609 0,9.59 2.47,17.043 7.41,22.332 4.95,5.301 11.35,7.942 19.22,7.942 7.63,0 13.86,-2.59 18.69,-7.774 4.84,-5.187 7.25,-12.5 7.25,-21.91 0,-0.566 -0.02,-1.429 -0.05,-2.578 h -42.53 c 0.36,-6.262 2.13,-11.07 5.32,-14.398 3.19,-3.332 7.15,-4.992 11.92,-4.992 3.54,0 6.57,0.941 9.07,2.8 2.51,1.86 4.49,4.828 5.96,8.91"
         style="fill:#231f20;fill-opacity:1;fill-rule:nonzero;stroke:none"
         id="path150" /><path
         d="m 7702.68,240.648 9.55,1.493 c 0.54,-3.832 2.03,-6.762 4.48,-8.801 2.45,-2.051 5.88,-3.059 10.29,-3.059 4.45,0 7.73,0.899 9.88,2.707 2.15,1.821 3.22,3.922 3.22,6.364 0,2.179 -0.96,3.898 -2.85,5.16 -1.32,0.859 -4.62,1.957 -9.87,3.269 -7.09,1.789 -12,3.34 -14.75,4.649 -2.73,1.3 -4.81,3.109 -6.22,5.422 -1.42,2.308 -2.13,4.867 -2.13,7.648 0,2.539 0.59,4.898 1.76,7.059 1.15,2.171 2.73,3.961 4.75,5.39 1.5,1.11 3.54,2.063 6.14,2.832 2.6,0.758 5.38,1.149 8.35,1.149 4.47,0 8.41,-0.649 11.78,-1.93 3.38,-1.289 5.88,-3.039 7.49,-5.238 1.62,-2.203 2.72,-5.153 3.33,-8.832 l -9.45,-1.289 c -0.43,2.929 -1.67,5.218 -3.73,6.871 -2.06,1.648 -4.97,2.468 -8.72,2.468 -4.44,0 -7.61,-0.73 -9.51,-2.199 -1.9,-1.472 -2.84,-3.191 -2.84,-5.152 0,-1.258 0.39,-2.391 1.18,-3.391 0.8,-1.027 2.02,-1.886 3.71,-2.578 0.96,-0.351 3.81,-1.172 8.53,-2.461 6.84,-1.828 11.61,-3.32 14.31,-4.488 2.71,-1.16 4.83,-2.852 6.36,-5.07 1.54,-2.219 2.31,-4.981 2.31,-8.27 0,-3.223 -0.93,-6.25 -2.82,-9.101 -1.87,-2.848 -4.59,-5.051 -8.13,-6.61 -3.55,-1.551 -7.55,-2.332 -12.03,-2.332 -7.41,0 -13.05,1.543 -16.94,4.621 -3.89,3.071 -6.37,7.641 -7.43,13.699"
         style="fill:#231f20;fill-opacity:1;fill-rule:nonzero;stroke:none"
         id="path152" /><path
         d="m 7782.62,232.27 1.4,-8.551 c -2.73,-0.571 -5.16,-0.848 -7.31,-0.848 -3.5,0 -6.23,0.551 -8.15,1.66 -1.94,1.117 -3.3,2.571 -4.08,4.379 -0.8,1.801 -1.19,5.61 -1.19,11.41 v 32.809 h -7.09 v 7.519 h 7.09 v 14.122 l 9.61,5.789 v -19.911 h 9.72 v -7.519 h -9.72 v -33.34 c 0,-2.769 0.18,-4.539 0.51,-5.328 0.34,-0.781 0.91,-1.41 1.67,-1.879 0.76,-0.461 1.87,-0.691 3.3,-0.691 1.08,0 2.48,0.121 4.24,0.379"
         style="fill:#231f20;fill-opacity:1;fill-rule:nonzero;stroke:none"
         id="path154" /><path
         d="m 7792.12,280.648 h 9.66 v -57.027 h -9.66 z m 0,21.684 h 9.66 v -11.121 h -9.66 v 11.121"
         style="fill:#231f20;fill-opacity:1;fill-rule:nonzero;stroke:none"
         id="path156" /><path
         d="m 7816.5,223.609 v 57.032 h 8.64 v -8 c 1.79,2.789 4.17,5.039 7.15,6.738 2.96,1.691 6.35,2.543 10.15,2.543 4.22,0 7.68,-0.871 10.39,-2.621 2.69,-1.75 4.61,-4.211 5.71,-7.36 4.51,6.649 10.38,9.981 17.62,9.981 5.65,0 10,-1.563 13.05,-4.692 3.03,-3.128 4.56,-7.96 4.56,-14.48 v -39.141 h -9.61 v 35.93 c 0,3.871 -0.32,6.652 -0.94,8.352 -0.63,1.699 -1.77,3.07 -3.42,4.109 -1.65,1.031 -3.57,1.559 -5.8,1.559 -4,0 -7.33,-1.34 -9.98,-4.008 -2.65,-2.66 -3.98,-6.93 -3.98,-12.801 v -33.141 h -9.65 v 37.051 c 0,4.301 -0.79,7.52 -2.37,9.672 -1.58,2.148 -4.16,3.227 -7.73,3.227 -2.73,0 -5.24,-0.719 -7.56,-2.149 -2.29,-1.441 -3.96,-3.531 -5.02,-6.289 -1.02,-2.762 -1.54,-6.723 -1.54,-11.93 v -29.582 h -9.67"
         style="fill:#231f20;fill-opacity:1;fill-rule:nonzero;stroke:none"
         id="path158" /><path
         d="m 7915.41,257.609 h 31.84 c -0.43,4.782 -1.64,8.391 -3.66,10.789 -3.07,3.723 -7.07,5.582 -11.98,5.582 -4.42,0 -8.15,-1.48 -11.18,-4.449 -3.04,-2.98 -4.71,-6.941 -5.02,-11.922 m 31.73,-15.629 9.99,-1.242 c -1.57,-5.84 -4.49,-10.347 -8.75,-13.566 -4.27,-3.231 -9.71,-4.852 -16.34,-4.852 -8.34,0 -14.95,2.571 -19.82,7.719 -4.9,5.133 -7.35,12.332 -7.35,21.609 0,9.59 2.47,17.043 7.42,22.332 4.95,5.301 11.34,7.942 19.21,7.942 7.63,0 13.86,-2.59 18.7,-7.774 4.84,-5.187 7.24,-12.5 7.24,-21.91 0,-0.566 -0.02,-1.429 -0.05,-2.578 h -42.53 c 0.36,-6.262 2.13,-11.07 5.33,-14.398 3.19,-3.332 7.14,-4.992 11.92,-4.992 3.53,0 6.56,0.941 9.06,2.8 2.51,1.86 4.49,4.828 5.97,8.91"
         style="fill:#231f20;fill-opacity:1;fill-rule:nonzero;stroke:none"
         id="path160" /><path
         d="m 7969.26,223.609 v 57.032 h 8.69 v -8.102 c 4.19,6.262 10.24,9.383 18.15,9.383 3.43,0 6.61,-0.602 9.49,-1.84 2.88,-1.242 5.04,-2.863 6.45,-4.863 1.45,-2.02 2.44,-4.387 3.01,-7.137 0.36,-1.793 0.55,-4.934 0.55,-9.402 v -35.071 h -9.68 v 34.7 c 0,3.929 -0.36,6.882 -1.12,8.832 -0.76,1.949 -2.09,3.507 -4.01,4.668 -1.9,1.16 -4.16,1.75 -6.74,1.75 -4.11,0 -7.65,-1.309 -10.65,-3.918 -2.99,-2.621 -4.47,-7.582 -4.47,-14.879 v -31.153 h -9.67"
         style="fill:#231f20;fill-opacity:1;fill-rule:nonzero;stroke:none"
         id="path162" /><path
         d="m 8051.5,232.27 1.41,-8.551 c -2.73,-0.571 -5.17,-0.848 -7.31,-0.848 -3.5,0 -6.23,0.551 -8.15,1.66 -1.94,1.117 -3.3,2.571 -4.08,4.379 -0.8,1.801 -1.19,5.61 -1.19,11.41 v 32.809 h -7.09 v 7.519 h 7.09 v 14.122 l 9.61,5.789 v -19.911 h 9.71 v -7.519 h -9.71 v -33.34 c 0,-2.769 0.17,-4.539 0.5,-5.328 0.35,-0.781 0.91,-1.41 1.67,-1.879 0.77,-0.461 1.88,-0.691 3.31,-0.691 1.08,0 2.48,0.121 4.23,0.379"
         style="fill:#231f20;fill-opacity:1;fill-rule:nonzero;stroke:none"
         id="path164" /><path
         d="m 8067.29,252.129 c 0,-7.309 1.59,-12.77 4.78,-16.399 3.19,-3.628 7.19,-5.449 12.03,-5.449 4.79,0 8.79,1.821 11.97,5.469 3.18,3.648 4.77,9.219 4.77,16.699 0,7.051 -1.6,12.391 -4.8,16.031 -3.2,3.629 -7.19,5.45 -11.94,5.45 -4.84,0 -8.84,-1.809 -12.03,-5.418 -3.19,-3.621 -4.78,-9.082 -4.78,-16.383 m -9.93,0 c 0,10.562 2.93,18.383 8.81,23.461 4.9,4.219 10.88,6.34 17.93,6.34 7.84,0 14.24,-2.571 19.22,-7.711 4.98,-5.129 7.47,-12.231 7.47,-21.278 0,-7.339 -1.11,-13.121 -3.31,-17.32 -2.2,-4.211 -5.4,-7.473 -9.61,-9.801 -4.21,-2.332 -8.8,-3.5 -13.77,-3.5 -7.98,0 -14.44,2.571 -19.36,7.692 -4.92,5.117 -7.38,12.488 -7.38,22.117"
         style="fill:#231f20;fill-opacity:1;fill-rule:nonzero;stroke:none"
         id="path166" /><path
         d="M 5593.05,813.301 H 6605.36 V 138.422 H 5593.05 v 674.879"
         style="fill:#254aa5;fill-opacity:1;fill-rule:nonzero;stroke:none"
         id="path168" /><path
         d="m 6077.65,666.27 21.34,15.585 21.36,-15.585 -8.11,25.207 21.7,15.593 h -26.77 l -8.18,25.5 -8.18,-25.539 -26.71,0.039 21.67,-15.593 -8.12,-25.207"
         style="fill:#fff200;fill-opacity:1;fill-rule:nonzero;stroke:none"
         id="path170" /><path
         d="m 5967.11,636.574 21.36,15.586 21.33,-15.586 -8.1,25.203 21.68,15.586 h -26.76 l -8.16,25.528 -8.2,-25.555 -26.72,0.027 21.67,-15.586 -8.1,-25.203"
         style="fill:#fff200;fill-opacity:1;fill-rule:nonzero;stroke:none"
         id="path172" /><path
         d="m 5907.56,621.836 -8.17,-25.574 -26.73,0.027 21.68,-15.586 -8.13,-25.203 21.35,15.582 21.38,-15.582 -8.15,25.203 21.69,15.586 h -26.74 l -8.18,25.547"
         style="fill:#fff200;fill-opacity:1;fill-rule:nonzero;stroke:none"
         id="path174" /><path
         d="m 5877.9,460.672 21.35,-15.57 -8.12,25.187 21.69,15.602 h -26.75 l -8.17,25.558 -8.18,-25.609 -26.72,0.051 21.67,-15.602 -8.14,-25.187 21.37,15.57"
         style="fill:#fff200;fill-opacity:1;fill-rule:nonzero;stroke:none"
         id="path176" /><path
         d="m 5915.74,375.16 -8.17,25.539 -8.19,-25.578 -26.73,0.039 21.68,-15.59 -8.11,-25.211 21.35,15.61 21.36,-15.61 -8.13,25.211 21.69,15.59 h -26.75"
         style="fill:#fff200;fill-opacity:1;fill-rule:nonzero;stroke:none"
         id="path178" /><path
         d="m 5996.8,294.121 -8.19,25.488 -8.18,-25.507 -26.72,0.019 21.67,-15.582 -8.11,-25.219 21.35,15.59 21.33,-15.59 -8.09,25.219 21.68,15.582 h -26.74"
         style="fill:#fff200;fill-opacity:1;fill-rule:nonzero;stroke:none"
         id="path180" /><path
         d="m 6107.19,264.75 -8.18,25.539 -8.19,-25.559 -26.72,0.02 21.67,-15.59 -8.09,-25.199 21.35,15.59 21.34,-15.59 -8.14,25.199 21.73,15.59 h -26.77"
         style="fill:#fff200;fill-opacity:1;fill-rule:nonzero;stroke:none"
         id="path182" /><path
         d="m 6217.61,294.121 -8.18,25.488 -8.21,-25.507 -26.7,0.019 21.66,-15.582 -8.1,-25.219 21.35,15.59 21.35,-15.59 -8.12,25.219 21.71,15.582 h -26.76"
         style="fill:#fff200;fill-opacity:1;fill-rule:nonzero;stroke:none"
         id="path184" /><path
         d="m 6298.67,375.16 -8.19,25.539 -8.21,-25.578 -26.7,0.039 21.69,-15.59 -8.14,-25.211 21.36,15.61 21.35,-15.61 -8.14,25.211 21.7,15.59 h -26.72"
         style="fill:#fff200;fill-opacity:1;fill-rule:nonzero;stroke:none"
         id="path186" /><path
         d="M 6354.75,486.211 H 6328 l -8.19,25.527 -8.17,-25.578 -26.73,0.051 21.67,-15.602 -8.1,-25.199 21.33,15.629 21.35,-15.629 -8.11,25.199 21.7,15.602"
         style="fill:#fff200;fill-opacity:1;fill-rule:nonzero;stroke:none"
         id="path188" /><path
         d="m 6269.12,555.84 21.36,15.582 21.35,-15.582 -8.14,25.215 21.7,15.547 h -26.72 l -8.19,25.546 -8.21,-25.566 -26.69,0.02 21.68,-15.547 -8.14,-25.215"
         style="fill:#fff200;fill-opacity:1;fill-rule:nonzero;stroke:none"
         id="path190" /><path
         d="m 6209.75,702.891 -8.18,-25.586 -26.74,0.058 21.67,-15.613 -8.12,-25.207 21.41,15.617 21.31,-15.617 -8.11,25.207 21.68,15.613 h -26.76 l -8.16,25.528"
         style="fill:#fff200;fill-opacity:1;fill-rule:nonzero;stroke:none"
         id="path192" /><path
         d="M 145.953,802.141 V 426.262 c 230.578,-55.692 446.879,284.89 633.07,216.277 v 71.113 c -145.14,114.649 -471.714,128.45 -633.07,88.489"
         style="fill:#34ab6e;fill-opacity:1;fill-rule:nonzero;stroke:none"
         id="path194" /><path
         d="M 779.02,149.551 V 525.43 C 548.457,581.133 332.148,240.52 145.945,309.148 V 238.031 C 291.078,123.398 617.66,109.59 779.02,149.551"
         style="fill:#fbdb5d;fill-opacity:1;fill-rule:nonzero;stroke:none"
         id="path196" /><path
         d="m 977.32,253.691 c 0.16,11.719 -3.418,20.469 -10.722,26.27 -7.289,5.801 -19.278,8.699 -35.969,8.687 -6.906,-0.039 -13.832,-0.589 -20.731,-1.679 -6.918,-1.059 -13.007,-2.399 -18.25,-4 -0.949,-0.25 -1.769,-0.68 -2.437,-1.25 -0.66,-0.571 -1.012,-1.309 -1.051,-2.219 v -14.262 c 0.02,-1.027 0.309,-1.898 0.899,-2.59 0.582,-0.699 1.371,-1.046 2.402,-1.078 h 0.187 0.184 c 5.688,0.578 11.68,1.121 18.016,1.602 6.328,0.488 12.332,0.758 18.043,0.789 7.3,0.019 12.386,-0.82 15.269,-2.563 2.879,-1.707 4.266,-4.519 4.141,-8.429 0.078,-2.77 -0.371,-5.059 -1.301,-6.86 -0.941,-1.8 -2.742,-3.738 -5.465,-5.828 -2.687,-2.101 -6.68,-4.941 -11.926,-8.562 l -16.851,-11.91 c -7.117,-5 -12.988,-11.469 -17.649,-19.399 -4.652,-7.949 -7.058,-16.969 -7.238,-27.109 v -18.653 c 0.02,-1.039 0.399,-1.898 1.078,-2.597 0.699,-0.68 1.559,-1.031 2.586,-1.071 h 81.473 c 1.027,0.04 1.894,0.391 2.582,1.071 0.687,0.699 1.051,1.558 1.078,2.597 v 18.832 c -0.027,1.032 -0.391,1.852 -1.078,2.5 -0.688,0.629 -1.555,0.95 -2.582,0.969 h -57.867 v 0.742 c 0.129,6.258 2.605,11.739 7.457,16.457 4.824,4.723 11.191,9.622 19.121,14.684 l 15.558,10.438 c 6.793,4.5 11.989,9.539 15.594,15.089 3.59,5.539 5.41,11.993 5.449,19.332"
         style="fill:#34ab6e;fill-opacity:1;fill-rule:nonzero;stroke:none"
         id="path198" /><path
         d="m 1068.18,211.02 c -0.04,-9.54 -0.86,-16.918 -2.43,-22.122 -1.58,-5.179 -3.74,-8.777 -6.46,-10.75 -2.71,-2 -5.8,-2.929 -9.25,-2.839 -3.46,-0.09 -6.54,0.839 -9.22,2.839 -2.7,1.973 -4.82,5.571 -6.37,10.75 -1.54,5.204 -2.33,12.582 -2.36,22.122 v 15.761 c 0.03,9.551 0.82,16.949 2.36,22.168 1.55,5.211 3.67,8.84 6.37,10.86 2.68,1.992 5.76,2.961 9.22,2.871 3.45,0.09 6.54,-0.879 9.25,-2.871 2.72,-2.02 4.88,-5.649 6.46,-10.86 1.57,-5.219 2.39,-12.617 2.43,-22.168 z m 31.28,0 v 15.761 c -0.11,21.797 -4.46,37.598 -13.04,47.418 -8.57,9.801 -20.7,14.621 -36.38,14.449 -15.69,0.172 -27.78,-4.648 -36.29,-14.449 -8.54,-9.82 -12.86,-25.621 -12.96,-47.418 V 211.02 c 0.1,-21.801 4.42,-37.571 12.96,-47.329 8.51,-9.742 20.6,-14.531 36.29,-14.351 15.68,-0.18 27.81,4.609 36.38,14.351 8.58,9.758 12.93,25.528 13.04,47.329"
         style="fill:#34ab6e;fill-opacity:1;fill-rule:evenodd;stroke:none"
         id="path200" /><path
         d="m 1213.55,253.691 c 0.17,11.719 -3.41,20.469 -10.7,26.27 -7.31,5.801 -19.3,8.699 -35.98,8.687 -6.91,-0.039 -13.83,-0.589 -20.74,-1.679 -6.91,-1.059 -12.99,-2.399 -18.26,-4 -0.94,-0.25 -1.74,-0.68 -2.41,-1.25 -0.68,-0.571 -1.03,-1.309 -1.06,-2.219 v -14.262 c 0.01,-1.027 0.3,-1.898 0.9,-2.59 0.57,-0.699 1.37,-1.046 2.39,-1.078 h 0.18 0.19 c 5.69,0.578 11.7,1.121 18.02,1.602 6.34,0.488 12.34,0.758 18.04,0.789 7.3,0.019 12.4,-0.82 15.29,-2.563 2.87,-1.707 4.26,-4.519 4.14,-8.429 0.06,-2.77 -0.37,-5.059 -1.31,-6.86 -0.93,-1.8 -2.75,-3.738 -5.45,-5.828 -2.71,-2.101 -6.7,-4.941 -11.93,-8.562 L 1148,219.809 c -7.12,-5 -13,-11.469 -17.65,-19.399 -4.65,-7.949 -7.06,-16.969 -7.23,-27.109 v -18.653 c 0.02,-1.039 0.38,-1.898 1.07,-2.597 0.69,-0.68 1.56,-1.031 2.59,-1.071 h 81.46 c 1.04,0.04 1.9,0.391 2.6,1.071 0.68,0.699 1.04,1.558 1.07,2.597 v 18.832 c -0.03,1.032 -0.39,1.852 -1.07,2.5 -0.7,0.629 -1.56,0.95 -2.6,0.969 h -57.85 v 0.742 c 0.12,6.258 2.61,11.739 7.44,16.457 4.82,4.723 11.21,9.622 19.12,14.684 l 15.56,10.438 c 6.8,4.5 12,9.539 15.61,15.089 3.59,5.539 5.39,11.993 5.43,19.332"
         style="fill:#34ab6e;fill-opacity:1;fill-rule:nonzero;stroke:none"
         id="path202" /><path
         d="m 1304.41,211.02 c -0.04,-9.54 -0.84,-16.918 -2.42,-22.122 -1.58,-5.179 -3.73,-8.777 -6.45,-10.75 -2.71,-2 -5.82,-2.929 -9.27,-2.839 -3.45,-0.09 -6.52,0.839 -9.21,2.839 -2.69,1.973 -4.82,5.571 -6.37,10.75 -1.55,5.204 -2.34,12.582 -2.37,22.122 v 15.761 c 0.03,9.551 0.82,16.949 2.37,22.168 1.55,5.211 3.68,8.84 6.37,10.86 2.69,1.992 5.76,2.961 9.21,2.871 3.45,0.09 6.56,-0.879 9.27,-2.871 2.72,-2.02 4.87,-5.649 6.45,-10.86 1.58,-5.219 2.38,-12.617 2.42,-22.168 z m 31.29,0 v 15.761 c -0.12,21.797 -4.47,37.598 -13.05,47.418 -8.56,9.801 -20.7,14.621 -36.38,14.449 -15.67,0.172 -27.78,-4.648 -36.29,-14.449 -8.53,-9.82 -12.84,-25.621 -12.95,-47.418 V 211.02 c 0.11,-21.801 4.42,-37.571 12.95,-47.329 8.51,-9.742 20.62,-14.531 36.29,-14.351 15.68,-0.18 27.82,4.609 36.38,14.351 8.58,9.758 12.93,25.528 13.05,47.329"
         style="fill:#34ab6e;fill-opacity:1;fill-rule:evenodd;stroke:none"
         id="path204" /><path
         d="m 1025.27,514.398 h -52.79 l 21.598,97.848 c 0.32,1.777 0.84,3.106 1.563,3.996 0.699,0.887 1.847,1.317 3.398,1.317 1.561,0 2.631,-0.43 3.231,-1.317 0.62,-0.89 1.09,-2.219 1.38,-3.996 z m 85.42,-107.339 c -0.02,0.171 -0.09,0.453 -0.19,0.75 -0.09,0.32 -0.15,0.652 -0.17,1.023 l -52.81,219.703 c -4.48,16.524 -12.19,27.317 -23.12,32.403 -10.95,5.097 -22.72,7.402 -35.361,6.906 -12.637,0.496 -24.476,-1.809 -35.527,-6.906 -11.051,-5.086 -18.817,-15.879 -23.282,-32.403 L 887.406,408.832 c -0.008,-0.371 -0.066,-0.703 -0.164,-1.023 -0.113,-0.297 -0.172,-0.579 -0.191,-0.75 0.039,-1.789 0.601,-3.188 1.687,-4.168 1.102,-0.993 2.539,-1.493 4.344,-1.5 h 49.609 c 1.817,0.039 3.34,0.66 4.61,1.847 1.269,1.192 2.109,2.703 2.48,4.512 l 12.758,58.129 h 72.661 l 12.76,-58.129 c 0.38,-1.809 1.21,-3.32 2.49,-4.512 1.26,-1.187 2.79,-1.808 4.59,-1.847 h 49.62 c 1.8,0.007 3.24,0.507 4.34,1.5 1.09,0.98 1.66,2.379 1.69,4.168"
         style="fill:#ecd260;fill-opacity:1;fill-rule:evenodd;stroke:none"
         id="path206" /><path
         d="m 1293.55,410.23 v 32.93 c -0.06,2.012 -0.74,3.66 -2.09,5 -1.34,1.328 -3,2.039 -5,2.078 h -60.96 c -8.22,-0.148 -14.09,1.582 -17.58,5.141 -3.49,3.582 -5.2,9.891 -5.1,18.973 v 183.207 c -0.05,2.011 -0.73,3.671 -2.08,5 -1.33,1.347 -3.01,2.043 -5,2.089 h -46.39 c -2,-0.046 -3.67,-0.742 -5,-2.089 -1.34,-1.329 -2.04,-2.989 -2.09,-5 V 474.352 c 0.24,-21.243 4.31,-37.383 12.25,-48.411 7.97,-11.019 18.44,-18.461 31.46,-22.332 13.03,-3.859 27.27,-5.668 42.72,-5.429 9.89,0.05 20.41,0.511 31.55,1.39 11.12,0.871 19.87,1.95 26.22,3.219 2.46,0.492 4.27,1.281 5.41,2.402 1.13,1.098 1.69,2.789 1.68,5.039"
         style="fill:#d8d15e;fill-opacity:1;fill-rule:nonzero;stroke:none"
         id="path208" /><path
         d="m 1486.69,410.23 v 32.93 c -0.05,2.012 -0.75,3.66 -2.09,5 -1.34,1.328 -3.01,2.039 -5.01,2.078 h -71.93 c -8.24,-0.148 -14.1,1.582 -17.59,5.153 -3.5,3.578 -5.2,9.898 -5.09,18.968 v 37.59 h 91.78 c 2,0.063 3.68,0.762 5.01,2.09 1.34,1.332 2.03,2.992 2.07,4.981 v 33.66 c -0.04,1.992 -0.73,3.672 -2.07,5 -1.33,1.32 -3.01,2.031 -5.01,2.09 h -91.78 v 32.261 c -0.11,9.074 1.59,15.391 5.09,18.985 3.49,3.574 9.35,5.273 17.59,5.129 h 71.93 c 2,0.046 3.67,0.75 5.01,2.078 1.34,1.34 2.04,3.007 2.09,5.019 v 32.922 c 0.01,2.266 -0.57,3.934 -1.69,5 -1.14,1.063 -2.93,1.777 -5.41,2.078 -5.87,0.969 -14.04,1.953 -24.5,2.969 -10.43,1.016 -25.08,1.562 -43.89,1.633 -15.47,0.261 -29.71,-1.516 -42.71,-5.324 -13.05,-3.809 -23.53,-11.192 -31.47,-22.168 -7.95,-10.977 -12.02,-27.09 -12.23,-48.321 V 474.359 c 0.2,-21.23 4.24,-37.39 12.15,-48.418 7.87,-11.019 18.3,-18.461 31.27,-22.332 12.97,-3.859 27.18,-5.668 42.63,-5.429 18.84,0.09 33.54,0.64 44.07,1.64 10.57,1.032 18.8,2.02 24.68,2.969 2.48,0.332 4.27,1.102 5.41,2.27 1.12,1.171 1.7,2.89 1.69,5.171"
         style="fill:#b8ca61;fill-opacity:1;fill-rule:nonzero;stroke:none"
         id="path210" /><path
         d="m 1740.2,414.84 v 243.082 c -0.06,2 -0.75,3.594 -2.08,4.832 -1.35,1.23 -3.01,1.875 -5,1.894 h -41.8 c -1.99,-0.019 -3.65,-0.664 -4.99,-1.894 -1.34,-1.238 -2.03,-2.832 -2.08,-4.832 V 508.039 c -0.03,-1.219 -0.24,-2.059 -0.62,-2.527 -0.39,-0.453 -0.76,-0.692 -1.15,-0.66 -0.5,-0.02 -0.92,0.199 -1.29,0.628 -0.36,0.43 -0.88,1.161 -1.56,2.211 l -84.02,145.981 c -2.04,3.711 -4.17,6.476 -6.4,8.281 -2.21,1.817 -5.05,2.707 -8.49,2.695 h -35.76 c -3.82,-0.085 -6.99,-1.406 -9.53,-3.933 -2.52,-2.531 -3.83,-5.703 -3.93,-9.524 V 408.48 c 0.06,-2.011 0.74,-3.679 2.09,-5.019 1.33,-1.32 2.99,-2.02 4.99,-2.07 h 41.79 c 1.99,0.05 3.67,0.75 5.01,2.07 1.33,1.34 2.04,3.008 2.08,5.019 v 143.489 c 0,1.062 0.15,1.793 0.48,2.23 0.32,0.422 0.74,0.621 1.27,0.61 0.51,0.011 1.02,-0.188 1.47,-0.61 0.47,-0.437 1.03,-1.168 1.73,-2.23 l 80.85,-139.61 c 2.78,-4.629 5.62,-7.648 8.55,-9.078 2.91,-1.402 6.21,-2.051 9.88,-1.89 h 34.69 c 3.83,0.089 7.06,1.398 9.71,3.929 2.63,2.532 3.99,5.711 4.11,9.52"
         style="fill:#98c562;fill-opacity:1;fill-rule:nonzero;stroke:none"
         id="path212" /><path
         d="m 1964.17,621.457 v 36.473 c -0.05,1.992 -0.82,3.586 -2.26,4.824 -1.43,1.23 -3.16,1.867 -5.18,1.894 h -175.72 c -2.02,-0.027 -3.7,-0.664 -5.01,-1.894 -1.35,-1.238 -2.04,-2.832 -2.07,-4.824 v -36.473 c 0.03,-1.984 0.72,-3.594 2.07,-4.836 1.31,-1.211 2.99,-1.855 5.01,-1.894 h 57.75 V 408.48 c 0.05,-2.011 0.75,-3.679 2.07,-5.019 1.35,-1.332 3.02,-2.02 5.02,-2.07 h 46.4 c 1.99,0.05 3.66,0.738 5,2.07 1.32,1.34 2.03,3.008 2.09,5.019 v 206.247 h 57.39 c 2.02,0.039 3.75,0.683 5.18,1.894 1.44,1.242 2.21,2.852 2.26,4.836"
         style="fill:#72c367;fill-opacity:1;fill-rule:nonzero;stroke:none"
         id="path214" /><path
         d="m 2158.92,410.23 v 32.93 c -0.04,2.012 -0.74,3.66 -2.07,5 -1.34,1.328 -3.01,2.039 -5.01,2.078 h -71.94 c -8.24,-0.148 -14.1,1.582 -17.58,5.153 -3.5,3.578 -5.2,9.898 -5.1,18.968 v 37.59 h 91.79 c 2,0.063 3.66,0.762 5,2.09 1.34,1.332 2.04,2.992 2.09,4.981 v 33.66 c -0.05,1.992 -0.75,3.672 -2.09,5 -1.34,1.32 -3,2.031 -5,2.09 h -91.79 v 32.261 c -0.1,9.074 1.6,15.391 5.1,18.985 3.48,3.574 9.34,5.273 17.58,5.129 h 71.94 c 2,0.046 3.67,0.75 5.01,2.078 1.33,1.34 2.03,3.007 2.07,5.019 v 32.922 c 0.04,2.266 -0.54,3.934 -1.67,5 -1.14,1.063 -2.94,1.777 -5.41,2.078 -5.89,0.969 -14.05,1.953 -24.5,2.969 -10.45,1.016 -25.07,1.562 -43.91,1.633 -15.44,0.261 -29.69,-1.516 -42.71,-5.324 -13.02,-3.809 -23.5,-11.192 -31.46,-22.168 -7.94,-10.977 -12.03,-27.09 -12.25,-48.321 V 474.359 c 0.21,-21.23 4.27,-37.39 12.16,-48.418 7.89,-11.019 18.32,-18.461 31.28,-22.332 12.98,-3.859 27.18,-5.668 42.64,-5.429 18.84,0.09 33.53,0.64 44.07,1.64 10.55,1.032 18.79,2.02 24.68,2.969 2.47,0.332 4.27,1.102 5.41,2.27 1.13,1.171 1.71,2.89 1.67,5.171"
         style="fill:#53b76b;fill-opacity:1;fill-rule:nonzero;stroke:none"
         id="path216" /><path
         d="m 2264.3,399.219 v 258.703 c -0.05,2 -0.74,3.594 -2.08,4.844 -1.34,1.218 -3.01,1.855 -5,1.882 h -46.4 c -2,-0.027 -3.66,-0.664 -5,-1.882 -1.33,-1.25 -2.02,-2.844 -2.08,-4.844 V 399.219 c 0.13,-4.418 -0.39,-7.649 -1.54,-9.707 -1.17,-2.051 -3.73,-3.082 -7.68,-3.051 h -17.71 c -1.25,-0.051 -2.21,-0.57 -2.89,-1.563 -0.66,-0.968 -1,-2.117 -1.02,-3.41 v -36.109 c 0.02,-1.617 0.51,-2.981 1.47,-4.07 0.96,-1.09 2.24,-1.739 3.86,-1.95 4.61,-0.527 8.56,-0.89 11.86,-1.109 3.3,-0.211 6.9,-0.32 10.82,-0.309 18.28,-0.461 33.32,3.739 45.1,12.579 11.8,8.839 17.89,25.07 18.29,48.699"
         style="fill:#42b16d;fill-opacity:1;fill-rule:nonzero;stroke:none"
         id="path218" /><path
         d="m 2457.05,511.922 c 0.02,-21.133 -3.57,-36.563 -10.82,-46.262 -7.25,-9.699 -18.29,-14.488 -33.14,-14.351 -14.87,-0.137 -25.84,4.652 -32.99,14.351 -7.14,9.699 -10.69,25.129 -10.63,46.262 v 42.187 c -0.06,21.129 3.49,36.555 10.63,46.262 7.15,9.707 18.12,14.492 32.99,14.356 14.85,0.136 25.89,-4.649 33.14,-14.356 7.25,-9.707 10.84,-25.133 10.82,-46.262 z m 60.9,0 v 42.187 c -0.21,27.297 -4.92,49.289 -14.19,66.028 -9.24,16.738 -21.75,28.906 -37.51,36.484 -15.73,7.598 -33.46,11.348 -53.16,11.223 -19.73,0.125 -37.46,-3.625 -53.19,-11.223 -15.76,-7.578 -28.26,-19.746 -37.52,-36.484 -9.25,-16.739 -13.96,-38.731 -14.2,-66.028 v -42.187 c 0.24,-27.281 4.95,-49.293 14.2,-66.024 9.26,-16.738 21.76,-28.91 37.52,-36.488 15.73,-7.59 33.46,-11.328 53.19,-11.23 19.7,-0.098 37.43,3.64 53.16,11.23 15.76,7.578 28.27,19.75 37.51,36.488 9.27,16.731 13.98,38.743 14.19,66.024"
         style="fill:#34ab6e;fill-opacity:1;fill-rule:evenodd;stroke:none"
         id="path220" /></g></g></svg>
