<svg xmlns="http://www.w3.org/2000/svg" width="354.728" height="57.426" viewBox="0 0 354.728 57.426">
  <g id="Grupo_63" data-name="Grupo 63" transform="translate(-176.198 -109.197)">
    <g id="Grupo_59" data-name="Grupo 59" transform="translate(176.198 109.197)">
      <path id="Caminho_746" data-name="Caminho 746" d="M183.131,176.243c-.236,0-.468-.04-.7-.046a.327.327,0,0,1-.1-.574c.264-.166.575.005.862-.029,1.275-.057,2.533-.059,3.807-.026,3.673-.144,7.348-.289,11.022-.146,4.722.009,9.442-.007,14.161-.172.425-.016.852-.027,1.277-.029a.328.328,0,0,1,.412.236c.118.658-1.18.343-1.57.437-6.039.222-12.081.2-18.121.117-2.264.009-4.523.092-6.783.2C185.976,176.212,184.542,176.171,183.131,176.243Z" transform="translate(-177.85 -127.371)" fill="#627764"/>
      <path id="Caminho_747" data-name="Caminho 747" d="M225.325,169.364a.454.454,0,0,1-.02-.365c-.013-.914.058-1.825.075-2.735.071-1.335.019-2.657.128-3.986.052-2.745.051-5.489.159-8.228.067-.378-.106-1.506.444-1.447a.328.328,0,0,1,.288.358c-.178,1.857-.141,3.731-.189,5.586-.007,2.288-.1,4.563-.152,6.848-.036.858-.036,1.71-.1,2.563-.051.452.157,1.225-.184,1.513A.327.327,0,0,1,225.325,169.364Z" transform="translate(-189.71 -121.147)" fill="#627764"/>
      <path id="Caminho_748" data-name="Caminho 748" d="M226.018,152.884c-.209-.575.533-.491.879-.5h-.055c3.628-.062,7.237-.221,10.861-.107.192.015.387-.007.577.025a.325.325,0,0,1-.116.633c-1.065-.008-2.131-.057-3.2-.064-2.263.042-4.526.072-6.789.133-.517.015-1.032.023-1.549.026C226.414,153.036,226.141,153.123,226.018,152.884Z" transform="translate(-189.904 -121.048)" fill="#627764"/>
      <path id="Caminho_749" data-name="Caminho 749" d="M242.5,169.031c-.123-2.6-.023-5.2.015-7.8,0-2.868-.159-5.752-.054-8.614a.329.329,0,0,1,.559-.088c.118.146.049.335.065.5-.033,4.26.162,8.523-.007,12.778.02,1.042.013,2.087.064,3.128A.325.325,0,0,1,242.5,169.031Z" transform="translate(-194.432 -121.093)" fill="#627764"/>
      <path id="Caminho_750" data-name="Caminho 750" d="M243.9,175.668c-.318-.051-1.211.109-1.349-.18a.327.327,0,0,1,.369-.477.364.364,0,0,0-.075-.012c.825.031,1.649.009,2.473.012a.328.328,0,0,1,.322.328c-.007.343-.383.338-.638.322C244.639,175.653,244.272,175.677,243.9,175.668Z" transform="translate(-194.455 -127.313)" fill="#627764"/>
      <path id="Caminho_751" data-name="Caminho 751" d="M246.188,169.263c-.127-.138-.065-.318-.043-.48a4.155,4.155,0,0,0,.022-.482c-.025-1.444.1-2.889.151-4.333-.03-3.144-.014-6.245-.089-9.379,0-.616,0-1.226-.008-1.821a.325.325,0,0,1,.647.009c0,.859.006,1.7.036,2.555,0,3.705.154,7.413-.043,11.114-.041.649-.07,1.3-.047,1.946-.025.3.03.657-.168.9A.328.328,0,0,1,246.188,169.263Z" transform="translate(-195.446 -121.112)" fill="#627764"/>
      <path id="Caminho_752" data-name="Caminho 752" d="M246.322,152.7c-.189-.363.243-.555.549-.536a3.323,3.323,0,0,1,.949-.091c.657.019,1.315-.055,1.973-.036,1.734-.038,3.429-.117,5.158-.163,1.166-.009,2.367-.061,3.511-.014a.332.332,0,0,1,.012.575,1.607,1.607,0,0,1-.676.063c-3.46-.017-6.913.209-10.372.229C247.088,152.712,246.55,153.05,246.322,152.7Z" transform="translate(-195.492 -120.937)" fill="#627764"/>
      <path id="Caminho_753" data-name="Caminho 753" d="M263.157,169.317c0-.2-.011-.38-.009-.577h0v.02c-.176-4.779.021-9.579-.182-14.351v.041c-.025-.7-.084-1.391-.123-2.086a.348.348,0,0,1,.091-.363.328.328,0,0,1,.458.027c.152.2.095.485.125.723.2,3.173.22,6.363.2,9.532-.027,1.978,0,3.961.061,5.937.025.384.013.7.026,1.058A.325.325,0,0,1,263.157,169.317Z" transform="translate(-200.049 -120.96)" fill="#627764"/>
      <path id="Caminho_754" data-name="Caminho 754" d="M278.732,176.1c-1.628-.072-3.3-.081-4.92-.115-1.655-.059-3.311-.072-4.967-.075-.944.03-1.885.116-2.83.117-.784.041-1.565-.094-2.344.02a.33.33,0,0,1-.192-.578,8.423,8.423,0,0,1,2.3-.088c2.247-.078,4.489-.168,6.735-.091,2.157.1,4.32.059,6.476.167,1.274-.044,2.547-.095,3.821-.121.849-.065,1.7-.118,2.549-.116a.326.326,0,0,1,.191.622,2.34,2.34,0,0,1-.788.022q-.807.036-1.611.106C281.676,176.009,280.2,176.084,278.732,176.1Z" transform="translate(-200.196 -127.371)" fill="#627764"/>
      <path id="Caminho_755" data-name="Caminho 755" d="M293.443,169.334a.327.327,0,0,1-.051-.262l0,.016h0v.006l0,.035c0-.891.01-1.815.013-2.7v.033c-.112-2.455.082-4.905.161-7.358.065-2.109.022-4.226.037-6.334-.161-.678.762-.692.646.128-.008,2.049.026,4.053-.029,6.1-.058,1.9-.2,3.8-.191,5.7-.02,1.277.039,2.484.016,3.749-.067.312.125.742-.142.973A.329.329,0,0,1,293.443,169.334Z" transform="translate(-208.456 -121.056)" fill="#627764"/>
      <path id="Caminho_756" data-name="Caminho 756" d="M301.192,152.753c-1.705-.048-3.41-.017-5.115-.08-.582-.036-1.161.054-1.742.045a.441.441,0,0,1-.4-.075.327.327,0,0,1-.006-.459c.17-.154.423-.1.634-.117a20.589,20.589,0,0,1,2.411-.008c1.842-.02,3.684.078,5.526.005.977.059,1.954-.038,2.93.021.314.038.888-.125.914.338-.036.533-.807.263-1.159.294C303.85,152.735,302.52,152.7,301.192,152.753Z" transform="translate(-208.585 -120.989)" fill="#627764"/>
      <path id="Caminho_757" data-name="Caminho 757" d="M310.926,169.648c-.307-.048-.281-.357-.267-.594a7.79,7.79,0,0,1-.07-1.6c.02-.811-.023-1.657-.041-2.465-.054-2.847-.3-5.671-.238-8.513-.074-.973-.034-1.906-.063-2.86.018-.31-.022-.618-.035-.926a.335.335,0,0,1,.059-.286.329.329,0,0,1,.457-.051c.206.158.143.742.17,1,.011.847,0,1.707.028,2.536.077,1.26,0,2.523.041,3.784.157,2.194.224,4.4.25,6.6.1.715-.052,1.436.033,2.149C311.249,168.815,311.534,169.653,310.926,169.648Z" transform="translate(-213.091 -121.061)" fill="#627764"/>
      <path id="Caminho_758" data-name="Caminho 758" d="M315.151,176.328c-1.038-.07-2.034-.149-3.067-.2a3.022,3.022,0,0,1-1.1-.1.325.325,0,0,1,.278-.567c.637.025,1.273.009,1.905.1.6.027,1.218.057,1.794.115a13.606,13.606,0,0,1,1.711.026.325.325,0,0,1-.175.625A10.45,10.45,0,0,0,315.151,176.328Z" transform="translate(-213.274 -127.436)" fill="#627764"/>
      <path id="Caminho_759" data-name="Caminho 759" d="M196.247,166.031c-.051-2.128.038-4.242.155-6.363-.007-2.254.1-4.51.018-6.76-.022-.566.753-.507.654.162.08.992-.038,1.985.022,2.979-.033,2.15-.054,4.3-.178,6.446-.029,1.173-.057,2.313-.025,3.481A.325.325,0,0,1,196.247,166.031Z" transform="translate(-181.714 -121.125)" fill="#627764"/>
      <path id="Caminho_760" data-name="Caminho 760" d="M196.245,171.335a.373.373,0,1,1,.73-.053C196.918,171.649,196.3,171.764,196.245,171.335Z" transform="translate(-181.714 -126.176)" fill="#627764"/>
      <path id="Caminho_761" data-name="Caminho 761" d="M197.716,171.664c-.3-.025-.605-.007-.907-.03-.172.026-.381.036-.478-.144a.333.333,0,0,1,.083-.425c.266-.153.577-.038.866-.064.669.034,1.336.013,2.006.011,1.114-.033,2.228.029,3.341-.017,1.446-.011,2.888-.091,4.334-.1a.325.325,0,0,1,.151.632c-.617.031-1.242.046-1.862.054-1.137.007-2.268.075-3.4.089C200.469,171.606,199.092,171.693,197.716,171.664Z" transform="translate(-181.729 -126.182)" fill="#627764"/>
      <path id="Caminho_762" data-name="Caminho 762" d="M210.857,166.48a.322.322,0,0,1-.026-.3c.009-.367.062-.731.036-1.1.025-1.378-.015-2.754-.056-4.13.041-2.5-.088-4.983-.127-7.478a.328.328,0,1,1,.649-.09c0,1.356.079,2.712.1,4.068.04,1.834.012,3.668.068,5.5.041.893,0,1.787.011,2.68-.063.31.065.721-.21.941A.328.328,0,0,1,210.857,166.48Z" transform="translate(-185.692 -121.279)" fill="#627764"/>
      <path id="Caminho_763" data-name="Caminho 763" d="M206.586,153.242c-.977-.106-1.965-.038-2.945-.054-1.409-.06-2.818.043-4.226-.04-.617.014-1.233-.047-1.851-.031-.3-.049-.806.129-.872-.3.005-.548.718-.32,1.07-.349.259,0,.517-.01.776.012,2.836.1,5.674-.022,8.5.115C207.649,152.342,207.88,153.455,206.586,153.242Z" transform="translate(-181.841 -121.105)" fill="#627764"/>
      <path id="Caminho_764" data-name="Caminho 764" d="M302.864,173.479c-.636-.134-.42-1.02-.433-1.5.005-.767.012-1.533.007-2.3-.071-3.405-.261-6.808-.159-10.215.023-1.141.067-2.294.118-3.431a.418.418,0,0,1,.835-.036c-.053,1.3-.109,2.606-.133,3.911-.068,3.268.109,6.529.174,9.795,0,.92.012,1.84-.03,2.759a3.348,3.348,0,0,0,.076.638A.423.423,0,0,1,302.864,173.479Z" transform="translate(-210.902 -121.975)" fill="#627764"/>
      <path id="Caminho_765" data-name="Caminho 765" d="M181.818,171.125a.419.419,0,0,1-.044-.483c.049-.441.025-.884.039-1.327-.094-2.168-.051-4.342-.007-6.505-.055-2.381.041-4.759.095-7.137.046-2.36-.022-4.722-.072-7.082-.054-2.844-.083-5.672-.1-8.51-.041-1.278,0-2.559.006-3.837a.418.418,0,0,1,.833.06c-.072,5.9.13,11.778.18,17.676.035,2.62-.171,5.239-.117,7.86.02,1.672-.034,3.344-.056,5.015.009.99.1,1.978.063,2.969-.041.449.117,1.047-.255,1.376A.435.435,0,0,1,181.818,171.125Z" transform="translate(-177.716 -116.54)" fill="#627764"/>
      <path id="Caminho_766" data-name="Caminho 766" d="M197.569,184.621c-2.456-.051-4.912.008-7.368.027-2.357-.012-4.711-.108-7.068-.112-.285-.008-.569-.043-.854-.049a.425.425,0,0,1-.465-.2.438.438,0,0,1,.437-.635c4.114.129,8.233.19,12.351.113,3.235,0,6.469.094,9.7.109q3.438-.049,6.874.108l.047-.006a.577.577,0,0,0,.009.222c0,.017,0,.035,0,.052-.01.187-.023.376-.049.562C206.649,184.611,202.107,184.761,197.569,184.621Z" transform="translate(-177.73 -129.696)" fill="#627764"/>
      <path id="Caminho_767" data-name="Caminho 767" d="M253.1,184.252c-1.315-.14-2.64-.06-3.96-.112-1.191-.111-2.378-.027-3.57-.024-3.139-.3-6.3-.012-9.449-.083-1.82.177-3.644-.043-5.468-.031-2.3-.08-4.579-.049-6.875-.073-.338.028-.677.007-1.015.023a.422.422,0,0,1-.5-.2c-.233-.56.42-.694.842-.641,3.923-.056,7.866.061,11.786.162,1.067-.1,2.179-.064,3.236-.07,1-.008,2-.088,3-.025a33.412,33.412,0,0,1,4.218.082,10.39,10.39,0,0,0,1.692-.017c1.354-.021,2.7.117,4.06.093a15.763,15.763,0,0,1,2.026.082.418.418,0,1,1-.033.835Z" transform="translate(-188.869 -129.543)" fill="#627764"/>
      <path id="Caminho_768" data-name="Caminho 768" d="M222.173,186.072c-.018-.6-.037-1.273-.016-1.867.047-.286-.058-.669.221-.854a.424.424,0,0,1,.609.15c.113.236-.014.532,0,.776-.015.572,0,1.148.018,1.72A.418.418,0,0,1,222.173,186.072Z" transform="translate(-188.849 -129.593)" fill="#627764"/>
      <path id="Caminho_769" data-name="Caminho 769" d="M247.607,187.929c-2.249-.038-4.5-.081-6.748-.1-2.228-.086-4.519-.159-6.738-.2-2.332.011-4.665-.022-7-.129a37.69,37.69,0,0,1-4.284-.082.432.432,0,0,1-.356-.78,1.469,1.469,0,0,1,.713-.021c.962.046,2.025.106,2.963.067,1.436-.067,2.865.113,4.3.088.836-.057,1.67.024,2.506.044.984-.006,1.934-.055,2.912.013,1.035.12,2.075-.006,3.112.083,1.577.118,3.157.039,4.734.133,2.886.061,5.768-.018,8.652-.025.142-.012.284-.026.427-.035a.418.418,0,0,1,.075.832C251.129,187.889,249.348,187.854,247.607,187.929Z" transform="translate(-188.881 -130.504)" fill="#627764"/>
      <path id="Caminho_770" data-name="Caminho 770" d="M264.548,187.025a.474.474,0,0,1-.345-.581c-.019-.291-.011-.569,0-.85a7.363,7.363,0,0,1,.1-1.644.422.422,0,0,1,.721-.074.541.541,0,0,1,.043.467c-.012.444-.052.887-.033,1.331C264.959,186.132,265.283,187.063,264.548,187.025Z" transform="translate(-200.424 -129.711)" fill="#627764"/>
      <path id="Caminho_771" data-name="Caminho 771" d="M285,185.436c-3.2-.116-6.4-.183-9.593-.263-.951-.026-1.9.059-2.846.077-1.084.033-2.17-.029-3.254.033-1.232,0-2.493.113-3.716.01-.393-.056-1,.167-1.215-.263-.148-.365.236-.672.584-.577,1.72.072,3.443.019,5.165-.034,1.787.049,3.57-.081,5.356-.08,2.262.018,4.521.175,6.784.151,1.205.043,2.41.143,3.616.1.12.005.305-.037.422.044a.421.421,0,0,1-.1.766C285.8,185.438,285.4,185.43,285,185.436Z" transform="translate(-200.466 -129.885)" fill="#627764"/>
      <path id="Caminho_772" data-name="Caminho 772" d="M294.452,186.558c-.436-.068-.383-.588-.387-.92a5.534,5.534,0,0,1,.03-1.465.441.441,0,0,1,.836-.207c.078.285-.084.565-.072.86.007.344.045.687.038,1.031C294.991,186.19,294.862,186.6,294.452,186.558Z" transform="translate(-208.64 -129.714)" fill="#627764"/>
      <path id="Caminho_773" data-name="Caminho 773" d="M298.677,184.442c-1.381-.083-2.706-.042-4.073-.06a.418.418,0,0,1-.277-.786,4.314,4.314,0,0,1,.983-.032c1.109-.067,2.217.012,3.326.042,1.466-.041,2.933-.056,4.4-.08.651,0,1.3-.071,1.949-.051.336.014.852-.066.915.382a.446.446,0,0,1-.566.463c-.344-.012-.688-.016-1.032-.007C302.428,184.413,300.551,184.37,298.677,184.442Z" transform="translate(-208.652 -129.646)" fill="#627764"/>
      <path id="Caminho_774" data-name="Caminho 774" d="M301.245,187.444c-2.263-.074-4.548.031-6.8-.065a.123.123,0,0,0,.036.009l-.045-.013-.024-.009a.42.42,0,0,1,0-.768,23.379,23.379,0,0,1,2.375-.016c1.813.009,3.629.023,5.441,0,1.12-.031,2.241-.057,3.36-.09a.418.418,0,0,1,.1.828C304.212,187.371,302.728,187.405,301.245,187.444Z" transform="translate(-208.676 -130.477)" fill="#627764"/>
      <path id="Caminho_775" data-name="Caminho 775" d="M309.5,185.987c0-.589-.119-1.188-.075-1.775-.2-.736.819-.91.83-.146-.036.607.075,1.213.074,1.816A.418.418,0,0,1,309.5,185.987Z" transform="translate(-212.869 -129.674)" fill="#627764"/>
      <path id="Caminho_776" data-name="Caminho 776" d="M309.728,184.982c-.243-.886,1.335-.595,1.843-.675.94-.031,1.88-.039,2.82-.055.591.011,1.181-.034,1.771-.034.291-.014.672-.094.767.281.107.458-.41.6-.768.552-1.528.047-3.057.041-4.584.091-.4,0-.8.026-1.2.045C310.141,185.267,309.841,185.261,309.728,184.982Z" transform="translate(-212.954 -129.847)" fill="#627764"/>
      <path id="Caminho_777" data-name="Caminho 777" d="M318.71,171.426c-.2-.367-.057-.765-.085-1.149.005-.594-.093-1.183-.065-1.777a16.258,16.258,0,0,0-.009-2.207c-.057-2.03.081-4.056.195-6.082.064-2.01.068-4.02.135-6.029.073-2.14-.012-4.263-.066-6.385.033-2.338.036-4.675,0-7.012-.058-.8.06-1.6.024-2.408-.059-.757.043-1.538.033-2.291-.01-.306-.054-.682.307-.785a.42.42,0,0,1,.511.3,21.393,21.393,0,0,1-.037,2.145c.065.944-.03,1.882-.012,2.826.084,2.915-.007,5.826.039,8.74.128,2.164.036,4.3,0,6.464-.034,2.649-.141,5.275-.28,7.914-.072,1.765.069,3.526-.011,5.289a16.716,16.716,0,0,1,.055,2.1A.419.419,0,0,1,318.71,171.426Z" transform="translate(-215.387 -116.38)" fill="#627764"/>
      <path id="Caminho_778" data-name="Caminho 778" d="M179.551,135.893c-.406-1.014,2.111-.658,2.636-.7,1.48.117,2.955-.062,4.434-.009,1.244.091,2.489.091,3.734.067,4.7-.27,9.409-.1,14.1-.305,2.262,0,4.521.052,6.785-.022,1.713-.055,3.425.08,5.138.016,1.823-.034,3.669-.006,5.488.014,1.344-.028,2.686-.131,4.031-.037,2.884.055,5.713-.08,8.59.015,3.249-.014,6.436-.137,9.668-.072,2.628.15,5.258-.053,7.878.043,3.931-.112,8.03.093,12.021.17,2.673-.138,5.378.075,8.036.009,2-.072,4,.186,6,.064,1.383-.022,2.763.025,4.143.107.308-.014.616-.015.924-.022a.433.433,0,0,1,.5.389c.016.359-.347.483-.651.451a12.687,12.687,0,0,1-1.438-.019q-1.979-.117-3.965-.059c-1.975.094-3.95-.185-5.926-.059-2.391.023-4.781-.164-7.17-.032-2.725-.089-5.453-.049-8.177-.195-1.918-.091-3.859.083-5.767,0-2.7.015-5.363.067-8.051-.067-4.012.135-8.048.107-12.049.078-7.05.091-14.094,0-21.145.058-6.411.067-12.824.066-19.234.3-1.381.067-2.759-.033-4.139-.086-1.2.052-2.4.1-3.6.044a11.653,11.653,0,0,0-2.2.033A.457.457,0,0,1,179.551,135.893Z" transform="translate(-177.109 -116.258)" fill="#627764"/>
      <path id="Caminho_779" data-name="Caminho 779" d="M179.268,135.5c-.343-.153-.271-.607-.273-.907.02-.44-.03-.907-.036-1.333.035-.043.069-.086.1-.13.051-.065.1-.131.149-.2l.025-.038h.08l.082.011.067.017c.057.02.112.045.169.067a.784.784,0,0,0,.131.041.446.446,0,0,1,.027.173c.007.478.057.965.033,1.443.673.015.5,1.083-.143.856a.6.6,0,0,1-.218.043A.463.463,0,0,1,179.268,135.5Z" transform="translate(-176.958 -115.72)" fill="#627764"/>
      <path id="Caminho_780" data-name="Caminho 780" d="M322.2,135.649c-.183-.155-.123-.373-.1-.571a5,5,0,0,1,.017-.9c-.018-.615.77-.719.851-.12-.02.27-.049.545-.056.813C323.041,135.346,322.744,136.035,322.2,135.649Z" transform="translate(-216.359 -115.933)" fill="#627764"/>
      <path id="Caminho_781" data-name="Caminho 781" d="M232.6,180.228c-.685-.018-1.365-.1-2.05-.12-.453-.088-1.294.143-1.574-.262a.43.43,0,0,1,.525-.6h0c1.04,0,2.074.11,3.112.152,1.385.007,2.783-.035,4.166-.025a.417.417,0,0,1,.126.82C235.472,180.22,234.038,180.221,232.6,180.228Z" transform="translate(-190.714 -128.474)" fill="#627764"/>
      <path id="Caminho_782" data-name="Caminho 782" d="M255.7,180.186c-1.6-.025-3.2-.058-4.8-.141-.465-.081-1.212.241-1.507-.186-.2-.442.193-.681.6-.62a11.767,11.767,0,0,1,1.54-.009c1.8.114,3.6.112,5.4.12a.418.418,0,0,1-.013.836C256.5,180.175,256.1,180.2,255.7,180.186Z" transform="translate(-196.333 -128.472)" fill="#627764"/>
      <path id="Caminho_783" data-name="Caminho 783" d="M249.235,172.964c-.1-5.647.068-11.3.109-16.952a2.654,2.654,0,0,1,.059-.5c.248-.6,1-.222.787.368q-.077,5.672-.152,11.349c0,1.854.021,3.709.017,5.559A.42.42,0,1,1,249.235,172.964Z" transform="translate(-196.298 -121.865)" fill="#627764"/>
      <path id="Caminho_784" data-name="Caminho 784" d="M251.82,155.948c-.674-.028-1.356.022-2.025-.019a.421.421,0,0,1,.128-.817c1.97.016,3.923-.06,5.892-.011.313.008.625.011.938,0,.225,0,.49-.062.659.128a.421.421,0,0,1-.333.7c-.277,0-.557.025-.836.018C254.769,155.89,253.3,155.935,251.82,155.948Zm-1.84,0a.364.364,0,0,0,.12-.033A.508.508,0,0,1,249.98,155.944Z" transform="translate(-196.384 -121.831)" fill="#627764"/>
      <path id="Caminho_785" data-name="Caminho 785" d="M259.343,173.268c-.13-3.15.009-6.326.035-9.486,0-2.065.047-4.131.117-6.194.022-.507,0-.978.017-1.465.027-.3-.065-.642.105-.9a.421.421,0,0,1,.74.225c0,.206-.017.452-.012.648-.091,3.941-.128,7.881-.211,11.823.015,1.238-.045,2.456.018,3.691-.063.511.025,1.026,0,1.534A.419.419,0,0,1,259.343,173.268Z" transform="translate(-199.075 -121.826)" fill="#627764"/>
      <path id="Caminho_786" data-name="Caminho 786" d="M253.935,173.1c-.083-.153-.028-.32-.045-.483,0-.473-.015-.93.029-1.4.042-1.4.1-2.8.089-4.2.027-1.506-.02-3.02.033-4.521.052-2,.2-4,.23-6,.008-.181.009-.362.02-.543a.418.418,0,0,1,.835.031c-.078,3.194-.312,6.382-.283,9.579.027,1.877-.022,3.7-.083,5.568-.067.641-.009,1.275-.044,1.905A.424.424,0,0,1,253.935,173.1Z" transform="translate(-197.587 -121.963)" fill="#627764"/>
      <path id="Caminho_787" data-name="Caminho 787" d="M228.935,173.4c-.251-.415-.036-1.037-.091-1.489-.012-1.3-.09-2.6-.076-3.891.014-2.347.07-4.69.121-7.037a43.817,43.817,0,0,0,.014-4.669.418.418,0,0,1,.833-.058c.142,2.809-.053,5.623-.107,8.433-.007,1.96-.04,3.943.012,5.9.018.785.059,1.567.009,2.352A.434.434,0,0,1,228.935,173.4Z" transform="translate(-190.671 -122.048)" fill="#627764"/>
      <path id="Caminho_788" data-name="Caminho 788" d="M239.177,173.407a.423.423,0,0,1-.025-.524c.081-1.05-.117-2.092-.059-3.142a13.816,13.816,0,0,1-.046-1.816c.051-3.86.054-7.725-.067-11.575-.027-.348-.038-.858.44-.844.358.021.422.388.391.678.039.578.038,1.16.036,1.738.021,1.552.095,3.1.067,4.656.047,2.263-.115,4.583,0,6.834-.03,1,.085,2,.089,3a8.41,8.41,0,0,1-.051.846A.453.453,0,0,1,239.177,173.407Z" transform="translate(-193.48 -121.947)" fill="#627764"/>
      <path id="Caminho_789" data-name="Caminho 789" d="M228.957,155.861c.065-.621.925-.37,1.355-.42.915.029,1.847-.03,2.759-.06.87-.036,1.741-.022,2.611-.034.43.047,1.121-.2,1.359.27a.422.422,0,0,1-.495.554c-1.617.015-3.226.006-4.841.1-.643.02-1.286,0-1.929,0C229.416,156.311,228.968,156.336,228.957,155.861Z" transform="translate(-190.724 -121.896)" fill="#627764"/>
      <path id="Caminho_790" data-name="Caminho 790" d="M234.153,173.8c-.4-.1-.332-.448-.309-.764,0-.929.083-1.858.034-2.784-.036-3.585.024-7.208-.033-10.778,0-.959.01-1.918-.005-2.876a.687.687,0,0,1,.1-.491.421.421,0,0,1,.734.246c.012,1.112.006,2.194.005,3.3.074,3.258-.022,6.514.038,9.772,0,1.012.025,2.024-.028,3.036C234.638,172.914,234.865,173.855,234.153,173.8Z" transform="translate(-192.064 -122.073)" fill="#627764"/>
      <path id="Caminho_791" data-name="Caminho 791" d="M199.382,165.042a5.851,5.851,0,0,1-.013-1.433c-.039-.954-.09-1.983-.054-2.927.01-.933-.086-1.867-.043-2.8.023-.463.055-.925.051-1.389.023-.324-.091-.712.1-.984a.421.421,0,0,1,.733.246c0,1.426-.1,2.823-.017,4.246.029.883-.043,1.766.025,2.647.072.715-.008,1.473,0,2.174a.411.411,0,0,0-.027-.118A.417.417,0,0,1,199.382,165.042Z" transform="translate(-182.548 -121.908)" fill="#627764"/>
      <path id="Caminho_792" data-name="Caminho 792" d="M200.2,169.064c-.226-.026-.471.041-.676-.08a.421.421,0,0,1-.118-.578c.246-.353,1.021-.107,1.422-.171,1.257,0,2.5-.057,3.756-.089.365-.009.628,0,.956,0,.272-.029.61,0,.673.328a.42.42,0,0,1-.326.492C203.989,168.969,202.106,169.089,200.2,169.064Z" transform="translate(-182.57 -125.426)" fill="#627764"/>
      <path id="Caminho_793" data-name="Caminho 793" d="M199.791,156.189a.418.418,0,0,1,.057-.833c.459.026.92.008,1.38,0,1.461.017,2.931-.139,4.386-.028.057,0,.113.014.17.012a.427.427,0,1,1,.025.833C203.781,156.031,201.805,156.26,199.791,156.189Z" transform="translate(-182.588 -121.886)" fill="#627764"/>
      <path id="Caminho_794" data-name="Caminho 794" d="M207.713,165.036c-.017-1.477.08-2.936.1-4.41-.043-1.563.049-3.134.078-4.695-.136-.712,1.043-.842.823.385-.093,2.215-.043,4.415-.13,6.627.023.672-.08,1.341-.036,2.007A.417.417,0,0,1,207.713,165.036Z" transform="translate(-184.874 -121.916)" fill="#627764"/>
      <path id="Caminho_795" data-name="Caminho 795" d="M204.023,165.143c-.563-.041-.389-.718-.365-1.1.027-.27.017-.539.022-.809q.058-1.661.1-3.321c.05-.976.014-1.953.052-2.931,0-.278.029-.555.042-.833a.417.417,0,0,1,.714-.354c.171.171.114.42.106.637-.024.351-.036.7-.033,1.054-.012,1.618-.078,3.235-.1,4.855-.044.67-.018,1.369-.091,2.031C204.447,164.721,204.5,165.121,204.023,165.143Z" transform="translate(-183.746 -121.991)" fill="#627764"/>
      <path id="Caminho_796" data-name="Caminho 796" d="M299.18,180.435c-.489-.028-.988-.015-1.474-.048h.017l.03,0a.418.418,0,0,1-.145-.818c1.2.005,2.4.065,3.6-.01,1.2-.041,2.4-.046,3.606-.065a.418.418,0,0,1,.005.835C302.94,180.337,301.06,180.416,299.18,180.435Z" transform="translate(-209.542 -128.551)" fill="#627764"/>
      <path id="Caminho_797" data-name="Caminho 797" d="M297.425,173.6c-.291-.275-.157-1.464-.215-1.912.03-1.156.048-2.26,0-3.405,0-3.907.039-7.781.038-11.683.009-.214-.007-.429,0-.641a.418.418,0,0,1,.831.08c.01,1.989.006,3.944-.037,5.926.012,2.747,0,5.526.013,8.267.022.814-.05,1.627.012,2.441a1.026,1.026,0,0,1,0,.3c.025.209.113.435-.062.608A.423.423,0,0,1,297.425,173.6Z" transform="translate(-209.515 -121.971)" fill="#627764"/>
      <path id="Caminho_798" data-name="Caminho 798" d="M307.271,173.6c-.274-.3-.1-1.651-.167-2.131.021-1.336-.017-2.67-.013-4.005.011-3.474-.135-6.945-.122-10.419,0-.325.021-.654.014-.978a.453.453,0,0,1,.074-.307.421.421,0,0,1,.752.175c.005,1.939-.034,3.867.066,5.8q.041,4.168.071,8.33c.01.818-.007,1.636.006,2.454-.036.351.153.759-.09,1.059A.421.421,0,0,1,307.271,173.6Z" transform="translate(-212.201 -121.97)" fill="#627764"/>
      <path id="Caminho_799" data-name="Caminho 799" d="M304.612,156.053h.04l.053-.006a15.737,15.737,0,0,0-2.067-.043c-1.649-.043-3.289-.071-4.934-.014-.651-.051-.6-.959.3-.85,1.435,0,2.876-.053,4.306.035a15.378,15.378,0,0,1,2.24.036A.424.424,0,1,1,304.612,156.053Z" transform="translate(-209.531 -121.842)" fill="#627764"/>
      <path id="Caminho_800" data-name="Caminho 800" d="M184.618,133.675a2.338,2.338,0,0,0-1.344,0,2.418,2.418,0,0,1-1.56-.062,1.813,1.813,0,0,0-1.083.039c-.372.116-.7.233-1.747-.27a.787.787,0,0,0-.232-.026l.029-.035-.022.026c.108-.13.216-.259.319-.392.051-.065.1-.131.149-.2l.025-.038h.081l.081.011.067.017c.057.02.112.045.169.067a.4.4,0,0,0,.287.033,2.264,2.264,0,0,0,.344.075,3.713,3.713,0,0,1,2.478.042,4.8,4.8,0,0,1,1.412-.22,5.38,5.38,0,0,1,1.657.457c.527.081.995-.267,1.505-.339.714-.209,1.372.2,2.062.267,1.6-.584,1.718-.257,3.194-.034.936-.114,1.883-.683,2.8-.174a2.373,2.373,0,0,0,1.565-.144,3.054,3.054,0,0,1,1.228-.221c.536.064,1.013.373,1.549.433.866-.091,1.712-.551,2.565-.1.759.235,1.32-.45,2.039-.561a2.737,2.737,0,0,1,1.269.188,2.309,2.309,0,0,0,1.412.144,1.7,1.7,0,0,1,1.009-.393c.4.011.66.379,1.065.4a.42.42,0,0,1,.3.509c-.217.6-1.034.176-1.394-.07-.389.051-.643.441-1.05.461a2.953,2.953,0,0,1-1.3-.191,2.9,2.9,0,0,0-1.3-.189c-1.228.594-1.553.786-2.9.324-1.636.332-1.644.5-3.291-.113-1.4.088-1.825.854-3.479.159a3.529,3.529,0,0,0-1.156.191,2.758,2.758,0,0,1-1.5.136,2.3,2.3,0,0,0-1.862-.093,2.8,2.8,0,0,1-1.117.144c-1.773-.66-1.734.1-3.246.11A4.641,4.641,0,0,1,184.618,133.675Z" transform="translate(-176.874 -115.547)" fill="#627764"/>
      <path id="Caminho_801" data-name="Caminho 801" d="M296.236,134.4c-.756-.039-1.473-.475-2.214-.575-1.072.666-1.462.028-2.457-.2-.743-.057-.952.585-1.8.341a9.321,9.321,0,0,0-1.405-.252c-.457.059-.868.376-1.349.3-.53-.08-.988-.4-1.524-.472-.93-.159-1.785.715-2.693.176-.819-.3-1.646.27-2.476.074-1.945-.664-1.236-.121-2.932,0a9.241,9.241,0,0,1-1.313-.3c-.331-.021-.548.23-.833.326a1.868,1.868,0,0,1-1.356-.088c-1.046-.779-2.322.507-3.447-.37-1.086-.491-1.75.568-3.113-.027a3.235,3.235,0,0,0-.886-.218c-1.322.614-1.662.411-3,.151a7.879,7.879,0,0,1-1.529.343c-.7.083-1.321-.335-2-.365-1.389.237-1.49.555-2.9-.086-.379-.065-.637.282-.977.379-.983.446-1.83-.415-2.778-.1a2.469,2.469,0,0,1-2.37-.09,4.486,4.486,0,0,0-1.338.342,2.679,2.679,0,0,1-1.938-.125c-.14-.072-.265-.207-.435-.158-1.781.636-1.674-.182-2.939-.322a2.554,2.554,0,0,0-1.042.407,3.276,3.276,0,0,1-2.151-.138c-1.076.294-1.758.615-2.855-.008-.661-.262-1.231.362-1.883.37-.545.088-.915-.407-1.387-.542-.428-.028-.756.32-1.168.375a4.078,4.078,0,0,1-2.057-.3,2.813,2.813,0,0,1-2.765-.066c-.63-.152-1.207.429-1.854.417-.86.149-1.506-.72-2.357-.3a3.017,3.017,0,0,1-2.019.3,2.218,2.218,0,0,0-1.042-.309c-.451.117-.923.377-1.386.191a.423.423,0,0,1-.409-.362.473.473,0,0,1,.734-.409c.35-.007.63-.22.972-.249a2.668,2.668,0,0,1,1.429.359c.8.112,1.422-.417,2.185-.469a1.923,1.923,0,0,1,1.241.323c.757.328,1.447-.306,2.186-.372a1.959,1.959,0,0,1,1.146.37c.654.278,1.228-.194,1.863-.261.5-.064.913.3,1.4.337.7.125,1.22-.463,1.9-.417a1.8,1.8,0,0,1,1.032.453c.538.3,1.083-.307,1.636-.333.827-.163,1.49.633,2.314.364a4.166,4.166,0,0,1,1.085-.3c1.2.128,1.313.612,2.531-.121,1.112-.437,1.521.117,2.466.406a9.89,9.89,0,0,0,1.236-.237c.563-.03.976.517,1.562.411.813-.024,1.551-.646,2.376-.421.32.115.613.356.974.312.751-.083,1.448-.536,2.229-.272a2.121,2.121,0,0,0,1.285.184c.47-.151.869-.549,1.409-.457.541.038.991.518,1.552.362,1.87-.756,2.3.38,3.834,0,1.226-.666,2,.293,3.1-.106a2.243,2.243,0,0,1,.864-.3c.732-.044,1.368.5,2.11.382.514-.088.978-.412,1.524-.265a2.708,2.708,0,0,1,1.13.409c.729.165,1.45-.275,2.183-.191.549.025.94.561,1.512.443.382-.142.726-.434,1.159-.405.517.006.98.307,1.5.307.544-.058.979-.336,1.517-.351.584-.021,1.083.381,1.668.385.49-.011.962-.191,1.459-.195.522-.091.99.255,1.491.267a5.367,5.367,0,0,1,1.341-.374,3.343,3.343,0,0,1,1.352.215c.441.2.9.409,1.357.106.814-.357,1.654.089,2.476.157a2.39,2.39,0,0,1,1.921-.29c.371.09.667.392,1.055.409.2-.062.379-.175.573-.25.893-.2,1.652.449,2.516.522.049-.005.083-.052.114-.086a.421.421,0,0,1,.712.294C297.038,134.166,296.589,134.395,296.236,134.4Z" transform="translate(-188.218 -115.54)" fill="#627764"/>
      <path id="Caminho_802" data-name="Caminho 802" d="M179.232,133.811a.418.418,0,1,1,.565-.608A.418.418,0,0,1,179.232,133.811Z" transform="translate(-176.984 -115.763)" fill="#627764"/>
      <path id="Caminho_803" data-name="Caminho 803" d="M178.747,133.581c-.765-.749-1.26.316-2.416-.567a.418.418,0,0,1,.537-.636.99.99,0,0,0,.6.177,1.657,1.657,0,0,1,1.764.348A.418.418,0,0,1,178.747,133.581Z" transform="translate(-176.198 -115.555)" fill="#627764"/>
      <path id="Caminho_804" data-name="Caminho 804" d="M176.311,127.923c-.333-.533.3-.75.733-.783.745-.206,1.455-.514,2.2-.725,3.489-1.041,6.952-2.165,10.455-3.156,2.648-.818,5.385-1.31,8.049-2.07,3.125-.722,6.222-1.569,9.375-2.173,5.1-1.41,10.283-2.491,15.372-3.914.24-.08.47-.188.705-.278a.421.421,0,0,1,.489.595c-.331.379-.917.428-1.365.623-5.042,1.3-10.115,2.474-15.147,3.816-5.2,1.042-10.278,2.485-15.439,3.689-3.535.992-7.058,2.033-10.548,3.174-.856.249-1.723.47-2.562.771C178.069,127.637,176.68,128.342,176.311,127.923Z" transform="translate(-176.203 -110.74)" fill="#627764"/>
      <path id="Caminho_805" data-name="Caminho 805" d="M243.638,115.638c-.665,0-1.33-.043-2-.04-.28.02-.646.052-.741-.288a.429.429,0,0,1,.436-.541c2.47.019,4.949.068,7.414-.125,3.2-.107,6.407.02,9.609.048a.425.425,0,1,1,.073.838c-1.2-.064-2.393.006-3.589-.07-1.783.017-3.551-.036-5.327-.02C247.56,115.584,245.6,115.611,243.638,115.638Z" transform="translate(-194.007 -110.685)" fill="#627764"/>
      <path id="Caminho_806" data-name="Caminho 806" d="M311.227,129.741A42.866,42.866,0,0,0,307,128.275a37.189,37.189,0,0,0-3.781-1.188q-4.251-1.427-8.477-2.936c-4.057-1.387-8.164-2.612-12.271-3.841-2.8-.844-5.559-1.906-8.375-2.678-.425-.04-1.068-.432-.638-.884.288-.275.676.095.977.113,2.355.665,4.669,1.478,6.991,2.25,2.5.815,5.05,1.471,7.544,2.3,4.466,1.293,8.793,3.012,13.218,4.423a27.783,27.783,0,0,0,3.078.954c1.191.359,2.336.857,3.543,1.169a14.733,14.733,0,0,1,2.272.856c.229.1.536.1.629.378a.423.423,0,0,1-.526.536Z" transform="translate(-202.938 -111.248)" fill="#627764"/>
      <path id="Caminho_807" data-name="Caminho 807" d="M264.883,121.438c-.131-2.312.082-4.734-.1-7.08.045-.557-.522-2.91.232-2.905a.421.421,0,0,1,.452.381,63.956,63.956,0,0,1,.193,6.5c.028.927.074,1.857.014,2.784A.446.446,0,0,1,264.883,121.438Z" transform="translate(-200.543 -109.818)" fill="#627764"/>
      <path id="Caminho_808" data-name="Caminho 808" d="M267.373,112.831c-.493-.125-.995-.327-1.46-.436-.47-.059-1.4-.354-.815-.933.467-.22,1.938.476,2.522.571A.418.418,0,0,1,267.373,112.831Z" transform="translate(-200.622 -109.809)" fill="#627764"/>
      <path id="Caminho_809" data-name="Caminho 809" d="M267.471,127.154c-.641-.444-1.181-1.008-1.781-1.5-.344-.328-1.217-.911-.682-1.4.331-.23.6.089.766.351.333.338.716.624,1.064.946a10.26,10.26,0,0,0,1.163.967A.417.417,0,0,1,267.471,127.154Z" transform="translate(-200.603 -113.319)" fill="#627764"/>
      <path id="Caminho_810" data-name="Caminho 810" d="M268.412,123.685c-.448-.291-.114-2.775-.213-3.449-.067-2.2-.112-4.384-.191-6.579-.007-.261,0-.522.01-.783a.418.418,0,0,1,.835.037c-.035.965.08,2.018.045,2.967.071,2.189.175,4.377.126,6.569C269.028,122.946,269.233,124.013,268.412,123.685Z" transform="translate(-201.474 -110.103)" fill="#627764"/>
      <path id="Caminho_811" data-name="Caminho 811" d="M269.738,128.142c-.465-.046-1.5.152-1.275-.631.194-.446,1.026-.142,1.436-.2.682-.049,1.367-.081,2.051-.088.3-.068.672.063.655.422-.041.518-.656.4-1.023.415C270.967,128.079,270.352,128.134,269.738,128.142Z" transform="translate(-201.592 -114.155)" fill="#627764"/>
      <path id="Caminho_812" data-name="Caminho 812" d="M273.309,123.422c-.2-1.389.028-2.879-.109-4.289-.176-2.059.008-4.128-.278-6.177-.022-.425-.359-1.053.2-1.223a.421.421,0,0,1,.5.32,49.834,49.834,0,0,1,.387,6.52c.093,1.167.06,2.333.051,3.5a4.018,4.018,0,0,1-.011,1.271A.429.429,0,0,1,273.309,123.422Z" transform="translate(-202.795 -109.893)" fill="#627764"/>
      <path id="Caminho_813" data-name="Caminho 813" d="M272.194,111.6c-.265-.557-1.912-.82-1.433-1.582.413-.427.935.235,1.317.416C273.56,111.175,272.808,112.175,272.194,111.6Z" transform="translate(-202.209 -109.383)" fill="#627764"/>
      <path id="Caminho_814" data-name="Caminho 814" d="M268.248,112.3c-.472-.363.088-.823.373-1.073.453-.424.923-.829,1.4-1.222a.418.418,0,0,1,.541.636q-.415.34-.82.694c-.278.243-.55.495-.818.749C268.769,112.3,268.5,112.478,268.248,112.3Z" transform="translate(-201.491 -109.391)" fill="#627764"/>
      <path id="Caminho_815" data-name="Caminho 815" d="M264.877,111.481c-.594-.539.422-.973.778-1.281.355-.275.716-.549,1.069-.8.63-.436,1.059.459.325.79-.457.333-.936.71-1.389,1.036C265.441,111.409,265.172,111.689,264.877,111.481Z" transform="translate(-200.563 -109.221)" fill="#627764"/>
      <path id="Caminho_816" data-name="Caminho 816" d="M270.075,110.3c-.725-.1-1.466-.191-2.178-.293v0a.417.417,0,0,1-.241-.579.427.427,0,0,1,.507-.214c.407.049.708.072,1.087.133.391.117.854,0,1.17.268A.421.421,0,0,1,270.075,110.3Z" transform="translate(-201.367 -109.197)" fill="#627764"/>
      <g id="Grupo_58" data-name="Grupo 58" transform="translate(105.014 27.793)">
        <path id="Caminho_817" data-name="Caminho 817" d="M334.039,157.9a.421.421,0,0,1,.262-.53c.11-.049.3-.036.335-.175a1.029,1.029,0,0,0-.084-.749c-.583-.494-.537-.927.178-1.23a.936.936,0,0,0-.062-.382c-.428-.053-.849-.169-.712-.7a.616.616,0,0,0-.042-.46.916.916,0,0,1-1.113-.2.807.807,0,0,1-.087-.447c-.067-.336-.369-.65-.725-.469a1.5,1.5,0,0,0-.369.311.42.42,0,0,1-.575-.609,1.38,1.38,0,0,1,2.5.657c.764-.365,1.312.387,1.278,1.094a1.125,1.125,0,0,1,.37,1.906,1.5,1.5,0,0,1-.228,2.108C334.67,158.169,334.189,158.316,334.039,157.9Z" transform="translate(-323.811 -148.685)" fill="#627764"/>
        <path id="Caminho_818" data-name="Caminho 818" d="M325.707,159.611a1.308,1.308,0,0,1-1.233-1.333,2.971,2.971,0,0,1,.4-1.058c-.909-.639-.426-1.93.425-2.376a1.813,1.813,0,0,1,1.807-2.123c.308.026.724.157.7.534a.422.422,0,0,1-.448.387.779.779,0,0,0-.8.055c-.987.789.131,1.365-.679,1.809a.958.958,0,0,0-.661.784c.008.192.231.292.346.425.44.463-.053,1.025-.222,1.491-.118.307.18.571.476.578C326.624,158.748,326.481,159.821,325.707,159.611Z" transform="translate(-322.01 -148.972)" fill="#627764"/>
        <path id="Caminho_819" data-name="Caminho 819" d="M328.243,164.009a1.26,1.26,0,0,1-1-1.481c.049-.252.235-.512.521-.479a.423.423,0,0,1,.389.446c.005.117-.091.189-.105.294a.446.446,0,0,0,.311.391c.483.2.612-.451,1.03-.52.649-.221.7.53,1.175.592.21-.212.118-.624.462-.727.283-.1.561.1.841.122.252,0,.612-.186.588-.469-.533-.59.184-1.184.592-.624.834.986-.548,2.271-1.6,1.857a1.055,1.055,0,0,1-1.9.143A1.263,1.263,0,0,1,328.243,164.009Z" transform="translate(-322.79 -151.343)" fill="#627764"/>
        <path id="Caminho_820" data-name="Caminho 820" d="M332.79,159.18a.417.417,0,0,1,.059-.833.686.686,0,0,0,.391-.167.517.517,0,0,0-.1-.423.448.448,0,0,1-.022-.82.8.8,0,0,0-.073-.54,1.076,1.076,0,0,0-.187.012c-.386.428-1.015-.187-.633-.6a1.21,1.21,0,0,1,1.236-.151,1.4,1.4,0,0,1,.4,1.662A1.164,1.164,0,0,1,332.79,159.18Z" transform="translate(-324.136 -149.754)" fill="#627764"/>
        <path id="Caminho_821" data-name="Caminho 821" d="M330.009,161.873a.969.969,0,0,1-.456-.219,1.365,1.365,0,0,1-.147-.135c-.939.328-2.072-.641-1.538-1.591.352-.523,1.155.007.706.5a.422.422,0,0,0,.484.306.426.426,0,0,1,.774-.23c.1.195.079.475.343.548.41.015.025-.8.689-.783.569.07.39.778.207,1.128A.994.994,0,0,1,330.009,161.873Z" transform="translate(-322.932 -150.898)" fill="#627764"/>
        <path id="Caminho_822" data-name="Caminho 822" d="M327.044,158.17a1.1,1.1,0,0,1,1.069-1.825.418.418,0,1,1-.278.783.252.252,0,0,0-.262.233c0-.01.006-.021.009-.022a.089.089,0,0,1,.006-.031c-.07.286.3.392.262.677A.44.44,0,0,1,327.044,158.17Z" transform="translate(-322.66 -149.957)" fill="#627764"/>
        <path id="Caminho_823" data-name="Caminho 823" d="M328.839,155.109c-.2-.283.042-.584.241-.788a1.249,1.249,0,0,1,1.681-.051c.731.822-.309,1.42-.571.659-.016-.167-.39-.138-.482-.051-.146.138-.2.385-.436.41A.433.433,0,0,1,328.839,155.109Z" transform="translate(-323.217 -149.317)" fill="#627764"/>
        <path id="Caminho_824" data-name="Caminho 824" d="M330.225,158.992a1.111,1.111,0,0,1-.161-1.76.419.419,0,0,1,.617.566.388.388,0,0,0-.137.333.167.167,0,0,0,.051.11C331.468,158.069,331.314,159.44,330.225,158.992Z" transform="translate(-323.476 -150.179)" fill="#627764"/>
        <path id="Caminho_825" data-name="Caminho 825" d="M345.65,162.773c.151-1.476,2.717-1.1,2.252.4a.418.418,0,0,1-.814-.189c.02-.085.059-.207-.034-.261-.166-.087-.542-.114-.573.128A.417.417,0,0,1,345.65,162.773Z" transform="translate(-327.865 -151.483)" fill="#627764"/>
        <path id="Caminho_826" data-name="Caminho 826" d="M341.073,164.484a1.213,1.213,0,0,1,1.567-1.666,1,1,0,0,1,1.708-.639c.428.467-.36,1.089-.7.549-.288-.049-.124.465-.331.614-.488.6-.835.15-1.345.237a.376.376,0,0,0-.1.08c.007-.016.042-.038.035-.043a.389.389,0,0,0-.08.5C342.578,164.647,341.6,165.439,341.073,164.484Z" transform="translate(-326.564 -151.497)" fill="#627764"/>
        <path id="Caminho_827" data-name="Caminho 827" d="M340.66,168.255a1.121,1.121,0,0,1,.776-1.707.428.428,0,1,1,0,.849.374.374,0,0,0,.037.538c.307.054.62.186.546.56C341.808,169.129,340.857,168.705,340.66,168.255Z" transform="translate(-326.449 -152.78)" fill="#627764"/>
        <path id="Caminho_828" data-name="Caminho 828" d="M342.769,170.857a1.162,1.162,0,0,1,.106-1.467.419.419,0,0,1,.612.554.962.962,0,0,0-.1.351c.369.317.852-.166,1.259.088.3.134.31.632.7.591a1.321,1.321,0,0,0,.155-.359.418.418,0,0,1,.783.291,1.074,1.074,0,0,1-2.05.246A1.348,1.348,0,0,1,342.769,170.857Z" transform="translate(-327.012 -153.536)" fill="#627764"/>
        <path id="Caminho_829" data-name="Caminho 829" d="M348.782,170.623a.45.45,0,0,1-.035-.7c.538-.36.55.462,1.444.112-.128-.2-.367-.4-.244-.664.138-.445.832-.238.982-.6a.683.683,0,0,0-.43-.316.439.439,0,0,1-.21-.535c.095-.257.394-.3.606-.42a.384.384,0,0,0-.185-.412l.017.017a.316.316,0,0,0-.181.043.418.418,0,0,1-.338-.764c1.031-.563,2.035.921,1.267,1.72a.981.981,0,0,1-.5,1.644C351.48,170.948,349.44,171.287,348.782,170.623Z" transform="translate(-328.677 -152.7)" fill="#627764"/>
        <path id="Caminho_830" data-name="Caminho 830" d="M349.821,165.094c-.329-.415.273-.6.158-.962l.019.015h0a.686.686,0,0,0-.1-.067v.005c-.354-.173-.549.459-.969-.058-.3-.662.774-.973,1.246-.73C351.409,163.642,350.645,165.815,349.821,165.094Z" transform="translate(-328.754 -151.862)" fill="#627764"/>
        <path id="Caminho_831" data-name="Caminho 831" d="M345.194,168.823a.846.846,0,0,1,.573-1.444c.711-.069.772,1.011.022.861A.417.417,0,0,1,345.194,168.823Z" transform="translate(-327.669 -153.008)" fill="#627764"/>
        <path id="Caminho_832" data-name="Caminho 832" d="M347.54,168.292a.42.42,0,0,1,.405-.429.671.671,0,0,0,.3-.038h0v0c-.6-.348-.775-.793-.147-1.244a.15.15,0,0,0-.054-.059.428.428,0,0,1-.2-.83c.763-.186,1.476.85.882,1.442a.851.851,0,0,1-.072,1.424C348.314,168.75,347.578,168.837,347.54,168.292Z" transform="translate(-328.382 -152.537)" fill="#627764"/>
        <path id="Caminho_833" data-name="Caminho 833" d="M343.121,166.88a1.015,1.015,0,0,1,.7-1.506h0c.174-1.1,2.127-.965,2.02.193-.038.7-1.08.617-.858-.091a.382.382,0,0,0-.3,0,.063.063,0,0,0-.036.031h0a.453.453,0,0,1-.051.633c-.234.232-.564-.1-.77.146l.041-.038c-.153.149.093.324.015.505A.421.421,0,0,1,343.121,166.88Z" transform="translate(-327.129 -152.249)" fill="#627764"/>
        <path id="Caminho_834" data-name="Caminho 834" d="M342.244,173.6a1.293,1.293,0,0,1-.354-.982c.139-.63.918-.414.846.212a.462.462,0,0,0,.224.283h0c1.533-.6,1,.373,1.835.531.463.007.662-.733,1.194-.419.147.081.367.294.509.1a.419.419,0,0,1,.53-.617.615.615,0,0,1,.388.52,1.085,1.085,0,0,1-1.649.838,1.355,1.355,0,0,1-2.152-.3A1.084,1.084,0,0,1,342.244,173.6Z" transform="translate(-326.829 -154.346)" fill="#627764"/>
        <path id="Caminho_835" data-name="Caminho 835" d="M333.629,169.052a.979.979,0,0,1,1.028-1.57,1,1,0,0,1,1.633-.155c.675-1.111,2.284.169,1.662.8a.422.422,0,0,1-.588-.059c-.1-.125-.132-.312-.315-.346-.464.663-.953.6-1.5.079a.388.388,0,0,0-.125.034c-.014,1.16-1.179.1-1.207.609C334.924,168.837,334.184,169.631,333.629,169.052Z" transform="translate(-324.484 -152.874)" fill="#627764"/>
        <path id="Caminho_836" data-name="Caminho 836" d="M331.662,171.863c-.738-.652.244-2.19,1.02-1.661a.42.42,0,0,1,.022.59c-.126.142-.336.1-.428.281-.093.132-.021.242.128.262C333.087,171.714,332.392,172.572,331.662,171.863Zm.494-1.015.046.029h0a.389.389,0,0,0,.135.042.445.445,0,0,1-.2-.084Z" transform="translate(-323.942 -153.756)" fill="#627764"/>
        <path id="Caminho_837" data-name="Caminho 837" d="M331.705,174.365a.961.961,0,0,1,.436-1.207.422.422,0,0,1,.534.539c-.041.138-.188.182-.209.325A.417.417,0,0,1,331.705,174.365Z" transform="translate(-324.007 -154.592)" fill="#627764"/>
        <path id="Caminho_838" data-name="Caminho 838" d="M332.371,176.5a1.352,1.352,0,0,1,.42-1.4.424.424,0,0,1,.467.69c-.121.212-.188.556.125.622.089.032.174-.022.254-.055a.549.549,0,0,1,.749.309c.07.16.1.362.264.453.215.144.565.074.575-.222a.421.421,0,0,1,.5-.312c.6.188.225,1.014-.151,1.256a1.3,1.3,0,0,1-1.87-.619A1.145,1.145,0,0,1,332.371,176.5Z" transform="translate(-324.197 -155.122)" fill="#627764"/>
        <path id="Caminho_839" data-name="Caminho 839" d="M338.372,176.33c-.164-.226-.282-.584-.027-.791a.423.423,0,0,1,.588.059c.074.067.07.173.124.243a.934.934,0,0,0,.784-.082c.243-.152.1-.407.131-.63.124-.5.721-.338,1.073-.51.123-.423-.475-.441-.662-.714-.309-.39.1-.719.432-.878.146-.165.019-.408-.054-.58-.517-.381-.054-1.12.468-.723a1.375,1.375,0,0,1,.193,1.876,1.05,1.05,0,0,1-.587,1.934A1.472,1.472,0,0,1,338.372,176.33Z" transform="translate(-325.813 -154.174)" fill="#627764"/>
        <path id="Caminho_840" data-name="Caminho 840" d="M338.543,171.879a.423.423,0,0,1,.429-.322,1.048,1.048,0,0,0,.123-.149c-.143-.149-.372-.176-.483-.362-.172-.269.035-.521.192-.733a.193.193,0,0,0-.114-.113c-.407.822-1.3-.07-.559-.62.669-.667,1.888.323,1.417,1.115a.962.962,0,0,1-.243,1.646C338.968,172.511,338.448,172.314,338.543,171.879Z" transform="translate(-325.717 -153.554)" fill="#627764"/>
        <path id="Caminho_841" data-name="Caminho 841" d="M336.371,174.352c-.29-.478.046-1.749.744-1.268.349.336-.1.586.009.906.814-.5.626.5,1.107.34a.425.425,0,1,1,.841.067c-.054.865-1.29,1.035-1.76.407A.808.808,0,0,1,336.371,174.352Z" transform="translate(-325.282 -154.55)" fill="#627764"/>
        <path id="Caminho_842" data-name="Caminho 842" d="M334.223,173.713c-.888-.972.786-2.323.945-1.13a.417.417,0,0,1-.3.357.137.137,0,0,0-.059.125c.083.2.2.43,0,.626A.42.42,0,0,1,334.223,173.713Z" transform="translate(-324.648 -154.313)" fill="#627764"/>
        <path id="Caminho_843" data-name="Caminho 843" d="M335.255,170.852c-.516-.77.453-1.763,1.257-1.385.789.341.218,1.387-.375.757-.081.024-.2.067-.183.171A.417.417,0,1,1,335.255,170.852Z" transform="translate(-324.964 -153.561)" fill="#627764"/>
        <path id="Caminho_844" data-name="Caminho 844" d="M346.338,159.41h0l0,0Z" transform="translate(-328.054 -150.815)" fill="#627764"/>
        <path id="Caminho_845" data-name="Caminho 845" d="M346.343,159.4Z" transform="translate(-328.056 -150.812)" fill="#627764"/>
        <path id="Caminho_846" data-name="Caminho 846" d="M345.537,159.029c.024-.054.048-.107.071-.16l.009,0-.007.014c-.041.087-.081.174-.123.259Z" transform="translate(-327.82 -150.665)" fill="#627764"/>
        <path id="Caminho_847" data-name="Caminho 847" d="M348.959,159.461h0Z" transform="translate(-328.776 -150.828)" fill="#627764"/>
        <path id="Caminho_848" data-name="Caminho 848" d="M345.513,159.173Z" transform="translate(-327.828 -150.749)" fill="#627764"/>
        <path id="Caminho_849" data-name="Caminho 849" d="M345.515,159.168h0Z" transform="translate(-327.828 -150.748)" fill="#627764"/>
        <path id="Caminho_850" data-name="Caminho 850" d="M345.516,159.167Z" transform="translate(-327.828 -150.748)" fill="#627764"/>
        <path id="Caminho_851" data-name="Caminho 851" d="M345.516,159.167Z" transform="translate(-327.828 -150.748)" fill="#627764"/>
        <path id="Caminho_852" data-name="Caminho 852" d="M345.517,159.164h0Z" transform="translate(-327.828 -150.747)" fill="#627764"/>
        <path id="Caminho_853" data-name="Caminho 853" d="M336.621,164.562h0l-.025.025Z" transform="translate(-325.373 -152.233)" fill="#627764"/>
        <path id="Caminho_854" data-name="Caminho 854" d="M339.4,161.549l.075-.08-.007.013c-.018.04-.036.08-.051.121C339.415,161.584,339.41,161.566,339.4,161.549Z" transform="translate(-326.145 -151.382)" fill="#627764"/>
        <path id="Caminho_855" data-name="Caminho 855" d="M329.42,156.977l.132-.135-.007.009-.059.068-.073.066Z" transform="translate(-323.395 -150.108)" fill="#627764"/>
        <path id="Caminho_856" data-name="Caminho 856" d="M346.5,177c.215-.552.943.075,1.365.028a4.38,4.38,0,0,0,2.74-1.171c-.574-.515-.977-1.246-1.7-1.57a1.875,1.875,0,0,0-.812-.23.327.327,0,0,1-.225-.583c1.076-.293,2.261.789,2.86,1.6.236.325.857.547.651,1.017a5.655,5.655,0,0,1-3.468,1.593C347.566,177.648,346.352,177.507,346.5,177Z" transform="translate(-328.097 -154.674)" fill="#627764"/>
        <path id="Caminho_857" data-name="Caminho 857" d="M340.687,179.372a4.568,4.568,0,0,1-1.167-1.463c-.1-.342-.491-1.023.054-1.15.484-.01.365.656.57.955a4.617,4.617,0,0,0,4.752,2.141c-.672-2.2-.453-3.37-2.95-4.273-.207-.091-.394-.306-.259-.533.214-.344.542-.021.809.054a4.352,4.352,0,0,1,2.149,1.7,13.159,13.159,0,0,1,.687,2.25c.076.4.388.839.215,1.24-.217.349-.7.166-1.047.246A5.376,5.376,0,0,1,340.687,179.372Z" transform="translate(-326.114 -155.078)" fill="#627764"/>
        <path id="Caminho_858" data-name="Caminho 858" d="M338.731,160.246c.329-1.313,1.435-1.864,2.541-2.423.381-.153.642-.762,1.1-.591a5.167,5.167,0,0,1,1.224,3.4.325.325,0,0,1-.649-.029,4.947,4.947,0,0,0-.788-2.634c-.666.648-1.69.8-2.289,1.517a2.523,2.523,0,0,0-.5.884A.329.329,0,0,1,338.731,160.246Z" transform="translate(-325.96 -150.207)" fill="#627764"/>
        <path id="Caminho_859" data-name="Caminho 859" d="M336.067,164.176a4.993,4.993,0,0,1-2.159-1.3c.03-.045.061-.09.088-.136l.071-.122c.039-.068.076-.138.115-.207h0c.026-.047.051-.095.076-.143a4.46,4.46,0,0,0,3.643,1.484,5.218,5.218,0,0,0-1.091-3.347c-.229-.424-1.188-.588-.9-1.083.354-.446,1.12.384,1.386.654a5.352,5.352,0,0,1,1.215,3.281c-.024.312.173.642.012.931-.114.214-.618.248-1.147.21A6.568,6.568,0,0,1,336.067,164.176Z" transform="translate(-324.633 -150.754)" fill="#627764"/>
        <path id="Caminho_860" data-name="Caminho 860" d="M334.032,163.785l0,0Z" transform="translate(-324.666 -152.019)" fill="#627764"/>
        <path id="Caminho_861" data-name="Caminho 861" d="M334.19,163.146l.006.01c-.013.022-.027.044-.041.067C334.166,163.2,334.178,163.172,334.19,163.146Z" transform="translate(-324.7 -151.843)" fill="#627764"/>
        <path id="Caminho_862" data-name="Caminho 862" d="M333.3,163.175l0,0Z" transform="translate(-324.465 -151.851)" fill="#627764"/>
        <path id="Caminho_863" data-name="Caminho 863" d="M333.187,163.063l0,.005Z" transform="translate(-324.433 -151.82)" fill="#627764"/>
        <path id="Caminho_864" data-name="Caminho 864" d="M333.222,163l0,.006Z" transform="translate(-324.443 -151.803)" fill="#627764"/>
        <path id="Caminho_865" data-name="Caminho 865" d="M329.246,172.02a3.584,3.584,0,0,1-3-3.215c-.2-.989.784-.717,1.4-.762,1.083-.115,2.158-.7,3.257-.31.434.163,1.138.271,1.252.794a.346.346,0,0,1-.639.151,3.5,3.5,0,0,0-.992-.376c-1.238-.218-2.388.572-3.639.4a2.745,2.745,0,0,0,1.369,2.248,2.293,2.293,0,0,0,2.033.344.328.328,0,0,1,.394.236C330.77,172.136,329.635,172.011,329.246,172.02Z" transform="translate(-322.515 -153.069)" fill="#627764"/>
        <path id="Caminho_866" data-name="Caminho 866" d="M331.7,172.808a.329.329,0,0,1,.332-.317.226.226,0,0,1,.038,0,.333.333,0,1,1,.559.361C332.4,173.164,331.727,173.334,331.7,172.808Z" transform="translate(-324.023 -154.372)" fill="#627764"/>
        <path id="Caminho_867" data-name="Caminho 867" d="M322.144,165.336c-.385-.25-1.142-.657-.886-1.208.156-.2.384-.337.548-.533.566-.648.694-1.605,1.434-2.118.433-.331,1.333-.758,1.7-.153l-.017-.037-.006-.008a.324.324,0,0,1-.5.405c-1.456.093-1.453,1.986-2.491,2.691,1.257,1.2,3.5.7,4.608-.462a.325.325,0,0,1,.554.34A4.318,4.318,0,0,1,322.144,165.336Z" transform="translate(-321.135 -151.258)" fill="#627764"/>
        <path id="Caminho_868" data-name="Caminho 868" d="M331.338,186.083c-.469,0-1.814-.62-1.387-1.2a.328.328,0,0,1,.459.01,2.1,2.1,0,0,0,1.927.551,4.385,4.385,0,0,0,4.217-2.612,5.894,5.894,0,0,1-1.837-.365,2.23,2.23,0,0,0-1.435-.482c-.313-.063-.361.325-.649.322a.341.341,0,0,1-.259-.535c.378-.563,1.142-.475,1.723-.35.5.112.849.537,1.355.62,1.528.171,2.434.146,1.238,1.819C335.634,185.742,333.341,186.25,331.338,186.083Z" transform="translate(-323.52 -156.851)" fill="#627764"/>
        <path id="Caminho_869" data-name="Caminho 869" d="M328.527,184.351a1.336,1.336,0,0,1-2.182.228,1.247,1.247,0,0,1-2.128-.446c-1.083.766-1.772-.676-1.683-1.61a1.6,1.6,0,0,1-1.342-.867,1.147,1.147,0,0,1,.584-1.5c.6-.442,1.036.54.336.762-.317.148-.147.609.151.674.387.1.875.142,1.038.571s-.027.971.327,1.338c.29-.108.462-.507.817-.4.512.125.555,1.41,1.213,1a.563.563,0,0,1,.917-.382c.48.3.784.811,1.262.161C327.809,182.911,329.13,183.374,328.527,184.351Z" transform="translate(-321.109 -156.497)" fill="#627764"/>
        <path id="Caminho_870" data-name="Caminho 870" d="M332.916,182.06a1.228,1.228,0,0,1-1.467.278.422.422,0,0,1-.071-.586c.263-.34.641.059.932-.262a.338.338,0,0,0,.091-.431c-.812-.644.672-1.018.114-1.707-.936.55-1.2-.741-.052-.833,1.049-.025,1.285,1.465.657,2.113A1.161,1.161,0,0,1,332.916,182.06Z" transform="translate(-323.912 -156.076)" fill="#627764"/>
        <path id="Caminho_871" data-name="Caminho 871" d="M331.059,177.654a.421.421,0,0,1-.586.071c-.475-.415.337-.735-.211-1.191-.461.421-1.088-.178-.608-.6C330.686,175.07,331.82,176.792,331.059,177.654Z" transform="translate(-323.414 -155.298)" fill="#627764"/>
        <path id="Caminho_872" data-name="Caminho 872" d="M326.6,176.015a.42.42,0,0,1-.743-.311c-.1-.183-.333-.6-.563-.351-.175,2.076-1.227.207-1.829,1.351a.472.472,0,0,0,.1.524.418.418,0,0,1-.671.5,1.446,1.446,0,0,1,1.54-2.231,1.052,1.052,0,0,1,2.005-.446C326.624,175.3,326.845,175.727,326.6,176.015Z" transform="translate(-321.516 -154.954)" fill="#627764"/>
        <path id="Caminho_873" data-name="Caminho 873" d="M328.3,178.728c-.771.707-.777-1.054-1.546-.409a.132.132,0,0,0,0,.161.438.438,0,0,1-.053.442c-.278.346-.655.048-.891-.182-.225-.139-.5.218-.338.418a.419.419,0,0,1-.234.541c-.546.182-.736-.572-.62-.975a1.144,1.144,0,0,1,1.4-.8,1.208,1.208,0,0,1,1.938-.166C328.2,178.006,328.559,178.38,328.3,178.728Z" transform="translate(-322.066 -155.751)" fill="#627764"/>
        <path id="Caminho_874" data-name="Caminho 874" d="M329.041,182.453a1.407,1.407,0,0,1-2.4.209,1.042,1.042,0,0,1-1.617-1.138c.294-.811,1.32-.349.772.321.36.715.667-.793,1.276-.1.133.27.28.6.6.667l-.032,0a.086.086,0,0,0-.022,0c1.073.062.353-.937,1.116-1.006C329.283,181.429,329.177,182.094,329.041,182.453Z" transform="translate(-322.171 -156.784)" fill="#627764"/>
        <path id="Caminho_875" data-name="Caminho 875" d="M328.794,180.962c-.421.19-1.083.022-1.107-.51a.428.428,0,0,1,.773-.258A.419.419,0,1,1,328.794,180.962Z" transform="translate(-322.92 -156.488)" fill="#627764"/>
        <path id="Caminho_876" data-name="Caminho 876" d="M324.757,154.249a3.158,3.158,0,0,1-1.108-2.406,9.244,9.244,0,0,1,.3-3.767c.013-.339.187-.572.549-.52a7.654,7.654,0,0,1,1.878.4,6.663,6.663,0,0,1,2.875,1.9,1.743,1.743,0,0,1,.417,1.1.325.325,0,0,1-.632.136,2.381,2.381,0,0,0-1.513-1.836,6.829,6.829,0,0,0-2.941-1.045,19.1,19.1,0,0,0-.378,2.162,7.254,7.254,0,0,0,.465,2.86,1.521,1.521,0,0,0,.342.4.332.332,0,0,1,.216.338A.341.341,0,0,1,324.757,154.249Z" transform="translate(-321.782 -147.549)" fill="#627764"/>
      </g>
    </g>
    <g id="Grupo_62" data-name="Grupo 62" transform="translate(311.033 119.552)">
      <g id="Grupo_60" data-name="Grupo 60" transform="translate(52.928 10.587)">
        <path id="Caminho_877" data-name="Caminho 877" d="M440.8,138.1a2.163,2.163,0,0,1,1.936,1.722c0,.646-.517,1.033-1.291,1.678a30.553,30.553,0,0,0-2.5,2.2,3.943,3.943,0,0,1-2.367,1.376,1.245,1.245,0,0,1-1.291-1.205q0-.58,2.065-2.97C439,139,440.244,138.1,440.8,138.1Z" transform="translate(-435.295 -138.095)" fill="#627764"/>
      </g>
      <g id="Grupo_61" data-name="Grupo 61">
        <path id="Caminho_878" data-name="Caminho 878" d="M386.155,137.069c3.827-4.556,9.285-9.714,14.7-9.714,4.642,0,7.564,2.536,7.564,7.049,0,9.628-8.767,19.9-17.794,19.9-4.642,0-7.393-2.02-7.393-3.309a1.893,1.893,0,0,1,1.806-1.891,2.413,2.413,0,0,1,1.5.644,6.809,6.809,0,0,0,3.91,1.2c6.449,0,13.627-8.982,13.627-16.591,0-2.407-1.291-3.61-3.4-3.61-3.866,0-9.368,5.029-13.366,9.843a37.945,37.945,0,0,0-5.416,8.381c-1.589,3.18-3.654,7.823-4.642,10.1-1.16,2.536-1.978,3.353-3.137,3.353a1.862,1.862,0,0,1-1.977-2.022c0-1.374,1.289-3.825,3.61-7.564.644-1.246,2.751-5.587,4.127-9.2,1.589-4.169,2.407-6.877,2.407-8.811A4.362,4.362,0,0,0,381,131.481c-1.8,6.232-7.694,13.152-12.981,13.152-3.61,0-5.758-1.977-5.758-5.415,0-5.674,7.994-11.348,15.257-11.692a4.072,4.072,0,0,0-.344-1.848,1.386,1.386,0,0,1-.259-.688,1.692,1.692,0,0,1,1.806-1.5c1.5,0,2.88,1.5,2.88,4.384v.172a6.929,6.929,0,0,1,4.772,6.663A13.809,13.809,0,0,1,386.155,137.069Zm-9.024-6.534c-5.287.431-10.788,4.6-10.788,8.856a1.75,1.75,0,0,0,1.8,1.933C371.671,141.323,375.84,135.478,377.131,130.534Z" transform="translate(-362.259 -123.486)" fill="#627764"/>
        <path id="Caminho_879" data-name="Caminho 879" d="M431.213,150.592a4.137,4.137,0,0,1,3.91,2.192,3.309,3.309,0,0,1,2.751-2.192,1.45,1.45,0,0,1,1.633,1.461c0,.6-.515,1.591-1.762,3.61-1.633,3.611-2.922,6.662-2.922,8.854,0,1.333.559,1.934,1.247,1.934,1.8,0,4.081-2.751,6.017-5.759.559-.9,1.074-1.548,1.891-1.548a1.5,1.5,0,0,1,1.589,1.375,1.552,1.552,0,0,1-.257.859c-2.623,4.041-6.061,7.608-9.758,7.608-2.363,0-4.34-1.289-4.684-3.7-1.891,2.193-4.128,3.7-6.449,3.7-3.266,0-5.587-1.934-5.587-5.5C418.833,157.082,425.282,150.592,431.213,150.592Zm-5.89,15.645c1.721,0,3.483-1.805,5.116-4.212a36.316,36.316,0,0,0,3.437-6.663c-.171-1.29-1.116-2.063-2.751-2.063-3.352,0-7.822,5.459-7.822,10.359C423.3,165.378,424.164,166.237,425.323,166.237Z" transform="translate(-377.835 -130.949)" fill="#627764"/>
        <path id="Caminho_880" data-name="Caminho 880" d="M464.2,156.107a1.5,1.5,0,0,1,1.589,1.375,1.552,1.552,0,0,1-.257.859c-2.623,4.041-6.1,7.608-9.8,7.608-3.139,0-5.116-1.633-5.116-4.814,0-2.578,1.591-6.834,3.481-11.047H452.77c-.946,0-1.547-.386-1.547-1.288,0-.859.6-1.246,1.547-1.246h2.493l2.236-4.342c1.418-2.751,2.621-3.652,3.524-3.652,1.074,0,1.762.6,1.762,1.5,0,.644-.6,1.762-1.677,3.481l-1.505,3.01h1.849c.945,0,1.5.515,1.5,1.2,0,.9-.6,1.331-1.5,1.331h-3.1c-2.02,4.342-3.739,8.726-3.739,11.348,0,1.418.688,1.977,1.633,1.977,1.806,0,4.125-2.751,6.061-5.759C462.871,156.752,463.386,156.107,464.2,156.107Z" transform="translate(-386.586 -127.911)" fill="#627764"/>
        <path id="Caminho_881" data-name="Caminho 881" d="M486.855,159.145a1.5,1.5,0,0,1,1.591,1.375,1.537,1.537,0,0,1-.259.859,15.4,15.4,0,0,1-13.366,7.608c-5.072,0-7.953-2.149-7.953-6.061,0-7.092,6.834-12.336,11.778-12.336,3.266,0,5.158,1.332,5.158,3.7,0,3.31-5.373,6.49-12.465,7.522a7.456,7.456,0,0,0-.042.989c0,2.149,1.719,3.31,4,3.31a11.179,11.179,0,0,0,9.671-5.416C485.522,159.79,486.04,159.145,486.855,159.145Zm-14.828-.086c4.6-.946,7.65-2.923,7.65-4.987,0-.559-.515-.859-1.246-.859C476.369,153.214,473.4,155.578,472.027,159.059Z" transform="translate(-391.06 -130.949)" fill="#627764"/>
        <path id="Caminho_882" data-name="Caminho 882" d="M498.686,168.988c-3.954,0-6.79-2.149-6.79-6.233,0-6.49,6.317-12.163,11.733-12.163,4.213,0,6.706,2.192,6.706,5.974C510.335,162.5,504.532,168.988,498.686,168.988Zm4.858-15.56c-2.965,0-7.179,4.685-7.179,9.456,0,2.191,1.247,3.267,2.8,3.267,3.481,0,6.834-5.158,6.834-9.671C505.995,154.374,505.005,153.428,503.544,153.428Z" transform="translate(-397.95 -130.949)" fill="#627764"/>
        <path id="Caminho_883" data-name="Caminho 883" d="M565.094,130.271a7.739,7.739,0,0,1,2.277,5.8c0,4.813-3.439,8.338-7.435,8.338-3.4,0-5.631-2.192-5.631-5.416,0-2.88,1.633-5.588,3.869-7.737-5.158.688-7.953,7.651-10.53,15.431a64.63,64.63,0,0,1-3.354,8.338c1.16.516,2.365,1.161,3.654,1.849,3.439,1.891,6.061,2.836,8.51,2.836,2.968,0,6.1-2.449,8.3-5.716.559-.9,1.074-1.548,1.891-1.548a1.5,1.5,0,0,1,1.589,1.375,1.553,1.553,0,0,1-.256.859c-3.01,4.557-7.093,8.382-11.778,8.382-3.739,0-7.308-1.376-11.735-3.912l-1.978-1.074c-2.1,3.094-4.64,4.943-7.909,4.943-3.4,0-6.06-1.805-6.06-4.643,0-3.31,3.31-5.587,7.652-5.587a14.674,14.674,0,0,1,4.555.774,66.861,66.861,0,0,0,2.924-7.608c2.966-9.2,6.877-17.837,15.258-17.837a11.67,11.67,0,0,1,2.836.344,13.327,13.327,0,0,1,6.148-2.191c1.245,0,1.675.559,1.675,1.418,0,.988-.386,1.418-1.89,1.677A10.935,10.935,0,0,0,565.094,130.271Zm-26.005,26.305a8.87,8.87,0,0,0-2.922-.6c-2.021,0-3.525.988-3.525,2.407,0,.988.774,1.634,1.978,1.634C536.209,160.015,537.714,158.683,539.089,156.576ZM562,132.248c-2.149,1.719-4,4.084-4,6.748,0,1.633.817,2.45,1.977,2.45,1.806,0,3.439-2.622,3.439-5.373A4.956,4.956,0,0,0,562,132.248Z" transform="translate(-408.032 -124.254)" fill="#627764"/>
        <path id="Caminho_884" data-name="Caminho 884" d="M583.053,166.329c-2.965,0-4.9-1.591-4.9-4.771,0-2.881,1.718-7.007,3.266-9.972,1.462-2.794,2.536-3.653,3.654-3.653a1.472,1.472,0,0,1,1.633,1.461c0,.688-.559,1.891-2.192,4.513-1.462,3.051-2.407,5.631-2.407,7.737,0,1.547.645,2.149,1.462,2.149,1.8,0,4.125-2.751,6.061-5.759.559-.9,1.074-1.548,1.891-1.548a1.5,1.5,0,0,1,1.589,1.375,1.537,1.537,0,0,1-.259.859C590.232,162.761,586.75,166.329,583.053,166.329Zm7.17-23.039a2.356,2.356,0,1,1-2.357-2.356A2.357,2.357,0,0,1,590.223,143.29Z" transform="translate(-421.699 -128.29)" fill="#627764"/>
        <path id="Caminho_885" data-name="Caminho 885" d="M625.384,159.145a1.5,1.5,0,0,1,1.589,1.375,1.552,1.552,0,0,1-.257.859c-2.623,4.041-6.1,7.608-9.8,7.608-2.8,0-4.558-1.633-4.558-4.384,0-3.524,3.911-7.737,3.911-10.531,0-.386-.3-.644-.816-.644-1.418,0-3.61,2.494-5.072,4.471a34.993,34.993,0,0,0-4.557,9.155c-.3.946-.73,1.934-2.234,1.934A1.492,1.492,0,0,1,602,167.44a4.1,4.1,0,0,1,.259-1.117c.945-2.708,2.492-6.963,3.481-9.843a10.514,10.514,0,0,0,.559-2.278.684.684,0,0,0-.773-.774c-1.5,0-3.826,2.536-5.5,4.556a30.265,30.265,0,0,0-4.814,9.327,2.017,2.017,0,0,1-2.02,1.676,1.518,1.518,0,0,1-1.633-1.591,3.054,3.054,0,0,1,.173-1.031c1.5-4.642,3.523-9.8,5.158-13.712a2.585,2.585,0,0,1,2.407-1.847,1.532,1.532,0,0,1,1.719,1.5,3.732,3.732,0,0,1-.559,1.462l-.515,1.2c2.277-2.621,4.384-4.384,6.4-4.384,2.492,0,3.739,1.332,3.739,3.568a5.765,5.765,0,0,1-.088.859c2.15-2.622,4.213-4.427,6.19-4.427,2.45,0,4.042,1.418,4.042,3.653,0,3.524-3.956,7.179-3.956,10.659,0,.988.473,1.547,1.162,1.547,1.806,0,4.125-2.751,6.06-5.759C624.051,159.79,624.567,159.145,625.384,159.145Z" transform="translate(-425.388 -130.949)" fill="#627764"/>
        <path id="Caminho_886" data-name="Caminho 886" d="M647.536,165.291c-1.891,2.193-4.125,3.7-6.447,3.7-3.268,0-5.589-1.934-5.589-5.5,0-6.361,6.448-12.894,12.38-12.894a4.134,4.134,0,0,1,3.91,2.192,3.312,3.312,0,0,1,2.751-2.192,1.451,1.451,0,0,1,1.635,1.461c0,.6-.517,1.591-1.762,3.61-1.635,3.611-2.923,6.662-2.923,8.854,0,1.29.515,1.891,1.162,1.891.73,0,1.5-.73,2.1-1.675a1.761,1.761,0,0,1,1.505-1.033,1.075,1.075,0,0,1,1.118,1.075c0,1.418-2.236,4.212-5.16,4.212C649.857,168.988,647.88,167.7,647.536,165.291Zm-5.545.946c1.72,0,3.483-1.805,5.116-4.212a36.192,36.192,0,0,0,3.439-6.663c-.173-1.29-1.118-2.063-2.751-2.063-3.354,0-7.823,5.5-7.823,10.359C639.971,165.378,640.831,166.237,641.99,166.237Z" transform="translate(-437.487 -130.949)" fill="#627764"/>
      </g>
    </g>
  </g>
</svg>
