<svg width="16" height="16" viewBox="0 0 16 16" fill="none" xmlns="http://www.w3.org/2000/svg">
<path d="M8.44441 8.88894H2.22219V9.33339C2.22219 9.45126 2.17536 9.56431 2.09201 9.64766C2.00866 9.73101 1.89562 9.77783 1.77774 9.77783H1.3333C1.21543 9.77783 1.10238 9.73101 1.01903 9.64766C0.93568 9.56431 0.888855 9.45126 0.888855 9.33339V4.88894L1.99108 2.3165C2.05967 2.1565 2.17372 2.02016 2.3191 1.9244C2.46448 1.82864 2.63477 1.77768 2.80885 1.77783H7.85774C8.03167 1.77785 8.20178 1.8289 8.34698 1.92465C8.49218 2.02039 8.6061 2.15664 8.67463 2.3165L9.77774 4.88894V9.33339C9.77774 9.45126 9.73092 9.56431 9.64757 9.64766C9.56422 9.73101 9.45117 9.77783 9.3333 9.77783H8.88885C8.77098 9.77783 8.65793 9.73101 8.57458 9.64766C8.49124 9.56431 8.44441 9.45126 8.44441 9.33339V8.88894ZM8.88885 5.77783H1.77774V8.00005H8.88885V5.77783ZM1.85597 4.88894H8.81063L7.85819 2.66672H2.80885L1.85641 4.88894H1.85597ZM2.88885 7.55561C2.71204 7.55561 2.54247 7.48537 2.41745 7.36035C2.29243 7.23532 2.22219 7.06575 2.22219 6.88894C2.22219 6.71213 2.29243 6.54256 2.41745 6.41754C2.54247 6.29251 2.71204 6.22228 2.88885 6.22228C3.06567 6.22228 3.23524 6.29251 3.36026 6.41754C3.48528 6.54256 3.55552 6.71213 3.55552 6.88894C3.55552 7.06575 3.48528 7.23532 3.36026 7.36035C3.23524 7.48537 3.06567 7.55561 2.88885 7.55561V7.55561ZM7.77774 7.55561C7.60093 7.55561 7.43136 7.48537 7.30634 7.36035C7.18132 7.23532 7.11108 7.06575 7.11108 6.88894C7.11108 6.71213 7.18132 6.54256 7.30634 6.41754C7.43136 6.29251 7.60093 6.22228 7.77774 6.22228C7.95455 6.22228 8.12412 6.29251 8.24915 6.41754C8.37417 6.54256 8.44441 6.71213 8.44441 6.88894C8.44441 7.06575 8.37417 7.23532 8.24915 7.36035C8.12412 7.48537 7.95455 7.55561 7.77774 7.55561V7.55561Z" fill="#FFFFFF"/>
</svg>
