<svg width="14" height="14" viewBox="0 0 14 14" fill="none" xmlns="http://www.w3.org/2000/svg">
<path d="M7.00004 13.6667C3.31804 13.6667 0.333374 10.682 0.333374 7.00004C0.333374 3.31804 3.31804 0.333374 7.00004 0.333374C10.682 0.333374 13.6667 3.31804 13.6667 7.00004C13.6667 10.682 10.682 13.6667 7.00004 13.6667ZM7.00004 12.3334C8.41453 12.3334 9.77108 11.7715 10.7713 10.7713C11.7715 9.77108 12.3334 8.41453 12.3334 7.00004C12.3334 5.58555 11.7715 4.229 10.7713 3.2288C9.77108 2.22861 8.41453 1.66671 7.00004 1.66671C5.58555 1.66671 4.229 2.22861 3.2288 3.2288C2.22861 4.229 1.66671 5.58555 1.66671 7.00004C1.66671 8.41453 2.22861 9.77108 3.2288 10.7713C4.229 11.7715 5.58555 12.3334 7.00004 12.3334ZM5.70004 6.33337H9.00004V7.66671H5.70004C5.75779 7.95026 5.88838 8.21389 6.07894 8.43166C6.26951 8.64942 6.51349 8.81382 6.78688 8.90867C7.06026 9.00352 7.35364 9.02556 7.63812 8.97261C7.92261 8.91967 8.18842 8.79356 8.40937 8.60671L9.54271 9.36204C9.15327 9.78599 8.65007 10.0889 8.09317 10.2347C7.53627 10.3805 6.94918 10.363 6.40196 10.1843C5.85474 10.0056 5.37049 9.67317 5.00701 9.22676C4.64353 8.78036 4.41616 8.2388 4.35204 7.66671H3.66671V6.33337H4.35137C4.41528 5.761 4.64258 5.21912 5.00615 4.77244C5.36971 4.32577 5.85417 3.99319 6.40165 3.81442C6.94914 3.63565 7.53651 3.61825 8.09361 3.7643C8.65072 3.91035 9.15401 4.21367 9.54337 4.63804L8.40937 5.39337C8.18842 5.20652 7.92261 5.08042 7.63812 5.02747C7.35364 4.97452 7.06026 4.99656 6.78688 5.09141C6.51349 5.18626 6.26951 5.35066 6.07894 5.56843C5.88838 5.78619 5.75779 6.04982 5.70004 6.33337Z" fill="#F2F2F2"/>
</svg>
