<svg width="16" height="16" viewBox="0 0 16 16" fill="none" xmlns="http://www.w3.org/2000/svg">
<path d="M8.00001 7.3335C8.88406 7.3335 9.73191 7.68469 10.357 8.30981C10.9822 8.93493 11.3333 9.78277 11.3333 10.6668V14.6668H10V10.6668C10 10.1567 9.80513 9.66582 9.45515 9.29466C9.10518 8.92349 8.6266 8.70009 8.11734 8.67016L8.00001 8.66683C7.48987 8.6668 6.999 8.86171 6.62784 9.21168C6.25667 9.56166 6.03327 10.0402 6.00334 10.5495L6.00001 10.6668V14.6668H4.66668V10.6668C4.66668 9.78277 5.01787 8.93493 5.64299 8.30981C6.26811 7.68469 7.11595 7.3335 8.00001 7.3335ZM3.66668 9.3335C3.85268 9.3335 4.03334 9.3555 4.20668 9.39616C4.09269 9.7355 4.02519 10.0887 4.00601 10.4462L4.00001 10.6668V10.7242C3.92338 10.6967 3.84367 10.6788 3.76268 10.6708L3.66668 10.6668C3.41809 10.6668 3.17842 10.7594 2.9944 10.9266C2.81038 11.0937 2.69521 11.3234 2.67134 11.5708L2.66668 11.6668V14.6668H1.33334V11.6668C1.33334 11.048 1.57918 10.4545 2.01676 10.0169C2.45435 9.57933 3.04784 9.3335 3.66668 9.3335V9.3335ZM12.3333 9.3335C12.9522 9.3335 13.5457 9.57933 13.9833 10.0169C14.4208 10.4545 14.6667 11.048 14.6667 11.6668V14.6668H13.3333V11.6668C13.3333 11.4182 13.2407 11.1786 13.0736 10.9945C12.9065 10.8105 12.6768 10.6954 12.4293 10.6715L12.3333 10.6668C12.2167 10.6668 12.1047 10.6868 12 10.7235V10.6668C12 10.2228 11.928 9.79616 11.794 9.3975C11.9667 9.3555 12.1473 9.3335 12.3333 9.3335ZM3.66668 5.3335C4.1087 5.3335 4.53263 5.50909 4.84519 5.82165C5.15775 6.13421 5.33334 6.55813 5.33334 7.00016C5.33334 7.44219 5.15775 7.86611 4.84519 8.17867C4.53263 8.49123 4.1087 8.66683 3.66668 8.66683C3.22465 8.66683 2.80073 8.49123 2.48817 8.17867C2.1756 7.86611 2.00001 7.44219 2.00001 7.00016C2.00001 6.55813 2.1756 6.13421 2.48817 5.82165C2.80073 5.50909 3.22465 5.3335 3.66668 5.3335V5.3335ZM12.3333 5.3335C12.7754 5.3335 13.1993 5.50909 13.5119 5.82165C13.8244 6.13421 14 6.55813 14 7.00016C14 7.44219 13.8244 7.86611 13.5119 8.17867C13.1993 8.49123 12.7754 8.66683 12.3333 8.66683C11.8913 8.66683 11.4674 8.49123 11.1548 8.17867C10.8423 7.86611 10.6667 7.44219 10.6667 7.00016C10.6667 6.55813 10.8423 6.13421 11.1548 5.82165C11.4674 5.50909 11.8913 5.3335 12.3333 5.3335V5.3335ZM3.66668 6.66683C3.57827 6.66683 3.49349 6.70195 3.43097 6.76446C3.36846 6.82697 3.33334 6.91176 3.33334 7.00016C3.33334 7.08857 3.36846 7.17335 3.43097 7.23586C3.49349 7.29838 3.57827 7.3335 3.66668 7.3335C3.75508 7.3335 3.83987 7.29838 3.90238 7.23586C3.96489 7.17335 4.00001 7.08857 4.00001 7.00016C4.00001 6.91176 3.96489 6.82697 3.90238 6.76446C3.83987 6.70195 3.75508 6.66683 3.66668 6.66683ZM12.3333 6.66683C12.2449 6.66683 12.1602 6.70195 12.0976 6.76446C12.0351 6.82697 12 6.91176 12 7.00016C12 7.08857 12.0351 7.17335 12.0976 7.23586C12.1602 7.29838 12.2449 7.3335 12.3333 7.3335C12.4217 7.3335 12.5065 7.29838 12.569 7.23586C12.6316 7.17335 12.6667 7.08857 12.6667 7.00016C12.6667 6.91176 12.6316 6.82697 12.569 6.76446C12.5065 6.70195 12.4217 6.66683 12.3333 6.66683ZM8.00001 1.3335C8.70725 1.3335 9.38553 1.61445 9.88563 2.11454C10.3857 2.61464 10.6667 3.29292 10.6667 4.00016C10.6667 4.70741 10.3857 5.38568 9.88563 5.88578C9.38553 6.38588 8.70725 6.66683 8.00001 6.66683C7.29277 6.66683 6.61449 6.38588 6.11439 5.88578C5.61429 5.38568 5.33334 4.70741 5.33334 4.00016C5.33334 3.29292 5.61429 2.61464 6.11439 2.11454C6.61449 1.61445 7.29277 1.3335 8.00001 1.3335V1.3335ZM8.00001 2.66683C7.64639 2.66683 7.30725 2.80731 7.0572 3.05735C6.80715 3.3074 6.66668 3.64654 6.66668 4.00016C6.66668 4.35378 6.80715 4.69292 7.0572 4.94297C7.30725 5.19302 7.64639 5.3335 8.00001 5.3335C8.35363 5.3335 8.69277 5.19302 8.94282 4.94297C9.19287 4.69292 9.33334 4.35378 9.33334 4.00016C9.33334 3.64654 9.19287 3.3074 8.94282 3.05735C8.69277 2.80731 8.35363 2.66683 8.00001 2.66683V2.66683Z" fill="#FFFFFF"/>
</svg>
