<svg width="16" height="16" viewBox="0 0 16 16" fill="none" xmlns="http://www.w3.org/2000/svg">
<path d="M13.4953 3.17132C15.0033 4.68332 15.0553 7.09132 13.6526 8.66199L7.99926 14.3233L2.34726 8.66199C0.944589 7.09132 0.997256 4.67932 2.50459 3.17132C4.01459 1.66199 6.42992 1.61132 8.00059 3.01932C9.56659 1.61332 11.9866 1.65999 13.4953 3.17132ZM3.44792 4.11465C2.45459 5.10799 2.40459 6.69799 3.31992 7.74865L7.99992 12.436L12.6799 7.74932C13.5959 6.69799 13.5459 5.10999 12.5513 4.11332C11.5599 3.11999 9.96392 3.07199 8.91592 3.98932L6.11459 6.79132L5.17126 5.84865L7.05459 3.96399L6.99992 3.91799C5.94992 3.07465 4.41526 3.14665 3.44792 4.11465Z" fill="#F2F2F2"/>
</svg>
