<svg width="24" height="22" viewBox="0 0 24 22" fill="none" xmlns="http://www.w3.org/2000/svg">

<path d="M7.66666 13.9998C7.27269 13.9998 6.88258 13.9222 6.51861 13.7715C6.15463 13.6207 5.82391 13.3997 5.54534 13.1212C5.26676 12.8426 5.04578 12.5119 4.89502 12.1479C4.74425 11.7839 4.66666 11.3938 4.66666 10.9998C4.66666 10.6059 4.74425 10.2158 4.89502 9.85179C5.04578 9.48781 5.26676 9.15709 5.54534 8.87852C5.82391 8.59994 6.15463 8.37896 6.51861 8.2282C6.88258 8.07743 7.27269 7.99984 7.66666 7.99984C8.46231 7.99984 9.22537 8.31591 9.78798 8.87852C10.3506 9.44113 10.6667 10.2042 10.6667 10.9998C10.6667 11.7955 10.3506 12.5585 9.78798 13.1212C9.22537 13.6838 8.46231 13.9998 7.66666 13.9998V13.9998ZM7.66666 12.6665C8.10868 12.6665 8.53261 12.4909 8.84517 12.1783C9.15773 11.8658 9.33332 11.4419 9.33332 10.9998C9.33332 10.5578 9.15773 10.1339 8.84517 9.82133C8.53261 9.50876 8.10868 9.33317 7.66666 9.33317C7.22463 9.33317 6.80071 9.50876 6.48815 9.82133C6.17558 10.1339 5.99999 10.5578 5.99999 10.9998C5.99999 11.4419 6.17558 11.8658 6.48815 12.1783C6.80071 12.4909 7.22463 12.6665 7.66666 12.6665V12.6665ZM16.3333 13.9998C15.9394 13.9998 15.5492 13.9222 15.1853 13.7715C14.8213 13.6207 14.4906 13.3997 14.212 13.1212C13.9334 12.8426 13.7124 12.5119 13.5617 12.1479C13.4109 11.7839 13.3333 11.3938 13.3333 10.9998C13.3333 10.6059 13.4109 10.2158 13.5617 9.85179C13.7124 9.48781 13.9334 9.15709 14.212 8.87852C14.4906 8.59994 14.8213 8.37896 15.1853 8.2282C15.5492 8.07743 15.9394 7.99984 16.3333 7.99984C17.129 7.99984 17.892 8.31591 18.4546 8.87852C19.0173 9.44113 19.3333 10.2042 19.3333 10.9998C19.3333 11.7955 19.0173 12.5585 18.4546 13.1212C17.892 13.6838 17.129 13.9998 16.3333 13.9998V13.9998ZM16.3333 12.6665C16.7754 12.6665 17.1993 12.4909 17.5118 12.1783C17.8244 11.8658 18 11.4419 18 10.9998C18 10.5578 17.8244 10.1339 17.5118 9.82133C17.1993 9.50876 16.7754 9.33317 16.3333 9.33317C15.8913 9.33317 15.4674 9.50876 15.1548 9.82133C14.8423 10.1339 14.6667 10.5578 14.6667 10.9998C14.6667 11.4419 14.8423 11.8658 15.1548 12.1783C15.4674 12.4909 15.8913 12.6665 16.3333 12.6665ZM11.3487 6.86984L12.6667 7.99984V11.9998H11.3333V8.6665L9.52066 7.15584C9.35935 7.04499 9.22443 6.89998 9.12547 6.73112C9.02651 6.56226 8.96594 6.37368 8.94805 6.17877C8.93017 5.98387 8.95542 5.78742 9.02201 5.60337C9.08859 5.41932 9.19488 5.25219 9.33332 5.11384L11.2187 3.2285C11.3425 3.10464 11.4895 3.00637 11.6513 2.93933C11.8131 2.87229 11.9865 2.83779 12.1617 2.83779C12.3368 2.83779 12.5102 2.87229 12.672 2.93933C12.8338 3.00637 12.9808 3.10464 13.1047 3.2285L14.0473 4.17117C14.7533 4.87972 15.6692 5.34149 16.6587 5.48784L16.652 6.83117C15.3094 6.67661 14.0589 6.07145 13.1047 5.1145L11.3487 6.86984V6.86984ZM14.6667 3.33317C14.313 3.33317 13.9739 3.19269 13.7238 2.94265C13.4738 2.6926 13.3333 2.35346 13.3333 1.99984C13.3333 1.64622 13.4738 1.30708 13.7238 1.05703C13.9739 0.80698 14.313 0.666504 14.6667 0.666504C15.0203 0.666504 15.3594 0.80698 15.6095 1.05703C15.8595 1.30708 16 1.64622 16 1.99984C16 2.35346 15.8595 2.6926 15.6095 2.94265C15.3594 3.19269 15.0203 3.33317 14.6667 3.33317V3.33317Z" fill="#FFFFFF"/>
</svg>
