<svg width="16" height="16" viewBox="0 0 16 16" fill="none" xmlns="http://www.w3.org/2000/svg">
<path d="M6.00016 2C6.00016 2.53043 6.21088 3.03914 6.58595 3.41421C6.96102 3.78929 7.46973 4 8.00016 4C8.5306 4 9.0393 3.78929 9.41438 3.41421C9.78945 3.03914 10.0002 2.53043 10.0002 2H14.0002C14.177 2 14.3465 2.07024 14.4716 2.19526C14.5966 2.32029 14.6668 2.48986 14.6668 2.66667V7.33333C14.6668 7.51014 14.5966 7.67971 14.4716 7.80474C14.3465 7.92976 14.177 8 14.0002 8H12.6662L12.6668 13.3333C12.6668 13.5101 12.5966 13.6797 12.4716 13.8047C12.3465 13.9298 12.177 14 12.0002 14H4.00016C3.82335 14 3.65378 13.9298 3.52876 13.8047C3.40373 13.6797 3.3335 13.5101 3.3335 13.3333L3.33283 7.99933L2.00016 8C1.82335 8 1.65378 7.92976 1.52876 7.80474C1.40373 7.67971 1.3335 7.51014 1.3335 7.33333V2.66667C1.3335 2.48986 1.40373 2.32029 1.52876 2.19526C1.65378 2.07024 1.82335 2 2.00016 2H6.00016ZM13.3335 3.33267H11.0555L11.0442 3.36C10.7913 3.92523 10.3861 4.40891 9.87394 4.75685C9.36174 5.10479 8.76278 5.30325 8.14416 5.33L8.00016 5.33333C7.35643 5.33339 6.72644 5.14708 6.18628 4.79691C5.64612 4.44674 5.21888 3.94768 4.95616 3.36L4.94416 3.33333H2.66683V6.66667L4.66616 6.666V12.6667H11.3335L11.3328 6.66667L13.3335 6.666V3.33267Z" fill="#F2F2F2"/>
</svg>
