<svg xmlns="http://www.w3.org/2000/svg" width="796.324" height="61" viewBox="0 0 796.324 61">
  <g id="Grupo_95" data-name="Grupo 95" transform="translate(-616.676 -133.5)">
    <path id="Caminho_1167" data-name="Caminho 1167" d="M783.891,62.05l9.352-7.94q1.4-1.163,2.367-2.11a13.45,13.45,0,0,0,1.572-1.8,6.4,6.4,0,0,0,.872-1.666,5.436,5.436,0,0,0,.272-1.744,3.916,3.916,0,0,0-1.262-3.116,4.556,4.556,0,0,0-3.123-1.105,5.509,5.509,0,0,0-3.279,1.008,15.113,15.113,0,0,0-3.006,3.065L784.279,44a23.28,23.28,0,0,1,1.979-2.436,10.4,10.4,0,0,1,2.193-1.8,10.007,10.007,0,0,1,2.6-1.118,12.125,12.125,0,0,1,3.239-.392,10.8,10.8,0,0,1,3.629.583,8.284,8.284,0,0,1,2.832,1.648,7.5,7.5,0,0,1,1.845,2.563,8.138,8.138,0,0,1,.658,3.316v.077a9.238,9.238,0,0,1-.427,2.891,9.106,9.106,0,0,1-1.3,2.5,16.3,16.3,0,0,1-2.213,2.425q-1.34,1.222-3.125,2.7L790.6,61.619h12.921v4.189H783.891Z" transform="translate(343.566 120.34)" fill="#738B79"/>
    <path id="Caminho_1168" data-name="Caminho 1168" d="M833.429,65.471a14.511,14.511,0,0,1-5.742-1.1,13.582,13.582,0,0,1-4.464-3.009,13.771,13.771,0,0,1-2.911-4.442,14.07,14.07,0,0,1-1.047-5.412v-.078a14.084,14.084,0,0,1,1.047-5.414,13.751,13.751,0,0,1,2.949-4.462,14.16,14.16,0,0,1,10.245-4.171,14.514,14.514,0,0,1,5.742,1.107,13.607,13.607,0,0,1,4.463,3.006,13.793,13.793,0,0,1,2.911,4.442,14.088,14.088,0,0,1,1.049,5.416v.076a14.066,14.066,0,0,1-1.049,5.413,13.653,13.653,0,0,1-2.949,4.461,14.159,14.159,0,0,1-10.245,4.172m.078-4.382a8.9,8.9,0,0,0,3.691-.758,8.8,8.8,0,0,0,2.877-2.056,9.52,9.52,0,0,0,1.875-3.047,10.2,10.2,0,0,0,.675-3.725v-.078a10.369,10.369,0,0,0-.675-3.745,9.284,9.284,0,0,0-1.894-3.064,9.154,9.154,0,0,0-2.916-2.076,8.971,8.971,0,0,0-10.279,2.037,9.511,9.511,0,0,0-1.874,3.046,10.254,10.254,0,0,0-.678,3.726v.076a10.408,10.408,0,0,0,.678,3.744,9.3,9.3,0,0,0,1.893,3.066,9.135,9.135,0,0,0,2.92,2.077,8.838,8.838,0,0,0,3.708.777" transform="translate(330.038 120.677)" fill="#738B79"/>
    <path id="Caminho_1169" data-name="Caminho 1169" d="M868.274,62.05l9.354-7.94q1.392-1.163,2.366-2.11a13.5,13.5,0,0,0,1.571-1.8,6.478,6.478,0,0,0,.873-1.666,5.485,5.485,0,0,0,.27-1.744,3.913,3.913,0,0,0-1.26-3.116,4.561,4.561,0,0,0-3.122-1.105,5.493,5.493,0,0,0-3.278,1.008,15,15,0,0,0-3.008,3.065L868.662,44a23.607,23.607,0,0,1,1.98-2.436,10.49,10.49,0,0,1,2.193-1.8,10.024,10.024,0,0,1,2.6-1.118,12.122,12.122,0,0,1,3.239-.392,10.784,10.784,0,0,1,3.628.583,8.255,8.255,0,0,1,2.833,1.648,7.467,7.467,0,0,1,1.842,2.563,8.077,8.077,0,0,1,.661,3.316v.077a8.676,8.676,0,0,1-1.728,5.394,16.042,16.042,0,0,1-2.21,2.425q-1.343,1.222-3.124,2.7l-5.59,4.656h12.922v4.189H868.274Z" transform="translate(311.295 120.34)" fill="#738B79"/>
    <path id="Caminho_1170" data-name="Caminho 1170" d="M917.812,65.471a14.528,14.528,0,0,1-5.743-1.1,13.531,13.531,0,0,1-7.37-7.45,14.047,14.047,0,0,1-1.051-5.412v-.078a14.061,14.061,0,0,1,1.051-5.414,13.676,13.676,0,0,1,2.948-4.462,14.134,14.134,0,0,1,10.245-4.171,14.527,14.527,0,0,1,5.74,1.107,13.665,13.665,0,0,1,4.464,3.006A13.83,13.83,0,0,1,931,45.933a14.1,14.1,0,0,1,1.047,5.416v.076A14.078,14.078,0,0,1,931,56.838a13.662,13.662,0,0,1-2.948,4.461,14.173,14.173,0,0,1-10.245,4.172m.08-4.382a8.883,8.883,0,0,0,3.687-.758,8.779,8.779,0,0,0,2.88-2.056,9.593,9.593,0,0,0,1.874-3.047,10.245,10.245,0,0,0,.675-3.725v-.078a10.412,10.412,0,0,0-.675-3.745,9.376,9.376,0,0,0-1.893-3.064,9.146,9.146,0,0,0-2.917-2.076,8.978,8.978,0,0,0-10.28,2.037,9.487,9.487,0,0,0-1.874,3.046,10.225,10.225,0,0,0-.676,3.726v.076a10.378,10.378,0,0,0,.676,3.744,9.284,9.284,0,0,0,1.892,3.066,9.138,9.138,0,0,0,2.917,2.077,8.872,8.872,0,0,0,3.714.777" transform="translate(297.767 120.677)" fill="#738B79"/>
    <path id="Caminho_1171" data-name="Caminho 1171" d="M786.828,20.732a4.395,4.395,0,0,1-.487-.02V22.35a7.282,7.282,0,0,1,.985.135V23.4h-3.435v-.911a7.243,7.243,0,0,1,.983-.135V16.827a7.988,7.988,0,0,1-.983-.136v-.915h.886c.357,0,1.353-.043,2.143-.043,1.861,0,2.888.87,2.888,2.36a2.692,2.692,0,0,1-2.98,2.64m.023-3.8c-.18,0-.337,0-.51,0v2.542a3.024,3.024,0,0,0,.428.036,1.357,1.357,0,0,0,1.517-1.333c0-.768-.43-1.25-1.435-1.25m7.077,6.587c-2.326,0-3.463-1.477-3.463-3.835a3.722,3.722,0,0,1,3.724-4.033c2.031,0,3.469,1.221,3.469,3.828a3.721,3.721,0,0,1-3.729,4.04m.127-6.544c-1.05,0-2.021.837-2.021,2.549,0,1.614.633,2.665,2,2.665.994,0,2.053-.767,2.053-2.6,0-1.693-.719-2.618-2.03-2.618m8.633,6.42-1.864-3.143h-.2v2.1a3.548,3.548,0,0,1,.69.122V23.4h-3.139v-.911a7.243,7.243,0,0,1,.981-.135V16.827a7.992,7.992,0,0,1-.981-.136v-.915h.879c.3,0,1.353-.043,2.29-.043,1.683,0,2.768.584,2.768,2.143a2.1,2.1,0,0,1-1.8,2.069c.137.179.269.372.385.551l1.173,1.842c.214.031.484.077.746.124V23.4Zm-1.5-6.463a4.147,4.147,0,0,0-.563.028v2.2c.1.009.294.02.517.02.894,0,1.424-.449,1.424-1.163,0-.733-.441-1.09-1.378-1.09m8.644.989c-.051-.347-.112-.652-.132-.937H808.52V22.35a7.351,7.351,0,0,1,.984.135V23.4h-3.433v-.911a7.276,7.276,0,0,1,.982-.135V16.984h-1.162c-.022.285-.08.59-.133.937h-1.088V15.775h6.24v2.146Zm8.5-1.094v3.647c0,2.02-1.118,3.046-3.15,3.046-2.407,0-2.944-1.308-2.944-2.762v-3.93a4.229,4.229,0,0,1-.714-.124v-.928h2.991V16.7a5.19,5.19,0,0,1-.814.124v3.839c0,.961.306,1.637,1.572,1.637,1.126,0,1.613-.475,1.613-1.773v-3.7a4.762,4.762,0,0,1-.811-.124v-.928h2.956V16.7a4.092,4.092,0,0,1-.7.124m7.573,3.624V23.04a7.345,7.345,0,0,1-2.63.471,3.49,3.49,0,0,1-3.829-3.747,3.917,3.917,0,0,1,4.224-4.1,8.453,8.453,0,0,1,2.124.284v2.043h-1.133c-.064-.327-.1-.619-.133-.916a3.642,3.642,0,0,0-.938-.115,2.425,2.425,0,0,0-2.549,2.664,2.278,2.278,0,0,0,2.429,2.565,3.116,3.116,0,0,0,.964-.136v-1.59a6.122,6.122,0,0,1-.964-.146V19.4h3.069v.936c-.206.046-.421.08-.635.114m5.3,2.944v-.911a7.5,7.5,0,0,1,.8-.123l-.326-.9H828.9l-.317.9a7.367,7.367,0,0,1,.8.123V23.4h-2.869v-.911a2.687,2.687,0,0,1,.6-.116l2.324-6.593h1.8l2.372,6.593a2.676,2.676,0,0,1,.6.116V23.4Zm-.564-4.954a10.761,10.761,0,0,1-.348-1.2h-.012a10.9,10.9,0,0,1-.361,1.25l-.656,1.822h2.055Zm3.912,4.954v-.911a7.332,7.332,0,0,1,.985-.135V16.827a8.094,8.094,0,0,1-.985-.136v-.915h3.434v.915a7.965,7.965,0,0,1-.985.136v5.362h1.459c.023-.274.078-.6.136-.934h1.081V23.4Z" transform="translate(343.566 128.986)" fill="#738B79"/>
    <path id="Caminho_1172" data-name="Caminho 1172" d="M740.137,16.175c-6.722,2.657-10.9,9.668-10.9,20.465V53.031s1.375-10.536,10.9-13.57Z" transform="translate(364.467 128.785)" fill="#738B79"/>
    <path id="Caminho_1173" data-name="Caminho 1173" d="M745.15,41.213c-3.9.779-9.624,3.91-11.308,8.317,8.382-10.179,25.492-.341,26.25-19.484.239-6.062.264-13.523.264-13.523a55.944,55.944,0,0,0-15.207,2.882Z" transform="translate(362.706 128.652)" fill="#738B79"/>
    <path id="Caminho_1174" data-name="Caminho 1174" d="M744.26,65.454s-9.1.737-9.869,5.931c-.61,4.06,9.869,4.166,9.869,4.166Z" transform="translate(362.506 109.939)" fill="#738B79"/>
    <path id="Caminho_1175" data-name="Caminho 1175" d="M1105.054,27.519h.981v2.633a5.519,5.519,0,0,0,.036.813.793.793,0,0,0,.3.479,1.045,1.045,0,0,0,.648.18.988.988,0,0,0,.629-.17.674.674,0,0,0,.256-.42,5.535,5.535,0,0,0,.043-.826V27.519h.982v2.554a6.539,6.539,0,0,1-.08,1.236,1.375,1.375,0,0,1-.293.61,1.487,1.487,0,0,1-.572.4,2.494,2.494,0,0,1-.936.148,2.688,2.688,0,0,1-1.056-.161,1.514,1.514,0,0,1-.568-.418,1.355,1.355,0,0,1-.275-.539,5.9,5.9,0,0,1-.1-1.233Z" transform="translate(220.742 124.447)" fill="#738B79"/>
    <path id="Caminho_1176" data-name="Caminho 1176" d="M1113.022,32.38V27.519h.955l1.99,3.246V27.519h.911V32.38h-.985l-1.959-3.17v3.17Z" transform="translate(217.695 124.447)" fill="#738B79"/>
    <rect id="Retângulo_78" data-name="Retângulo 78" width="0.981" height="4.861" transform="translate(1335.581 151.966)" fill="#738B79"/>
    <path id="Caminho_1177" data-name="Caminho 1177" d="M1128.079,31.691h-1.068l-.424-1.1h-1.944l-.4,1.1H1123.2l1.893-4.861h1.038Zm-3.236-5.13h-.425c0-.051,0-.09,0-.119a.776.776,0,0,1,.17-.536.556.556,0,0,1,.434-.187.873.873,0,0,1,.215.025,2.585,2.585,0,0,1,.363.142,1.113,1.113,0,0,0,.413.119.248.248,0,0,0,.177-.067.356.356,0,0,0,.091-.221h.431a.994.994,0,0,1-.168.639.529.529,0,0,1-.422.193,1.036,1.036,0,0,1-.222-.024c-.051-.012-.178-.058-.382-.135a1.438,1.438,0,0,0-.444-.117.213.213,0,0,0-.166.065.334.334,0,0,0-.062.224m1.428,3.206-.669-1.8-.656,1.8Z" transform="translate(213.802 125.136)" fill="#738B79"/>
    <path id="Caminho_1178" data-name="Caminho 1178" d="M1131.62,29.929a3.078,3.078,0,0,1,.223-1.247,2.289,2.289,0,0,1,.452-.666,1.91,1.91,0,0,1,.629-.438,2.665,2.665,0,0,1,1.049-.192,2.279,2.279,0,0,1,1.718.667,2.554,2.554,0,0,1,.645,1.853,2.548,2.548,0,0,1-.64,1.842,2.265,2.265,0,0,1-1.711.664,2.292,2.292,0,0,1-1.725-.661,2.513,2.513,0,0,1-.64-1.822m1.012-.034a1.822,1.822,0,0,0,.382,1.252,1.244,1.244,0,0,0,.968.426,1.23,1.23,0,0,0,.963-.424,1.856,1.856,0,0,0,.376-1.267,1.83,1.83,0,0,0-.365-1.247,1.358,1.358,0,0,0-1.952.006,1.834,1.834,0,0,0-.372,1.254" transform="translate(210.582 124.498)" fill="#738B79"/>
    <path id="Caminho_1179" data-name="Caminho 1179" d="M1143.552,32.38V27.519h3.6v.823h-2.623v1.078h2.44v.819h-2.44v1.323h2.715v.819Z" transform="translate(206.019 124.447)" fill="#738B79"/>
    <path id="Caminho_1180" data-name="Caminho 1180" d="M1150.874,27.519h.983v2.633a5.6,5.6,0,0,0,.035.813.793.793,0,0,0,.3.479,1.043,1.043,0,0,0,.648.18.987.987,0,0,0,.629-.17.676.676,0,0,0,.256-.42,5.514,5.514,0,0,0,.043-.826V27.519h.982v2.554a6.558,6.558,0,0,1-.08,1.236,1.379,1.379,0,0,1-.293.61,1.491,1.491,0,0,1-.573.4,2.5,2.5,0,0,1-.936.148,2.689,2.689,0,0,1-1.056-.161,1.519,1.519,0,0,1-.568-.418,1.344,1.344,0,0,1-.276-.539,5.941,5.941,0,0,1-.1-1.233Z" transform="translate(203.219 124.447)" fill="#738B79"/>
    <path id="Caminho_1181" data-name="Caminho 1181" d="M1158.832,32.38V27.52h2.066a3.557,3.557,0,0,1,1.133.13,1.121,1.121,0,0,1,.565.466,1.4,1.4,0,0,1,.212.766,1.3,1.3,0,0,1-.322.9,1.545,1.545,0,0,1-.961.448,2.309,2.309,0,0,1,.526.408,5.519,5.519,0,0,1,.558.789l.593.948h-1.173l-.71-1.057a6.906,6.906,0,0,0-.517-.715.75.75,0,0,0-.3-.2,1.616,1.616,0,0,0-.494-.055h-.2V32.38Zm.981-2.8h.727a3.723,3.723,0,0,0,.881-.06.525.525,0,0,0,.276-.206.637.637,0,0,0,.1-.364.584.584,0,0,0-.131-.4.6.6,0,0,0-.37-.191c-.08-.011-.317-.016-.716-.016h-.766Z" transform="translate(200.176 124.447)" fill="#738B79"/>
    <path id="Caminho_1182" data-name="Caminho 1182" d="M1166.445,29.929a3.069,3.069,0,0,1,.224-1.247,2.277,2.277,0,0,1,.451-.666,1.913,1.913,0,0,1,.629-.438,2.656,2.656,0,0,1,1.047-.192,2.28,2.28,0,0,1,1.719.667,2.553,2.553,0,0,1,.645,1.853,2.551,2.551,0,0,1-.639,1.842,2.266,2.266,0,0,1-1.712.664,2.291,2.291,0,0,1-1.725-.661,2.513,2.513,0,0,1-.64-1.822m1.011-.034a1.821,1.821,0,0,0,.382,1.252,1.245,1.245,0,0,0,.968.426,1.23,1.23,0,0,0,.963-.424,1.856,1.856,0,0,0,.376-1.267,1.833,1.833,0,0,0-.365-1.247,1.359,1.359,0,0,0-1.952.006,1.835,1.835,0,0,0-.372,1.254" transform="translate(197.264 124.498)" fill="#738B79"/>
    <path id="Caminho_1183" data-name="Caminho 1183" d="M1175.321,32.38V27.519h1.576a5.683,5.683,0,0,1,1.167.073,1.27,1.27,0,0,1,.7.475,1.511,1.511,0,0,1,.282.947,1.579,1.579,0,0,1-.162.753,1.34,1.34,0,0,1-.413.479,1.421,1.421,0,0,1-.509.231,5.617,5.617,0,0,1-1.019.07h-.639V32.38Zm.982-4.039v1.38h.536a2.527,2.527,0,0,0,.777-.077.638.638,0,0,0,.306-.239.66.66,0,0,0,.112-.377.626.626,0,0,0-.156-.438.677.677,0,0,0-.4-.216,4.7,4.7,0,0,0-.705-.033Z" transform="translate(193.869 124.447)" fill="#738B79"/>
    <path id="Caminho_1184" data-name="Caminho 1184" d="M1182.655,32.38V27.519h3.605v.823h-2.623v1.078h2.439v.819h-2.439v1.323h2.715v.819Z" transform="translate(191.065 124.447)" fill="#738B79"/>
    <rect id="Retângulo_79" data-name="Retângulo 79" width="0.981" height="4.861" transform="translate(1378.219 151.966)" fill="#738B79"/>
    <path id="Caminho_1185" data-name="Caminho 1185" d="M1197.122,32.381h-1.068l-.424-1.1h-1.944l-.4,1.1h-1.042l1.894-4.861h1.037Zm-1.808-1.924-.669-1.8-.656,1.8Z" transform="translate(187.398 124.447)" fill="#738B79"/>
    <path id="Caminho_1186" data-name="Caminho 1186" d="M1105.166,58.433V53.571h3.28v.574h-2.637v1.5h2.281v.574h-2.281v2.209Z" transform="translate(220.699 114.484)" fill="#738B79"/>
    <path id="Caminho_1187" data-name="Caminho 1187" d="M1114,59.262v-.518a1.287,1.287,0,0,1-1.117.6,1.437,1.437,0,0,1-.582-.119.953.953,0,0,1-.4-.3,1.1,1.1,0,0,1-.184-.443,2.958,2.958,0,0,1-.038-.558V55.741h.6v1.953a3.486,3.486,0,0,0,.037.63.619.619,0,0,0,.238.37.743.743,0,0,0,.452.134.982.982,0,0,0,.5-.137.766.766,0,0,0,.334-.375,1.874,1.874,0,0,0,.1-.688V55.741h.6v3.521Z" transform="translate(218.207 113.654)" fill="#738B79"/>
    <path id="Caminho_1188" data-name="Caminho 1188" d="M1117.82,59.213V55.692h.537v.5a1.267,1.267,0,0,1,1.121-.58,1.468,1.468,0,0,1,.586.114.917.917,0,0,1,.4.3,1.126,1.126,0,0,1,.186.441,3.376,3.376,0,0,1,.034.58v2.166h-.6V57.071a1.636,1.636,0,0,0-.069-.545.574.574,0,0,0-.248-.288.785.785,0,0,0-.416-.108.97.97,0,0,0-.658.242,1.2,1.2,0,0,0-.276.919v1.923Z" transform="translate(215.86 113.703)" fill="#738B79"/>
    <path id="Caminho_1189" data-name="Caminho 1189" d="M1126.088,58.432v-.444a1.1,1.1,0,0,1-.984.524,1.387,1.387,0,0,1-.775-.232,1.527,1.527,0,0,1-.547-.648,2.238,2.238,0,0,1-.193-.957,2.527,2.527,0,0,1,.175-.957,1.392,1.392,0,0,1,.527-.658,1.409,1.409,0,0,1,.787-.228,1.184,1.184,0,0,1,.567.134,1.2,1.2,0,0,1,.4.35V53.571h.594v4.861Zm-1.887-1.757a1.526,1.526,0,0,0,.285,1.011.858.858,0,0,0,.673.335.845.845,0,0,0,.665-.32,1.474,1.474,0,0,0,.273-.976,1.652,1.652,0,0,0-.279-1.062.857.857,0,0,0-.685-.338.824.824,0,0,0-.664.326,1.6,1.6,0,0,0-.267,1.025" transform="translate(213.654 114.484)" fill="#738B79"/>
    <path id="Caminho_1190" data-name="Caminho 1190" d="M1129.692,57.452a1.812,1.812,0,0,1,.544-1.449,1.637,1.637,0,0,1,1.107-.392,1.58,1.58,0,0,1,1.187.477,1.807,1.807,0,0,1,.461,1.314,2.33,2.33,0,0,1-.2,1.07,1.44,1.44,0,0,1-.593.605,1.727,1.727,0,0,1-.85.216,1.585,1.585,0,0,1-1.2-.474,1.893,1.893,0,0,1-.456-1.366m.613,0a1.5,1.5,0,0,0,.3,1.012.983.983,0,0,0,1.482,0,1.536,1.536,0,0,0,.295-1.031,1.452,1.452,0,0,0-.3-.99.983.983,0,0,0-1.48,0,1.492,1.492,0,0,0-.3,1.012" transform="translate(211.319 113.704)" fill="#738B79"/>
    <path id="Caminho_1191" data-name="Caminho 1191" d="M1135.78,58.161l.59-.092a.828.828,0,0,0,.277.543.964.964,0,0,0,.636.188.937.937,0,0,0,.61-.167.5.5,0,0,0,.2-.393.364.364,0,0,0-.176-.319,2.642,2.642,0,0,0-.609-.2,5.542,5.542,0,0,1-.911-.287.882.882,0,0,1-.384-.334.892.892,0,0,1-.132-.472.912.912,0,0,1,.109-.436.942.942,0,0,1,.294-.333,1.2,1.2,0,0,1,.379-.175,1.807,1.807,0,0,1,.516-.072,2.049,2.049,0,0,1,.728.12.988.988,0,0,1,.463.324,1.268,1.268,0,0,1,.206.545l-.584.08a.641.641,0,0,0-.23-.425.843.843,0,0,0-.539-.153.97.97,0,0,0-.587.136.394.394,0,0,0-.175.318.325.325,0,0,0,.073.209.522.522,0,0,0,.228.159q.09.032.527.152a7.231,7.231,0,0,1,.883.278.837.837,0,0,1,.536.824,1,1,0,0,1-.175.562,1.122,1.122,0,0,1-.5.408,1.84,1.84,0,0,1-.743.143,1.653,1.653,0,0,1-1.047-.285,1.322,1.322,0,0,1-.459-.845" transform="translate(208.992 113.704)" fill="#738B79"/>
    <path id="Caminho_1192" data-name="Caminho 1192" d="M1144.864,58.433V53.571h3.515v.574h-2.872v1.488h2.69V56.2h-2.69v1.654h2.985v.574Z" transform="translate(205.517 114.484)" fill="#738B79"/>
    <path id="Caminho_1193" data-name="Caminho 1193" d="M1154.353,59.262v-.518a1.29,1.29,0,0,1-1.119.6,1.436,1.436,0,0,1-.582-.119.953.953,0,0,1-.4-.3,1.094,1.094,0,0,1-.184-.443,2.971,2.971,0,0,1-.038-.558V55.741h.6v1.953a3.45,3.45,0,0,0,.036.63.62.62,0,0,0,.238.37.744.744,0,0,0,.452.134.984.984,0,0,0,.5-.137.762.762,0,0,0,.333-.375,1.861,1.861,0,0,0,.1-.688V55.741h.6v3.521Z" transform="translate(202.776 113.654)" fill="#738B79"/>
    <path id="Caminho_1194" data-name="Caminho 1194" d="M1158.158,59.213V55.692h.537v.533a1.487,1.487,0,0,1,.379-.493.67.67,0,0,1,.384-.119,1.169,1.169,0,0,1,.614.192l-.206.554a.857.857,0,0,0-.438-.13.573.573,0,0,0-.353.118.63.63,0,0,0-.221.327,2.33,2.33,0,0,0-.1.7v1.843Z" transform="translate(200.433 113.703)" fill="#738B79"/>
    <path id="Caminho_1195" data-name="Caminho 1195" d="M1161.472,57.452a1.815,1.815,0,0,1,.543-1.449,1.638,1.638,0,0,1,1.107-.392,1.579,1.579,0,0,1,1.187.477,1.807,1.807,0,0,1,.461,1.314,2.332,2.332,0,0,1-.2,1.07,1.439,1.439,0,0,1-.594.605,1.727,1.727,0,0,1-.85.216,1.587,1.587,0,0,1-1.2-.474,1.9,1.9,0,0,1-.455-1.366m.613,0a1.5,1.5,0,0,0,.3,1.012.984.984,0,0,0,1.483,0,1.539,1.539,0,0,0,.294-1.031,1.455,1.455,0,0,0-.3-.99.984.984,0,0,0-1.48,0,1.492,1.492,0,0,0-.3,1.012" transform="translate(199.166 113.704)" fill="#738B79"/>
    <path id="Caminho_1196" data-name="Caminho 1196" d="M1167.945,60.562V55.692h.545v.457a1.34,1.34,0,0,1,.434-.4,1.2,1.2,0,0,1,.587-.134,1.389,1.389,0,0,1,.8.232,1.414,1.414,0,0,1,.52.655,2.384,2.384,0,0,1,.176.927,2.353,2.353,0,0,1-.193.973,1.474,1.474,0,0,1-1.341.894,1.123,1.123,0,0,1-.535-.126,1.213,1.213,0,0,1-.39-.319v1.714Zm.541-3.09a1.536,1.536,0,0,0,.276,1,.845.845,0,0,0,.667.325.866.866,0,0,0,.682-.337,1.6,1.6,0,0,0,.284-1.043,1.56,1.56,0,0,0-.277-1.008.836.836,0,0,0-.662-.335.854.854,0,0,0-.674.356,1.591,1.591,0,0,0-.295,1.036" transform="translate(196.691 113.703)" fill="#738B79"/>
    <path id="Caminho_1197" data-name="Caminho 1197" d="M1176.348,58.078l.617.077a1.5,1.5,0,0,1-.54.839,1.625,1.625,0,0,1-1.009.3,1.606,1.606,0,0,1-1.224-.476,1.855,1.855,0,0,1-.454-1.335,1.946,1.946,0,0,1,.458-1.38,1.552,1.552,0,0,1,1.187-.49,1.508,1.508,0,0,1,1.154.48,1.907,1.907,0,0,1,.448,1.353c0,.035,0,.088,0,.159h-2.626a1.353,1.353,0,0,0,.329.889.977.977,0,0,0,.737.308.913.913,0,0,0,.56-.172,1.149,1.149,0,0,0,.369-.551m-1.96-.964h1.967a1.187,1.187,0,0,0-.226-.666.915.915,0,0,0-.74-.345.952.952,0,0,0-.691.275,1.086,1.086,0,0,0-.31.736" transform="translate(194.475 113.703)" fill="#738B79"/>
    <path id="Caminho_1198" data-name="Caminho 1198" d="M1182.475,59.262v-.518a1.288,1.288,0,0,1-1.118.6,1.435,1.435,0,0,1-.582-.119.951.951,0,0,1-.4-.3,1.1,1.1,0,0,1-.184-.443,2.982,2.982,0,0,1-.038-.558V55.741h.6v1.953a3.41,3.41,0,0,0,.037.63.619.619,0,0,0,.238.37.745.745,0,0,0,.452.134.985.985,0,0,0,.5-.137.762.762,0,0,0,.333-.375,1.863,1.863,0,0,0,.1-.688V55.741h.6v3.521Z" transform="translate(192.021 113.654)" fill="#738B79"/>
    <path id="Caminho_1199" data-name="Caminho 1199" d="M1185.905,58.161l.59-.092a.829.829,0,0,0,.277.543.964.964,0,0,0,.636.188.937.937,0,0,0,.61-.167.5.5,0,0,0,.2-.393.364.364,0,0,0-.176-.319,2.642,2.642,0,0,0-.609-.2,5.545,5.545,0,0,1-.912-.287.881.881,0,0,1-.384-.334.89.89,0,0,1-.132-.472.909.909,0,0,1,.109-.436.941.941,0,0,1,.294-.333,1.2,1.2,0,0,1,.379-.175,1.806,1.806,0,0,1,.516-.072,2.049,2.049,0,0,1,.728.12.989.989,0,0,1,.463.324,1.266,1.266,0,0,1,.206.545l-.584.08a.641.641,0,0,0-.23-.425.842.842,0,0,0-.539-.153.969.969,0,0,0-.587.136.394.394,0,0,0-.176.318.326.326,0,0,0,.073.209.523.523,0,0,0,.229.159q.09.032.527.152a7.238,7.238,0,0,1,.883.278.837.837,0,0,1,.536.824.994.994,0,0,1-.175.562,1.12,1.12,0,0,1-.5.408,1.84,1.84,0,0,1-.743.143,1.653,1.653,0,0,1-1.047-.285,1.32,1.32,0,0,1-.459-.845" transform="translate(189.822 113.704)" fill="#738B79"/>
    <path id="Caminho_1200" data-name="Caminho 1200" d="M1105.133,71.628V66.767h3.515v.574h-2.872v1.488h2.69V69.4h-2.69v1.654h2.985v.574Z" transform="translate(220.712 109.437)" fill="#738B79"/>
    <path id="Caminho_1201" data-name="Caminho 1201" d="M1111.936,71.356l.59-.092a.828.828,0,0,0,.277.543.962.962,0,0,0,.635.189.934.934,0,0,0,.61-.167.5.5,0,0,0,.2-.393.364.364,0,0,0-.177-.319,2.524,2.524,0,0,0-.609-.2,5.584,5.584,0,0,1-.911-.287.868.868,0,0,1-.516-.807.906.906,0,0,1,.108-.436.95.95,0,0,1,.294-.333,1.211,1.211,0,0,1,.379-.175,1.829,1.829,0,0,1,.516-.071,2.05,2.05,0,0,1,.728.119.992.992,0,0,1,.463.324,1.266,1.266,0,0,1,.206.545l-.584.08a.638.638,0,0,0-.23-.424.844.844,0,0,0-.539-.153.976.976,0,0,0-.587.136.4.4,0,0,0-.176.318.329.329,0,0,0,.073.209.531.531,0,0,0,.229.159q.09.032.527.152a7.281,7.281,0,0,1,.884.277.888.888,0,0,1,.393.313.875.875,0,0,1,.143.511,1,1,0,0,1-.174.562,1.122,1.122,0,0,1-.5.408,1.827,1.827,0,0,1-.743.144,1.655,1.655,0,0,1-1.046-.285,1.322,1.322,0,0,1-.46-.846" transform="translate(218.11 108.657)" fill="#738B79"/>
    <path id="Caminho_1202" data-name="Caminho 1202" d="M1118.92,71.161l.086.528a2.228,2.228,0,0,1-.451.053,1.017,1.017,0,0,1-.5-.1.574.574,0,0,1-.252-.27,2.113,2.113,0,0,1-.073-.7V68.639h-.438v-.465h.438V67.3l.593-.358v1.23h.6v.465h-.6V70.7a1.042,1.042,0,0,0,.031.329.253.253,0,0,0,.1.116.4.4,0,0,0,.2.043,1.855,1.855,0,0,0,.262-.023" transform="translate(216.063 109.37)" fill="#738B79"/>
    <path id="Caminho_1203" data-name="Caminho 1203" d="M1120.864,72.409V68.887h.537v.534a1.48,1.48,0,0,1,.38-.494.664.664,0,0,1,.383-.119,1.168,1.168,0,0,1,.614.191l-.206.555a.852.852,0,0,0-.438-.13.572.572,0,0,0-.353.117.633.633,0,0,0-.221.327,2.334,2.334,0,0,0-.1.7v1.844Z" transform="translate(214.696 108.657)" fill="#738B79"/>
    <path id="Caminho_1204" data-name="Caminho 1204" d="M1126.837,72.458V71.94a1.289,1.289,0,0,1-1.117.6,1.437,1.437,0,0,1-.582-.12.952.952,0,0,1-.4-.3,1.1,1.1,0,0,1-.184-.443,2.984,2.984,0,0,1-.037-.557V68.936h.6v1.953a3.479,3.479,0,0,0,.037.629.618.618,0,0,0,.238.37.743.743,0,0,0,.452.135.982.982,0,0,0,.5-.138.763.763,0,0,0,.333-.375,1.869,1.869,0,0,0,.1-.688V68.936h.6v3.522Z" transform="translate(213.299 108.608)" fill="#738B79"/>
    <path id="Caminho_1205" data-name="Caminho 1205" d="M1131.753,71.161l.086.528a2.229,2.229,0,0,1-.451.053,1.017,1.017,0,0,1-.5-.1.573.573,0,0,1-.252-.27,2.111,2.111,0,0,1-.073-.7V68.639h-.438v-.465h.438V67.3l.594-.358v1.23h.6v.465h-.6V70.7a1.037,1.037,0,0,0,.032.329.255.255,0,0,0,.1.116.4.4,0,0,0,.2.043,1.855,1.855,0,0,0,.262-.023" transform="translate(211.155 109.37)" fill="#738B79"/>
    <path id="Caminho_1206" data-name="Caminho 1206" d="M1136.007,72.458V71.94a1.291,1.291,0,0,1-1.118.6,1.438,1.438,0,0,1-.582-.12.953.953,0,0,1-.4-.3,1.1,1.1,0,0,1-.184-.443,2.959,2.959,0,0,1-.038-.557V68.936h.6v1.953a3.489,3.489,0,0,0,.036.629.618.618,0,0,0,.238.37.743.743,0,0,0,.451.135.983.983,0,0,0,.5-.138.759.759,0,0,0,.333-.375,1.853,1.853,0,0,0,.1-.688V68.936h.6v3.522Z" transform="translate(209.793 108.608)" fill="#738B79"/>
    <path id="Caminho_1207" data-name="Caminho 1207" d="M1139.811,72.409V68.887h.538v.534a1.478,1.478,0,0,1,.379-.494.665.665,0,0,1,.383-.119,1.168,1.168,0,0,1,.614.191l-.206.555a.851.851,0,0,0-.438-.13.57.57,0,0,0-.352.117.637.637,0,0,0-.222.327,2.338,2.338,0,0,0-.1.7v1.844Z" transform="translate(207.449 108.657)" fill="#738B79"/>
    <path id="Caminho_1208" data-name="Caminho 1208" d="M1145.657,71.974a2.2,2.2,0,0,1-.637.4,1.853,1.853,0,0,1-.659.117,1.282,1.282,0,0,1-.892-.283.938.938,0,0,1-.312-.725.982.982,0,0,1,.427-.815,1.436,1.436,0,0,1,.429-.2,4.269,4.269,0,0,1,.531-.089,5.486,5.486,0,0,0,1.065-.206q0-.123,0-.156a.658.658,0,0,0-.171-.514,1,1,0,0,0-.679-.2,1.059,1.059,0,0,0-.623.148.9.9,0,0,0-.3.522l-.584-.079a1.455,1.455,0,0,1,.263-.606,1.141,1.141,0,0,1,.527-.354,2.34,2.34,0,0,1,.8-.124,2.108,2.108,0,0,1,.732.106.835.835,0,0,1,.6.673,3.372,3.372,0,0,1,.03.551v.8a8.473,8.473,0,0,0,.038,1.052,1.326,1.326,0,0,0,.151.424h-.623a1.308,1.308,0,0,1-.12-.435m-.049-1.333a4.422,4.422,0,0,1-.974.226,2.235,2.235,0,0,0-.522.119.524.524,0,0,0-.236.194.528.528,0,0,0,.1.681.782.782,0,0,0,.53.159,1.227,1.227,0,0,0,.613-.151.937.937,0,0,0,.4-.413,1.459,1.459,0,0,0,.1-.6Z" transform="translate(206.17 108.657)" fill="#738B79"/>
    <path id="Caminho_1209" data-name="Caminho 1209" d="M1149.6,66.767h.6v.687h-.6Zm0,1.339h.6v3.522h-.6Z" transform="translate(203.704 109.437)" fill="#738B79"/>
    <path id="Caminho_1210" data-name="Caminho 1210" d="M1151.657,71.356l.59-.092a.828.828,0,0,0,.277.543.964.964,0,0,0,.636.189.932.932,0,0,0,.61-.167.5.5,0,0,0,.2-.393.364.364,0,0,0-.176-.319,2.548,2.548,0,0,0-.609-.2,5.6,5.6,0,0,1-.911-.287.871.871,0,0,1-.516-.807.909.909,0,0,1,.109-.436.938.938,0,0,1,.294-.333,1.21,1.21,0,0,1,.379-.175,1.829,1.829,0,0,1,.516-.071,2.049,2.049,0,0,1,.728.119,1,1,0,0,1,.462.324,1.267,1.267,0,0,1,.206.545l-.584.08a.64.64,0,0,0-.23-.424.842.842,0,0,0-.538-.153.974.974,0,0,0-.587.136.4.4,0,0,0-.175.318.328.328,0,0,0,.073.209.534.534,0,0,0,.229.159q.09.032.527.152a7.27,7.27,0,0,1,.883.277.837.837,0,0,1,.535.824.992.992,0,0,1-.174.562,1.122,1.122,0,0,1-.5.408,1.829,1.829,0,0,1-.743.144,1.657,1.657,0,0,1-1.047-.285,1.324,1.324,0,0,1-.459-.846" transform="translate(202.919 108.657)" fill="#738B79"/>
    <path id="Caminho_1211" data-name="Caminho 1211" d="M1162.883,71.275l.617.077a1.5,1.5,0,0,1-.54.838,1.625,1.625,0,0,1-1.009.3,1.6,1.6,0,0,1-1.224-.477,1.854,1.854,0,0,1-.454-1.335,1.941,1.941,0,0,1,.458-1.379,1.548,1.548,0,0,1,1.186-.49,1.509,1.509,0,0,1,1.155.48,1.909,1.909,0,0,1,.447,1.353c0,.035,0,.088,0,.159h-2.627a1.353,1.353,0,0,0,.329.889.976.976,0,0,0,.736.308.912.912,0,0,0,.559-.173,1.148,1.148,0,0,0,.369-.55m-1.96-.965h1.966a1.19,1.19,0,0,0-.226-.666.915.915,0,0,0-.74-.345.948.948,0,0,0-.69.275,1.082,1.082,0,0,0-.31.736" transform="translate(199.625 108.657)" fill="#738B79"/>
    <path id="Caminho_1212" data-name="Caminho 1212" d="M1171.918,71.628v-.445a1.1,1.1,0,0,1-.984.524,1.387,1.387,0,0,1-.775-.232,1.527,1.527,0,0,1-.547-.648,2.232,2.232,0,0,1-.193-.957,2.531,2.531,0,0,1,.175-.957,1.388,1.388,0,0,1,.528-.658,1.405,1.405,0,0,1,.786-.229,1.184,1.184,0,0,1,.567.133,1.2,1.2,0,0,1,.4.35V66.767h.594v4.861Zm-1.887-1.758a1.53,1.53,0,0,0,.285,1.012.862.862,0,0,0,.673.335.844.844,0,0,0,.665-.32,1.475,1.475,0,0,0,.273-.976,1.655,1.655,0,0,0-.279-1.062.857.857,0,0,0-.686-.338.824.824,0,0,0-.665.326,1.6,1.6,0,0,0-.267,1.025" transform="translate(196.127 109.437)" fill="#738B79"/>
    <path id="Caminho_1213" data-name="Caminho 1213" d="M1178.169,71.275l.617.077a1.5,1.5,0,0,1-.54.838,1.626,1.626,0,0,1-1.009.3,1.605,1.605,0,0,1-1.224-.477,1.857,1.857,0,0,1-.454-1.335,1.944,1.944,0,0,1,.458-1.379,1.548,1.548,0,0,1,1.187-.49,1.507,1.507,0,0,1,1.154.48,1.909,1.909,0,0,1,.447,1.353c0,.035,0,.088,0,.159h-2.626a1.352,1.352,0,0,0,.328.889.977.977,0,0,0,.736.308.912.912,0,0,0,.56-.173,1.145,1.145,0,0,0,.369-.55m-1.959-.965h1.966a1.192,1.192,0,0,0-.225-.666.916.916,0,0,0-.74-.345.948.948,0,0,0-.69.275,1.082,1.082,0,0,0-.31.736" transform="translate(193.779 108.657)" fill="#738B79"/>
    <rect id="Retângulo_80" data-name="Retângulo 80" width="0.644" height="4.862" transform="translate(1375.385 176.204)" fill="#738B79"/>
    <path id="Caminho_1214" data-name="Caminho 1214" d="M1188.106,72.409V68.887h.537v.5a1.267,1.267,0,0,1,1.121-.579,1.467,1.467,0,0,1,.586.114.919.919,0,0,1,.4.3,1.139,1.139,0,0,1,.185.441,3.322,3.322,0,0,1,.034.581v2.166h-.6V70.266a1.62,1.62,0,0,0-.069-.545.575.575,0,0,0-.248-.288.787.787,0,0,0-.416-.107.969.969,0,0,0-.658.241,1.2,1.2,0,0,0-.276.919v1.924Z" transform="translate(188.98 108.657)" fill="#738B79"/>
    <path id="Caminho_1215" data-name="Caminho 1215" d="M1194.976,72.458l-1.34-3.522h.631l.755,2.11q.123.341.225.709.079-.279.222-.67l.782-2.149h.614l-1.333,3.522Z" transform="translate(186.865 108.608)" fill="#738B79"/>
    <path id="Caminho_1216" data-name="Caminho 1216" d="M1202.006,71.275l.617.077a1.5,1.5,0,0,1-.54.838,1.625,1.625,0,0,1-1.009.3,1.6,1.6,0,0,1-1.224-.477,1.855,1.855,0,0,1-.454-1.335,1.941,1.941,0,0,1,.458-1.379,1.548,1.548,0,0,1,1.186-.49,1.509,1.509,0,0,1,1.155.48,1.909,1.909,0,0,1,.447,1.353c0,.035,0,.088,0,.159h-2.626a1.355,1.355,0,0,0,.329.889.975.975,0,0,0,.736.308.911.911,0,0,0,.56-.173,1.147,1.147,0,0,0,.369-.55m-1.96-.965h1.967a1.188,1.188,0,0,0-.226-.666.915.915,0,0,0-.74-.345.95.95,0,0,0-.691.275,1.087,1.087,0,0,0-.31.736" transform="translate(184.662 108.657)" fill="#738B79"/>
    <path id="Caminho_1217" data-name="Caminho 1217" d="M1205.448,71.356l.59-.092a.828.828,0,0,0,.277.543.964.964,0,0,0,.636.189.934.934,0,0,0,.61-.167.5.5,0,0,0,.2-.393.364.364,0,0,0-.176-.319,2.546,2.546,0,0,0-.609-.2,5.607,5.607,0,0,1-.912-.287.871.871,0,0,1-.516-.807.91.91,0,0,1,.109-.436.947.947,0,0,1,.294-.333,1.215,1.215,0,0,1,.379-.175,1.829,1.829,0,0,1,.516-.071,2.048,2.048,0,0,1,.728.119,1,1,0,0,1,.463.324,1.269,1.269,0,0,1,.206.545l-.584.08a.638.638,0,0,0-.23-.424.842.842,0,0,0-.539-.153.974.974,0,0,0-.587.136.4.4,0,0,0-.175.318.33.33,0,0,0,.073.209.535.535,0,0,0,.229.159q.09.032.527.152a7.266,7.266,0,0,1,.883.277.836.836,0,0,1,.535.824.994.994,0,0,1-.174.562,1.121,1.121,0,0,1-.5.408,1.829,1.829,0,0,1-.743.144,1.656,1.656,0,0,1-1.047-.285,1.324,1.324,0,0,1-.459-.846" transform="translate(182.348 108.657)" fill="#738B79"/>
    <path id="Caminho_1218" data-name="Caminho 1218" d="M1212.432,71.161l.087.528a2.24,2.24,0,0,1-.452.053,1.015,1.015,0,0,1-.5-.1.574.574,0,0,1-.252-.27,2.1,2.1,0,0,1-.074-.7V68.639h-.438v-.465h.438V67.3l.594-.358v1.23h.6v.465h-.6V70.7a1.073,1.073,0,0,0,.031.329.261.261,0,0,0,.1.116.4.4,0,0,0,.2.043,1.85,1.85,0,0,0,.262-.023" transform="translate(180.301 109.37)" fill="#738B79"/>
    <path id="Caminho_1219" data-name="Caminho 1219" d="M1214.392,66.767h.6v.687h-.6Zm0,1.339h.6v3.522h-.6Z" transform="translate(178.927 109.437)" fill="#738B79"/>
    <path id="Caminho_1220" data-name="Caminho 1220" d="M1216.831,72.409V68.887h.533v.494a1.254,1.254,0,0,1,.442-.416,1.24,1.24,0,0,1,.627-.157,1.169,1.169,0,0,1,.642.162.868.868,0,0,1,.352.455,1.265,1.265,0,0,1,1.089-.616,1.072,1.072,0,0,1,.805.29,1.245,1.245,0,0,1,.282.894v2.417h-.593V70.19a1.669,1.669,0,0,0-.058-.516.507.507,0,0,0-.211-.254.66.66,0,0,0-.358-.1.833.833,0,0,0-.616.247,1.084,1.084,0,0,0-.246.79v2.047h-.6V70.121a1,1,0,0,0-.147-.6.553.553,0,0,0-.477-.2.869.869,0,0,0-.467.132.762.762,0,0,0-.31.388,2.2,2.2,0,0,0-.1.737v1.827Z" transform="translate(177.995 108.657)" fill="#738B79"/>
    <path id="Caminho_1221" data-name="Caminho 1221" d="M1228.278,71.275l.617.077a1.5,1.5,0,0,1-.54.838,1.827,1.827,0,0,1-2.233-.177,1.857,1.857,0,0,1-.453-1.335,1.945,1.945,0,0,1,.458-1.379,1.549,1.549,0,0,1,1.187-.49,1.507,1.507,0,0,1,1.154.48,1.91,1.91,0,0,1,.448,1.353c0,.035,0,.088,0,.159h-2.626a1.354,1.354,0,0,0,.329.889.976.976,0,0,0,.736.308.913.913,0,0,0,.56-.173,1.143,1.143,0,0,0,.368-.55m-1.959-.965h1.966a1.2,1.2,0,0,0-.225-.666.916.916,0,0,0-.74-.345.947.947,0,0,0-.691.275,1.083,1.083,0,0,0-.31.736" transform="translate(174.615 108.657)" fill="#738B79"/>
    <path id="Caminho_1222" data-name="Caminho 1222" d="M1232.106,72.409V68.887h.537v.5a1.267,1.267,0,0,1,1.122-.579,1.466,1.466,0,0,1,.585.114.919.919,0,0,1,.4.3,1.144,1.144,0,0,1,.185.441,3.316,3.316,0,0,1,.034.581v2.166h-.6V70.266a1.617,1.617,0,0,0-.069-.545.575.575,0,0,0-.248-.288.787.787,0,0,0-.416-.107.97.97,0,0,0-.658.241,1.2,1.2,0,0,0-.276.919v1.924Z" transform="translate(172.153 108.657)" fill="#738B79"/>
    <path id="Caminho_1223" data-name="Caminho 1223" d="M1239.32,71.161l.087.528a2.241,2.241,0,0,1-.452.053,1.014,1.014,0,0,1-.5-.1.575.575,0,0,1-.253-.27,2.111,2.111,0,0,1-.073-.7V68.639h-.438v-.465h.438V67.3l.593-.358v1.23h.6v.465h-.6V70.7a1.064,1.064,0,0,0,.032.329.256.256,0,0,0,.1.116.4.4,0,0,0,.2.043,1.844,1.844,0,0,0,.262-.023" transform="translate(170.018 109.37)" fill="#738B79"/>
    <path id="Caminho_1224" data-name="Caminho 1224" d="M1240.917,70.647a1.812,1.812,0,0,1,.544-1.449,1.639,1.639,0,0,1,1.107-.392,1.581,1.581,0,0,1,1.187.476,1.808,1.808,0,0,1,.461,1.314,2.343,2.343,0,0,1-.2,1.07,1.444,1.444,0,0,1-.594.6,1.727,1.727,0,0,1-.85.216,1.585,1.585,0,0,1-1.2-.475,1.9,1.9,0,0,1-.455-1.366m.613,0a1.492,1.492,0,0,0,.3,1.013.983.983,0,0,0,1.482,0,1.541,1.541,0,0,0,.295-1.031,1.457,1.457,0,0,0-.3-.99.983.983,0,0,0-1.48,0,1.489,1.489,0,0,0-.3,1.012" transform="translate(168.783 108.657)" fill="#738B79"/>
    <path id="Caminho_1225" data-name="Caminho 1225" d="M993.985,15.17h0Zm.618,41.678h61.9V15.788H994.6Z" transform="translate(263.219 129.17)" fill="#738B79"/>
    <path id="Caminho_1226" data-name="Caminho 1226" d="M1042.427,27.838l1.318-.962,1.319.962-.5-1.557,1.34-.963h-1.653l-.5-1.575-.505,1.577-1.65,0,1.338.963Z" transform="translate(245.013 125.891)"/>
    <path id="Caminho_1227" data-name="Caminho 1227" d="M1031.373,30.807l1.319-.963,1.318.963-.5-1.557,1.339-.963H1033.2l-.5-1.577-.506,1.578-1.65,0,1.338.963Z" transform="translate(249.241 124.756)"/>
    <path id="Caminho_1228" data-name="Caminho 1228" d="M1024.6,34.816l-.5,1.579-1.651,0,1.339.963-.5,1.557,1.318-.963,1.32.963-.5-1.557,1.339-.963h-1.651Z" transform="translate(252.334 121.656)"/>
    <path id="Caminho_1229" data-name="Caminho 1229" d="M1021.636,48.991l1.318.962-.5-1.556,1.339-.963h-1.652l-.5-1.578-.505,1.581-1.65,0,1.338.963-.5,1.556Z" transform="translate(253.469 117.434)"/>
    <path id="Caminho_1230" data-name="Caminho 1230" d="M1025.107,58.507l-.5-1.578-.505,1.58-1.651,0,1.339.963-.5,1.557,1.318-.964,1.319.964-.5-1.557,1.339-.963Z" transform="translate(252.335 113.199)"/>
    <path id="Caminho_1231" data-name="Caminho 1231" d="M1033.212,66.613l-.505-1.574-.505,1.575h-1.65l1.338.963-.5,1.557,1.319-.963,1.317.963-.5-1.557,1.339-.963Z" transform="translate(249.234 110.098)"/>
    <path id="Caminho_1232" data-name="Caminho 1232" d="M1044.251,69.548l-.5-1.578-.506,1.579h-1.65l1.338.963-.5,1.557,1.319-.963,1.318.963-.5-1.557,1.342-.963Z" transform="translate(245.013 108.977)"/>
    <path id="Caminho_1233" data-name="Caminho 1233" d="M1055.293,66.613l-.5-1.574-.507,1.575h-1.649l1.338.963-.5,1.557,1.319-.963,1.318.963-.5-1.557,1.341-.963Z" transform="translate(240.79 110.098)"/>
    <path id="Caminho_1234" data-name="Caminho 1234" d="M1063.4,58.507l-.506-1.578-.507,1.58-1.649,0,1.34.963-.5,1.557,1.319-.964,1.318.964-.5-1.557,1.34-.963Z" transform="translate(237.69 113.199)"/>
    <path id="Caminho_1235" data-name="Caminho 1235" d="M1067.984,47.4h-1.652l-.505-1.576-.5,1.579-1.651,0,1.338.964-.5,1.556,1.318-.965,1.318.965-.5-1.556Z" transform="translate(236.568 117.446)"/>
    <path id="Caminho_1236" data-name="Caminho 1236" d="M1061.574,38.88l1.319-.962,1.318.962-.5-1.557,1.34-.96h-1.65l-.506-1.578-.507,1.579h-1.648l1.339.96Z" transform="translate(237.69 121.668)"/>
    <path id="Caminho_1237" data-name="Caminho 1237" d="M1054.82,26.711l-.5,1.58-1.651,0,1.338.964-.5,1.557,1.322-.964,1.317.964-.5-1.557,1.339-.964h-1.652Z" transform="translate(240.778 124.756)"/>
    <g id="Grupo_92" data-name="Grupo 92" transform="translate(920.501 144.084)">
      <path id="Caminho_1097" data-name="Caminho 1097" d="M448.776,16.009V39.222c14.24,3.439,27.6-17.594,39.1-13.357V21.474c-8.963-7.08-29.131-7.933-39.1-5.465" transform="translate(-448.775 -14.755)" fill="#738B79"/>
      <path id="Caminho_1098" data-name="Caminho 1098" d="M487.871,67.433V44.22c-14.238-3.44-27.6,17.6-39.1,13.357v4.392c8.963,7.079,29.132,7.932,39.1,5.464" transform="translate(-448.775 -25.878)" fill="#738B79"/>
      <path id="Caminho_1099" data-name="Caminho 1099" d="M528.453,70.294a1.907,1.907,0,0,0-.662-1.622,3.594,3.594,0,0,0-2.221-.537,8.522,8.522,0,0,0-1.281.1,8.067,8.067,0,0,0-1.126.247.386.386,0,0,0-.151.077.186.186,0,0,0-.065.137v.881a.245.245,0,0,0,.056.16.189.189,0,0,0,.149.067h.023c.351-.036.721-.069,1.112-.1s.762-.047,1.115-.049a1.95,1.95,0,0,1,.942.158.537.537,0,0,1,.256.521.878.878,0,0,1-.08.424,1.2,1.2,0,0,1-.338.36c-.166.13-.413.305-.737.529l-1.041.736a3.783,3.783,0,0,0-1.089,1.2,3.366,3.366,0,0,0-.447,1.674V76.41a.231.231,0,0,0,.066.161.234.234,0,0,0,.16.066h5.031a.233.233,0,0,0,.16-.066.228.228,0,0,0,.066-.161V75.247a.21.21,0,0,0-.066-.154.236.236,0,0,0-.16-.06h-3.573v-.046a1.416,1.416,0,0,1,.46-1.017,7.363,7.363,0,0,1,1.181-.907l.961-.645a3.294,3.294,0,0,0,.963-.931,2.174,2.174,0,0,0,.336-1.194" transform="translate(-477.111 -35.169)" fill="#738B79"/>
      <path id="Caminho_1100" data-name="Caminho 1100" d="M540.353,72.929v-.973a4.435,4.435,0,0,0-.8-2.928,3.267,3.267,0,0,0-4.488,0,4.447,4.447,0,0,0-.8,2.928v.973a4.422,4.422,0,0,0,.8,2.923,3.284,3.284,0,0,0,4.488,0,4.41,4.41,0,0,0,.8-2.923m-1.932,0a5.008,5.008,0,0,1-.15,1.366,1.239,1.239,0,0,1-.4.664.9.9,0,0,1-.571.175.884.884,0,0,1-.569-.175,1.238,1.238,0,0,1-.394-.664,5.12,5.12,0,0,1-.145-1.366v-.973a5.152,5.152,0,0,1,.145-1.369,1.262,1.262,0,0,1,.394-.67.886.886,0,0,1,.569-.178.9.9,0,0,1,.571.178,1.262,1.262,0,0,1,.4.67,5.039,5.039,0,0,1,.15,1.369Z" transform="translate(-481.467 -35.169)" fill="#738B79" fill-rule="evenodd"/>
      <path id="Caminho_1101" data-name="Caminho 1101" d="M552.078,70.294a1.91,1.91,0,0,0-.661-1.622,3.6,3.6,0,0,0-2.222-.537,8.542,8.542,0,0,0-1.281.1,8.155,8.155,0,0,0-1.127.247.382.382,0,0,0-.149.077.18.18,0,0,0-.065.137v.881a.242.242,0,0,0,.056.16.188.188,0,0,0,.148.067h.023q.527-.054,1.112-.1c.392-.03.762-.047,1.115-.049a1.958,1.958,0,0,1,.944.158.538.538,0,0,1,.256.521.884.884,0,0,1-.081.424,1.2,1.2,0,0,1-.337.36c-.167.13-.414.305-.737.529l-1.041.736a3.776,3.776,0,0,0-1.089,1.2,3.359,3.359,0,0,0-.447,1.674V76.41a.228.228,0,0,0,.065.161.234.234,0,0,0,.161.066h5.031a.234.234,0,0,0,.161-.066.23.23,0,0,0,.065-.161V75.247a.212.212,0,0,0-.065-.154.237.237,0,0,0-.161-.06h-3.573v-.046a1.416,1.416,0,0,1,.46-1.017,7.383,7.383,0,0,1,1.18-.907l.962-.645a3.3,3.3,0,0,0,.964-.931,2.178,2.178,0,0,0,.335-1.194" transform="translate(-486.146 -35.169)" fill="#738B79"/>
      <path id="Caminho_1102" data-name="Caminho 1102" d="M563.977,72.929v-.973a4.435,4.435,0,0,0-.806-2.928,3.267,3.267,0,0,0-4.487,0,4.454,4.454,0,0,0-.8,2.928v.973a4.429,4.429,0,0,0,.8,2.923,3.283,3.283,0,0,0,4.487,0,4.41,4.41,0,0,0,.806-2.923m-1.932,0A4.987,4.987,0,0,1,561.9,74.3a1.238,1.238,0,0,1-.4.664.9.9,0,0,1-.572.175.885.885,0,0,1-.569-.175,1.242,1.242,0,0,1-.394-.664,5.111,5.111,0,0,1-.146-1.366v-.973a5.143,5.143,0,0,1,.146-1.369,1.265,1.265,0,0,1,.394-.67.887.887,0,0,1,.569-.178.9.9,0,0,1,.572.178,1.261,1.261,0,0,1,.4.67,5.019,5.019,0,0,1,.149,1.369Z" transform="translate(-490.502 -35.169)" fill="#738B79" fill-rule="evenodd"/>
      <path id="Caminho_1103" data-name="Caminho 1103" d="M536.7,46.318a.217.217,0,0,0-.012-.046.323.323,0,0,1-.01-.063l-3.261-13.568a2.855,2.855,0,0,0-1.428-2,4.664,4.664,0,0,0-2.184-.426,4.722,4.722,0,0,0-2.194.426,2.841,2.841,0,0,0-1.438,2l-3.262,13.568a.249.249,0,0,1-.01.063.184.184,0,0,0-.012.046.34.34,0,0,0,.1.258.386.386,0,0,0,.268.093h3.064a.415.415,0,0,0,.285-.114.521.521,0,0,0,.153-.279l.787-3.59h4.488l.788,3.59a.522.522,0,0,0,.154.279.412.412,0,0,0,.284.114h3.064a.386.386,0,0,0,.268-.093.338.338,0,0,0,.1-.258m-5.275-6.629h-3.26l1.333-6.043a.537.537,0,0,1,.1-.246.251.251,0,0,1,.209-.082.223.223,0,0,1,.2.082.611.611,0,0,1,.085.246Z" transform="translate(-477.118 -20.665)" fill="#738B79" fill-rule="evenodd"/>
      <path id="Caminho_1104" data-name="Caminho 1104" d="M557.75,46.248V44.213a.44.44,0,0,0-.438-.437h-3.765a1.442,1.442,0,0,1-1.085-.317,1.634,1.634,0,0,1-.315-1.172V30.973a.44.44,0,0,0-.437-.438h-2.865a.441.441,0,0,0-.438.438V42.287a5.193,5.193,0,0,0,.757,2.99,3.6,3.6,0,0,0,1.943,1.379,8.77,8.77,0,0,0,2.638.335q.915,0,1.948-.086a14.447,14.447,0,0,0,1.62-.2.656.656,0,0,0,.334-.148.417.417,0,0,0,.1-.311" transform="translate(-486.878 -20.79)" fill="#738B79"/>
      <path id="Caminho_1105" data-name="Caminho 1105" d="M576.658,46.125V44.09a.44.44,0,0,0-.439-.437h-4.443a1.439,1.439,0,0,1-1.086-.318,1.635,1.635,0,0,1-.315-1.171V39.842h5.669a.441.441,0,0,0,.309-.129.431.431,0,0,0,.128-.308V37.327a.434.434,0,0,0-.128-.309.443.443,0,0,0-.309-.129h-5.669V34.9a1.641,1.641,0,0,1,.315-1.173,1.439,1.439,0,0,1,1.086-.316h4.443a.44.44,0,0,0,.439-.438V30.936a.4.4,0,0,0-.1-.309.58.58,0,0,0-.334-.128q-.545-.09-1.513-.183t-2.711-.1a8.824,8.824,0,0,0-2.638.329,3.565,3.565,0,0,0-1.943,1.369,5.149,5.149,0,0,0-.756,2.984v7.268a5.191,5.191,0,0,0,.751,2.99,3.562,3.562,0,0,0,1.931,1.379,8.717,8.717,0,0,0,2.633.335q1.745-.008,2.722-.1t1.524-.183a.551.551,0,0,0,.334-.14.439.439,0,0,0,.1-.319" transform="translate(-493.858 -20.667)" fill="#738B79"/>
      <path id="Caminho_1106" data-name="Caminho 1106" d="M600.219,45.962V30.951a.406.406,0,0,0-.129-.3.45.45,0,0,0-.309-.117H597.2a.449.449,0,0,0-.308.117.4.4,0,0,0-.128.3v9.256a.267.267,0,0,1-.038.156.089.089,0,0,1-.07.041.1.1,0,0,1-.08-.039,1.489,1.489,0,0,1-.1-.136l-5.188-9.015a1.707,1.707,0,0,0-.4-.511.792.792,0,0,0-.524-.167h-2.208a.831.831,0,0,0-.832.831V46.355a.439.439,0,0,0,.437.438h2.581a.444.444,0,0,0,.309-.128.438.438,0,0,0,.128-.31V37.494a.241.241,0,0,1,.029-.138.093.093,0,0,1,.078-.038.128.128,0,0,1,.091.038.8.8,0,0,1,.107.138l4.993,8.622a1.389,1.389,0,0,0,.528.561,1.252,1.252,0,0,0,.61.117h2.143a.865.865,0,0,0,.6-.243.82.82,0,0,0,.254-.588" transform="translate(-501.763 -20.79)" fill="#738B79"/>
      <path id="Caminho_1107" data-name="Caminho 1107" d="M623.322,33.2V30.95a.39.39,0,0,0-.14-.3.487.487,0,0,0-.32-.117H612.01a.448.448,0,0,0-.309.117.4.4,0,0,0-.128.3V33.2a.4.4,0,0,0,.128.3.456.456,0,0,0,.309.117h3.567V46.355a.436.436,0,0,0,.438.438h2.865a.436.436,0,0,0,.309-.128.441.441,0,0,0,.129-.31V33.618h3.545a.5.5,0,0,0,.32-.117.393.393,0,0,0,.14-.3" transform="translate(-511.035 -20.79)" fill="#738B79"/>
      <path id="Caminho_1108" data-name="Caminho 1108" d="M643.881,46.125V44.09a.437.437,0,0,0-.437-.437H639a1.44,1.44,0,0,1-1.086-.318,1.635,1.635,0,0,1-.314-1.171V39.842h5.668a.438.438,0,0,0,.309-.129.427.427,0,0,0,.129-.308V37.327a.43.43,0,0,0-.129-.309.441.441,0,0,0-.309-.129H637.6V34.9a1.641,1.641,0,0,1,.314-1.173A1.44,1.44,0,0,1,639,33.408h4.443a.437.437,0,0,0,.437-.438V30.936a.4.4,0,0,0-.1-.309.584.584,0,0,0-.334-.128q-.546-.09-1.514-.183t-2.711-.1a8.832,8.832,0,0,0-2.638.329,3.576,3.576,0,0,0-1.943,1.369,5.159,5.159,0,0,0-.757,2.984v7.268a5.2,5.2,0,0,0,.751,2.99,3.571,3.571,0,0,0,1.931,1.379,8.731,8.731,0,0,0,2.634.335q1.744-.008,2.722-.1t1.524-.183a.554.554,0,0,0,.334-.14.433.433,0,0,0,.1-.319" transform="translate(-519.566 -20.667)" fill="#738B79"/>
      <path id="Caminho_1109" data-name="Caminho 1109" d="M657.116,46.927V30.951a.4.4,0,0,0-.129-.3.453.453,0,0,0-.309-.117h-2.866a.452.452,0,0,0-.309.117.407.407,0,0,0-.128.3V46.927a1.2,1.2,0,0,1-.1.6c-.072.127-.23.19-.474.188h-1.094a.215.215,0,0,0-.178.1.378.378,0,0,0-.063.211v2.23a.363.363,0,0,0,.329.372q.427.048.732.068c.2.013.426.02.668.019a4.325,4.325,0,0,0,2.785-.777,3.63,3.63,0,0,0,1.13-3.008" transform="translate(-526.293 -20.79)" fill="#738B79"/>
      <path id="Caminho_1110" data-name="Caminho 1110" d="M677.954,39.845V37.239a8.541,8.541,0,0,0-.876-4.078,5.207,5.207,0,0,0-2.317-2.253,8.13,8.13,0,0,0-6.568,0,5.209,5.209,0,0,0-2.317,2.253A8.57,8.57,0,0,0,665,37.239v2.606a8.569,8.569,0,0,0,.876,4.077,5.207,5.207,0,0,0,2.317,2.253,8.123,8.123,0,0,0,6.568,0,5.205,5.205,0,0,0,2.317-2.253,8.541,8.541,0,0,0,.876-4.077m-3.762,0a4.809,4.809,0,0,1-.668,2.857,2.358,2.358,0,0,1-2.047.886,2.333,2.333,0,0,1-2.037-.886,4.858,4.858,0,0,1-.656-2.857V37.239a4.859,4.859,0,0,1,.656-2.857,2.334,2.334,0,0,1,2.037-.887,2.359,2.359,0,0,1,2.047.887,4.81,4.81,0,0,1,.668,2.857Z" transform="translate(-531.467 -20.668)" fill="#738B79" fill-rule="evenodd"/>
    </g>
    <g id="Grupo_93" data-name="Grupo 93" transform="translate(616.676 144.083)">
      <g id="Grupo_79" data-name="Grupo 79" transform="translate(26.124)">
        <path id="Caminho_1111" data-name="Caminho 1111" d="M78.314,14.755a3.472,3.472,0,1,0,3.471,3.472,3.472,3.472,0,0,0-3.471-3.472Z" transform="translate(-64.309 -14.755)" fill="#738B79" fill-rule="evenodd"/>
        <path id="Caminho_1112" data-name="Caminho 1112" d="M86.041,30.719l6.116-4.533.295-.234a2.018,2.018,0,0,0,1.013-1.461,2.621,2.621,0,0,0-1.992-3.347,2.223,2.223,0,0,0-1.683.115,16.622,16.622,0,0,0-1.629.982l-2.253,1.637-1.5,1.18-.54.422a3.117,3.117,0,0,0-1.1,1.488c-.582,1.674-.379,3.857-.364,5.693a3.928,3.928,0,0,0,.1.992q.073.3.147.605h0a1.724,1.724,0,0,1,.5-1.241,16.333,16.333,0,0,1,2.9-2.3Z" transform="translate(-67.179 -17.156)" fill="#738B79" fill-rule="evenodd"/>
        <path id="Caminho_1113" data-name="Caminho 1113" d="M91.115,47.222l4.166-2.844q-.02-.462-.04-.924l-9.024-6.737a16.334,16.334,0,0,0-2.9,2.3c-.8.986-.6,1.587.267,2.731.653.509,1.259,1.113,1.912,1.623l5.07,3.852Z" transform="translate(-67.357 -23.154)" fill="#738B79" fill-rule="evenodd"/>
        <path id="Caminho_1114" data-name="Caminho 1114" d="M67.812,30.719,61.7,26.186l-.294-.234a2.016,2.016,0,0,1-1.013-1.461,2.621,2.621,0,0,1,1.992-3.347,2.223,2.223,0,0,1,1.683.115,16.622,16.622,0,0,1,1.629.982l2.253,1.637,1.5,1.18.54.422a3.117,3.117,0,0,1,1.1,1.488c.582,1.674.379,3.857.364,5.693a3.928,3.928,0,0,1-.1.992q-.074.3-.147.605h0a1.726,1.726,0,0,0-.5-1.241,16.334,16.334,0,0,0-2.9-2.3Z" transform="translate(-58.748 -17.156)" fill="#738B79" fill-rule="evenodd"/>
        <path id="Caminho_1115" data-name="Caminho 1115" d="M61.951,47.222l-4.166-2.844q.02-.462.04-.924l9.024-6.737a16.334,16.334,0,0,1,2.9,2.3c.8.986.6,1.587-.267,2.731-.653.509-1.259,1.113-1.912,1.623L62.5,47.222Z" transform="translate(-57.785 -23.154)" fill="#738B79" fill-rule="evenodd"/>
      </g>
      <g id="Grupo_80" data-name="Grupo 80" transform="translate(0 29.395)">
        <path id="Caminho_1116" data-name="Caminho 1116" d="M25.124,67.01h-.478c-.112,0-.143-.037-.143-.174V62.6c0-.118.031-.136.167-.136h.459c.112,0,.124.037.124.174v4.228C25.254,66.973,25.235,67.01,25.124,67.01Z" transform="translate(-18.933 -62.396)" fill="#738B79"/>
        <path id="Caminho_1117" data-name="Caminho 1117" d="M30.65,67.022l-.447-.007c-.112,0-.155-.037-.224-.155l-1.807-3.03c-.1-.161-.136-.193-.136.006v2.956c0,.167-.019.217-.136.217h-.4c-.069,0-.168.012-.168-.187v-4.16c0-.031,0-.2.112-.2h.435c.205,0,.192.037.267.13l1.813,3.079c.086.156.13.149.13-.093V62.663c0-.093.019-.205.1-.2h.478c.106,0,.124.062.124.2v4.123C30.786,66.959,30.768,67.028,30.65,67.022Z" transform="translate(-20.014 -62.396)" fill="#738B79"/>
        <path id="Caminho_1118" data-name="Caminho 1118" d="M35.623,67.054A2.59,2.59,0,0,1,34.3,66.8c-.069-.049.019-.627.112-.6a2.613,2.613,0,0,0,1.112.23c.571,0,1.024-.161,1.024-.639,0-.4-.217-.609-.875-.87s-1.254-.584-1.254-1.391c0-.645.515-1.173,1.6-1.173a2.716,2.716,0,0,1,1.086.136c.13.044-.019.621-.149.584a3.333,3.333,0,0,0-.876-.136c-.67,0-.887.23-.887.59s.267.553.863.782c.832.335,1.291.769,1.291,1.446C37.343,66.768,36.462,67.054,35.623,67.054Z" transform="translate(-22.671 -62.354)" fill="#738B79"/>
        <path id="Caminho_1119" data-name="Caminho 1119" d="M43.126,63.042H42.121c-.124,0-.143.019-.143.118V66.8c0,.161-.019.205-.156.205h-.428c-.137,0-.161-.025-.161-.205V63.16c0-.1-.019-.118-.143-.118H40.1c-.111,0-.13-.031-.13-.093v-.385c0-.087.043-.1.174-.1h2.937c.124,0,.18.006.18.086v.4C43.257,63,43.239,63.042,43.126,63.042Z" transform="translate(-24.847 -62.396)" fill="#738B79"/>
        <path id="Caminho_1120" data-name="Caminho 1120" d="M46.841,67.01h-.478c-.112,0-.143-.037-.143-.174V62.6c0-.118.031-.136.167-.136h.459c.112,0,.124.037.124.174v4.228C46.971,66.973,46.952,67.01,46.841,67.01Z" transform="translate(-27.239 -62.396)" fill="#738B79"/>
        <path id="Caminho_1121" data-name="Caminho 1121" d="M51.522,63.042H50.516c-.124,0-.143.019-.143.118V66.8c0,.161-.019.205-.155.205H49.79c-.136,0-.161-.025-.161-.205V63.16c0-.1-.019-.118-.143-.118h-.994c-.112,0-.13-.031-.13-.093v-.385c0-.087.043-.1.174-.1h2.937c.124,0,.18.006.18.086v.4C51.652,63,51.634,63.042,51.522,63.042Z" transform="translate(-28.058 -62.396)" fill="#738B79"/>
        <path id="Caminho_1122" data-name="Caminho 1122" d="M56.172,67.09A1.387,1.387,0,0,1,54.6,65.706v-3.08c0-.118.025-.155.106-.161h.472c.106,0,.156.043.156.2v2.8c0,.64.348,1,.844,1,.689,0,.857-.391.857-1.012V62.626c0-.118.025-.155.106-.161h.484c.106,0,.156.043.156.2V65.6C57.774,66.9,56.843,67.09,56.172,67.09Z" transform="translate(-30.441 -62.396)" fill="#738B79"/>
        <path id="Caminho_1123" data-name="Caminho 1123" d="M63.808,63.042H62.8c-.125,0-.143.019-.143.118V66.8c0,.161-.019.205-.155.205h-.429c-.136,0-.161-.025-.161-.205V63.16c0-.1-.019-.118-.143-.118h-.994c-.112,0-.13-.031-.13-.093v-.385c0-.087.043-.1.174-.1h2.937c.124,0,.18.006.18.086v.4C63.938,63,63.92,63.042,63.808,63.042Z" transform="translate(-32.756 -62.396)" fill="#738B79"/>
        <path id="Caminho_1124" data-name="Caminho 1124" d="M68.543,67.047c-.614,0-1.7-.13-1.7-1.3V63.912c0-1.111.54-1.558,1.682-1.558.919,0,1.688.348,1.688,1.54v1.658C70.213,67.01,69.077,67.047,68.543,67.047Zm.919-3.11c0-.677-.311-.975-.907-.975-.732,0-.981.348-.981,1v1.62a.856.856,0,0,0,.968.85c.5,0,.919-.155.919-.968Z" transform="translate(-35.125 -62.354)" fill="#738B79"/>
        <path id="Caminho_1125" data-name="Caminho 1125" d="M77.727,67.01h-1.44c-.08,0-.155-.056-.155-.217V62.669c0-.124.019-.2.13-.2h1.26c.925,0,1.775.273,1.775,1.465v1.664C79.3,66.854,78.323,67.01,77.727,67.01Zm.82-3.03c0-.671-.4-.926-1.018-.926h-.516c-.13,0-.143.044-.143.131V66.27c0,.087.025.143.162.143h.5c.484,0,1.012-.1,1.012-.906Z" transform="translate(-38.678 -62.396)" fill="#738B79"/>
        <path id="Caminho_1126" data-name="Caminho 1126" d="M84.448,67.047c-.614,0-1.7-.13-1.7-1.3V63.912c0-1.111.54-1.558,1.682-1.558.919,0,1.689.348,1.689,1.54v1.658C86.118,67.01,84.982,67.047,84.448,67.047Zm.919-3.11c0-.677-.31-.975-.907-.975-.732,0-.981.348-.981,1v1.62a.856.856,0,0,0,.968.85c.5,0,.919-.155.919-.968Z" transform="translate(-41.208 -62.354)" fill="#738B79"/>
        <path id="Caminho_1127" data-name="Caminho 1127" d="M94.539,67.01H92.18c-.08,0-.143-.044-.143-.18v-4.16c0-.118.006-.2.118-.2H94.4c.149,0,.167.012.167.1v.367c0,.1-.111.1-.285.1H92.906c-.136,0-.161.049-.161.1V64.2c0,.118.037.143.136.143H94.11c.174,0,.2.031.187.112l-.043.348c-.019.13-.174.118-.292.118H92.931c-.13,0-.174.037-.174.143v1.217c0,.143.075.136.18.136h1.5c.161,0,.229.019.229.119v.36C94.669,66.984,94.6,67.01,94.539,67.01Z" transform="translate(-44.761 -62.396)" fill="#738B79"/>
        <path id="Caminho_1128" data-name="Caminho 1128" d="M101.4,67.01h-.416c-.161,0-.2-.044-.2-.205v-3.16c0-.118-.019-.112-.087-.007l-.926,1.615c-.08.136-.1.167-.161.167h-.136c-.087,0-.093-.025-.174-.174l-.875-1.577c-.068-.112-.1-.093-.1.012v3.166c0,.106-.012.162-.149.162h-.4c-.1,0-.2-.006-.2-.205V62.663c0-.161.049-.2.155-.2H98.2a.2.2,0,0,1,.205.117l1.117,1.857c.025.037.062.043.087.006l1.1-1.85a.232.232,0,0,1,.2-.13h.5c.136,0,.13.068.13.211v4.166C101.544,66.96,101.526,67.01,101.4,67.01Z" transform="translate(-46.879 -62.396)" fill="#738B79"/>
        <path id="Caminho_1129" data-name="Caminho 1129" d="M107.175,65.383h-.708c-.087,0-.1.019-.1.124v1.3c0,.162-.037.2-.149.2h-.484c-.137,0-.125-.075-.125-.217V62.626c0-.118.019-.161.149-.161h1.329c1.142,0,1.7.484,1.7,1.44S108.255,65.383,107.175,65.383Zm-.118-2.353h-.578c-.093.006-.111.062-.111.111v1.533c0,.106.025.119.124.119h.751c.447,0,.782-.267.782-.919C108.025,63.272,107.584,63.03,107.057,63.03Z" transform="translate(-49.951 -62.396)" fill="#738B79"/>
        <path id="Caminho_1130" data-name="Caminho 1130" d="M114.331,64.942c-.087.025-.087.019-.049.093l.857,1.757c.081.167.069.217-.056.217h-.553c-.112,0-.13-.05-.18-.168l-.794-1.664a.1.1,0,0,0-.106-.062h-.639c-.069,0-.069.019-.069.1v1.6c0,.162-.037.2-.149.2h-.484c-.137,0-.125-.075-.125-.217V62.626c0-.118.019-.161.149-.161h1.329c1.112,0,1.7.484,1.7,1.322A1.2,1.2,0,0,1,114.331,64.942Zm-.9-1.912h-.577c-.093.006-.112.062-.112.111v1.267c0,.112.025.119.124.119h.763a.7.7,0,0,0,.776-.739C114.405,63.222,113.958,63.03,113.431,63.03Z" transform="translate(-52.389 -62.396)" fill="#738B79"/>
        <path id="Caminho_1131" data-name="Caminho 1131" d="M121.122,67.01h-2.359c-.08,0-.143-.044-.143-.18v-4.16c0-.118.006-.2.118-.2h2.247c.149,0,.168.012.168.1v.367c0,.1-.112.1-.285.1h-1.379c-.136,0-.161.049-.161.1V64.2c0,.118.037.143.136.143h1.23c.174,0,.2.031.186.112l-.043.348c-.019.13-.174.118-.292.118h-1.03c-.131,0-.174.037-.174.143v1.217c0,.143.075.136.18.136h1.5c.161,0,.23.019.23.119v.36C121.253,66.984,121.184,67.01,121.122,67.01Z" transform="translate(-54.927 -62.396)" fill="#738B79"/>
        <path id="Caminho_1132" data-name="Caminho 1132" d="M125.845,67.047c-1.378,0-1.745-.677-1.745-1.533V64.092c0-.937.261-1.738,1.844-1.738a1.934,1.934,0,0,1,1.285.348c.068.068-.168.558-.255.5a1.565,1.565,0,0,0-.987-.267c-.77,0-1.118.254-1.118,1.18v1.328c0,.752.261,1.056.962,1.056.559,0,.839-.174.839-.789v-.584c0-.069-.006-.13-.118-.13l-.422-.006c-.087,0-.124-.007-.124-.106v-.311c0-.062,0-.112.087-.112h1.018c.248,0,.279.043.279.254v.876C127.39,66.271,127.242,67.047,125.845,67.047Z" transform="translate(-57.023 -62.354)" fill="#738B79"/>
        <path id="Caminho_1133" data-name="Caminho 1133" d="M132.587,67.047c-.615,0-1.7-.13-1.7-1.3V63.912c0-1.111.54-1.558,1.683-1.558.918,0,1.688.348,1.688,1.54v1.658C134.257,67.01,133.121,67.047,132.587,67.047Zm.918-3.11c0-.677-.31-.975-.906-.975-.733,0-.981.348-.981,1v1.62a.856.856,0,0,0,.968.85c.5,0,.918-.155.918-.968Z" transform="translate(-59.618 -62.354)" fill="#738B79"/>
        <path id="Caminho_1134" data-name="Caminho 1134" d="M17.986,80.021H15.627c-.082,0-.143-.043-.143-.18V75.681c0-.118.006-.205.118-.205h2.247c.149,0,.168.012.168.1v.366c0,.1-.112.1-.286.1H16.353c-.136,0-.161.049-.161.1v1.074c0,.118.037.143.137.143h1.229c.174,0,.2.031.186.112l-.043.348c-.019.13-.174.119-.292.119h-1.03c-.131,0-.174.037-.174.143v1.217c0,.143.075.136.18.136h1.5c.162,0,.23.019.23.118v.36C18.117,80,18.048,80.021,17.986,80.021Z" transform="translate(-15.484 -67.372)" fill="#738B79"/>
        <path id="Caminho_1135" data-name="Caminho 1135" d="M25.553,76.047H24.182c-.136,0-.162.049-.162.1v1.217c0,.118.037.143.136.143h1.193c.174,0,.2.038.186.112l-.025.354c-.025.124-.167.111-.292.111H24.176c-.119,0-.143.044-.143.149v1.676c0,.087-.038.112-.1.112h-.5c-.08,0-.13-.043-.13-.18V75.681c0-.118.006-.205.118-.205H25.6c.149,0,.167.037.167.1v.342C25.765,76.029,25.7,76.047,25.553,76.047Z" transform="translate(-18.475 -67.372)" fill="#738B79"/>
        <path id="Caminho_1136" data-name="Caminho 1136" d="M30.114,80.059c-.614,0-1.7-.13-1.7-1.3V76.924c0-1.112.54-1.559,1.683-1.559.919,0,1.689.348,1.689,1.54v1.658C31.785,80.022,30.649,80.059,30.114,80.059Zm.919-3.111c0-.677-.311-.975-.907-.975-.732,0-.981.348-.981,1v1.62a.856.856,0,0,0,.968.851c.5,0,.919-.156.919-.969Z" transform="translate(-20.429 -67.33)" fill="#738B79"/>
        <path id="Caminho_1137" data-name="Caminho 1137" d="M37.769,77.954c-.087.024-.087.019-.05.093l.857,1.757c.08.168.068.217-.056.217h-.553c-.112,0-.13-.049-.18-.167l-.795-1.664a.1.1,0,0,0-.106-.062h-.639c-.069,0-.069.019-.069.1v1.6c0,.162-.037.2-.149.2h-.484c-.137,0-.124-.075-.124-.217V75.637c0-.118.019-.161.149-.161H36.9c1.112,0,1.7.484,1.7,1.322A1.2,1.2,0,0,1,37.769,77.954Zm-.9-1.913h-.577c-.093.006-.112.062-.112.112v1.267c0,.112.025.118.124.118h.763a.7.7,0,0,0,.776-.739C37.843,76.233,37.4,76.041,36.868,76.041Z" transform="translate(-23.109 -67.372)" fill="#738B79"/>
        <path id="Caminho_1138" data-name="Caminho 1138" d="M45.882,80.021h-.416c-.162,0-.2-.043-.2-.2V76.656c0-.118-.019-.112-.087-.006l-.925,1.614c-.081.136-.1.168-.161.168h-.136c-.087,0-.093-.025-.174-.174l-.876-1.577c-.068-.112-.1-.093-.1.012v3.167c0,.106-.012.161-.149.161h-.4c-.106,0-.2-.006-.2-.2V75.675c0-.162.05-.2.156-.2h.472a.2.2,0,0,1,.2.118l1.118,1.856c.025.037.062.044.087.006l1.1-1.85a.233.233,0,0,1,.2-.13h.5c.137,0,.13.069.13.211v4.166C46.024,79.971,46.006,80.021,45.882,80.021Z" transform="translate(-25.646 -67.372)" fill="#738B79"/>
        <path id="Caminho_1139" data-name="Caminho 1139" d="M53.028,80.021h-.49c-.118,0-.112-.031-.149-.161l-.267-.869H50.576l-.261.869c-.037.13-.056.161-.155.161h-.447c-.075,0-.1-.019-.043-.2l1.26-4.141c.044-.143.087-.2.23-.2h.509c.143,0,.18.056.23.2l1.26,4.141C53.221,80.014,53.146,80.021,53.028,80.021Zm-1.676-3.657-.608,2.073h1.21Z" transform="translate(-28.546 -67.372)" fill="#738B79"/>
        <path id="Caminho_1140" data-name="Caminho 1140" d="M59.193,76.135a1.75,1.75,0,0,0-.82-.187c-.837,0-1.161.348-1.161,1.05v1.614c0,.676.522.881,1.018.881a2.236,2.236,0,0,0,.994-.224c.087-.025.2.515.143.559a2.525,2.525,0,0,1-1.074.23v.174a.463.463,0,0,1,.521.484c0,.348-.317.528-.726.528a.6.6,0,0,1-.534-.217c-.069-.081.143-.267.18-.211a.415.415,0,0,0,.329.13c.2,0,.354-.062.354-.23,0-.186-.118-.235-.317-.235a.51.51,0,0,0-.106.012c-.043.006-.062.012-.062-.031v-.409c-.95-.075-1.478-.577-1.478-1.372V76.936c0-.863.36-1.571,1.856-1.571a1.67,1.67,0,0,1,1.086.261C59.46,75.676,59.255,76.154,59.193,76.135Z" transform="translate(-31.153 -67.33)" fill="#738B79"/>
        <path id="Caminho_1141" data-name="Caminho 1141" d="M65.485,79.236h-.49c-.118,0-.112-.031-.149-.161l-.267-.869H63.034l-.261.869c-.037.13-.056.161-.155.161H62.17c-.075,0-.1-.019-.043-.2l1.26-4.141c.044-.143.087-.2.23-.2h.509c.143,0,.18.056.23.2l1.26,4.141C65.678,79.23,65.6,79.236,65.485,79.236Zm-1.21-4.954c-.286,0-.577-.342-.807-.342a.47.47,0,0,0-.354.237c-.031.056-.056.056-.093.037l-.23-.118c-.037-.019-.043-.043-.025-.081.1-.236.354-.59.677-.59.279,0,.621.354.844.354a.438.438,0,0,0,.366-.254c.019-.044.044-.062.087-.037l.248.08c.044.019.044.05.025.093C64.834,74.022,64.6,74.282,64.275,74.282Zm-.466,1.3L63.2,77.653h1.21Z" transform="translate(-33.31 -66.588)" fill="#738B79"/>
        <path id="Caminho_1142" data-name="Caminho 1142" d="M70.613,80.059c-.615,0-1.7-.13-1.7-1.3V76.924c0-1.112.54-1.559,1.683-1.559.918,0,1.688.348,1.688,1.54v1.658C72.283,80.022,71.147,80.059,70.613,80.059Zm.918-3.111c0-.677-.31-.975-.906-.975-.732,0-.981.348-.981,1v1.62a.856.856,0,0,0,.968.851c.5,0,.918-.156.918-.969Z" transform="translate(-35.917 -67.33)" fill="#738B79"/>
        <path id="Caminho_1143" data-name="Caminho 1143" d="M79.767,78.394h-.708c-.087,0-.1.019-.1.124v1.3c0,.162-.037.2-.149.2h-.485c-.136,0-.124-.075-.124-.217V75.637c0-.118.019-.161.149-.161H79.68c1.142,0,1.7.484,1.7,1.441S80.847,78.394,79.767,78.394Zm-.118-2.353h-.577c-.093.006-.112.062-.112.112v1.533c0,.106.025.118.124.118h.752c.447,0,.782-.267.782-.919C80.617,76.283,80.176,76.041,79.649,76.041Z" transform="translate(-39.469 -67.372)" fill="#738B79"/>
        <path id="Caminho_1144" data-name="Caminho 1144" d="M86.923,77.954c-.087.024-.087.019-.049.093L87.73,79.8c.081.168.069.217-.056.217h-.553c-.112,0-.13-.049-.18-.167l-.794-1.664a.1.1,0,0,0-.106-.062H85.4c-.069,0-.069.019-.069.1v1.6c0,.162-.037.2-.149.2H84.7c-.136,0-.124-.075-.124-.217V75.637c0-.118.019-.161.149-.161h1.329c1.112,0,1.7.484,1.7,1.322A1.2,1.2,0,0,1,86.923,77.954Zm-.9-1.913h-.578c-.093.006-.111.062-.111.112v1.267c0,.112.025.118.124.118h.763A.7.7,0,0,0,87,76.8C87,76.233,86.55,76.041,86.023,76.041Z" transform="translate(-41.907 -67.372)" fill="#738B79"/>
        <path id="Caminho_1145" data-name="Caminho 1145" d="M92.853,80.059c-.614,0-1.7-.13-1.7-1.3V76.924c0-1.112.54-1.559,1.682-1.559.919,0,1.689.348,1.689,1.54v1.658C94.523,80.022,93.387,80.059,92.853,80.059Zm.919-3.111c0-.677-.311-.975-.907-.975-.732,0-.981.348-.981,1v1.62a.856.856,0,0,0,.968.851c.5,0,.919-.156.919-.969Z" transform="translate(-44.422 -67.33)" fill="#738B79"/>
        <path id="Caminho_1146" data-name="Caminho 1146" d="M100.407,76.047H99.035c-.136,0-.161.049-.161.1v1.217c0,.118.037.143.136.143H100.2c.174,0,.2.038.186.112l-.024.354c-.025.124-.168.111-.292.111H99.029c-.118,0-.143.044-.143.149v1.676c0,.087-.037.112-.1.112h-.5c-.081,0-.131-.043-.131-.18V75.681c0-.118.007-.205.118-.205h2.173c.149,0,.167.037.167.1v.342C100.618,76.029,100.556,76.047,100.407,76.047Z" transform="translate(-47.102 -67.372)" fill="#738B79"/>
        <path id="Caminho_1147" data-name="Caminho 1147" d="M103.948,80.021h-.478c-.112,0-.143-.037-.143-.174V75.613c0-.119.031-.137.168-.137h.459c.112,0,.124.037.124.174v4.228C104.079,79.984,104.06,80.021,103.948,80.021Z" transform="translate(-49.078 -67.372)" fill="#738B79"/>
        <path id="Caminho_1148" data-name="Caminho 1148" d="M107.218,80.065a2.594,2.594,0,0,1-1.322-.254c-.068-.05.019-.627.112-.6a2.626,2.626,0,0,0,1.112.23c.571,0,1.025-.162,1.025-.64,0-.4-.217-.608-.876-.869s-1.254-.584-1.254-1.391c0-.646.516-1.174,1.6-1.174a2.7,2.7,0,0,1,1.086.137c.131.043-.019.621-.149.584a3.3,3.3,0,0,0-.875-.137c-.671,0-.888.23-.888.59s.267.552.863.782c.832.335,1.292.77,1.292,1.447C108.939,79.779,108.057,80.065,107.218,80.065Z" transform="translate(-50.051 -67.33)" fill="#738B79"/>
        <path id="Caminho_1149" data-name="Caminho 1149" d="M113.311,80.065a2.592,2.592,0,0,1-1.322-.254c-.069-.05.019-.627.112-.6a2.623,2.623,0,0,0,1.112.23c.571,0,1.024-.162,1.024-.64,0-.4-.217-.608-.875-.869s-1.254-.584-1.254-1.391c0-.646.515-1.174,1.6-1.174a2.7,2.7,0,0,1,1.086.137c.13.043-.019.621-.149.584a3.3,3.3,0,0,0-.876-.137c-.67,0-.887.23-.887.59s.267.552.863.782c.832.335,1.291.77,1.291,1.447C115.031,79.779,114.15,80.065,113.311,80.065Z" transform="translate(-52.381 -67.33)" fill="#738B79"/>
        <path id="Caminho_1150" data-name="Caminho 1150" d="M118.959,80.021h-.478c-.111,0-.143-.037-.143-.174V75.613c0-.119.031-.137.167-.137h.46c.112,0,.124.037.124.174v4.228C119.09,79.984,119.07,80.021,118.959,80.021Z" transform="translate(-54.819 -67.372)" fill="#738B79"/>
        <path id="Caminho_1151" data-name="Caminho 1151" d="M122.8,80.059c-.614,0-1.7-.13-1.7-1.3V76.924c0-1.112.54-1.559,1.682-1.559.919,0,1.689.348,1.689,1.54v1.658C124.474,80.022,123.338,80.059,122.8,80.059Zm.92-3.111c0-.677-.311-.975-.907-.975-.732,0-.981.348-.981,1v1.62a.856.856,0,0,0,.968.851c.5,0,.92-.156.92-.969Z" transform="translate(-55.876 -67.33)" fill="#738B79"/>
        <path id="Caminho_1152" data-name="Caminho 1152" d="M131.432,80.033l-.446-.006c-.112,0-.156-.037-.224-.155l-1.806-3.03c-.1-.162-.136-.193-.136.006V79.8c0,.168-.019.217-.137.217h-.4c-.068,0-.167.012-.167-.186v-4.16c0-.031,0-.2.112-.2h.434c.205,0,.193.037.267.13l1.813,3.08c.087.155.13.149.13-.093V75.675c0-.093.019-.205.1-.2h.479c.1,0,.124.062.124.205V79.8C131.569,79.971,131.55,80.039,131.432,80.033Z" transform="translate(-58.557 -67.372)" fill="#738B79"/>
        <path id="Caminho_1153" data-name="Caminho 1153" d="M138.277,80.021h-.49c-.118,0-.112-.031-.149-.161l-.267-.869h-1.546l-.261.869c-.037.13-.056.161-.156.161h-.447c-.075,0-.1-.019-.044-.2l1.26-4.141c.044-.143.087-.2.23-.2h.509c.143,0,.18.056.23.2l1.26,4.141C138.47,80.014,138.4,80.021,138.277,80.021ZM136.6,76.364l-.608,2.073h1.21Z" transform="translate(-61.148 -67.372)" fill="#738B79"/>
        <path id="Caminho_1154" data-name="Caminho 1154" d="M144.161,80.021H141.9c-.119,0-.13-.049-.13-.217V75.637c0-.118.025-.161.136-.161h.448c.136,0,.167.043.167.205v3.657c0,.1.044.118.143.118h1.533c.124,0,.118.031.118.124V79.9C144.31,80.014,144.273,80.021,144.161,80.021Z" transform="translate(-63.778 -67.372)" fill="#738B79"/>
      </g>
    </g>
    <g id="Grupo_94" data-name="Grupo 94" transform="translate(716.209 147.588)">
      <path id="Caminho_1155" data-name="Caminho 1155" d="M321.927,71.458h-12.98l7.628-9.031a4.674,4.674,0,0,0,1.357-2.74,1.961,1.961,0,0,0-.566-1.462,2.024,2.024,0,0,0-1.476-.558q-2.261,0-2.262,2.716v.209h-4.086v-.117a6.087,6.087,0,0,1,1.682-4.567,6.331,6.331,0,0,1,4.619-1.641,6.915,6.915,0,0,1,4.388,1.322,4.874,4.874,0,0,1,1.859,4.073,7.385,7.385,0,0,1-2.3,4.807l-3.066,3.378h5.2Zm14.823-8.207a11.181,11.181,0,0,1-1.393,5.873,5.912,5.912,0,0,1-10.088-.082,11.546,11.546,0,0,1-1.381-5.953,11.534,11.534,0,0,1,1.381-5.944,5.912,5.912,0,0,1,10.158.059A12.133,12.133,0,0,1,336.75,63.251Zm-8.578-.162q0,5.352,2.158,5.352,2.135,0,2.136-5.352t-2.136-5.352q-1.428,0-1.914,2.136A15.64,15.64,0,0,0,328.172,63.088Zm23.112,8.37H338.306l7.629-9.031a4.674,4.674,0,0,0,1.357-2.74,1.956,1.956,0,0,0-.571-1.462,2.018,2.018,0,0,0-1.473-.558q-2.263,0-2.265,2.716v.209H338.9v-.117a6.092,6.092,0,0,1,1.682-4.567,6.33,6.33,0,0,1,4.621-1.641,6.914,6.914,0,0,1,4.387,1.322,4.87,4.87,0,0,1,1.857,4.073,7.378,7.378,0,0,1-2.3,4.807l-3.063,3.378h5.2Zm14.824-8.207a11.163,11.163,0,0,1-1.394,5.873,5.912,5.912,0,0,1-10.088-.082,11.559,11.559,0,0,1-1.38-5.953,11.546,11.546,0,0,1,1.38-5.944,5.914,5.914,0,0,1,10.16.059A12.159,12.159,0,0,1,366.108,63.251Zm-8.578-.162q0,5.352,2.159,5.352,2.136,0,2.135-5.352t-2.135-5.352q-1.428,0-1.915,2.136A15.517,15.517,0,0,0,357.53,63.088Z" transform="translate(-235.008 -33.37)" fill="#738B79"/>
      <path id="Caminho_1156" data-name="Caminho 1156" d="M202.739,33.235a7.051,7.051,0,0,1-3.154,1.918,5.4,5.4,0,0,1-1.354.172,6.542,6.542,0,0,1-.755-.044,6,6,0,0,1-5.128-5.851,5.67,5.67,0,0,1,1.747-4.145,5.534,5.534,0,0,1,4.136-1.727,6.394,6.394,0,0,1,4.508,2.067l2.275-2.181a9.529,9.529,0,0,0-6.783-3.013,9.03,9.03,0,0,0-9.012,9.013,9.006,9.006,0,0,0,15.2,6.545c.2-.175.4-.355.6-.548Z" transform="translate(-189.22 -20.43)" fill="#738B79"/>
      <path id="Caminho_1157" data-name="Caminho 1157" d="M268.405,38.32h-3.126v-10.9L261.3,38.32h-2.919L254.4,27.377V38.32h-3.126V21.1h4.161l4.391,12.071L264.246,21.1h4.159Z" transform="translate(-212.953 -20.686)" fill="#738B79"/>
      <path id="Caminho_1158" data-name="Caminho 1158" d="M296.839,26.181a4.638,4.638,0,0,1-1.724,3.678,5.677,5.677,0,0,1-3.863,1.4h-4.275V38.32h-3.129V21.1h7.4a5.765,5.765,0,0,1,3.84,1.381A4.727,4.727,0,0,1,296.839,26.181Zm-3.127,0a1.641,1.641,0,0,0-.738-1.4,2.755,2.755,0,0,0-1.706-.553h-4.291v3.908h4.291a2.781,2.781,0,0,0,1.706-.551A1.645,1.645,0,0,0,293.713,26.181Z" transform="translate(-225.409 -20.686)" fill="#738B79"/>
      <path id="Caminho_1159" data-name="Caminho 1159" d="M320.959,38.32H308.566V21.1h12.393v3.128h-9.265v3.908h7.242v3.126h-7.242v3.931h9.265Z" transform="translate(-234.862 -20.686)" fill="#738B79"/>
      <path id="Caminho_1160" data-name="Caminho 1160" d="M345.7,24.228h-5.219V38.32h-3.127V24.228h-5.219V21.1H345.7Z" transform="translate(-243.875 -20.686)" fill="#738B79"/>
      <path id="Caminho_1161" data-name="Caminho 1161" d="M370.062,38.32h-12.39V21.1h12.39v3.128H360.8v3.908h7.241v3.126H360.8v3.931h9.264Z" transform="translate(-253.642 -20.686)" fill="#738B79"/>
      <path id="Caminho_1162" data-name="Caminho 1162" d="M223.6,37.725a8.358,8.358,0,0,1-2.319-1.388c.2.157.462.364.666.509l.248.168a8.609,8.609,0,0,0,1.4.711Zm-4.7-4.511c-.014-.03-.03-.07-.044-.1a8.039,8.039,0,0,1-.706-3.654,5,5,0,0,0,.03,1.367l.08.434a9.188,9.188,0,0,0,.368,1.293c.085.207.194.485.288.688,0-.008-.01-.02-.014-.028Zm-.476-1.809a3.563,3.563,0,0,1,1.82-3.3,7.652,7.652,0,0,1,5.925-1.2c-2.867-1.966-4.781-1.7-4.794-1.694C218.1,27.04,218,29.21,218.365,31.282c.023.12.059.281.083.4-.006-.085-.021-.2-.025-.28Zm.5-4.505a6.187,6.187,0,0,1,1.606-1.61,3.355,3.355,0,0,0-.8.238,6.954,6.954,0,0,0-.85,1.433c.012-.019.027-.043.04-.061Zm-.847,2.83a4.923,4.923,0,0,1,.248-1.607,7.857,7.857,0,0,1,1.129-2.444,2.627,2.627,0,0,0-1.141,1.687c-.043.219-.108.508-.14.727a9.228,9.228,0,0,0-.1,1.68l.012.214c0-.078-.01-.178-.01-.257Zm2.528-5.161a5.118,5.118,0,0,1,1.484-.121,10.109,10.109,0,0,1,1.705-.526,7.871,7.871,0,0,0-1.522-.574,8.089,8.089,0,0,0-1.673,1.221Zm-1.766,1.286a2.468,2.468,0,0,1,1.487-1.212,8.712,8.712,0,0,1,1.757-1.34,2.417,2.417,0,0,0-1.383-.044,8.16,8.16,0,0,0-1.921,2.711c.018-.034.04-.08.06-.115Zm3.97-2.715a13.827,13.827,0,0,1,1.42.7,13.367,13.367,0,0,1,6.544.583,6.473,6.473,0,0,0-8.043-1.312c.023.009.056.021.08.032ZM219.3,24.907a8.713,8.713,0,0,1,1.129-1.517.635.635,0,0,0-.1.1c-.145.177-.342.407-.475.587-.213.313-.488.737-.679,1.063.04-.069.089-.162.13-.232Zm1.583-2a.373.373,0,0,1,.126-.082,9,9,0,0,1,3.305-1.863,6.623,6.623,0,0,0-1.86.752l-.2.126a8.869,8.869,0,0,0-1.368,1.068Zm.5-.143a5.266,5.266,0,0,1,1.138.265s.889-.38,1.349-.535a6.394,6.394,0,0,1,3.285-.256,7.207,7.207,0,0,1,3.942,2.295,11.572,11.572,0,0,1,2.294,1.1c-4.2-7.632-9.873-4.55-12.117-2.87.033,0,.076,0,.109,0Zm11.844,1.065a12.643,12.643,0,0,1,1.419,2.773A5.2,5.2,0,0,1,235.72,28a9.59,9.59,0,0,0-2.528-4.221l.036.052Zm-6.242-3.1a9.157,9.157,0,0,1,2.747.666,4.3,4.3,0,0,0-2.835-.673.459.459,0,0,1,.088.007Zm-4.153.768a10.357,10.357,0,0,1,4.965-.96,4.117,4.117,0,0,0-1.021-.1l-.073,0a8.966,8.966,0,0,0-1.415.173,9.243,9.243,0,0,0-1.5.443c-.318.139-.739.332-1.047.49.03-.014.067-.036.1-.051Zm7.647,14.373a.863.863,0,0,1,.222.017.723.723,0,0,0,.241.012l-.034.04a6.438,6.438,0,0,1-8.044,1.466,8.8,8.8,0,0,1-.92-.561,9.54,9.54,0,0,1-.82-.64,8.9,8.9,0,0,1-1.409-1.572,8.747,8.747,0,0,1-.592-.964,8.908,8.908,0,0,1-.868-2.408,9.163,9.163,0,0,1-.182-1.49,9.275,9.275,0,0,1,.1-1.68,9.533,9.533,0,0,1,.471-1.806,9.344,9.344,0,0,1,1.2-2.21c.269-.335.645-.767.939-1.078a8.957,8.957,0,0,1,3-1.938,9.081,9.081,0,0,1,2.919-.616,8.807,8.807,0,0,1,1.3.039,9.234,9.234,0,0,1,1.193.2l.023.007.115.03a9.12,9.12,0,0,1,2.884,1.322c.2.148.4.3.6.462a13.428,13.428,0,0,0-2.192-1.215,8.191,8.191,0,0,1,1.914,1.649c.146.17.182.214.317.388.053.045.055.046.057.049l.008.007c3.114,2.983,3.229,5.792,3.135,6.86l.012-.2c0-.132-.009-.309-.02-.441a7.2,7.2,0,0,1-.352,2.484l.02-.069c.8-2.87-.067-3.838-.834-4.691a9.934,9.934,0,0,1-.008,6.412,3.981,3.981,0,0,1-.262.3h0a10.446,10.446,0,0,0-.385-6.456c-.221-.692-.48-1.447-2.532-2.337a11.86,11.86,0,0,1,1.162,1.871c1.491,3.021,1.667,5.963,1.2,7.419l0,.009c-.108.085-.22.164-.337.24l.044-.141a11.658,11.658,0,0,0-1.963-8.976c-1.128-1.6-5.824-1.621-6.985-1.485,4.459,2.735,9.5,6.865,8.164,11.016-.128.061-.262.116-.4.171v-.006c1.039-2.533-.518-4.713-1.78-6.132a27.5,27.5,0,0,0-5.767-4.647c-.7-.418-.7-.418-2.065-.023a9.7,9.7,0,0,1,5.089,2.956c5.45,2.474,4.077,7.316,2.882,8.386-.076.067-.169.036-.266,0a.523.523,0,0,0-.2-.033l.143-.175c1.172-1.766.828-3.913-.923-5.742a8.2,8.2,0,0,1,.557,1.673,5.578,5.578,0,0,1-.852,4.353c-.131.233-.4-.05-.574-.057a2.392,2.392,0,0,0,.362-.292c1.309-1.592.416-4.84-1.105-6.9-4.1-2.288-10.216-.511-9.414,3.731.655,1.853,4.3,7.871,10.157,3.46.174.007.445.283.459.261-.507.829-1.733,1.9-.908,1.095.222-.217-.364.332-.776.524a6.865,6.865,0,0,0,2.873-1.932Zm2.1-.5c.136-.055.27-.11.4-.171h0a5.316,5.316,0,0,1-4.1,3.077l-.009,0c.184-.047.43-.1.61-.155a4.715,4.715,0,0,0,3.1-2.756Zm1.138-.585c.117-.077.228-.157.338-.24l-.045.142A3.581,3.581,0,0,1,232.93,36.3c-.206.162-.476.381-.689.535l.171-.127a3.717,3.717,0,0,0,.781-.828,4.125,4.125,0,0,0,.522-1.076.13.13,0,0,1,.007-.024Zm.895-.744c.091-.1.179-.2.262-.3l0,.009a5.517,5.517,0,0,1-1.267,1.919l.07-.077a4.857,4.857,0,0,0,.909-1.47.431.431,0,0,1,.031-.078Z" transform="translate(-200.254 -20.433)" fill="#738B79"/>
      <path id="Caminho_1163" data-name="Caminho 1163" d="M225.43,38.192a9.234,9.234,0,0,0,1.974.221,7.579,7.579,0,0,0,1.465-.137l.136-.034-.031.007a8.955,8.955,0,0,1-1.53.132,9.22,9.22,0,0,1-1.738-.168l-.277-.022Zm3.966-.04-.356.083-.161.038.517-.121Zm-6.529-.748.067.033-.012,0c-.018-.01-.037-.021-.055-.029Zm5.562-.2c-.041.036-.07.072-.123.114-.111.088-.2.169-.3.234.035,0,.115.018.151.023.187-.085.4-.188.626-.319-.1-.013-.193-.027-.288-.043Zm-6.031-.071c.186.119.264.159.469.269-.059-.035-.114-.063-.162-.093-.1-.052-.2-.112-.307-.176Zm8.955-.028a5.769,5.769,0,0,1-1.6.215q-.243,0-.484-.017a6.794,6.794,0,0,1-.62.327q.351.032.671.032a5.733,5.733,0,0,0,1.562-.2,4.316,4.316,0,0,0,.474-.354Zm-9.095-.061c.051.035.1.062.135.085.078.047.175.1.313.18.015.008.033.019.048.026-.134-.076-.278-.157-.392-.228h0c-.035-.022-.067-.04-.1-.062Zm6.455-.156c-.047.064-.078.183-.145.166a3.84,3.84,0,0,0,.43.074c.089-.052.18-.112.271-.174-.161-.012-.324-.031-.487-.057Zm-6.694,0,.013.009s.007,0,.012.007l-.025-.017Zm-.07-.046.224.152c-.048-.033-.1-.064-.14-.1-.026-.017-.054-.034-.083-.056Zm-.072-.052c.022.019.048.034.072.052h0c-.021-.014-.045-.031-.067-.048,0,0,0,0-.006,0Zm-.062-.043c.028.022.059.043.094.067-.019-.013-.037-.027-.054-.04s-.027-.02-.04-.028Zm-.051-.041c.03.024.062.047.091.069a.235.235,0,0,0,.022.015c-.042-.03-.08-.057-.113-.084Zm10.008-.019a6.043,6.043,0,0,1-1.9.292h-.109c-.094.067-.19.133-.287.2.073,0,.148.006.224.006.119,0,.237-.006.358-.015a7.072,7.072,0,0,0,1.519-.266c.068-.066.135-.14.2-.214Zm.829-.145a4.756,4.756,0,0,1-.957.47,4.786,4.786,0,0,1-.485.36,4.842,4.842,0,0,0,1.119-.564l.131-.1.007-.006c.072-.061.133-.116.185-.163Zm.332-.243h0l-.115.1a.313.313,0,0,1-.038.026c-.117.093-.244.194-.364.285v0l-.006,0c-.04.03-.078.059-.117.085a7.982,7.982,0,0,0,.64-.5Zm-11.77-.072c.039.036.078.069.12.1h0c.012.011.025.02.035.028-.044-.036-.094-.079-.154-.133Zm11.905-.18a5,5,0,0,1-.975.523c-.073.079-.145.156-.219.23a4.416,4.416,0,0,0,1.011-.529,2.319,2.319,0,0,0,.183-.224Zm-12.3-.176c.132.131.2.188.356.329l-.022-.02q-.176-.155-.335-.309Zm-.056-.058c.02.019.038.039.056.058a.1.1,0,0,0-.024-.026c-.01-.012-.022-.022-.032-.032Zm.18-.018a6.863,6.863,0,0,0,1.44,1.07,10.889,10.889,0,0,1-1.44-1.07Zm-.552-.377c.023.028.048.053.072.082a.208.208,0,0,0-.029-.033h0l-.043-.049Zm13.5-.035a5.132,5.132,0,0,1-.4.378c-.054.069-.113.14-.179.212a5.919,5.919,0,0,0,.456-.439c.036-.042.078-.092.125-.151ZM220.072,35.1c.1.131.159.195.272.322-.1-.108-.187-.215-.272-.322Zm-.052-.067c.017.023.035.045.052.067-.009-.009-.019-.025-.03-.04l-.022-.027ZM231,35a2.273,2.273,0,0,1-1.209.264,6.455,6.455,0,0,1-.434.657h0c-.056.1-.121.2-.167.28.056,0,.126-.006.18-.006.287,0,.563,0,.832-.019.094-.1.188-.2.279-.3h0l.143-.175A4.5,4.5,0,0,0,231,35Zm2.81-.515a4.763,4.763,0,0,1-.737.394c-.026.106-.056.214-.09.319-.128.061-.262.116-.4.171v-.006c.049-.115.09-.23.126-.343a5.794,5.794,0,0,1-1.3.278,2.492,2.492,0,0,1-.464.6h0l-.034.04c-.057.067-.119.13-.18.2a7.279,7.279,0,0,0,1.646-.335c.073-.138.141-.281.207-.435.136-.055.27-.11.4-.171h0c-.078.162-.159.317-.244.464a4.441,4.441,0,0,0,.828-.456c.051-.119.1-.25.15-.4a.132.132,0,0,1,.007-.024h0l.044-.141c.014-.051.03-.1.043-.157Zm-14.4-.322c.113.189.167.27.309.472-.03-.046-.059-.09-.084-.13-.046-.065-.09-.132-.131-.2s-.065-.1-.094-.145ZM232.9,34.1a10.538,10.538,0,0,1-1.228.627,4.318,4.318,0,0,1-.22.479,11.678,11.678,0,0,0,1.385-.687c.027-.141.049-.282.063-.419Zm1.822-.422a4.6,4.6,0,0,1-.584.557c-.025.1-.05.2-.082.294l0,.009h0l-.045.142c-.027.069-.054.15-.092.243a4.715,4.715,0,0,0,.563-.577c.035-.073.069-.151.1-.233a.43.43,0,0,1,.031-.078h0c.038-.116.076-.235.108-.354Zm-.736-.346a8.286,8.286,0,0,1-.791.584c0,.133-.013.266-.028.4a8.794,8.794,0,0,0,.774-.561c.019-.135.033-.279.045-.422Zm-15.125-.2.049.109c0-.008-.01-.02-.014-.028l-.014-.028c.075.164.128.271.24.484-.022-.043-.041-.083-.061-.122-.006-.009-.013-.023-.019-.035s-.063-.121-.133-.27c-.011-.023-.02-.049-.032-.075s-.011-.024-.017-.035Zm-.23-.56c.026.061.052.13.081.2a.113.113,0,0,1-.007-.017c-.023-.055-.046-.118-.074-.182Zm16.318-.2a6.82,6.82,0,0,1-.666.711q-.009.21-.025.406a6.939,6.939,0,0,0,.642-.673c.02-.148.037-.3.049-.445Zm-16.3-.041c.007.046.014.091.025.136a6.991,6.991,0,0,0,.4.9,9.963,9.963,0,0,1-.429-1.036Zm17.182-.739c-.032.121-.069.233-.148.472l0,.007v0a5.682,5.682,0,0,1-.646,1.217c-.049.151-.1.3-.157.447v0l0,.009c-.028.071-.059.141-.089.208a7.607,7.607,0,0,0,.8-1.524c.032-.1.059-.193.083-.292-.024.1-.05.195-.082.29l0,0c.035-.092.1-.28.115-.34h0l.022-.078c.035-.124.07-.261.1-.4a.116.116,0,0,0,0-.017Zm-17.448-.214c.021.1.048.216.065.309,0-.061-.013-.133-.017-.2-.018-.037-.033-.075-.048-.106Zm11.752-.235c.041.145.081.305.121.487.025.135.045.268.061.4h.028a6.359,6.359,0,0,0,.681-.038,5.251,5.251,0,0,0-.377-.789q-.253-.018-.513-.057Zm2.055-.022c-.139.028-.282.051-.429.069a5.131,5.131,0,0,1,.164.612,5.292,5.292,0,0,0,.516-.19c-.077-.167-.16-.332-.251-.491Zm3.756-.04c0,.007,0,.01,0,.017s-.009.046-.014.071c0-.006,0-.012,0-.019l.014-.069Zm-17.81-.556a7.388,7.388,0,0,0,.12.739l-.08-.434c-.013-.082-.022-.158-.031-.234,0-.025-.007-.048-.01-.071Zm-.007-.123c0,.063.009.127.017.194.018.126.043.274.076.471.02.094.045.2.077.326-.041-.2-.075-.405-.1-.608a3.666,3.666,0,0,1-.07-.382Zm15.641-.089a3.044,3.044,0,0,1-1.348.751c.083.148.159.3.228.451a4.431,4.431,0,0,0,1.187-.85c-.019-.116-.043-.233-.068-.351Zm2.267-.183a4.369,4.369,0,0,1-.258.868v0l-.038.094a5.751,5.751,0,0,1-.392.729c-.019.168-.043.332-.073.5a5.635,5.635,0,0,0,.5-.929h0l.089-.232c.043-.138.1-.307.137-.495a5.29,5.29,0,0,0,.038-.528Zm-17.954-.2c0,.021,0,.04,0,.059h0c0,.023,0,.058.007.1,0-.048-.006-.1-.01-.159Zm17.985-.019c-.006.048-.01.094-.017.133,0,.17-.013.332-.028.5a2.705,2.705,0,0,0,.036-.293h0l.012-.2c0-.039,0-.085,0-.133Zm-17.994-.136h0c0,.055.006.107.009.155,0-.036,0-.074,0-.11,0-.016,0-.031,0-.045Zm.056-.135c-.009.1-.013.207-.014.337.013.192.033.374.056.545-.02-.221-.03-.447-.03-.677-.006-.067-.009-.135-.012-.2Zm17.965-.081-.007.175c0,.027,0,.052-.007.075,0,.081,0,.157-.007.227.011-.161.018-.334.022-.477Zm-1.5-.729a3.194,3.194,0,0,1-.642,1.288c.03.114.054.23.077.343a4.027,4.027,0,0,0,.689-1.1c-.038-.173-.078-.351-.125-.53Zm-16.12-.589a4.5,4.5,0,0,0-.193.764,6.092,6.092,0,0,0,.288,1.138,3.123,3.123,0,0,1,.24-.575,6.149,6.149,0,0,1-.335-1.327Zm4.937-.48a7.484,7.484,0,0,0-1.968.43,8.874,8.874,0,0,0,.4,2.2,8.034,8.034,0,0,0,.734,1.645,8.668,8.668,0,0,0,4.273,3.63l-.238-.006a13.093,13.093,0,0,1-1.664-.161,11.247,11.247,0,0,1-5.034-6.456c-.039.031-.077.067-.117.1.033.109.066.219.1.328a11.423,11.423,0,0,0,4.508,5.929l-.1-.02c-.6-.126-1.028-.216-2.741-1.819l-.116-.112-.046-.046-.155-.151-.3-.308a11.61,11.61,0,0,1-1.934-2.857,3.42,3.42,0,0,0-.253.566,10.019,10.019,0,0,0,1.378,2.208c.163.188.377.439.545.619l.295.3.154.147.031.032.038.036c.235.22.4.367.686.614-.112-.052-.26-.119-.369-.174a6.3,6.3,0,0,1-2.927-2.6,3.9,3.9,0,0,0,.032.39,6.213,6.213,0,0,0,2.337,2.291A44.778,44.778,0,0,0,226.49,37.2a7.1,7.1,0,0,0,.719-.289,13.257,13.257,0,0,1-2.488-1.047,19.176,19.176,0,0,1,2.8.89c.052-.03.1-.058.159-.086a11.546,11.546,0,0,1-1.748-.645c.913.063,1.759.122,2.543.15.117-.082.235-.168.354-.256h0a2.392,2.392,0,0,0,.362-.292,2.127,2.127,0,0,0,.275-.414,8.074,8.074,0,0,1-5.963-4.835,7.765,7.765,0,0,1-.436-1.7c2.554,2.151,4.757,3.1,6.55,3.3a8.786,8.786,0,0,0-.318-1.01,14.589,14.589,0,0,1-5.888-3.214Zm-5.111-.317c-.017.07-.032.144-.049.225.008-.044.017-.087.025-.126-.015.064-.029.133-.038.2a.321.321,0,0,1-.007.038c.023-.113.048-.231.069-.334Zm.013-.075c-.012.053-.022.112-.036.174.012-.058.025-.117.036-.174Zm16.572-.041c.047.168.093.333.133.5,0-.1,0-.218,0-.347l-.135-.149Zm-16.519-.157a.173.173,0,0,1-.011.035l0-.012c0-.009,0-.015.006-.023Zm.139-.372a2.964,2.964,0,0,0-.145.395c-.051.206-.094.414-.154.721a8.921,8.921,0,0,0-.117,1.39c.009-.128.023-.247.041-.358a9.751,9.751,0,0,1,.1-1.025,4.782,4.782,0,0,0,0,.548c.033-.13.067-.245.1-.345l.111-.329a4.284,4.284,0,0,1,.07-1Zm1.168-.363c-.04.038-.078.075-.113.113a7.641,7.641,0,0,0,.1,1.981c.041-.036.082-.069.122-.1a7.542,7.542,0,0,1-.108-1.992Zm-.912-.438c-.039.092-.078.19-.119.292h0c.02-.046.039-.093.059-.138s.04-.1.059-.154Zm1.049-.5c-.05.021-.073.034-.077.036s-.02.024-.052.069c-.027.148-.052.305-.074.465l.12-.117c.024-.152.051-.3.083-.452Zm.719-.2c-.069.015-.135.027-.194.043.009.023.02.049.031.072v0c.067-.05.122-.088.163-.118Zm1.218-.1c-.054.194-.1.395-.141.6-.059-.088-.139-.2-.2-.289s-.1-.16-.145-.239c-.264.153-.859.224-.727.46.542.966.664,1.232.89,1.717,0,0,.369-.144.694-.261a5.672,5.672,0,0,1,.894-.279,9.9,9.9,0,0,1,.221-1.454,5.9,5.9,0,0,0-1.49-.258Zm-2.555-.093c-.008.014-.016.028-.025.042h0a9.108,9.108,0,0,0-.406.855c.144-.34.272-.606.4-.848l.027-.049Zm14.985-.189c.052.163.1.326.145.491.094.35.166.661.222.937.043.111.077.2.1.267.13.128.245.248.349.36a7.512,7.512,0,0,0-.172-1.084,9.763,9.763,0,0,0-.645-.971Zm-10.615-.518c-.164.046-.358.1-.592.169.155.036.319.075.487.121.032-.1.068-.195.1-.29Zm-2.725-.036c-.078.069-.158.141-.239.214h.006c.1-.022.2-.04.29-.058-.02-.054-.04-.106-.057-.156Zm-.991-.278,0,.006,0-.006Zm.45-.542c-.1.114-.211.241-.327.39.1-.123.211-.254.325-.383v-.007Zm.025-.046c-.076.086-.159.189-.241.291.084-.1.169-.2.241-.291Zm.023,0c-.017.019-.033.038-.049.057h0c.015-.019.032-.038.049-.057Zm2.121-.087a7.442,7.442,0,0,0-.48,1.044l.1,0a9.986,9.986,0,0,1,1.672-.519l.008-.018a9.611,9.611,0,0,0-1.3-.512Zm-1.649-.175a.53.53,0,0,0-.067.019c-.018.025-.037.046-.053.067l0-.031a.07.07,0,0,0,.007-.022l-.008,0a6.051,6.051,0,0,0-.5.5,9.382,9.382,0,0,0-.354,1.079c.053-.028.108-.055.162-.08.028-.087.059-.175.093-.26.01.065.023.133.038.206.061-.022.121-.045.184-.064.165-.159.317-.3.468-.427a2.355,2.355,0,0,1-.107-.815l.13-.176Zm.034-.285c-.02.02-.043.041-.064.06h0c.02-.018.041-.036.059-.054,0,0,0,0,.006-.006Zm.073-.066-.02.015-.023.02h0l-.03.03.073-.066Zm.535-.466c-.1.078-.192.162-.3.261.119-.1.215-.188.3-.261Zm3.306-.025a8.443,8.443,0,0,0-2.036.726c.023.009.056.021.08.032.426.175.814.369,1.087.515a6.4,6.4,0,0,1,.87-1.273Zm7.461-.311A5.134,5.134,0,0,1,234.1,24.66a10.69,10.69,0,0,1,.645.9,6.228,6.228,0,0,0-2.021-3.145l-.083-.064c-.135-.1-.271-.2-.41-.287Zm-.007-.026h0c.125.091.275.2.417.313.022.015.044.033.065.048-.15-.124-.312-.244-.482-.361Zm-10.176-.064c-.178.123-.311.216-.422.3-.052.041-.1.08-.152.121.164-.13.33-.249.57-.414l0,0Zm.2-.142-.076.052h0c.023-.017.048-.034.075-.052Zm.082-.051-.082.051c-.324.212-.494.332-.686.484.019-.014.04-.028.059-.045.162-.124.35-.251.626-.438h0l.082-.051Zm.122-.069-.174.1-.106.07c-.048.033-.093.064-.133.093a5.673,5.673,0,0,0-.539.431c.067-.052.135-.1.2-.151a5.946,5.946,0,0,1,.749-.545Zm0-.006c-.042.025-.082.051-.122.075l.122-.075Zm.178-.1-.009,0,0,0,.007,0Zm8.837-.036.035.02.046.023c-.019-.01-.04-.02-.059-.031l-.022-.013Zm-8.695-.045-.036.018h0c-.036.022-.072.041-.106.063.049-.029.1-.056.143-.081Zm.1-.048c-.027.014-.056.029-.083.041a.032.032,0,0,1-.012.007.721.721,0,0,1,.076-.037l.019-.011Zm.127-.066c-.04.017-.077.037-.115.057l.052-.027.063-.031Zm.259-.119-.166.077a.11.11,0,0,0,.025-.01c.046-.022.094-.046.141-.067Zm4.249-.59c-.141,0-.3,0-.468.009.106.006.21.015.318.027.05-.013.1-.025.15-.036Zm-.832,0a6.925,6.925,0,0,0-1.6.2,5.835,5.835,0,0,0-2.318,2.027c.3-.124.8-.33,1.115-.435a6.723,6.723,0,0,1,1.038-.269,5.234,5.234,0,0,1,2.384-1.464c-.1-.012-.2-.023-.308-.031a.812.812,0,0,0-.088-.007l.138,0c-.122-.006-.243-.01-.364-.01Zm1.335-.225h0c.286.04.469.063.606.085a5.877,5.877,0,0,0-.606-.085Zm-.984-.041-.3,0a4.2,4.2,0,0,0-.995.195,11.265,11.265,0,0,1,1.577-.109c.161,0,.324,0,.49.01a4.263,4.263,0,0,0-.776-.1Zm.069-.007c-.084,0-.174,0-.287,0h.094c.044,0,.084,0,.125,0h.336c-.1,0-.182-.007-.267-.007Z" transform="translate(-200.256 -20.43)" fill="#738B79"/>
      <path id="Caminho_1164" data-name="Caminho 1164" d="M229.037,38.238l-.033.007-.136.034.009,0h0l.161-.038Zm-6.335-.924c.048.03.1.058.162.093h0c.018.008.037.019.055.029l-.169-.1c-.015-.007-.033-.018-.048-.026Zm6.082-.052c-.229.131-.44.234-.626.319.167.023.328.043.485.054a6.8,6.8,0,0,0,.62-.327c-.161-.01-.321-.027-.479-.046Zm-6.394-.128.006,0c.106.064.209.124.307.176-.137-.077-.234-.133-.312-.18Zm9.251-.117c-.1.033-.194.064-.29.093a4.317,4.317,0,0,1-.474.354c.1-.027.19-.056.279-.087a4.782,4.782,0,0,0,.485-.36ZM222.169,37l.025.016L222.169,37Zm7.1-.038c-.091.062-.182.122-.271.174q.233.035.474.047c.1-.064.193-.13.287-.2-.161,0-.325-.012-.49-.024Zm-2.06-.041a7.1,7.1,0,0,1-.719.289c.022.008.046.014.07.022a10.949,10.949,0,0,0,1.365.318.335.335,0,0,0,.085.011,2.293,2.293,0,0,0,.338-.241c.051-.046.08-.068.12-.1a9.269,9.269,0,0,1-1.259-.295Zm-5.355-.14c.017.013.035.027.054.04s.027.021.04.028c-.025-.018-.05-.033-.072-.052a.235.235,0,0,1-.022-.015Zm10.554-.062-.131.1a.071.071,0,0,0,.014-.012c.038-.026.077-.055.117-.085Zm.007-.006-.007.006.006,0v0Zm-4.731-.035c-.054.028-.107.057-.159.086a8.45,8.45,0,0,0,1,.29.287.287,0,0,0,.075.015,1.639,1.639,0,0,0,.156-.172c0,.007-.067,0-.076-.006a7.757,7.757,0,0,1-.995-.212Zm4.408-.1c-.1.043-.213.082-.321.116-.064.073-.13.148-.2.214.1-.032.2-.064.3-.1.073-.073.145-.151.219-.23Zm.687-.15c-.058.041-.119.082-.178.122s-.114.1-.185.163c.12-.091.247-.192.364-.285Zm.153-.121Zm-11.785-.083a.052.052,0,0,0,.015.012c.061.054.11.1.154.133-.01-.009-.023-.017-.035-.028.048.041.1.081.156.126-.072-.062-.164-.136-.29-.242Zm-.04-.036.022.02h0a.088.088,0,0,0,.019.015l-.04-.036Zm12.337-.418a4.572,4.572,0,0,1-.377.285,2.322,2.322,0,0,1-.183.224c.13-.091.257-.191.38-.3.066-.072.125-.144.179-.212Zm-13.057-.295h0a.207.207,0,0,1,.029.033c.094.1.195.208.3.313.01.01.022.02.032.032l-.361-.378Zm8.971.448Zm.112-.7a3.052,3.052,0,0,1-.991.962c.248.009.65.025.8.019.017,0,.26-.419.274-.44a3,3,0,0,0,.249-.5c.1.01-.223-.027-.335-.045Zm3.513-.02c-.128.061-.262.116-.4.171-.065.154-.134.3-.207.435.124-.043.241-.089.36-.14.085-.146.166-.3.244-.464h0Zm1.1-.076-.085.1c-.051.057-.1.112-.157.167s-.089.109-.125.151c.123-.132.245-.27.366-.419Zm-1.013-.243c-.12.052-.241.1-.361.14-.036.113-.077.228-.126.343v.006c.136-.055.27-.11.4-.171.035-.1.064-.212.09-.319Zm-1.4-.146C231.516,34.8,231,35,231,35a4.664,4.664,0,0,1-.8,1.176,2.89,2.89,0,0,0,.529-.038h0a3.573,3.573,0,0,0,.945-1.406Zm-11.9-.02c.077.106.157.214.243.323l.022.027-.265-.35Zm-.142-.208c.025.04.054.084.084.13h0c.022.027.039.052.058.078-.048-.07-.1-.14-.142-.208Zm14.508-.264c-.109.09-.22.169-.333.244-.013.053-.029.107-.043.157l-.044.141h0a.135.135,0,0,0-.007.024c-.051.149-.1.28-.15.4a4.026,4.026,0,0,0,.358-.278c.038-.093.065-.174.092-.243l.045-.142h0l0-.009c.031-.092.057-.19.082-.294Zm-14.775-.149c.016.027.03.049.041.07.028.041.058.09.094.145-.046-.072-.091-.144-.135-.216Zm13.832-.17c-.1.062-.2.125-.3.184-.014.138-.036.279-.063.419.108-.064.22-.132.33-.2.015-.133.025-.266.028-.4Zm-13.935,0c.033.057.069.116.1.173-.015-.026-.031-.054-.049-.088s-.038-.059-.055-.085Zm15.772-.63a4.575,4.575,0,0,1-.31.395c-.032.119-.07.238-.108.354h0a.431.431,0,0,0-.031.078c-.031.082-.065.159-.1.233.1-.124.2-.255.3-.4.03-.067.061-.137.089-.208l0-.009v0c.058-.148.108-.3.157-.447Zm-.75-.209c-.1.089-.2.175-.3.258-.012.143-.026.287-.045.422.107-.088.211-.178.316-.273q.016-.2.025-.406Zm-15.507-.15.107.256.014.028c0,.008.009.02.014.028l-.049-.109c.006.011.009.023.017.035-.032-.076-.067-.157-.1-.238Zm-.153-.375c.044.112.1.245.153.375-.02-.052-.045-.109-.071-.174a.116.116,0,0,0,.007.017c-.029-.07-.055-.138-.081-.2a.2.2,0,0,0-.009-.019Zm17.1-.549-.022.078c.006-.025.014-.052.022-.078Zm-17.3-.086c.059.22.105.351.206.635-.1-.3-.161-.485-.206-.635Zm16.931-.1a6.363,6.363,0,0,1-.4.553c-.012.149-.028.3-.049.445a6.156,6.156,0,0,0,.374-.5c.03-.164.054-.327.073-.5Zm.482-.234v.007a.127.127,0,0,1,0,.017.235.235,0,0,0,.006-.024Zm-17.575-.321a6.683,6.683,0,0,0,.162.657c-.04-.151-.086-.345-.162-.657Zm13.5-.073a5.426,5.426,0,0,1-.6.03c-.166,0-.34-.006-.514-.021a5.249,5.249,0,0,1,.377.789,5.553,5.553,0,0,0,.9-.187,5.135,5.135,0,0,0-.164-.612Zm4.181-.093c-.029.147-.069.319-.111.487.027-.1.052-.215.1-.416.006-.025.011-.05.014-.071Zm-3.519-.033c-.075.02-.153.04-.233.057.091.159.174.324.251.491.073-.03.141-.063.211-.1-.069-.151-.145-.3-.228-.451Zm-3.123-.091a8.787,8.787,0,0,1,.318,1.01,6.7,6.7,0,0,0,.7.043c-.015-.129-.035-.262-.061-.4-.04-.182-.08-.343-.121-.487-.274-.042-.551-.1-.835-.169Zm-11.154-.377c.009.076.018.152.031.234l.08.434h0l-.055-.3.02.1c-.033-.2-.058-.345-.076-.471Zm-.028-.275c0,.076.013.142.019.2,0,.023.007.046.01.071-.007-.067-.014-.131-.017-.194,0-.027-.009-.054-.012-.082Zm15.834-.205a2.293,2.293,0,0,1-.182.2c.025.119.049.235.068.351.067-.069.132-.135.191-.206-.023-.113-.048-.228-.077-.343Zm2.1-.073c0,.031-.009.06-.014.088a5.281,5.281,0,0,1-.038.528c.008-.038.017-.078.024-.119.015-.166.025-.327.028-.5Zm-17.909-.2c0,.231.01.456.03.677.018.138.038.269.057.392,0-.022-.013-.053-.016-.077a.428.428,0,0,1-.014-.05c.025.2.059.407.1.608a10.667,10.667,0,0,0,1.4,3.146,7.5,7.5,0,0,1-.638-.99c.019.04.038.08.061.122h0c.078.138.14.246.193.334.141.224.318.486.462.687a10.43,10.43,0,0,0,1.785,1.871c-.044-.034-.087-.065-.13-.1.139.113.219.173.377.288.013.008.026.019.04.028-.03-.022-.062-.044-.091-.069.033.027.071.054.113.084,0,0,0,0,.006,0l-.093-.069c.073.055.15.11.23.163l.025.017c.085.056.156.1.215.14.033.022.065.04.1.062a8.67,8.67,0,0,1-1.91-1.657c.063.064.15.149.213.211a10.4,10.4,0,0,0,4.769,2.53l.277.022a10.107,10.107,0,0,1-3.372-1.346,6.863,6.863,0,0,1-1.44-1.07,10.567,10.567,0,0,1-.836-.824,9.979,9.979,0,0,1-.98-1.611,6.993,6.993,0,0,1-.4-.9c-.01-.045-.018-.09-.025-.136s-.038-.109-.057-.166c.015.024.03.048.043.072a3.9,3.9,0,0,1-.032-.39c-.073-.136-.13-.259-.172-.361,0,.069.013.142.017.2-.017-.093-.044-.208-.065-.309-.011-.027-.019-.051-.029-.074a9.986,9.986,0,0,1-.211-1.461Zm-.064-.024c0,.036,0,.074,0,.11,0,.057.007.111.01.159s.012.14.024.233c-.012-.133-.024-.293-.04-.5Zm18-.012c-.006.037-.009.069-.013.1s0,.094,0,.133l-.012.2c0-.064.011-.138.014-.212s0-.146.007-.227Zm-18.007-.033.012.214c0-.019,0-.038,0-.059,0-.048,0-.1-.009-.155Zm.734-.208a3.121,3.121,0,0,0-.24.575c.058.171.127.342.2.514a3.418,3.418,0,0,1,.253-.566c-.083-.18-.153-.354-.216-.524Zm-.678-.62c-.018.111-.032.229-.041.358q0,.352.027.671c0-.13.006-.241.014-.337-.009-.22-.01-.449,0-.692Zm-.043-.028c-.012.157-.018.3-.018.478,0,.108,0,.229,0,.377h0c0-.4,0-.634.014-.855Zm1.694-.492c-.04.032-.081.065-.122.1q.057.307.143.616c.04-.033.078-.069.117-.1-.053-.2-.1-.411-.138-.618Zm-1.609-.333c-.051.371-.075.589-.085.824.014-.206.041-.439.085-.824Zm.262-.3-.111.329c-.03.1-.064.215-.1.345.009.178.027.355.053.534a4.5,4.5,0,0,1,.193-.764c-.019-.154-.032-.3-.038-.443Zm-.075-.6,0,.012c-.019.078-.039.156-.056.238-.022.1-.046.221-.069.334-.018.094-.038.2-.058.318.014-.078.03-.169.048-.26,0,.027-.008.053-.014.08.06-.307.1-.516.154-.721Zm4.656-.289a7.429,7.429,0,0,0-1.588.54c0,.027,0,.054,0,.081,0,.221,0,.443.014.665a7.484,7.484,0,0,1,1.968-.43c-.141-.127-.284-.258-.421-.39.006-.159.014-.312.026-.466Zm11.528-.566a9.42,9.42,0,0,1,.19,1.614c.038.058.074.116.112.173-.038-.057-.073-.115-.112-.173a4.65,4.65,0,0,1-.141.876c.046.179.087.357.125.53a3.534,3.534,0,0,0,.259-1.015h0a4.7,4.7,0,0,0,.041-.521c-.04-.164-.086-.329-.133-.5l.135.149c0-.154-.01-.325-.025-.511-.1-.112-.219-.232-.349-.36-.024-.067-.058-.156-.1-.267ZM218.7,26.148c-.02.045-.039.091-.059.138h0c-.132.4-.212.645-.277.881,0,.007,0,.014-.006.023a2.964,2.964,0,0,1,.145-.395c.021-.111.045-.21.072-.3.037-.111.077-.225.125-.345Zm1.025-.2-.12.117c-.02.157-.035.317-.048.484.035-.038.074-.075.113-.113.013-.163.031-.327.054-.488Zm-.56-.805Zm.031-.054a.031.031,0,0,1-.006.012l-.027.049c.012-.02.023-.042.033-.061Zm.811-.325c-.054.025-.109.051-.162.08-.061.23-.118.485-.167.757.032-.044.052-.069.052-.069s.027-.015.077-.036a7.2,7.2,0,0,1,.2-.732Zm14.085-.1c.028.081.055.163.082.245a9.765,9.765,0,0,1,.645.971c-.023-.1-.05-.207-.082-.312a10.693,10.693,0,0,0-.645-.9Zm-14.39-.38c-.193.285-.353.529-.506.8.15-.248.337-.543.506-.8Zm1.088-.069c-.151.128-.3.269-.468.427-.063.019-.124.042-.184.064a3.178,3.178,0,0,0,.195.626c.059-.015.125-.027.194-.043-.041.03-.1.068-.163.118a2.533,2.533,0,0,0,.171.317c.224-.154.464-.308.728-.46a5.207,5.207,0,0,1-.371-.754c-.1.018-.19.036-.29.058H220.6c.081-.073.161-.146.239-.214-.017-.048-.031-.094-.044-.14Zm-.947-.138h0c-.045.066-.093.133-.141.207.045-.065.09-.133.136-.2l0-.006Zm0,0,0,0,0,0Zm3.912-.144a9.984,9.984,0,0,0-1.672.519l-.1,0a7.571,7.571,0,0,0-.238.747,5.9,5.9,0,0,1,1.49.258c.063-.266.138-.522.221-.768-.169-.046-.332-.085-.487-.121.234-.068.428-.124.592-.169.062-.159.128-.314.2-.462Zm-3.439-.439c-.072.089-.157.19-.241.291l-.232.292c.038-.048.08-.1.122-.147.116-.149.227-.276.327-.39a.262.262,0,0,1,.025-.046Zm.523-.545c-.018.019-.038.036-.059.054h0c-.137.145-.291.314-.442.487-.017.019-.033.038-.049.057-.022.045-.054.12-.094.219a6.046,6.046,0,0,1,.5-.5l.008,0a.655.655,0,0,1,.137-.312Zm.035-.036Zm.091-.081c-.021.02-.045.039-.069.061l.02-.015c.017-.014.032-.031.048-.045Zm.492-.426c-.148.119-.293.245-.492.426l.183-.159c.112-.1.209-.183.3-.261l0,0Zm11.173-.043.083.064-.017-.015c-.022-.015-.043-.033-.065-.048Zm-11.015-.08c-.019.017-.041.031-.059.045s-.063.052-.1.078l.006,0c.05-.041.1-.08.152-.121Zm.082-.013c-.068.048-.136.1-.2.151a5.631,5.631,0,0,0-.751.826.528.528,0,0,1,.067-.019,5.683,5.683,0,0,1,.887-.958Zm3.2-.04a6.724,6.724,0,0,0-1.038.269c-.311.1-.819.311-1.115.435-.1.148-.2.305-.29.469a9.613,9.613,0,0,1,1.3.512c.041-.088.082-.173.127-.256-.273-.146-.661-.34-1.087-.515-.024-.011-.056-.023-.08-.032a8.442,8.442,0,0,1,2.036-.726c.046-.054.094-.1.143-.156Zm-2.66-.386c-.277.187-.464.315-.626.438.111-.081.243-.174.422-.3l.128-.09.076-.052Zm9.586-.04c.138.09.269.18.392.272.139.091.275.185.41.287-.141-.11-.292-.222-.417-.313h0c-.114-.073-.25-.162-.385-.246Zm-9.5-.011-.082.051c.017-.01.037-.02.052-.031l.03-.02Zm.293-.173,0,0c-.094.055-.2.117-.321.191l-.021.013.174-.1c.057-.033.114-.068.171-.1ZM231.5,21.6c.1.061.217.13.332.2-.091-.059-.188-.118-.286-.178L231.5,21.6Zm-8.766-.048Zm.839-.4c-.248.106-.422.183-.58.266l-.063.031-.052.027-.1.049c.028-.012.056-.027.083-.041l-.019.011.264-.129a.11.11,0,0,1-.025.01l.166-.077c.106-.052.216-.1.321-.147Zm.209-.092h0c-.069.028-.139.058-.209.092.064-.028.132-.06.209-.092Zm.732-.251c-.221.062-.407.128-.732.251.345-.121.554-.193.732-.251Zm2.519-.091-.138,0a.812.812,0,0,1,.088.007c.1.009.206.02.308.031.02,0,.042-.012.061-.017-.108-.012-.212-.021-.318-.027Zm-1.746-.1c-.356.076-.539.12-.773.193.2-.054.411-.106.773-.193Zm.705-.114c-.227.024-.389.052-.705.114.333-.056.538-.09.705-.114Zm.71-.059c-.322.017-.477.027-.71.059.169-.019.375-.035.71-.059Zm.073,0-.073,0h.073Zm.433,0h-.188a4.264,4.264,0,0,1,.776.1c-.166-.007-.329-.01-.49-.01a11.266,11.266,0,0,0-1.577.109,5.226,5.226,0,0,0-.658.264,6.925,6.925,0,0,1,1.6-.2c.121,0,.241,0,.364.01.172,0,.274.007.414,0a4.613,4.613,0,0,1,.972-.118,3.555,3.555,0,0,1,.79.086l-.013,0h0c-.277-.057-.451-.093-.587-.119s-.32-.045-.606-.085h0c-.3-.02-.5-.035-.648-.041Zm-.312,0H226.8c-.015,0-.031,0-.049,0h-.028l.3,0c-.041,0-.081,0-.125,0Z" transform="translate(-200.253 -20.433)" fill="#738B79"/>
      <g id="Grupo_82" data-name="Grupo 82" transform="translate(73.939 20.897)">
        <path id="Caminho_1165" data-name="Caminho 1165" d="M321.927,71.458h-12.98l7.628-9.031a4.686,4.686,0,0,0,1.359-2.74,1.958,1.958,0,0,0-.569-1.462,2.016,2.016,0,0,0-1.475-.558q-2.263,0-2.263,2.716v.209H309.54v-.117a6.092,6.092,0,0,1,1.683-4.567,6.332,6.332,0,0,1,4.621-1.641,6.92,6.92,0,0,1,4.388,1.322,4.877,4.877,0,0,1,1.858,4.075,7.385,7.385,0,0,1-2.3,4.806l-3.066,3.378h5.2Zm14.823-8.207a11.2,11.2,0,0,1-1.393,5.874,5.913,5.913,0,0,1-10.087-.083,11.54,11.54,0,0,1-1.382-5.953,11.528,11.528,0,0,1,1.382-5.944,5.912,5.912,0,0,1,10.157.059A12.133,12.133,0,0,1,336.75,63.251Zm-8.577-.162q0,5.353,2.158,5.352,2.133,0,2.136-5.352t-2.136-5.352q-1.429,0-1.915,2.136A15.658,15.658,0,0,0,328.173,63.088Zm23.111,8.37H338.306l7.629-9.031a4.679,4.679,0,0,0,1.357-2.74,1.952,1.952,0,0,0-.571-1.462,2.013,2.013,0,0,0-1.473-.558q-2.261,0-2.263,2.716v.209H338.9v-.117a6.092,6.092,0,0,1,1.682-4.567,6.33,6.33,0,0,1,4.621-1.641,6.912,6.912,0,0,1,4.387,1.322,4.871,4.871,0,0,1,1.857,4.075,7.4,7.4,0,0,1-2.3,4.806l-3.066,3.378h5.2Zm14.824-8.207a11.167,11.167,0,0,1-1.394,5.874,5.913,5.913,0,0,1-10.088-.083,11.559,11.559,0,0,1-1.38-5.953,11.546,11.546,0,0,1,1.38-5.944,5.914,5.914,0,0,1,10.16.059A12.145,12.145,0,0,1,366.108,63.251Zm-8.578-.162q0,5.353,2.159,5.352,2.136,0,2.135-5.352t-2.135-5.352q-1.429,0-1.915,2.136A15.517,15.517,0,0,0,357.53,63.088Z" transform="translate(-308.947 -54.267)" fill="#738B79"/>
      </g>
    </g>
    <line id="Linha_21" data-name="Linha 21" y2="61" transform="translate(885.5 133.5)" fill="none" stroke="#738B79" stroke-width="1"/>
  </g>
</svg>
