<?xml version="1.0" encoding="UTF-8"?>
<svg xmlns="http://www.w3.org/2000/svg" xmlns:xlink="http://www.w3.org/1999/xlink" width="228pt" height="228pt" viewBox="0 0 228 228" version="1.1">
<g id="surface1">
<path style=" stroke:none;fill-rule:evenodd;fill:#ffffff;fill-opacity:1;" d="M 113.878906 47.882813 C 103.335938 47.882813 94.789063 56.433594 94.789063 66.972656 C 94.789063 77.511719 103.335938 86.058594 113.878906 86.058594 C 124.414063 86.058594 132.964844 77.511719 132.964844 66.972656 C 132.964844 56.433594 124.414063 47.882813 113.878906 47.882813 "/>
<path style=" stroke:none;fill-rule:evenodd;fill:#ffffff;fill-opacity:1;" d="M 140.574219 122.460938 C 151.785156 114.152344 162.992188 105.84375 174.203125 97.535156 C 174.742188 97.105469 175.28125 96.679688 175.820313 96.25 C 179.246094 93.527344 180.46875 92.648438 181.390625 88.21875 C 183.382813 78.695313 178.964844 72.183594 170.433594 69.816406 C 166.996094 68.863281 164.367188 68.980469 161.179688 70.453125 C 158.03125 71.90625 155.113281 74.078125 152.226563 75.851563 C 148.097656 78.851563 143.964844 81.851563 139.835938 84.851563 C 137.085938 87.011719 134.328125 89.175781 131.578125 91.339844 C 130.585938 92.113281 129.597656 92.890625 128.609375 93.664063 C 125.425781 96.152344 123.621094 98.71875 122.535156 101.839844 C 119.335938 111.042969 120.457031 123.050781 120.53125 133.148438 C 120.546875 135.15625 120.59375 136.652344 121.066406 138.601563 C 121.339844 139.710938 121.609375 140.820313 121.878906 141.929688 C 121.691406 139.769531 122.539063 137.671875 124.613281 135.105469 C 128.59375 130.171875 135.496094 126.296875 140.574219 122.460938 "/>
<path style=" stroke:none;fill-rule:evenodd;fill:#ffffff;fill-opacity:1;" d="M 167.503906 180.226563 C 175.140625 175.011719 182.777344 169.800781 190.414063 164.589844 C 190.339844 162.894531 190.265625 161.199219 190.191406 159.507813 C 173.652344 147.15625 157.113281 134.808594 140.574219 122.460938 C 135.496094 126.296875 128.59375 130.171875 124.613281 135.105469 C 120.238281 140.527344 121.308594 143.832031 126.082031 150.117188 C 129.671875 152.921875 133.003906 156.238281 136.59375 159.042969 C 145.882813 166.101563 155.175781 173.164063 164.46875 180.226563 C 165.480469 180.226563 166.492188 180.226563 167.503906 180.226563 "/>
<path style=" stroke:none;fill-rule:evenodd;fill:#ffffff;fill-opacity:1;" d="M 86.703125 122.460938 C 75.492188 114.152344 64.28125 105.84375 53.070313 97.535156 C 52.53125 97.105469 51.992188 96.679688 51.453125 96.25 C 48.03125 93.527344 46.808594 92.648438 45.882813 88.21875 C 43.894531 78.695313 48.308594 72.183594 56.839844 69.816406 C 60.28125 68.863281 62.90625 68.980469 66.097656 70.453125 C 69.242188 71.90625 72.164063 74.078125 75.050781 75.851563 C 79.179688 78.851563 83.308594 81.851563 87.4375 84.851563 C 90.191406 87.011719 92.945313 89.175781 95.699219 91.339844 C 96.6875 92.113281 97.675781 92.890625 98.667969 93.664063 C 101.851563 96.152344 103.65625 98.71875 104.742188 101.839844 C 107.941406 111.042969 106.820313 123.050781 106.742188 133.148438 C 106.730469 135.15625 106.683594 136.652344 106.207031 138.601563 C 105.9375 139.710938 105.667969 140.820313 105.398438 141.929688 C 105.585938 139.769531 104.734375 137.671875 102.664063 135.105469 C 98.683594 130.171875 91.777344 126.296875 86.703125 122.460938 "/>
<path style=" stroke:none;fill-rule:evenodd;fill:#ffffff;fill-opacity:1;" d="M 59.769531 180.226563 C 52.132813 175.011719 44.496094 169.800781 36.859375 164.589844 C 36.933594 162.894531 37.007813 161.199219 37.082031 159.507813 C 53.621094 147.15625 70.160156 134.808594 86.703125 122.460938 C 91.777344 126.296875 98.683594 130.171875 102.664063 135.105469 C 107.035156 140.527344 105.964844 143.832031 101.195313 150.117188 C 97.605469 152.921875 94.273438 156.238281 90.683594 159.042969 C 81.390625 166.101563 72.097656 173.164063 62.804688 180.226563 C 61.792969 180.226563 60.78125 180.226563 59.769531 180.226563 "/>
</g>
</svg>
