<svg width="16" height="16" viewBox="0 0 16 16" fill="none" xmlns="http://www.w3.org/2000/svg">
<path d="M8.57732 1.99981L14.928 12.9998C14.9865 13.1012 15.0173 13.2161 15.0173 13.3331C15.0173 13.4502 14.9865 13.5651 14.928 13.6665C14.8695 13.7678 14.7853 13.852 14.684 13.9105C14.5826 13.969 14.4677 13.9998 14.3506 13.9998H1.64932C1.53229 13.9998 1.41733 13.969 1.31599 13.9105C1.21464 13.852 1.13049 13.7678 1.07198 13.6665C1.01347 13.5651 0.982665 13.4502 0.982666 13.3331C0.982667 13.2161 1.01347 13.1012 1.07198 12.9998L7.42265 1.99981C7.48116 1.89847 7.56532 1.81432 7.66666 1.75581C7.76801 1.6973 7.88296 1.6665 7.99998 1.6665C8.117 1.6665 8.23196 1.6973 8.3333 1.75581C8.43464 1.81432 8.5188 1.89847 8.57732 1.99981V1.99981ZM2.80398 12.6665H13.196L7.99998 3.66647L2.80398 12.6665V12.6665ZM7.33332 10.6665H8.66665V11.9998H7.33332V10.6665ZM7.33332 5.99981H8.66665V9.33314H7.33332V5.99981Z" fill="#FFFFFF"/>
</svg>
