<svg width="16" height="16" viewBox="0 0 16 16" fill="none" xmlns="http://www.w3.org/2000/svg">
<path d="M6.00004 0.666626V1.99996H10V0.666626H11.3334V1.99996H14C14.1769 1.99996 14.3464 2.0702 14.4714 2.19522C14.5965 2.32025 14.6667 2.48981 14.6667 2.66663V13.3333C14.6667 13.5101 14.5965 13.6797 14.4714 13.8047C14.3464 13.9297 14.1769 14 14 14H2.00004C1.82323 14 1.65366 13.9297 1.52864 13.8047C1.40361 13.6797 1.33337 13.5101 1.33337 13.3333V2.66663C1.33337 2.48981 1.40361 2.32025 1.52864 2.19522C1.65366 2.0702 1.82323 1.99996 2.00004 1.99996H4.66671V0.666626H6.00004ZM13.3334 6.66663H2.66671V12.6666H13.3334V6.66663ZM10.024 7.42396L10.9667 8.36663L7.66671 11.6666L5.30937 9.30929L6.25337 8.36663L7.66737 9.78129L10.0247 7.42396H10.024ZM4.66671 3.33329H2.66671V5.33329H13.3334V3.33329H11.3334V3.99996H10V3.33329H6.00004V3.99996H4.66671V3.33329Z" fill="#F2F2F2"/>
</svg>
