<?xml version="1.0" standalone="no"?>
<!DOCTYPE svg PUBLIC "-//W3C//DTD SVG 20010904//EN"
 "http://www.w3.org/TR/2001/REC-SVG-20010904/DTD/svg10.dtd">
<svg version="1.0" xmlns="http://www.w3.org/2000/svg"
 width="5442.000000pt" height="842.000000pt" viewBox="0 0 5442.000000 842.000000"
 preserveAspectRatio="xMidYMid meet">

<g transform="translate(0.000000,842.000000) scale(0.100000,-0.100000)"
fill="#FFFFFF" stroke="none">
<path d="M2271 7998 c-50 -26 -79 -72 -88 -138 -5 -38 -8 -40 -39 -40 -32 0
-34 -2 -34 -35 0 -33 2 -35 35 -35 l35 0 0 -205 0 -205 40 0 40 0 0 205 0 205
50 0 50 0 0 35 0 35 -50 0 c-48 0 -50 1 -50 28 0 63 55 111 115 100 19 -4 26
1 36 24 6 16 9 31 7 34 -3 2 -27 7 -54 10 -39 4 -58 1 -93 -18z"/>
<path d="M5730 7909 c0 -102 -1 -111 -17 -104 -121 52 -230 10 -289 -112 -52
-105 -30 -253 47 -318 57 -47 169 -57 225 -20 29 19 34 19 34 0 0 -11 11 -15
40 -15 l40 0 0 340 0 340 -40 0 -40 0 0 -111z m-41 -164 c16 -8 31 -22 35 -30
3 -9 6 -74 6 -144 0 -149 -6 -161 -87 -168 -99 -9 -157 52 -157 166 -2 140
101 229 203 176z"/>
<path d="M1295 8001 c-77 -20 -150 -85 -189 -170 -18 -39 -21 -65 -21 -166 0
-135 17 -189 78 -253 55 -58 101 -76 192 -76 70 -1 87 3 134 29 30 17 56 35
58 41 6 18 -45 71 -54 58 -19 -28 -80 -54 -126 -54 -111 0 -186 89 -195 231
-7 128 38 233 119 275 36 18 120 18 166 -1 20 -8 37 -14 38 -13 10 13 25 50
25 61 0 8 -14 20 -32 26 -42 15 -156 22 -193 12z"/>
<path d="M2536 7994 c-32 -31 -10 -94 33 -94 23 0 51 31 51 57 0 23 -29 53
-53 53 -8 0 -23 -7 -31 -16z"/>
<path d="M4736 7994 c-32 -31 -10 -94 33 -94 23 0 51 31 51 57 0 23 -29 53
-53 53 -8 0 -23 -7 -31 -16z"/>
<path d="M1766 7818 c-113 -30 -175 -188 -131 -336 27 -90 80 -135 171 -147
105 -14 198 42 230 137 24 72 16 199 -15 255 -49 87 -143 120 -255 91z m129
-70 c58 -26 88 -164 56 -261 -39 -116 -198 -116 -231 1 -15 55 -12 146 7 193
27 68 101 98 168 67z"/>
<path d="M2906 7820 c-16 -5 -41 -21 -56 -35 l-27 -26 -13 30 c-10 25 -19 31
-41 31 l-29 0 0 -240 0 -240 45 0 45 0 2 187 3 187 34 23 c39 27 96 30 128 8
34 -24 43 -76 43 -247 l0 -158 41 0 41 0 -4 193 c-3 207 -10 238 -62 272 -29
19 -111 28 -150 15z"/>
<path d="M3312 7816 c-67 -22 -74 -31 -55 -71 l16 -33 36 19 c42 23 111 25
150 4 31 -16 41 -33 41 -71 0 -23 -3 -24 -34 -18 -45 8 -133 -11 -171 -37 -47
-33 -68 -68 -73 -122 -6 -57 12 -100 56 -132 39 -29 133 -27 191 3 40 21 46
22 56 8 13 -17 57 -36 86 -36 24 0 25 27 2 53 -15 16 -19 45 -23 176 -6 174
-17 208 -77 243 -41 25 -146 32 -201 14z m186 -302 c3 -68 2 -72 -25 -89 -15
-10 -49 -20 -74 -23 -41 -4 -51 -1 -73 21 -68 68 9 170 124 164 l45 -2 3 -71z"/>
<path d="M3886 7820 c-16 -5 -41 -21 -56 -35 l-27 -26 -13 30 c-10 25 -19 31
-41 31 l-29 0 0 -240 0 -240 45 0 45 0 2 187 3 187 34 23 c39 27 96 30 128 8
34 -24 43 -76 43 -247 l0 -158 41 0 41 0 -4 193 c-3 207 -10 238 -62 272 -29
19 -111 28 -150 15z"/>
<path d="M4357 7814 c-124 -39 -186 -184 -142 -331 26 -87 117 -153 212 -153
45 0 128 19 148 34 16 12 16 15 1 43 l-16 31 -37 -19 c-81 -41 -178 -14 -215
61 -24 47 -23 143 1 196 35 76 125 106 207 67 36 -17 36 -17 55 6 26 32 25 37
-23 56 -60 24 -134 28 -191 9z"/>
<path d="M5012 7816 c-67 -22 -74 -31 -55 -71 l16 -33 36 19 c42 23 111 25
150 4 31 -16 41 -33 41 -71 0 -23 -3 -24 -34 -18 -45 8 -133 -11 -171 -37 -47
-33 -68 -68 -73 -122 -6 -57 12 -100 56 -132 39 -29 133 -27 191 3 40 21 46
22 56 8 13 -17 57 -36 86 -36 24 0 25 27 2 53 -15 16 -19 45 -23 176 -6 174
-17 208 -77 243 -41 25 -146 32 -201 14z m186 -302 c3 -68 2 -72 -25 -89 -15
-10 -49 -20 -74 -23 -41 -4 -51 -1 -73 21 -68 68 9 170 124 164 l45 -2 3 -71z"/>
<path d="M6046 7818 c-113 -30 -175 -188 -131 -336 27 -90 80 -135 171 -147
105 -14 198 42 230 137 24 72 16 199 -15 255 -49 87 -143 120 -255 91z m129
-70 c58 -26 88 -164 56 -261 -39 -116 -198 -116 -231 1 -15 55 -12 146 7 193
27 68 101 98 168 67z"/>
<path d="M6833 7811 c-35 -16 -43 -17 -43 -6 0 11 -12 15 -45 15 l-45 0 0
-335 0 -335 45 0 45 0 0 104 0 104 38 -14 c78 -28 167 -9 223 47 89 89 91 283
5 377 -51 57 -153 76 -223 43z m123 -67 c98 -46 99 -264 2 -324 -37 -22 -103
-26 -143 -8 l-25 11 0 151 0 151 28 17 c34 22 94 23 138 2z"/>
<path d="M7326 7818 c-113 -30 -175 -188 -131 -336 27 -90 80 -135 171 -147
105 -14 198 42 230 137 24 72 16 199 -15 255 -49 87 -143 120 -255 91z m129
-70 c58 -26 88 -164 56 -261 -39 -116 -198 -116 -231 1 -15 55 -12 146 7 193
27 68 101 98 168 67z"/>
<path d="M7874 7816 c-17 -8 -43 -27 -58 -42 l-26 -29 0 38 c0 37 0 37 -40 37
l-40 0 0 -240 0 -240 40 0 40 0 0 150 c0 169 12 215 62 251 24 17 38 20 73 16
42 -6 44 -5 54 25 9 24 8 34 -1 40 -19 12 -69 9 -104 -6z"/>
<path d="M8115 7805 c-14 -13 -25 -31 -25 -40 0 -22 45 -65 68 -65 32 0 65 33
65 65 0 32 -33 65 -65 65 -10 0 -30 -11 -43 -25z"/>
<path d="M2460 7785 c0 -32 2 -35 30 -35 l30 0 0 -205 0 -205 45 0 45 0 0 240
0 240 -75 0 -75 0 0 -35z"/>
<path d="M4660 7785 c0 -32 2 -35 30 -35 l30 0 0 -205 0 -205 45 0 45 0 0 240
0 240 -75 0 -75 0 0 -35z"/>
<path d="M8115 7435 c-14 -13 -25 -31 -25 -40 0 -22 45 -65 68 -65 32 0 65 33
65 65 0 32 -33 65 -65 65 -10 0 -30 -11 -43 -25z"/>
<path d="M35160 3215 l0 -2385 3615 0 3615 0 0 2385 0 2385 -3615 0 -3615 0 0
-2385z m3640 2026 c0 -11 5 -21 10 -23 6 -2 16 -26 23 -53 l12 -50 88 -3 c48
-1 87 -6 87 -10 0 -4 -14 -18 -30 -32 -17 -14 -38 -32 -48 -41 -10 -8 -26 -18
-35 -22 -9 -3 -17 -15 -17 -25 0 -23 20 -85 30 -92 4 -3 10 -17 14 -32 8 -37
-16 -38 -48 -3 -13 14 -28 25 -34 25 -6 0 -17 8 -24 18 -23 32 -45 33 -80 2
-18 -17 -39 -30 -45 -30 -7 0 -13 -4 -13 -10 0 -13 -47 -43 -61 -38 -8 3 -8 8
3 18 7 8 21 46 30 84 21 86 13 101 -72 143 -17 8 -40 29 -40 37 0 3 39 7 87 8
l87 3 10 40 c5 22 12 42 17 45 4 3 12 18 18 33 12 31 31 36 31 8z m-892 -251
c7 -33 17 -60 21 -60 5 0 11 -14 15 -31 l6 -30 87 2 c48 1 88 -2 90 -8 2 -5
-15 -19 -37 -32 -22 -12 -40 -25 -40 -29 0 -4 -13 -13 -30 -20 -36 -16 -36
-17 -10 -107 26 -90 26 -101 -2 -75 -12 11 -25 20 -28 20 -4 0 -19 11 -34 25
-41 38 -75 43 -100 14 -12 -13 -38 -32 -59 -42 -20 -10 -37 -22 -37 -27 0 -6
-5 -10 -11 -10 -12 0 -9 17 13 98 7 23 16 42 20 42 20 0 6 48 -17 60 -14 7
-25 17 -25 21 0 5 -21 18 -46 29 -67 31 -53 45 43 41 95 -3 104 3 122 83 7 31
17 56 22 56 5 0 9 9 9 20 0 41 16 18 28 -40z m1816 -5 c4 -25 11 -45 16 -45 5
0 13 -15 18 -32 l8 -33 92 -3 c51 -1 92 -7 92 -13 0 -5 -15 -18 -32 -29 -18
-11 -42 -26 -53 -35 -11 -9 -28 -22 -39 -29 -18 -12 -18 -16 -3 -82 9 -38 21
-70 27 -72 16 -6 12 -32 -5 -32 -8 0 -15 4 -15 8 0 5 -16 17 -35 28 -19 10
-35 22 -35 26 0 4 -12 14 -27 22 -31 15 -70 6 -79 -19 -4 -8 -12 -15 -19 -15
-8 0 -22 -10 -32 -23 -25 -32 -53 -42 -53 -18 0 24 21 85 32 92 5 3 11 21 14
40 5 31 2 38 -22 54 -16 10 -33 24 -37 32 -4 7 -13 13 -20 13 -13 1 -57 34
-57 44 0 3 41 7 91 8 l92 3 15 50 c9 28 19 52 23 55 4 3 11 17 14 33 10 37 21
26 29 -28z m-2475 -688 c7 -31 17 -57 22 -57 5 0 9 -7 9 -15 0 -12 17 -15 95
-15 94 0 120 -11 73 -29 -13 -5 -38 -23 -57 -40 -19 -17 -43 -33 -53 -37 -19
-6 -26 -54 -8 -54 6 0 10 -7 10 -15 0 -8 7 -35 16 -61 8 -25 12 -49 8 -52 -4
-4 -9 -1 -11 6 -3 6 -10 12 -17 12 -7 0 -25 11 -40 25 -15 14 -31 25 -35 25
-5 0 -14 7 -21 15 -17 20 -27 19 -54 -7 -12 -13 -35 -30 -52 -38 -16 -8 -37
-23 -46 -35 -17 -19 -18 -19 -18 -1 0 31 32 136 41 136 20 0 7 37 -18 52 -16
9 -41 28 -58 42 -16 14 -36 26 -42 26 -7 0 -13 7 -13 15 0 12 16 15 83 15 45
0 87 4 93 8 7 4 17 27 24 51 29 110 47 117 69 28z m3141 18 c0 -13 5 -25 11
-27 6 -2 14 -19 18 -38 l7 -35 93 -3 c99 -3 112 -13 55 -42 -16 -8 -35 -23
-42 -32 -7 -10 -19 -18 -26 -18 -32 0 -37 -26 -20 -99 10 -39 21 -71 26 -71 4
0 8 -7 8 -15 0 -8 -4 -15 -10 -15 -9 0 -19 7 -72 55 -44 39 -65 45 -98 29 -16
-9 -30 -20 -30 -25 0 -5 -6 -9 -13 -9 -7 0 -28 -13 -47 -30 -18 -16 -35 -28
-37 -26 -7 7 9 76 17 76 8 0 30 77 30 104 0 8 -16 23 -35 32 -19 9 -35 19 -35
23 0 4 -13 15 -30 24 -16 10 -30 22 -30 28 0 5 40 9 89 9 98 0 93 -4 107 73 3
20 10 37 14 37 4 0 10 10 13 22 5 18 8 19 21 8 9 -7 16 -23 16 -35z m-3406
-900 c4 -25 11 -45 15 -45 5 0 12 -15 17 -32 l10 -33 87 -3 c48 -1 87 -5 87
-9 0 -8 -49 -53 -58 -53 -4 0 -22 -14 -41 -30 l-33 -30 18 -70 c10 -39 22 -70
26 -70 4 0 8 -7 8 -15 0 -22 -18 -18 -46 10 -14 14 -28 25 -32 25 -4 0 -19 11
-34 25 -26 24 -58 33 -58 17 0 -4 -15 -16 -32 -27 -18 -10 -42 -27 -53 -38
-11 -10 -28 -23 -38 -28 -17 -9 -18 -7 -11 28 4 21 10 40 14 43 5 3 13 25 20
49 15 56 4 79 -54 111 -24 12 -48 31 -55 41 -11 18 -6 19 77 19 l88 0 13 50
c7 28 17 50 22 50 5 0 9 11 9 23 0 24 7 37 21 37 3 0 10 -20 13 -45z m3632 37
c6 -4 14 -20 18 -37 4 -16 12 -47 17 -67 l10 -38 79 0 c47 0 80 4 80 10 0 6 7
10 15 10 8 0 15 -9 15 -20 0 -11 -7 -20 -15 -20 -9 0 -18 -6 -21 -14 -3 -8
-24 -24 -46 -36 -64 -33 -68 -39 -55 -96 6 -27 17 -55 24 -62 16 -16 17 -52 2
-52 -10 0 -23 10 -79 62 -49 45 -80 42 -123 -9 -10 -13 -24 -23 -30 -23 -7 0
-18 -9 -25 -20 -7 -12 -18 -17 -28 -13 -9 3 -12 9 -7 12 5 3 19 41 30 84 21
76 21 79 3 94 -10 8 -29 25 -42 37 -13 11 -36 27 -51 33 -26 12 -38 43 -17 43
6 0 10 -4 10 -10 0 -6 30 -10 71 -10 77 0 98 12 99 58 0 12 4 22 10 22 5 0 12
16 16 35 6 34 18 42 40 27z m-3373 -972 c9 -35 22 -67 29 -72 7 -4 52 -8 101
-8 71 0 87 -3 87 -15 0 -9 -11 -20 -25 -25 -13 -5 -33 -18 -43 -28 -10 -10
-33 -25 -51 -33 -30 -13 -32 -17 -26 -49 4 -19 11 -37 15 -40 8 -5 29 -79 30
-102 0 -12 -30 3 -55 26 -76 71 -103 81 -127 49 -7 -10 -26 -25 -43 -33 -16
-8 -38 -23 -47 -34 -27 -34 -29 -15 -6 77 21 84 21 88 3 107 -10 11 -24 20
-32 20 -7 0 -16 6 -19 14 -3 8 -19 20 -35 26 -16 7 -29 19 -29 26 0 11 20 14
86 14 95 0 107 6 119 61 4 19 11 51 17 71 14 49 30 33 51 -52z m3157 40 c4 -3
13 -30 21 -60 l14 -55 88 1 c75 0 87 -2 87 -17 0 -9 -13 -22 -30 -29 -16 -7
-30 -16 -30 -20 0 -4 -16 -15 -35 -26 -19 -10 -35 -25 -35 -34 0 -23 21 -94
30 -100 4 -3 11 -20 15 -37 8 -37 -4 -43 -34 -15 -89 82 -102 87 -143 66 -18
-9 -37 -23 -41 -30 -4 -8 -14 -14 -22 -14 -8 0 -20 -9 -27 -20 -7 -11 -18 -20
-25 -20 -7 0 -13 9 -13 20 0 11 4 20 8 20 5 0 17 32 27 72 18 70 18 72 0 82
-10 6 -26 19 -36 28 -10 9 -32 24 -49 33 -52 27 -32 40 60 40 l84 0 10 35 c5
19 13 37 16 40 3 3 12 25 19 50 13 44 14 44 25 20 6 -14 13 -27 16 -30z
m-2492 -675 c18 -97 28 -105 135 -105 66 0 88 -3 85 -12 -3 -7 -15 -18 -27
-24 -12 -6 -29 -20 -36 -31 -8 -11 -28 -26 -45 -33 -30 -12 -31 -15 -24 -54 3
-23 10 -49 15 -58 13 -25 11 -58 -4 -58 -14 0 -50 23 -81 52 -29 27 -57 22
-101 -17 -47 -41 -81 -43 -78 -5 4 47 15 90 24 90 32 0 -26 79 -58 80 -7 0
-13 4 -13 10 0 5 -13 16 -30 25 -53 27 -38 40 41 37 84 -4 119 3 119 24 0 39
43 142 60 144 3 0 11 -29 18 -65z m1813 0 c6 -25 15 -45 19 -45 5 0 11 -13 15
-30 l7 -30 90 0 c78 0 89 -2 86 -16 -2 -9 -12 -22 -23 -28 -10 -6 -27 -21 -37
-32 -10 -12 -29 -25 -44 -28 -24 -6 -26 -10 -21 -49 10 -76 19 -109 33 -114
19 -7 18 -33 -1 -33 -8 0 -19 9 -25 20 -6 11 -17 20 -25 20 -8 0 -20 8 -27 18
-7 9 -25 23 -39 31 -30 15 -50 8 -95 -34 -25 -23 -63 -33 -76 -19 -7 6 13 77
24 84 4 4 11 20 14 38 6 27 3 33 -19 41 -14 5 -31 18 -38 28 -8 11 -29 25 -46
32 -18 7 -33 20 -33 27 0 11 21 14 95 14 89 0 95 1 95 20 0 28 23 100 32 100
5 0 8 7 8 15 0 32 20 13 31 -30z m-921 -225 c0 -15 3 -30 8 -32 4 -1 14 -23
22 -48 l15 -45 87 -5 c97 -6 100 -13 23 -60 -72 -44 -76 -51 -60 -112 8 -29
19 -54 25 -56 5 -2 10 -15 10 -28 0 -28 -23 -32 -42 -6 -7 9 -30 26 -50 37
-21 11 -38 23 -38 27 0 5 -7 8 -15 8 -8 0 -15 -3 -15 -8 0 -4 -13 -13 -29 -20
-16 -7 -44 -26 -63 -42 -41 -36 -62 -39 -52 -7 3 12 11 24 15 25 5 2 9 11 9
20 0 10 7 36 15 60 16 45 8 74 -25 87 -24 9 -54 28 -80 53 l-24 22 91 0 90 0
13 45 c7 25 16 45 21 45 4 0 11 15 14 33 4 17 9 35 12 40 9 15 23 -5 23 -33z"/>
<path d="M1946 5510 c-227 -36 -420 -135 -591 -305 -170 -168 -267 -351 -306
-579 -18 -104 -6 -370 21 -471 93 -349 405 -662 755 -755 122 -33 386 -39 516
-12 187 39 357 128 508 268 l72 67 -78 79 c-43 44 -104 102 -135 129 l-57 50
-73 -61 c-80 -68 -220 -141 -313 -165 -78 -20 -242 -20 -320 0 -33 8 -98 34
-145 57 -70 34 -101 58 -180 137 -108 108 -155 187 -191 316 -29 106 -24 296
10 395 71 206 245 381 450 454 79 27 97 30 216 30 117 0 138 -3 210 -28 101
-35 170 -74 265 -151 l76 -62 134 130 134 130 -45 40 c-151 136 -334 239 -504
283 -112 29 -322 40 -429 24z"/>
<path d="M4185 5510 c-72 -7 -184 -27 -290 -54 -5 -1 -25 -6 -42 -10 -18 -4
-33 -12 -33 -17 0 -6 -4 -7 -10 -4 -5 3 -10 1 -10 -5 0 -6 -4 -8 -10 -5 -5 3
-10 1 -10 -5 0 -6 -4 -8 -10 -5 -5 3 -10 1 -10 -5 0 -6 -4 -9 -9 -6 -5 4 -11
2 -13 -2 -1 -5 -35 -26 -75 -48 -115 -63 -249 -196 -338 -336 -33 -53 -8 -28
30 30 21 31 61 78 89 104 50 47 52 48 118 48 37 0 69 -4 72 -9 3 -5 -7 -17
-22 -26 -15 -10 -68 -49 -118 -86 -49 -38 -95 -69 -101 -69 -22 0 -115 -94
-137 -139 -39 -78 -41 -100 -5 -47 19 27 45 56 59 65 27 18 27 20 -17 -51 -12
-21 -35 -68 -49 -105 -14 -37 -32 -82 -40 -99 -40 -91 -42 -301 -4 -447 25
-97 89 -241 145 -327 96 -150 271 -303 432 -377 90 -41 247 -83 314 -83 182 0
365 61 499 167 131 104 188 180 219 291 92 332 -52 627 -389 797 -30 15 -85
56 -121 90 -129 121 -278 211 -436 262 -46 15 -80 30 -75 35 4 4 34 14 66 22
56 15 61 15 103 -4 129 -57 443 -292 627 -470 279 -270 391 -495 357 -723 -16
-108 -85 -241 -162 -311 -34 -31 -66 -56 -71 -56 -4 0 -8 -5 -8 -11 0 -13 36
9 98 60 42 34 161 199 163 224 0 7 2 21 5 32 34 157 -7 345 -111 506 -144 223
-371 434 -719 667 l-159 107 124 3 c237 6 476 -33 609 -100 81 -42 119 -90
205 -263 96 -193 130 -307 157 -527 24 -199 -17 -417 -99 -525 -28 -37 -30
-41 -10 -28 27 17 79 93 106 157 44 99 51 302 17 493 -32 181 -133 434 -230
579 -26 38 -44 71 -42 74 10 9 151 -75 197 -118 58 -55 88 -118 128 -270 68
-264 72 -482 12 -652 -16 -43 -27 -78 -25 -78 13 0 67 135 90 221 25 98 26
114 21 274 -5 149 -11 202 -43 344 -5 22 -3 23 11 11 29 -24 76 -100 96 -153
26 -73 23 -27 -5 84 -38 152 -127 326 -208 411 -24 24 -36 35 -26 24 61 -77
150 -227 182 -306 36 -89 43 -132 13 -73 -8 15 -33 49 -55 74 -22 25 -65 97
-94 160 -30 63 -66 133 -81 156 -33 52 -34 62 -5 37 12 -10 -31 38 -96 108
-65 70 -143 146 -172 169 -30 23 -54 43 -54 45 0 5 97 -44 160 -81 32 -19 38
-21 20 -6 -47 39 -215 119 -327 155 -126 40 -221 50 -368 36z m275 -49 c67
-26 93 -41 70 -41 -8 0 14 -17 49 -37 123 -73 291 -253 385 -413 20 -34 36
-63 36 -65 0 -2 -37 16 -82 40 -46 24 -107 53 -137 65 -34 13 -78 43 -116 78
-73 69 -154 124 -241 163 -104 48 -184 63 -324 62 -131 -1 -215 -20 -346 -78
-51 -23 -52 -23 -125 -5 l-73 17 49 36 c125 91 316 171 455 192 131 19 332 12
400 -14z m-166 -177 c75 -19 170 -62 233 -105 60 -40 155 -120 150 -125 -2 -3
-46 7 -98 21 -52 13 -137 31 -189 40 -100 16 -335 19 -429 6 -52 -8 -58 -6
-140 38 l-85 45 59 27 c58 26 188 64 250 73 50 7 186 -4 249 -20z m-552 -135
c29 -12 64 -26 78 -31 22 -9 15 -13 -76 -42 -121 -39 -275 -57 -253 -29 23 27
163 122 181 123 10 0 41 -9 70 -21z m95 -244 c82 -28 161 -66 240 -117 l52
-33 -187 0 c-177 -1 -191 -2 -265 -28 -113 -39 -272 -132 -338 -197 -78 -77
-105 -129 -121 -229 -11 -73 -14 -79 -20 -50 -21 103 -20 183 6 281 29 112 58
168 133 249 53 57 201 163 239 171 31 6 182 -21 261 -47z m-477 -55 c-81 -81
-87 -76 -23 22 21 31 90 74 101 63 2 -2 -33 -40 -78 -85z m772 -229 c134 -35
226 -79 258 -122 49 -68 107 -191 145 -309 34 -103 38 -126 39 -225 2 -168
-25 -225 -148 -319 -62 -48 -185 -112 -269 -140 -163 -55 -333 -36 -487 54
-156 92 -297 247 -387 429 -45 91 -47 97 -48 185 0 85 2 96 37 167 77 157 221
247 470 295 99 19 289 12 390 -15z m558 -426 c64 -127 79 -214 57 -320 -26
-124 -115 -250 -232 -327 -61 -41 -199 -112 -156 -81 123 89 243 291 272 457
18 104 7 245 -26 336 -41 115 -41 120 -1 75 20 -22 59 -85 86 -140z"/>
<path d="M5630 4440 l0 -1030 185 0 185 0 2 651 3 651 235 -648 235 -649 175
-3 175 -2 234 642 c129 354 238 647 242 653 5 5 9 -280 9 -643 l0 -652 180 0
180 0 0 1030 0 1030 -246 -2 -247 -3 -260 -712 c-143 -392 -263 -713 -267
-713 -3 0 -123 321 -266 713 l-260 712 -247 3 -247 2 0 -1030z"/>
<path d="M8040 4441 l0 -1031 185 0 185 0 0 424 0 425 333 3 332 3 80 28 c250
88 413 287 432 525 13 172 -37 310 -160 439 -86 89 -167 142 -282 181 l-80 27
-512 3 -513 3 0 -1030z m1021 633 c138 -64 192 -185 134 -300 -31 -58 -67 -89
-143 -120 -55 -23 -66 -24 -349 -24 l-293 0 0 236 0 235 303 -3 c282 -3 305
-4 348 -24z"/>
<path d="M9870 4440 l0 -1030 740 0 740 0 0 185 0 185 -555 0 -555 0 0 240 0
240 430 0 430 0 0 185 0 185 -430 0 -430 0 0 235 0 235 555 0 555 0 0 185 0
185 -740 0 -740 0 0 -1030z"/>
<path d="M11610 5285 l0 -185 315 0 315 0 0 -845 0 -845 185 0 185 0 0 845 0
845 310 0 310 0 0 185 0 185 -810 0 -810 0 0 -185z"/>
<path d="M13500 4440 l0 -1030 740 0 740 0 0 185 0 185 -555 0 -555 0 0 240 0
240 435 0 435 0 0 185 0 185 -435 0 -435 0 0 235 0 235 555 0 555 0 0 185 0
185 -740 0 -740 0 0 -1030z"/>
<path d="M23835 5287 c-174 -58 -265 -194 -265 -396 0 -225 97 -354 285 -380
148 -21 291 36 366 146 50 73 71 146 72 253 2 179 -57 296 -180 357 -47 23
-72 28 -147 30 -56 2 -106 -2 -131 -10z m182 -136 c24 -11 54 -37 71 -60 55
-76 66 -228 23 -326 -19 -43 -77 -100 -118 -116 -71 -27 -179 7 -220 70 -33
48 -43 95 -43 191 0 127 42 206 130 244 48 21 107 19 157 -3z"/>
<path d="M26800 5284 c-121 -32 -215 -116 -261 -231 -34 -84 -34 -252 0 -336
30 -76 102 -148 178 -178 51 -21 75 -24 193 -24 101 0 149 4 192 18 l57 17 3
132 3 132 33 8 c30 8 32 11 32 53 l0 45 -155 0 -155 0 0 -44 c0 -48 9 -56 61
-56 l29 0 0 -84 c0 -95 0 -96 -94 -96 -99 0 -176 44 -219 123 -29 57 -31 213
-3 267 46 88 115 131 222 138 89 6 112 -5 116 -56 l3 -37 58 -3 58 -3 -3 103
-3 103 -55 12 c-77 16 -225 14 -290 -3z"/>
<path d="M22900 5245 c0 -47 3 -50 70 -57 l25 -3 3 -282 2 -283 -27 0 c-62 0
-73 -9 -73 -56 l0 -44 175 0 175 0 0 44 c0 47 -11 56 -72 56 l-28 0 0 84 0 83
74 5 c131 9 225 73 261 177 44 130 -11 256 -132 301 -47 18 -78 20 -253 20
l-200 0 0 -45z m390 -92 c51 -35 67 -81 50 -144 -15 -54 -63 -89 -134 -96
l-56 -6 0 132 0 131 58 0 c38 0 66 -6 82 -17z"/>
<path d="M24350 5245 c0 -47 3 -50 70 -57 l25 -3 3 -282 2 -283 -27 0 c-62 0
-73 -9 -73 -56 l0 -44 160 0 160 0 0 44 c0 45 -10 56 -51 56 -18 0 -19 8 -19
110 0 61 4 110 8 110 5 0 51 -72 103 -160 l94 -160 98 0 97 0 0 45 c0 41 -2
45 -27 51 -16 3 -32 7 -36 8 -5 1 -43 55 -85 121 l-78 119 59 29 c76 38 109
87 115 167 8 107 -33 175 -124 209 -49 19 -77 21 -264 21 l-210 0 0 -45z m403
-95 c28 -22 49 -80 40 -108 -19 -62 -45 -83 -116 -96 -74 -14 -77 -9 -77 115
l0 109 64 0 c49 0 69 -5 89 -20z"/>
<path d="M25010 5180 l0 -110 55 0 54 0 7 50 7 50 58 0 59 0 0 -275 0 -275
-27 0 c-62 0 -73 -9 -73 -56 l0 -44 175 0 175 0 0 44 c0 47 -11 56 -72 56
l-28 0 0 275 0 275 59 0 59 0 7 -50 7 -50 54 0 54 0 0 110 0 110 -315 0 -315
0 0 -110z"/>
<path d="M25702 5243 c3 -46 4 -48 38 -53 l35 -5 5 -255 c5 -239 6 -258 27
-296 47 -88 133 -128 273 -126 184 1 283 79 309 242 6 36 11 149 11 252 l0
187 33 3 c31 3 32 5 35 51 l3 47 -150 0 -151 0 0 -49 0 -50 38 -3 37 -3 0
-230 c0 -198 -2 -234 -17 -261 -26 -47 -77 -67 -160 -62 -66 4 -72 6 -104 41
l-34 37 0 239 0 240 38 3 c37 3 37 3 40 51 l3 47 -156 0 -156 0 3 -47z"/>
<path d="M27480 5168 c-190 -545 -190 -545 -221 -552 -27 -5 -29 -9 -29 -51
l0 -45 145 0 145 0 0 45 c0 45 0 45 -40 51 -22 4 -40 9 -40 12 0 2 5 22 12 43
l11 39 144 0 144 0 15 -35 c20 -49 19 -52 -26 -59 -40 -6 -40 -6 -40 -51 l0
-45 155 0 155 0 0 45 c0 42 -2 45 -32 53 -33 8 -33 9 -153 340 l-120 332 -91
0 -91 0 -43 -122z m176 -174 c25 -71 48 -137 51 -146 5 -16 -4 -18 -97 -18
-76 0 -101 3 -98 13 10 39 94 284 96 282 2 -2 24 -61 48 -131z"/>
<path d="M28040 5245 c0 -47 3 -50 70 -57 l25 -3 3 -282 2 -283 -27 0 c-62 0
-73 -9 -73 -56 l0 -44 260 0 260 0 0 105 0 105 -54 0 -55 0 -7 -45 -6 -45 -74
0 -74 0 2 273 3 272 25 3 c67 7 70 10 70 57 l0 45 -175 0 -175 0 0 -45z"/>
<path d="M20515 5242 c-171 -77 -323 -181 -456 -314 -342 -342 -536 -846 -579
-1503 -6 -92 -10 -522 -9 -1015 l1 -855 29 112 c117 456 368 834 704 1060 68
46 235 131 310 158 28 10 53 21 58 25 4 3 6 535 5 1182 l-3 1177 -60 -27z"/>
<path d="M22295 5239 c-420 -37 -904 -129 -1267 -243 l-118 -37 0 -1108 0
-1108 -87 -23 c-424 -110 -855 -417 -1013 -721 -22 -42 -40 -79 -40 -81 0 -1
39 35 88 82 158 155 354 268 602 348 149 48 279 78 580 132 622 112 834 193
1040 400 203 202 307 477 340 895 13 166 30 856 30 1206 l0 269 -27 -1 c-16
-1 -73 -6 -128 -10z"/>
<path d="M5322 4375 c0 -16 2 -22 5 -12 2 9 2 23 0 30 -3 6 -5 -1 -5 -18z"/>
<path d="M44477 4208 c-9 -7 -21 -25 -26 -40 -9 -25 -8 -28 11 -28 12 0 29 7
39 16 17 15 21 15 59 0 57 -23 96 -21 114 6 9 12 16 30 16 40 0 23 -38 24 -55
1 -12 -16 -15 -16 -57 0 -52 20 -78 21 -101 5z"/>
<path d="M45024 4094 c-53 -19 -111 -75 -136 -131 -28 -63 -34 -158 -15 -224
36 -124 123 -189 251 -189 116 1 186 44 233 146 23 50 25 65 21 147 -6 133
-47 200 -148 246 -54 25 -145 27 -206 5z m169 -58 c44 -18 94 -77 108 -128 6
-24 9 -70 6 -103 -8 -111 -65 -183 -152 -193 -94 -10 -161 25 -196 103 -25 55
-25 175 0 231 39 85 147 127 234 90z"/>
<path d="M47435 4086 c-99 -46 -147 -130 -148 -255 -1 -120 54 -218 148 -262
64 -30 168 -26 236 9 158 80 186 342 49 465 -79 72 -190 88 -285 43z m196 -59
c64 -34 99 -105 99 -201 -1 -134 -60 -207 -174 -214 -75 -4 -118 16 -160 76
-24 34 -30 54 -34 115 -7 118 24 188 100 226 56 28 114 27 169 -2z"/>
<path d="M43062 3888 c4 -248 11 -274 88 -315 56 -30 174 -32 236 -4 87 39
104 99 104 357 l0 174 -34 0 -33 0 -5 -197 c-5 -226 -13 -253 -76 -280 -48
-20 -134 -13 -163 13 -43 38 -49 72 -49 274 l0 190 -36 0 -35 0 3 -212z"/>
<path d="M43610 3824 l0 -275 33 3 32 3 5 209 5 209 140 -211 140 -212 38 0
37 0 0 275 0 275 -35 0 -35 0 -2 -212 -3 -211 -140 211 -140 212 -37 0 -38 0
0 -276z"/>
<path d="M44172 3828 l3 -273 35 0 35 0 3 273 2 272 -40 0 -40 0 2 -272z"/>
<path d="M44422 3837 c-56 -145 -102 -269 -102 -275 0 -7 15 -12 34 -12 34 0
35 1 64 83 l30 82 115 3 115 3 34 -86 33 -85 38 0 c23 0 37 5 36 13 0 6 -49
129 -108 272 l-107 260 -40 3 -41 3 -101 -264z m225 -53 c-2 -3 -43 -4 -89 -2
l-85 3 40 110 c22 61 41 117 44 125 2 8 25 -40 50 -108 25 -68 43 -125 40
-128z"/>
<path d="M45692 3828 l3 -273 203 -3 202 -2 0 35 0 35 -165 0 -165 0 0 95 0
95 150 0 150 0 0 30 0 30 -150 0 -150 0 0 85 0 85 160 0 160 0 0 30 0 30 -200
0 -200 0 2 -272z"/>
<path d="M46200 3926 c0 -256 14 -306 96 -353 31 -18 55 -23 117 -23 88 0 130
14 168 56 43 48 49 83 49 295 l0 199 -35 0 -35 0 0 -190 c0 -256 -12 -285
-124 -297 -67 -7 -119 14 -142 59 -15 28 -19 65 -22 231 l-4 197 -34 0 -34 0
0 -174z"/>
<path d="M46752 3828 l3 -273 35 0 35 0 3 124 3 123 69 -4 c84 -4 95 -13 185
-150 65 -98 65 -98 106 -98 34 0 40 3 35 17 -16 41 -104 168 -138 199 -42 38
-45 44 -23 44 30 0 90 38 108 68 22 38 22 104 0 149 -28 61 -70 73 -261 73
l-162 0 2 -272z m344 179 c28 -32 30 -56 9 -96 -20 -39 -61 -51 -176 -51 l-99
0 0 91 0 91 121 -4 c118 -3 121 -4 145 -31z"/>
<path d="M47900 3825 l0 -275 35 0 34 0 3 113 3 112 122 5 c102 4 126 8 149
26 71 53 91 128 56 208 -33 73 -70 86 -254 86 l-148 0 0 -275z m314 186 c37
-35 37 -107 0 -142 -23 -21 -36 -24 -135 -27 l-109 -4 0 94 c0 52 3 98 8 102
4 4 53 6 109 4 91 -3 104 -5 127 -27z"/>
<path d="M48412 3828 l3 -273 203 -3 202 -2 0 35 0 35 -170 0 -171 0 3 93 3
92 153 3 152 3 0 29 0 30 -155 0 -156 0 3 83 3 82 163 3 162 2 0 30 0 30 -200
0 -200 0 2 -272z"/>
<path d="M48932 3828 l3 -273 35 0 35 0 3 273 2 272 -40 0 -40 0 2 -272z"/>
<path d="M49182 3836 c-56 -146 -102 -270 -102 -276 0 -7 15 -10 37 -8 32 3
37 7 50 43 7 22 20 59 29 83 l16 43 115 -3 115 -3 32 -80 c30 -79 32 -80 69
-83 25 -2 37 1 37 10 -1 7 -49 130 -108 273 l-107 260 -41 3 -40 3 -102 -265z
m193 57 l43 -113 -92 0 -93 0 46 126 c25 70 47 120 49 113 3 -8 24 -65 47
-126z"/>
<path d="M26390 3934 c-337 -43 -627 -181 -856 -409 -194 -193 -317 -413 -380
-683 -37 -158 -44 -410 -16 -577 100 -585 527 -1028 1105 -1146 131 -26 350
-35 487 -20 553 63 1008 420 1188 932 62 175 77 273 77 489 -1 163 -5 212 -23
297 -123 564 -532 974 -1094 1094 -91 20 -399 34 -488 23z m360 -459 c267 -54
505 -240 629 -491 80 -163 106 -280 105 -479 -1 -214 -41 -363 -143 -533 -219
-367 -665 -528 -1074 -388 -306 105 -526 351 -609 683 -33 130 -33 380 1 507
74 285 247 508 486 629 72 36 208 76 295 86 88 11 218 5 310 -14z"/>
<path d="M31680 3934 c-334 -43 -626 -181 -850 -404 -129 -127 -187 -208 -270
-375 -117 -236 -157 -425 -147 -700 9 -241 42 -376 147 -590 191 -394 559
-670 1000 -752 130 -24 438 -24 566 0 434 80 810 358 1007 744 116 227 152
384 152 663 0 217 -11 288 -70 467 -157 473 -547 818 -1043 923 -72 16 -144
22 -277 25 -99 2 -196 1 -215 -1z m361 -459 c282 -57 545 -276 655 -546 101
-245 110 -528 25 -771 -32 -92 -96 -207 -161 -290 -234 -293 -639 -408 -1003
-284 -369 126 -610 459 -634 873 -26 467 237 872 647 997 149 46 313 53 471
21z"/>
<path d="M23825 3880 c-224 -20 -423 -101 -590 -240 -74 -62 -251 -261 -288
-327 -6 -9 64 -67 322 -267 10 -8 21 -1 44 29 66 85 215 229 285 276 261 174
615 106 731 -141 21 -46 26 -73 29 -166 4 -122 -8 -185 -55 -279 -80 -159
-205 -280 -881 -850 l-521 -440 0 -192 -1 -193 995 0 995 0 0 210 0 210 -650
0 c-357 0 -650 3 -649 8 0 4 174 151 386 327 558 464 696 602 794 796 74 149
105 327 88 513 -30 321 -231 568 -548 677 -124 43 -326 63 -486 49z"/>
<path d="M29115 3880 c-283 -25 -519 -144 -712 -360 -50 -55 -173 -208 -173
-215 0 -2 161 -129 328 -259 11 -8 23 1 50 34 77 96 210 224 280 271 254 170
608 109 722 -124 75 -154 56 -341 -51 -525 -63 -106 -293 -320 -839 -783
l-525 -444 -3 -193 -2 -192 995 0 995 0 0 210 0 210 -652 2 -653 3 340 284
c653 546 751 645 854 862 49 102 68 173 81 299 48 458 -228 823 -684 904 -109
20 -242 26 -351 16z"/>
<path d="M4909 3593 c-13 -16 -12 -17 4 -4 9 7 17 15 17 17 0 8 -8 3 -21 -13z"/>
<path d="M10631 3017 c2 -2 87 -41 189 -86 102 -45 275 -126 384 -181 109 -55
200 -100 203 -100 45 0 -304 181 -594 308 -77 34 -151 62 -164 62 -12 0 -20
-2 -18 -3z"/>
<path d="M10820 2999 c25 -13 155 -77 290 -143 290 -143 269 -134 250 -111
-20 25 -506 263 -550 270 -35 6 -35 6 10 -16z"/>
<path d="M12352 3010 c-13 -6 -28 -8 -33 -4 -24 14 -5 -18 21 -38 17 -12 30
-26 30 -31 0 -5 -19 8 -42 27 -23 20 -45 36 -50 36 -18 0 -6 -17 37 -50 24
-19 44 -39 45 -43 0 -5 -18 6 -41 25 -62 51 -79 61 -86 55 -3 -3 10 -19 28
-34 48 -40 108 -98 84 -82 -11 7 -46 35 -78 61 -33 27 -63 45 -69 42 -5 -3 -6
-9 -1 -13 4 -4 43 -36 86 -70 69 -56 85 -71 73 -71 -2 0 -43 32 -91 70 -73 59
-115 83 -115 67 0 -2 45 -39 100 -82 55 -42 100 -82 100 -87 0 -9 -48 27 -177
130 -23 18 -44 29 -47 24 -4 -7 155 -142 218 -184 6 -4 8 -9 5 -12 -3 -3 -61
37 -128 89 -68 52 -128 92 -133 89 -12 -8 -20 -1 130 -113 67 -51 122 -97 122
-102 0 -5 -61 36 -135 92 -74 55 -139 99 -146 97 -8 -3 204 -173 275 -220 6
-4 8 -10 4 -13 -3 -3 -73 44 -154 104 -82 61 -153 111 -157 111 -21 0 8 -25
148 -129 83 -61 152 -117 154 -123 5 -14 6 -15 -172 113 -83 60 -158 109 -167
108 -10 0 -7 -5 10 -17 54 -38 306 -225 320 -238 44 -42 -25 0 -180 110 -96
69 -178 122 -183 119 -11 -7 -23 3 180 -142 95 -67 175 -126 178 -131 3 -5 22
2 41 15 97 66 204 32 267 -84 62 -113 82 -242 81 -521 -2 -438 -80 -637 -250
-633 -66 2 -106 23 -144 74 -66 91 -98 237 -107 487 -3 89 -10 162 -14 162 -4
0 -70 37 -146 83 -168 101 -318 187 -327 187 -23 0 7 -24 87 -70 173 -98 377
-222 377 -229 0 -22 -24 -11 -158 68 -212 126 -301 173 -314 169 -7 -3 8 -16
32 -30 25 -14 117 -67 205 -118 88 -52 172 -100 187 -109 16 -9 28 -22 28 -28
0 -18 -10 -16 -50 9 -54 33 -401 228 -406 228 -2 0 -4 -4 -4 -9 0 -6 46 -36
103 -67 278 -155 368 -214 327 -214 -6 0 -76 37 -158 83 -244 138 -282 157
-282 144 0 -6 26 -25 58 -42 61 -32 364 -204 371 -211 3 -2 0 -8 -5 -13 -5 -6
-56 17 -129 58 -233 130 -295 161 -295 149 0 -7 28 -28 63 -45 59 -31 328
-182 336 -188 1 -2 0 -9 -4 -15 -5 -7 -24 -1 -60 19 -157 89 -338 181 -344
176 -8 -9 4 -17 204 -125 96 -52 175 -101 175 -107 0 -7 -3 -13 -6 -13 -6 0
-90 44 -302 157 -68 36 -75 38 -70 22 2 -6 71 -47 155 -92 172 -94 201 -112
191 -122 -4 -4 -82 32 -174 79 -92 48 -170 84 -173 80 -9 -9 16 -25 159 -100
87 -46 127 -71 120 -78 -7 -7 -51 10 -135 52 -69 34 -130 62 -136 62 -24 0 8
-23 103 -71 73 -38 96 -54 85 -60 -10 -6 -42 5 -96 31 -90 44 -91 44 -91 30 0
-5 30 -25 66 -43 48 -24 62 -36 50 -40 -9 -4 -16 -2 -16 4 0 6 -7 8 -16 5 -8
-3 -28 1 -44 9 -35 18 -44 19 -34 3 4 -6 8 -25 9 -42 10 -131 61 -290 135
-420 142 -248 379 -372 670 -352 166 11 301 65 407 161 213 193 318 517 308
955 -13 524 -221 882 -570 976 -71 19 -270 28 -303 14z m18 -32 c0 -6 -6 -5
-15 2 -8 7 -15 14 -15 16 0 2 7 1 15 -2 8 -4 15 -11 15 -16z"/>
<path d="M15790 2994 c-139 -41 -232 -94 -319 -182 -42 -43 -91 -103 -109
-134 -44 -75 -79 -171 -63 -176 6 -2 11 -12 11 -21 0 -10 11 -23 25 -29 32
-15 38 -15 29 0 -5 7 -3 8 5 3 21 -13 -3 -26 -60 -33 -29 -4 -54 -13 -56 -19
-5 -13 6 -12 122 1 26 3 34 -2 54 -31 12 -19 20 -37 18 -40 -3 -2 -53 -10
-111 -16 -58 -6 -106 -14 -106 -19 0 -10 23 -10 138 2 87 9 95 9 122 -11 15
-12 30 -29 33 -39 6 -22 -18 -26 -186 -36 -65 -4 -120 -12 -124 -17 -4 -7 34
-8 113 -2 65 4 154 9 196 11 l76 3 20 -33 c18 -31 19 -35 4 -41 -9 -3 -102
-11 -206 -17 -105 -5 -198 -13 -206 -16 -37 -13 38 -14 234 -2 l210 12 23 -28
c13 -16 23 -32 23 -35 0 -15 -47 -21 -270 -32 -144 -7 -222 -14 -201 -18 30
-6 471 8 478 15 2 2 6 46 8 97 6 112 29 243 56 313 l19 51 -23 17 c-12 9 -39
25 -59 34 -21 9 -38 20 -38 24 0 6 179 35 290 46 25 3 168 18 319 35 151 16
284 26 295 23 19 -6 19 -6 -2 27 -24 39 -47 52 -38 22 7 -22 24 -19 -399 -69
-115 -13 -277 -33 -358 -45 l-148 -20 -49 28 c-28 15 -50 31 -50 34 0 18 287
61 690 104 282 30 297 32 283 46 -9 9 -351 -28 -658 -70 -38 -6 -71 -9 -72 -7
-5 5 542 154 590 161 48 6 48 7 31 26 -30 34 -175 97 -256 114 -117 23 -246
19 -348 -11z"/>
<path d="M14048 2937 c-6 -86 -40 -169 -108 -263 -36 -49 -49 -61 -58 -52 -7
7 -12 15 -12 19 0 4 24 46 54 93 50 80 88 170 99 239 9 55 -16 20 -37 -53 -42
-143 -156 -321 -156 -244 0 8 18 47 41 87 42 74 61 114 84 180 12 30 12 37 1
37 -7 0 -18 -19 -25 -42 -13 -43 -80 -179 -105 -214 -13 -17 -17 -14 -63 32
-28 28 -31 33 -8 11 l41 -38 26 58 c14 32 37 84 52 116 14 31 21 57 16 57 -6
0 -31 -44 -56 -97 -30 -66 -48 -93 -55 -86 -7 7 -2 31 15 76 28 75 16 92 -14
21 -20 -45 -43 -54 -32 -11 5 22 5 22 -17 3 -20 -18 -20 -20 -4 -40 l18 -21
-23 19 -23 20 -48 -52 c-97 -104 -157 -260 -168 -434 l-6 -98 250 0 250 0 6
83 c3 45 12 98 21 118 8 20 13 39 9 42 -3 4 14 28 37 54 63 71 102 155 108
233 l5 65 13 -35 c18 -51 17 -113 -5 -170 -11 -27 -15 -50 -10 -50 15 0 40 59
48 118 l7 57 13 -45 c7 -24 10 -61 7 -82 -4 -23 -2 -38 4 -38 5 0 13 19 17 43
l7 42 11 -40 c7 -22 17 -40 23 -40 6 0 17 -6 24 -12 14 -15 32 -17 23 -3 -8
13 -17 13 120 -10 64 -11 148 -20 187 -20 l69 0 -3 -32 -3 -33 -77 2 c-42 2
-107 9 -143 16 -36 8 -65 10 -65 5 0 -13 39 -25 126 -38 109 -15 117 -20 64
-36 -52 -17 -86 -20 -115 -11 -19 6 -20 2 -23 -90 -2 -79 -7 -103 -25 -134
-25 -43 -109 -146 -327 -404 -145 -172 -266 -315 -579 -687 l-141 -168 780 0
780 0 0 215 0 215 -311 0 -311 0 51 58 c28 31 118 131 200 222 132 144 150
169 151 199 0 30 2 33 13 18 11 -16 13 -16 24 3 11 17 10 20 -10 25 -13 4 -28
19 -34 36 -13 33 -13 32 19 20 47 -17 78 -21 78 -11 0 12 0 12 -83 35 -46 12
-60 21 -68 42 -5 14 -8 27 -7 28 2 2 37 -6 78 -16 41 -11 89 -18 105 -16 37 4
24 9 -79 32 -135 30 -141 32 -153 66 -9 24 -9 30 0 26 59 -23 285 -58 293 -46
5 9 6 9 -141 34 -150 26 -190 40 -204 71 -6 15 -10 28 -9 29 2 1 53 -8 113
-20 131 -26 275 -41 275 -27 0 5 -35 13 -77 17 -92 8 -217 30 -290 51 -42 11
-56 21 -69 46 -16 31 -16 31 8 24 107 -30 448 -67 448 -49 0 5 -62 15 -138 21
-76 7 -176 20 -222 29 l-85 17 59 17 c49 15 84 17 222 12 121 -5 164 -3 164 5
0 9 -37 12 -122 12 -69 0 -116 4 -108 9 8 4 64 21 123 37 l108 29 -6 45 c-16
107 -77 221 -161 301 -51 49 -203 135 -264 150 -82 20 -96 21 -80 9 22 -17
-248 -5 -325 14 -95 24 -92 26 -97 -57z m46 -49 c0 -62 -4 -83 -31 -141 -30
-63 -110 -177 -124 -177 -4 0 -12 6 -18 14 -10 12 -3 27 33 76 74 100 115 203
116 290 0 26 3 31 12 22 6 -6 11 -43 12 -84z m301 63 c187 -6 203 -8 235 -29
29 -19 31 -22 10 -17 -24 7 -24 6 -6 -7 17 -13 11 -15 -65 -21 -84 -7 -260 4
-353 22 -33 6 -56 17 -68 33 -26 33 -22 41 15 33 17 -4 122 -10 232 -14z
m-257 -150 c-4 -81 -39 -159 -103 -228 -41 -46 -44 -47 -61 -31 -17 17 -17 19
8 45 71 75 116 170 133 278 11 64 28 16 23 -64z m195 58 c51 -6 154 -9 232 -6
112 4 134 2 107 -7 -29 -10 -30 -12 -14 -23 10 -6 19 -18 19 -27 0 -14 -15
-16 -101 -16 -109 0 -254 14 -321 31 -30 8 -47 19 -60 41 l-18 31 32 -6 c18
-4 74 -12 124 -18z m32 -90 c33 -5 120 -9 193 -9 80 0 132 -4 133 -10 9 -69 7
-70 -98 -64 -227 13 -313 32 -344 76 l-22 31 39 -8 c21 -4 66 -11 99 -16z m95
-94 c58 -8 129 -15 158 -15 28 0 52 -4 52 -10 0 -5 -6 -10 -12 -10 -7 0 0 -12
17 -27 l30 -26 -95 7 c-98 7 -189 20 -250 36 -24 6 -42 20 -54 41 l-19 32 34
-7 c19 -4 81 -13 139 -21z m70 -464 c0 -39 -30 -98 -55 -108 -9 -3 -24 2 -35
12 -19 17 -19 18 7 49 32 38 53 86 53 123 l1 28 14 -34 c8 -18 15 -50 15 -70z
m47 -89 c-3 -26 -13 -53 -26 -65 l-21 -21 -22 21 c-20 20 -20 24 -6 40 24 28
48 79 48 105 1 22 2 21 17 -6 10 -19 14 -44 10 -74z m53 -60 c0 -28 -12 -64
-26 -81 -2 -3 -15 6 -29 19 -24 23 -24 23 -5 47 11 14 22 41 26 60 l7 36 13
-24 c7 -13 13 -39 14 -57z m49 -82 c1 -54 -11 -65 -38 -36 -22 23 -22 26 -7
48 9 12 16 34 16 48 l1 25 14 -25 c8 -14 14 -41 14 -60z m51 -59 c11 -40 0
-53 -27 -32 -15 12 -18 22 -12 32 5 8 9 25 9 39 1 22 2 23 11 7 6 -10 14 -31
19 -46z"/>
<path d="M10550 2983 c19 -8 116 -49 215 -91 99 -42 292 -132 428 -199 137
-68 247 -117 245 -110 -10 33 -841 418 -898 416 -22 -1 -21 -2 10 -16z"/>
<path d="M10980 2987 c3 -2 66 -35 140 -71 74 -37 124 -57 110 -45 -36 32
-277 144 -250 116z"/>
<path d="M10420 2973 c0 -5 83 -41 184 -81 211 -83 483 -205 705 -316 84 -43
151 -71 149 -64 -9 28 -497 259 -842 399 -164 67 -196 77 -196 62z"/>
<path d="M10336 2942 c-3 -4 63 -34 147 -66 227 -87 536 -221 770 -334 114
-55 207 -96 207 -91 0 23 -541 275 -885 411 -221 88 -232 92 -239 80z"/>
<path d="M10266 2902 c-3 -5 76 -40 177 -77 249 -92 591 -239 819 -351 104
-52 194 -94 199 -94 79 0 -571 300 -986 455 -99 37 -185 70 -191 72 -7 2 -15
0 -18 -5z"/>
<path d="M10200 2853 c0 -5 62 -30 138 -56 305 -108 742 -292 1000 -421 61
-31 117 -56 122 -56 31 0 -17 30 -149 93 -308 147 -643 288 -934 392 -151 55
-177 62 -177 48z"/>
<path d="M10147 2804 c-4 -4 69 -33 161 -64 92 -32 209 -74 261 -94 51 -20
105 -36 120 -35 32 0 -105 55 -347 139 -182 63 -185 64 -195 54z"/>
<path d="M11931 2784 c0 -5 74 -61 165 -124 91 -63 173 -121 184 -128 10 -7
21 -9 24 -4 3 5 -72 63 -167 130 -172 120 -208 142 -206 126z"/>
<path d="M10100 2751 c0 -11 478 -174 493 -168 17 6 -42 30 -272 108 -212 72
-221 74 -221 60z"/>
<path d="M11901 2753 c0 -7 350 -253 370 -261 5 -2 9 1 9 7 0 5 -42 39 -92 74
-267 185 -289 199 -287 180z"/>
<path d="M11876 2722 c-3 -5 74 -62 170 -128 96 -65 184 -125 194 -133 17 -11
20 -11 20 0 0 17 -377 273 -384 261z"/>
<path d="M10031 2638 c-47 -104 -81 -291 -64 -355 5 -24 43 -33 43 -10 0 8 4
7 10 -3 9 -13 11 -13 20 0 6 10 10 11 10 3 0 -10 48 -13 205 -13 l205 0 0 64
0 64 -50 32 c-27 18 -50 34 -50 36 0 2 23 -5 51 -17 29 -11 54 -17 57 -14 10
10 -12 22 -83 45 -87 28 -134 52 -159 79 -11 12 -17 21 -15 21 3 0 65 -20 139
-45 79 -26 138 -41 143 -36 5 5 -63 33 -165 67 -133 44 -183 65 -212 90 l-38
33 78 -24 c44 -13 144 -47 224 -74 153 -52 221 -55 78 -3 -115 41 -370 122
-386 122 -7 0 -26 -28 -41 -62z m-44 -320 c-3 -8 -6 -5 -6 6 -1 11 2 17 5 13
3 -3 4 -12 1 -19z m50 0 c-3 -8 -6 -5 -6 6 -1 11 2 17 5 13 3 -3 4 -12 1 -19z"/>
<path d="M11850 2682 c0 -7 364 -258 393 -270 4 -2 7 1 7 7 0 6 -80 64 -177
129 -195 130 -223 147 -223 134z"/>
<path d="M11830 2641 c0 -8 88 -68 377 -258 12 -8 24 -10 27 -5 3 6 -69 59
-162 119 -217 142 -242 157 -242 144z"/>
<path d="M43060 2375 l0 -275 35 0 35 0 0 125 0 125 130 0 130 0 0 30 0 30
-130 0 -130 0 0 85 0 85 150 0 150 0 0 35 0 35 -185 0 -185 0 0 -275z"/>
<path d="M44620 2556 c0 -53 -3 -96 -6 -96 -3 0 -17 9 -31 20 -33 26 -106 27
-153 2 -128 -68 -112 -330 23 -381 50 -19 103 -13 136 15 30 25 31 25 31 5 0
-17 6 -21 35 -21 l35 0 -2 273 -3 272 -32 3 -33 3 0 -95z m-59 -122 c40 -20
59 -68 59 -146 0 -78 -23 -121 -74 -138 -43 -14 -78 0 -110 43 -28 38 -30 169
-4 207 35 49 79 60 129 34z"/>
<path d="M45820 2375 l0 -275 205 0 205 0 0 30 0 30 -170 0 -170 0 0 95 0 95
155 0 155 0 0 30 0 29 -152 3 -153 3 -3 83 -3 82 166 0 166 0 -3 33 -3 32
-197 3 -198 2 0 -275z"/>
<path d="M11810 2597 c0 -8 6 -17 13 -20 8 -3 98 -60 202 -126 103 -67 190
-119 194 -116 9 9 -22 30 -386 263 -20 13 -23 12 -23 -1z"/>
<path d="M16520 2568 c-382 -46 -403 -49 -389 -62 2 -2 38 0 79 5 41 4 143 15
225 24 179 19 207 24 199 36 -6 10 -9 10 -114 -3z"/>
<path d="M11791 2552 c2 -6 78 -57 169 -114 91 -57 183 -116 204 -130 22 -15
43 -25 48 -21 10 6 -77 66 -271 187 -132 83 -156 95 -150 78z"/>
<path d="M10930 2507 c8 -8 62 -35 120 -60 58 -25 172 -78 254 -117 82 -39
151 -68 154 -65 3 3 3 7 1 9 -11 10 -251 126 -377 182 -144 64 -179 76 -152
51z"/>
<path d="M11772 2509 c3 -8 38 -34 79 -58 41 -25 137 -85 213 -133 76 -49 141
-86 144 -83 10 10 -19 30 -208 147 -222 138 -234 145 -228 127z"/>
<path d="M44036 2475 c-34 -23 -36 -23 -36 -5 0 16 -7 20 -30 20 l-30 0 0
-195 0 -195 35 0 35 0 0 141 0 141 29 29 c37 36 99 41 131 9 18 -18 20 -33 20
-170 l0 -150 35 0 35 0 0 155 c0 173 -8 203 -60 230 -46 24 -121 19 -164 -10z"/>
<path d="M44855 2477 c-58 -32 -85 -91 -85 -183 0 -55 5 -81 23 -114 44 -84
155 -114 247 -67 56 28 77 58 91 130 22 108 -20 211 -98 243 -50 22 -131 17
-178 -9z m156 -50 c43 -29 63 -83 56 -154 -10 -99 -84 -154 -159 -119 -49 24
-69 64 -69 140 0 78 20 122 64 141 45 20 69 18 108 -8z"/>
<path d="M45263 2485 c-33 -14 -63 -59 -63 -95 0 -62 41 -93 163 -125 76 -20
92 -34 83 -71 -9 -32 -65 -58 -110 -48 -34 7 -76 40 -76 61 0 8 -13 13 -35 13
-42 0 -44 -13 -12 -61 30 -45 80 -69 142 -69 73 1 132 30 152 77 32 79 -11
138 -119 163 -90 21 -118 36 -118 63 0 31 18 46 63 54 40 6 93 -17 101 -45 8
-24 66 -18 66 7 0 27 -30 62 -66 77 -42 18 -129 17 -171 -1z"/>
<path d="M46835 2474 c-24 -26 -25 -26 -25 -5 0 17 -6 21 -30 21 l-30 0 0
-195 0 -195 30 0 30 0 0 108 c0 185 18 227 91 220 34 -3 40 0 50 25 15 35 2
47 -54 47 -28 0 -44 -7 -62 -26z"/>
<path d="M47066 2478 c-58 -34 -86 -93 -86 -183 0 -94 27 -149 90 -182 83 -44
198 -18 247 55 42 63 42 191 0 253 -38 56 -71 73 -145 77 -55 2 -74 -1 -106
-20z m155 -51 c43 -29 63 -83 56 -154 -10 -99 -84 -154 -159 -119 -50 24 -68
62 -68 141 0 77 18 117 64 139 43 21 68 20 107 -7z"/>
<path d="M47521 2474 c-30 -25 -31 -25 -31 -5 0 17 -6 21 -30 21 l-30 0 0
-270 0 -270 30 0 30 0 0 90 c0 50 3 90 7 90 3 0 14 -7 24 -16 10 -9 35 -18 57
-21 117 -16 200 84 190 227 -8 114 -68 180 -164 180 -42 0 -59 -5 -83 -26z
m132 -44 c35 -28 50 -80 45 -156 -3 -53 -9 -69 -32 -93 -37 -38 -68 -46 -111
-26 -49 24 -68 71 -63 157 4 66 6 72 41 104 43 40 82 44 120 14z"/>
<path d="M47935 2486 c-140 -63 -139 -324 2 -382 80 -34 194 -5 233 59 27 44
25 54 -14 59 -28 3 -35 0 -45 -23 -6 -15 -28 -35 -49 -45 -32 -15 -41 -15 -76
-3 -45 16 -73 49 -82 97 l-6 32 151 0 152 0 -7 48 c-8 58 -40 118 -77 146 -34
25 -138 33 -182 12z m158 -76 c15 -17 27 -42 27 -55 l0 -26 -107 3 c-102 3
-108 4 -105 23 4 28 34 68 63 83 37 19 90 7 122 -28z"/>
<path d="M48754 2486 c-42 -18 -64 -52 -64 -97 0 -57 30 -85 113 -110 107 -31
126 -39 132 -60 25 -79 -149 -106 -179 -28 -8 24 -16 29 -43 29 -40 0 -43 -19
-13 -68 25 -41 73 -62 142 -62 93 0 160 52 160 124 0 63 -21 82 -132 117 -100
30 -127 50 -114 82 6 18 47 37 79 37 36 0 71 -19 83 -45 8 -17 16 -21 41 -17
17 2 31 8 31 14 0 26 -35 71 -65 84 -43 18 -130 18 -171 0z"/>
<path d="M43511 2348 c0 -165 10 -203 59 -236 45 -30 125 -27 170 7 30 21 30
21 30 1 0 -16 7 -20 30 -20 l30 0 0 195 0 195 -30 0 -30 0 0 -114 c0 -139 -5
-169 -38 -201 -36 -36 -102 -35 -131 1 -19 24 -21 40 -21 170 l0 144 -35 0
-35 0 1 -142z"/>
<path d="M46320 2340 c0 -105 4 -161 14 -184 30 -71 156 -89 216 -31 l30 29 0
-27 c0 -23 4 -27 30 -27 l30 0 0 195 0 195 -35 0 -35 0 0 -141 0 -141 -29 -29
c-37 -36 -99 -41 -131 -9 -18 18 -20 33 -20 170 l0 150 -35 0 -35 0 0 -150z"/>
<path d="M48280 2335 c0 -177 8 -207 65 -231 64 -26 122 -17 173 29 l22 20 0
-26 c0 -23 4 -27 30 -27 l30 0 0 195 0 195 -35 0 -35 0 0 -130 c0 -138 -10
-179 -49 -200 -31 -16 -87 -12 -112 9 -23 18 -24 26 -27 170 l-4 151 -29 0
-29 0 0 -155z"/>
<path d="M11750 2462 c0 -4 15 -16 33 -27 41 -24 354 -216 390 -239 21 -14 27
-15 27 -5 0 8 -33 34 -73 58 -381 234 -377 231 -377 213z"/>
<path d="M16505 2455 c-60 -8 -158 -19 -217 -26 -60 -7 -108 -16 -108 -21 0
-11 13 -11 232 12 232 24 258 28 258 40 0 12 -24 11 -165 -5z"/>
<path d="M10960 2432 c0 -6 17 -17 38 -25 20 -8 126 -56 235 -107 109 -50 204
-89 210 -87 15 5 -111 69 -298 152 -162 72 -185 80 -185 67z"/>
<path d="M11740 2411 c0 -5 37 -31 83 -57 45 -26 147 -87 226 -136 79 -49 146
-86 149 -83 4 4 -4 15 -18 25 -32 24 -425 260 -433 260 -4 0 -7 -4 -7 -9z"/>
<path d="M10970 2362 c0 -5 30 -22 68 -37 37 -16 139 -62 226 -102 87 -40 161
-73 162 -73 2 0 4 4 4 10 0 10 -113 66 -318 156 -125 55 -142 60 -142 46z"/>
<path d="M11730 2362 c0 -6 44 -36 98 -68 53 -31 159 -94 235 -140 75 -46 137
-78 137 -71 0 7 -80 60 -177 119 -239 142 -293 172 -293 160z"/>
<path d="M16515 2345 c-60 -8 -156 -19 -212 -26 -57 -6 -103 -16 -103 -20 0
-12 -10 -12 218 11 248 25 282 30 282 41 0 11 -48 10 -185 -6z"/>
<path d="M10960 2302 c0 -5 46 -28 103 -52 56 -24 153 -68 216 -97 117 -54
131 -59 131 -44 0 12 -414 201 -441 201 -5 0 -9 -4 -9 -8z"/>
<path d="M10942 2250 c5 -15 428 -204 436 -195 11 11 -16 24 -213 110 -247
108 -229 101 -223 85z"/>
<path d="M16210 2232 c0 -9 5 -62 10 -117 7 -73 14 -103 26 -112 16 -12 16
-13 1 -19 -31 -12 -17 -26 23 -23 30 3 54 -5 101 -31 l61 -35 -98 -12 c-55 -6
-103 -12 -108 -12 -6 -1 -6 -5 0 -11 7 -7 39 -7 100 0 128 14 123 15 188 -45
l21 -20 -154 -15 c-112 -11 -156 -19 -159 -29 -4 -11 5 -12 39 -8 24 4 99 12
167 18 120 12 124 11 173 -11 27 -13 49 -29 49 -36 0 -17 -23 -20 -247 -40
-133 -12 -193 -21 -193 -30 0 -8 14 -10 43 -7 259 27 434 39 445 30 24 -19 28
-4 40 158 9 118 7 128 -33 149 -39 22 -37 36 6 36 16 0 29 5 29 11 0 8 -19 10
-60 6 -56 -5 -66 -2 -127 31 l-66 37 119 12 c65 7 122 17 128 23 13 13 -11 13
-160 -2 l-121 -12 -66 34 c-36 19 -65 36 -63 37 1 1 89 11 196 23 106 11 196
22 198 25 17 16 -30 15 -223 -5 l-215 -22 -35 21 c-32 18 -35 19 -35 3z"/>
<path d="M10910 2193 c0 -5 21 -17 48 -27 26 -11 123 -52 216 -93 97 -42 173
-70 178 -65 8 8 -403 192 -429 192 -7 0 -13 -3 -13 -7z"/>
<path d="M20650 2160 c-246 -44 -502 -142 -637 -244 -133 -101 -216 -242 -216
-370 0 -190 247 -315 728 -371 71 -8 163 -15 202 -15 l73 0 0 510 0 510 -22
-1 c-13 0 -70 -9 -128 -19z"/>
<path d="M10880 2141 c0 -5 39 -25 88 -44 48 -19 145 -60 215 -91 142 -62 137
-60 137 -46 0 11 -43 32 -269 126 -158 66 -171 70 -171 55z"/>
<path d="M10820 2066 c-98 -113 -200 -245 -200 -255 0 -7 -4 -10 -9 -7 -5 3
-16 -6 -26 -20 -20 -31 -44 -61 -68 -84 -11 -10 -15 -24 -11 -36 4 -13 3 -15
-3 -6 -7 9 -22 -2 -59 -44 -27 -32 -55 -63 -61 -70 -7 -7 -13 -20 -13 -30 0
-10 -3 -15 -6 -11 -6 6 -29 -16 -79 -78 -16 -20 -42 -49 -56 -64 -44 -45 -329
-386 -329 -394 0 -9 36 -3 42 7 6 8 8 8 8 0 0 -6 22 -12 49 -13 44 -1 50 1 54
21 l4 23 2 -22 c1 -27 18 -30 24 -5 4 16 5 16 6 0 1 -20 21 -25 21 -5 0 8 3 8
8 2 4 -6 21 -12 39 -13 26 -2 32 2 36 20 l4 23 2 -22 c0 -13 5 -23 10 -23 5 0
12 10 14 23 l4 22 2 -22 c1 -27 18 -30 24 -6 4 17 5 17 6 1 1 -20 21 -25 21
-5 0 8 3 8 8 2 11 -16 72 -18 72 -3 0 9 3 8 10 -2 9 -13 11 -13 20 0 5 8 10
10 10 4 0 -8 31 -12 89 -13 86 -2 90 -1 94 21 l4 23 2 -22 c1 -27 18 -30 24
-5 4 13 5 14 6 1 1 -13 17 -16 88 -17 60 -2 89 2 95 10 6 10 8 10 8 1 0 -20
38 -15 43 4 4 15 5 15 6 2 1 -13 15 -17 75 -18 64 -1 75 1 79 16 4 17 5 17 6
1 1 -21 17 -24 24 -5 4 10 6 9 6 0 1 -9 20 -13 61 -13 41 0 60 4 60 13 0 8 2
9 8 1 10 -17 163 -18 174 -2 6 10 8 10 8 1 0 -9 16 -13 44 -13 l45 0 1 217 0
218 -293 -1 c-162 -1 -299 1 -305 5 -12 7 28 54 238 277 160 170 146 151 126
172 -16 19 -16 19 9 15 50 -10 23 13 -54 45 -65 27 -219 122 -199 122 3 0 73
-29 155 -64 131 -56 183 -71 156 -46 -4 5 -95 45 -201 89 -106 44 -200 85
-210 90 -13 7 -24 0 -52 -33z m337 -718 c-3 -8 -6 -5 -6 6 -1 11 2 17 5 13 3
-3 4 -12 1 -19z m-100 -20 c-3 -8 -6 -5 -6 6 -1 11 2 17 5 13 3 -3 4 -12 1
-19z m80 -20 c-3 -8 -6 -5 -6 6 -1 11 2 17 5 13 3 -3 4 -12 1 -19z m-150 -20
c-3 -8 -6 -5 -6 6 -1 11 2 17 5 13 3 -3 4 -12 1 -19z m180 0 c-3 -8 -6 -5 -6
6 -1 11 2 17 5 13 3 -3 4 -12 1 -19z m-280 -30 c-3 -7 -5 -2 -5 12 0 14 2 19
5 13 2 -7 2 -19 0 -25z m180 10 c-3 -8 -6 -5 -6 6 -1 11 2 17 5 13 3 -3 4 -12
1 -19z m130 0 c-3 -8 -6 -5 -6 6 -1 11 2 17 5 13 3 -3 4 -12 1 -19z m-280 -20
c-3 -8 -6 -5 -6 6 -1 11 2 17 5 13 3 -3 4 -12 1 -19z m50 0 c-3 -8 -6 -5 -6 6
-1 11 2 17 5 13 3 -3 4 -12 1 -19z m130 0 c-3 -8 -6 -5 -6 6 -1 11 2 17 5 13
3 -3 4 -12 1 -19z m180 -10 c-3 -7 -5 -2 -5 12 0 14 2 19 5 13 2 -7 2 -19 0
-25z m-490 0 c-3 -8 -6 -5 -6 6 -1 11 2 17 5 13 3 -3 4 -12 1 -19z m210 -10
c-3 -8 -6 -5 -6 6 -1 11 2 17 5 13 3 -3 4 -12 1 -19z m-130 -10 c-3 -8 -6 -5
-6 6 -1 11 2 17 5 13 3 -3 4 -12 1 -19z m-210 -10 c-3 -8 -6 -5 -6 6 -1 11 2
17 5 13 3 -3 4 -12 1 -19z m370 0 c-3 -8 -6 -5 -6 6 -1 11 2 17 5 13 3 -3 4
-12 1 -19z m180 0 c-3 -8 -6 -5 -6 6 -1 11 2 17 5 13 3 -3 4 -12 1 -19z m-470
-10 c-3 -8 -6 -5 -6 6 -1 11 2 17 5 13 3 -3 4 -12 1 -19z m160 0 c-3 -8 -6 -5
-6 6 -1 11 2 17 5 13 3 -3 4 -12 1 -19z m-130 -20 c-3 -7 -5 -2 -5 12 0 14 2
19 5 13 2 -7 2 -19 0 -25z m160 10 c-3 -8 -6 -5 -6 6 -1 11 2 17 5 13 3 -3 4
-12 1 -19z m180 0 c-3 -8 -6 -5 -6 6 -1 11 2 17 5 13 3 -3 4 -12 1 -19z m130
0 c-3 -8 -6 -5 -6 6 -1 11 2 17 5 13 3 -3 4 -12 1 -19z m-440 -20 c-3 -7 -5
-2 -5 12 0 14 2 19 5 13 2 -7 2 -19 0 -25z m340 0 c-3 -7 -5 -2 -5 12 0 14 2
19 5 13 2 -7 2 -19 0 -25z m-130 0 c-3 -8 -6 -5 -6 6 -1 11 2 17 5 13 3 -3 4
-12 1 -19z m310 0 c-3 -8 -6 -5 -6 6 -1 11 2 17 5 13 3 -3 4 -12 1 -19z m-680
-10 c-3 -8 -6 -5 -6 6 -1 11 2 17 5 13 3 -3 4 -12 1 -19z m190 0 c-3 -8 -6 -5
-6 6 -1 11 2 17 5 13 3 -3 4 -12 1 -19z m-380 -10 c-3 -8 -6 -5 -6 6 -1 11 2
17 5 13 3 -3 4 -12 1 -19z m220 -10 c-3 -7 -5 -2 -5 12 0 14 2 19 5 13 2 -7 2
-19 0 -25z m370 10 c-3 -8 -6 -5 -6 6 -1 11 2 17 5 13 3 -3 4 -12 1 -19z m310
0 c-3 -8 -6 -5 -6 6 -1 11 2 17 5 13 3 -3 4 -12 1 -19z m-950 -10 c-3 -8 -6
-5 -6 6 -1 11 2 17 5 13 3 -3 4 -12 1 -19z m80 0 c-3 -8 -6 -5 -6 6 -1 11 2
17 5 13 3 -3 4 -12 1 -19z m430 0 c-3 -8 -6 -5 -6 6 -1 11 2 17 5 13 3 -3 4
-12 1 -19z m-400 -20 c-3 -7 -5 -2 -5 12 0 14 2 19 5 13 2 -7 2 -19 0 -25z
m190 10 c-3 -8 -6 -5 -6 6 -1 11 2 17 5 13 3 -3 4 -12 1 -19z m240 -10 c-3 -7
-5 -2 -5 12 0 14 2 19 5 13 2 -7 2 -19 0 -25z m130 10 c-3 -8 -6 -5 -6 6 -1
11 2 17 5 13 3 -3 4 -12 1 -19z m180 0 c-3 -8 -6 -5 -6 6 -1 11 2 17 5 13 3
-3 4 -12 1 -19z m-710 -20 c-3 -7 -5 -2 -5 12 0 14 2 19 5 13 2 -7 2 -19 0
-25z m190 10 c-3 -8 -6 -5 -6 6 -1 11 2 17 5 13 3 -3 4 -12 1 -19z m50 0 c-3
-8 -6 -5 -6 6 -1 11 2 17 5 13 3 -3 4 -12 1 -19z m650 0 c-3 -8 -6 -5 -6 6 -1
11 2 17 5 13 3 -3 4 -12 1 -19z m-1140 -10 c-3 -8 -6 -5 -6 6 -1 11 2 17 5 13
3 -3 4 -12 1 -19z m30 -10 c-3 -7 -5 -2 -5 12 0 14 2 19 5 13 2 -7 2 -19 0
-25z m490 10 c-3 -8 -6 -5 -6 6 -1 11 2 17 5 13 3 -3 4 -12 1 -19z m160 0 c-3
-8 -6 -5 -6 6 -1 11 2 17 5 13 3 -3 4 -12 1 -19z m310 0 c-3 -8 -6 -5 -6 6 -1
11 2 17 5 13 3 -3 4 -12 1 -19z m-930 -20 c-3 -7 -5 -2 -5 12 0 14 2 19 5 13
2 -7 2 -19 0 -25z m300 10 c-3 -8 -6 -5 -6 6 -1 11 2 17 5 13 3 -3 4 -12 1
-19z m190 -10 c-3 -7 -5 -2 -5 12 0 14 2 19 5 13 2 -7 2 -19 0 -25z m340 0
c-3 -7 -5 -2 -5 12 0 14 2 19 5 13 2 -7 2 -19 0 -25z m-800 -10 c-3 -7 -5 -2
-5 12 0 14 2 19 5 13 2 -7 2 -19 0 -25z m670 10 c-3 -8 -6 -5 -6 6 -1 11 2 17
5 13 3 -3 4 -12 1 -19z m310 0 c-3 -8 -6 -5 -6 6 -1 11 2 17 5 13 3 -3 4 -12
1 -19z m-680 -10 c-3 -8 -6 -5 -6 6 -1 11 2 17 5 13 3 -3 4 -12 1 -19z m30
-10 c-3 -7 -5 -2 -5 12 0 14 2 19 5 13 2 -7 2 -19 0 -25z m160 10 c-3 -8 -6
-5 -6 6 -1 11 2 17 5 13 3 -3 4 -12 1 -19z m210 -10 c-3 -7 -5 -2 -5 12 0 14
2 19 5 13 2 -7 2 -19 0 -25z m-670 0 c-3 -8 -6 -5 -6 6 -1 11 2 17 5 13 3 -3
4 -12 1 -19z m980 0 c-3 -8 -6 -5 -6 6 -1 11 2 17 5 13 3 -3 4 -12 1 -19z
m-1260 -20 c-3 -7 -5 -2 -5 12 0 14 2 19 5 13 2 -7 2 -19 0 -25z m30 -5 c-3
-10 -5 -4 -5 12 0 17 2 24 5 18 2 -7 2 -21 0 -30z m360 15 c-3 -8 -6 -5 -6 6
-1 11 2 17 5 13 3 -3 4 -12 1 -19z m30 -10 c-3 -7 -5 -2 -5 12 0 14 2 19 5 13
2 -7 2 -19 0 -25z m190 10 c-3 -8 -6 -5 -6 6 -1 11 2 17 5 13 3 -3 4 -12 1
-19z m210 0 c-3 -8 -6 -5 -6 6 -1 11 2 17 5 13 3 -3 4 -12 1 -19z m160 0 c-3
-8 -6 -5 -6 6 -1 11 2 17 5 13 3 -3 4 -12 1 -19z m-920 -20 c-3 -7 -5 -2 -5
12 0 14 2 19 5 13 2 -7 2 -19 0 -25z m790 0 c-3 -7 -5 -2 -5 12 0 14 2 19 5
13 2 -7 2 -19 0 -25z m-760 -10 c-3 -7 -5 -2 -5 12 0 14 2 19 5 13 2 -7 2 -19
0 -25z m110 0 c-3 -7 -5 -2 -5 12 0 14 2 19 5 13 2 -7 2 -19 0 -25z m250 10
c-3 -8 -6 -5 -6 6 -1 11 2 17 5 13 3 -3 4 -12 1 -19z m-330 -10 c-3 -8 -6 -5
-6 6 -1 11 2 17 5 13 3 -3 4 -12 1 -19z m110 -10 c-3 -7 -5 -2 -5 12 0 14 2
19 5 13 2 -7 2 -19 0 -25z m250 10 c-3 -8 -6 -5 -6 6 -1 11 2 17 5 13 3 -3 4
-12 1 -19z m240 0 c-3 -8 -6 -5 -6 6 -1 11 2 17 5 13 3 -3 4 -12 1 -19z m160
0 c-3 -8 -6 -5 -6 6 -1 11 2 17 5 13 3 -3 4 -12 1 -19z m-620 -20 c-3 -7 -5
-2 -5 12 0 14 2 19 5 13 2 -7 2 -19 0 -25z m300 10 c-3 -8 -6 -5 -6 6 -1 11 2
17 5 13 3 -3 4 -12 1 -19z m190 -10 c-3 -7 -5 -2 -5 12 0 14 2 19 5 13 2 -7 2
-19 0 -25z m340 10 c-3 -8 -6 -5 -6 6 -1 11 2 17 5 13 3 -3 4 -12 1 -19z
m-800 -10 c-3 -8 -6 -5 -6 6 -1 11 2 17 5 13 3 -3 4 -12 1 -19z m300 0 c-3 -8
-6 -5 -6 6 -1 11 2 17 5 13 3 -3 4 -12 1 -19z m370 0 c-3 -8 -6 -5 -6 6 -1 11
2 17 5 13 3 -3 4 -12 1 -19z m310 0 c-3 -8 -6 -5 -6 6 -1 11 2 17 5 13 3 -3 4
-12 1 -19z m-950 -10 c-3 -8 -6 -5 -6 6 -1 11 2 17 5 13 3 -3 4 -12 1 -19z
m80 0 c-3 -8 -6 -5 -6 6 -1 11 2 17 5 13 3 -3 4 -12 1 -19z m220 -10 c-3 -7
-5 -2 -5 12 0 14 2 19 5 13 2 -7 2 -19 0 -25z m160 10 c-3 -8 -6 -5 -6 6 -1
11 2 17 5 13 3 -3 4 -12 1 -19z m210 -10 c-3 -7 -5 -2 -5 12 0 14 2 19 5 13 2
-7 2 -19 0 -25z m130 10 c-3 -8 -6 -5 -6 6 -1 11 2 17 5 13 3 -3 4 -12 1 -19z
m-1250 -10 c-3 -8 -6 -5 -6 6 -1 11 2 17 5 13 3 -3 4 -12 1 -19z m30 -10 c-3
-7 -5 -2 -5 12 0 14 2 19 5 13 2 -7 2 -19 0 -25z m110 10 c-3 -8 -6 -5 -6 6
-1 11 2 17 5 13 3 -3 4 -12 1 -19z m30 -10 c-3 -7 -5 -2 -5 12 0 14 2 19 5 13
2 -7 2 -19 0 -25z m310 10 c-3 -8 -6 -5 -6 6 -1 11 2 17 5 13 3 -3 4 -12 1
-19z m80 0 c-3 -8 -6 -5 -6 6 -1 11 2 17 5 13 3 -3 4 -12 1 -19z m870 0 c-3
-8 -6 -5 -6 6 -1 11 2 17 5 13 3 -3 4 -12 1 -19z m-650 -10 c-3 -8 -6 -5 -6 6
-1 11 2 17 5 13 3 -3 4 -12 1 -19z m210 0 c-3 -8 -6 -5 -6 6 -1 11 2 17 5 13
3 -3 4 -12 1 -19z m160 0 c-3 -8 -6 -5 -6 6 -1 11 2 17 5 13 3 -3 4 -12 1 -19z
m180 0 c-3 -8 -6 -5 -6 6 -1 11 2 17 5 13 3 -3 4 -12 1 -19z"/>
<path d="M15418 1923 c-134 -2 -218 -7 -218 -13 0 -11 312 -14 433 -4 76 7
112 26 40 22 -21 -2 -136 -4 -255 -5z"/>
<path d="M15208 1818 c21 -21 512 -20 512 0 0 4 -117 7 -260 7 -142 0 -256 -3
-252 -7z"/>
<path d="M15218 1729 c9 -10 74 -14 265 -17 140 -2 248 0 244 4 -5 5 -82 10
-171 10 -89 1 -204 5 -256 9 -78 6 -93 5 -82 -6z"/>
<path d="M43060 1455 l0 -275 205 0 205 0 0 30 0 30 -170 0 -170 0 0 95 0 95
150 0 150 0 0 30 0 30 -150 0 -150 0 0 85 0 85 160 0 160 0 0 35 0 35 -195 0
-195 0 0 -275z"/>
<path d="M46150 1690 c0 -39 1 -40 35 -40 34 0 35 1 35 40 0 39 -1 40 -35 40
-34 0 -35 -1 -35 -40z"/>
<path d="M47810 1635 c0 -52 -3 -95 -6 -95 -3 0 -17 9 -31 20 -18 14 -41 20
-78 20 -61 0 -108 -27 -138 -78 -24 -41 -33 -143 -18 -199 31 -113 148 -167
235 -108 34 23 36 23 36 5 0 -16 7 -20 30 -20 l30 0 0 275 0 275 -30 0 -30 0
0 -95z m-61 -120 c44 -22 64 -75 59 -156 -3 -59 -8 -72 -33 -99 -21 -22 -38
-30 -65 -30 -69 0 -110 55 -110 150 0 117 67 178 149 135z"/>
<path d="M48640 1455 l0 -275 35 0 35 0 0 275 0 275 -35 0 -35 0 0 -275z"/>
<path d="M50660 1691 c0 -40 1 -41 36 -41 35 0 35 1 32 38 -3 34 -6 37 -35 40
-32 3 -33 2 -33 -37z"/>
<path d="M43978 1692 c-24 -15 -28 -23 -28 -64 0 -41 -3 -47 -22 -50 -17 -2
-23 -10 -23 -28 0 -18 6 -26 23 -28 22 -3 22 -6 22 -140 0 -90 5 -146 13 -162
17 -34 59 -52 100 -45 30 6 33 9 29 35 -3 24 -10 29 -36 32 l-31 3 -3 137 -3
137 33 3 c28 2 33 7 33 28 0 21 -5 26 -32 28 l-33 3 0 65 c0 35 -3 64 -7 63
-5 0 -20 -8 -35 -17z"/>
<path d="M44868 1689 c-23 -17 -28 -28 -28 -65 0 -37 -3 -44 -20 -44 -16 0
-20 -7 -20 -30 0 -23 5 -30 19 -30 17 0 19 -11 23 -150 4 -137 6 -152 25 -172
15 -15 35 -21 66 -22 54 -1 57 1 50 37 -4 22 -11 27 -33 27 -16 0 -30 7 -34
16 -3 9 -6 72 -6 140 l0 124 35 0 c32 0 35 2 35 30 0 28 -3 30 -35 30 l-35 0
0 65 c0 36 -3 65 -7 65 -5 0 -20 -10 -35 -21z"/>
<path d="M50488 1694 c-25 -13 -28 -20 -28 -64 0 -47 -2 -50 -25 -50 -21 0
-25 -5 -25 -30 0 -25 4 -30 25 -30 l25 0 0 -146 c0 -80 4 -154 10 -164 20 -38
130 -50 130 -15 0 29 -13 45 -36 45 -35 0 -44 33 -44 166 l0 114 35 0 c32 0
35 2 35 30 0 28 -3 30 -35 30 l-34 0 -3 64 -3 64 -27 -14z"/>
<path d="M52358 1694 c-25 -13 -28 -20 -28 -64 0 -47 -2 -50 -25 -50 -21 0
-25 -5 -25 -30 0 -25 4 -30 25 -30 l25 0 0 -146 c0 -80 4 -154 10 -164 21 -40
130 -50 130 -11 0 25 -13 39 -40 42 l-25 4 -3 138 -3 137 31 0 c27 0 30 3 30
30 0 27 -3 30 -30 30 l-30 0 0 65 c0 36 -3 65 -7 65 -5 -1 -20 -8 -35 -16z"/>
<path d="M15235 1642 c22 -23 505 -45 505 -23 0 4 -89 11 -197 15 -109 3 -225
9 -258 12 -41 4 -57 3 -50 -4z"/>
<path d="M16405 1568 c-115 -10 -214 -23 -219 -28 -14 -14 38 -13 294 10 123
11 226 20 227 20 2 0 3 5 3 10 0 13 -53 11 -305 -12z"/>
<path d="M43598 1564 c-32 -17 -58 -62 -58 -100 0 -44 54 -88 135 -109 85 -22
115 -39 115 -65 0 -60 -116 -85 -165 -35 -14 13 -25 31 -25 40 0 13 -6 15 -32
10 -18 -4 -35 -9 -37 -11 -8 -7 36 -79 60 -97 41 -30 137 -34 191 -9 76 37
100 114 53 170 -18 21 -45 35 -102 52 -43 12 -88 29 -100 36 -50 31 -11 84 60
84 30 0 45 -7 67 -30 32 -34 80 -42 80 -12 0 25 -27 60 -60 77 -38 19 -146 19
-182 -1z"/>
<path d="M44150 1380 l0 -200 35 0 35 0 0 129 c0 142 7 172 44 197 20 13 32
14 55 6 28 -10 30 -9 36 18 9 41 0 50 -48 50 -31 0 -48 -7 -69 -27 l-28 -27 0
27 c0 23 -4 27 -30 27 l-30 0 0 -200z"/>
<path d="M44410 1420 c0 -183 8 -212 65 -236 61 -25 127 -14 173 28 l22 21 0
-26 c0 -23 4 -27 30 -27 l30 0 -2 198 -3 197 -32 3 -33 3 0 -129 c0 -71 -5
-143 -11 -161 -18 -50 -90 -77 -139 -51 -30 16 -40 67 -40 206 l0 134 -30 0
-30 0 0 -160z"/>
<path d="M45044 1565 c-4 -8 -5 -82 -3 -163 3 -122 7 -153 22 -176 41 -61 146
-72 212 -22 l35 27 0 -25 c0 -21 5 -26 25 -26 l25 0 0 200 0 200 -29 0 -29 0
-4 -146 -3 -146 -33 -29 c-42 -38 -92 -39 -127 -4 -24 23 -25 28 -25 175 l0
150 -30 0 c-18 0 -33 -6 -36 -15z"/>
<path d="M45470 1380 l0 -200 35 0 35 0 0 129 c0 70 5 142 10 158 14 38 50 56
85 43 22 -9 27 -7 35 16 13 34 13 41 -6 48 -38 15 -83 6 -109 -21 l-25 -28 0
28 c0 23 -4 27 -30 27 l-30 0 0 -200z"/>
<path d="M45794 1566 c-36 -16 -74 -61 -74 -87 0 -30 57 -26 72 5 34 75 188
51 188 -30 0 -26 -1 -27 -129 -49 -66 -11 -90 -20 -112 -41 -57 -55 -43 -146
28 -179 46 -22 129 -15 177 14 41 26 42 26 49 1 4 -15 14 -20 41 -20 33 0 36
2 26 19 -5 11 -10 75 -10 143 0 151 -10 192 -53 218 -38 24 -154 27 -203 6z
m174 -272 c-33 -68 -139 -95 -179 -45 -42 52 -12 85 101 108 l85 18 3 -27 c2
-15 -3 -40 -10 -54z"/>
<path d="M46150 1380 l0 -200 35 0 35 0 0 200 0 200 -35 0 -35 0 0 -200z"/>
<path d="M46375 1570 c-37 -15 -67 -57 -68 -94 -2 -58 28 -87 114 -114 100
-31 123 -44 127 -71 6 -39 -24 -61 -83 -61 -54 0 -87 19 -100 59 -5 17 -12 19
-38 14 -18 -3 -33 -6 -34 -7 -1 -1 7 -21 17 -44 15 -33 29 -47 62 -62 54 -25
121 -25 174 -1 53 24 74 55 74 109 0 59 -28 85 -121 111 -96 28 -123 42 -127
68 -4 29 33 53 81 53 29 0 46 -7 69 -30 19 -20 40 -30 59 -30 34 0 34 0 14 46
-10 23 -26 39 -49 49 -38 16 -138 19 -171 5z"/>
<path d="M46984 1561 c-46 -28 -72 -66 -84 -126 -21 -99 12 -200 78 -238 17
-10 58 -21 90 -24 76 -6 137 24 170 83 l22 42 -35 4 c-29 3 -38 0 -52 -21 -25
-40 -44 -50 -90 -51 -45 0 -97 34 -107 70 -4 11 -9 29 -12 40 -5 19 -1 20 145
20 l151 0 0 28 c0 72 -43 147 -101 177 -41 22 -137 19 -175 -4z m147 -47 c25
-12 59 -64 59 -89 0 -3 -49 -5 -110 -5 -101 0 -110 2 -110 19 0 10 10 31 21
45 37 47 88 58 140 30z"/>
<path d="M48051 1563 c-55 -27 -85 -84 -89 -169 -5 -87 8 -130 51 -172 62 -60
185 -68 247 -15 28 23 66 81 58 87 -10 9 -68 14 -68 7 0 -5 -13 -23 -29 -40
-51 -54 -141 -39 -176 29 -8 16 -15 38 -15 50 0 19 5 20 145 20 l145 0 0 43
c0 56 -36 126 -79 154 -42 28 -138 31 -190 6z m158 -60 c17 -16 33 -40 37 -55
l6 -28 -111 0 c-71 0 -111 4 -111 10 0 24 32 70 58 84 43 24 88 20 121 -11z"/>
<path d="M48830 1380 l0 -200 35 0 35 0 0 135 c0 79 5 144 11 159 15 33 72 60
107 51 59 -15 62 -24 62 -192 l0 -153 36 0 35 0 -3 171 -3 171 -33 29 c-28 25
-40 29 -91 29 -45 0 -66 -5 -95 -25 l-36 -24 0 24 c0 21 -5 25 -30 25 l-30 0
0 -200z"/>
<path d="M49220 1573 c0 -4 32 -95 72 -200 l73 -193 32 0 c29 0 33 4 57 68 99
261 116 308 116 320 0 7 -12 12 -29 12 -32 0 -32 -2 -116 -234 -22 -61 -31
-75 -36 -60 -4 10 -29 80 -56 154 -47 134 -48 135 -80 138 -18 2 -33 0 -33 -5z"/>
<path d="M49715 1566 c-63 -28 -95 -93 -95 -193 0 -121 53 -187 159 -200 85
-10 164 31 190 98 9 26 8 27 -25 31 -31 4 -37 0 -50 -24 -18 -35 -43 -48 -93
-48 -52 0 -99 39 -110 93 l-9 37 149 0 149 0 0 34 c0 71 -41 145 -96 171 -39
18 -128 19 -169 1z m143 -52 c22 -15 52 -63 52 -84 0 -6 -40 -10 -110 -10 -70
0 -110 4 -110 10 0 24 32 70 58 84 36 20 82 20 110 0z"/>
<path d="M50103 1560 c-39 -23 -53 -48 -53 -94 0 -54 32 -81 132 -111 81 -24
118 -44 118 -64 0 -5 -9 -20 -21 -35 -17 -22 -28 -26 -73 -26 -54 0 -84 19
-100 64 -4 11 -12 16 -22 12 -9 -3 -22 -6 -30 -6 -43 0 10 -92 66 -114 115
-46 240 10 240 108 0 72 -24 90 -173 131 -59 17 -82 40 -71 70 19 48 144 43
159 -7 5 -13 16 -18 41 -18 19 0 34 5 34 10 0 25 -32 71 -60 85 -43 22 -147
20 -187 -5z"/>
<path d="M50660 1381 l0 -201 35 0 35 0 -2 198 -3 197 -32 3 -33 3 0 -200z"/>
<path d="M50830 1380 l0 -200 29 0 28 0 5 138 c3 76 10 148 17 160 27 51 118
65 141 22 6 -10 10 -86 10 -169 l0 -151 34 0 35 0 3 145 c3 139 4 146 28 170
14 13 39 27 57 31 26 5 37 1 57 -19 26 -26 26 -28 26 -177 l0 -150 35 0 35 0
0 138 c-1 161 -9 209 -45 240 -47 40 -157 26 -188 -25 -6 -10 -15 -6 -38 17
-27 27 -37 30 -89 30 -48 0 -64 -4 -89 -26 l-31 -26 0 26 c0 22 -4 26 -30 26
l-30 0 0 -200z"/>
<path d="M51534 1561 c-46 -28 -71 -66 -85 -125 -21 -97 13 -200 78 -239 82
-47 210 -25 253 45 27 45 25 55 -10 60 -24 4 -33 -1 -47 -21 -26 -40 -44 -50
-93 -50 -61 0 -98 33 -114 102 l-6 27 150 0 150 0 0 28 c0 72 -43 147 -101
177 -41 22 -137 19 -175 -4z m154 -51 c17 -11 32 -21 32 -22 0 -2 4 -18 9 -36
l10 -32 -110 0 c-100 0 -109 2 -109 19 0 10 10 31 21 45 38 49 93 58 147 26z"/>
<path d="M51890 1380 l0 -200 35 0 35 0 0 135 c0 79 5 144 11 159 15 33 71 59
108 51 59 -13 66 -32 70 -196 l3 -149 30 0 29 0 -3 171 -3 171 -33 29 c-28 25
-40 29 -91 29 -45 0 -66 -5 -95 -25 l-36 -24 0 24 c0 21 -5 25 -30 25 l-30 0
0 -200z"/>
<path d="M52594 1562 c-46 -29 -71 -67 -83 -124 -23 -107 12 -205 88 -245 95
-50 217 -10 257 84 23 53 18 171 -9 217 -35 62 -67 80 -150 84 -58 2 -78 -1
-103 -16z m146 -47 c78 -40 90 -195 20 -257 -65 -59 -156 -26 -181 65 -36 134
58 245 161 192z"/>
<path d="M15240 1562 c0 -5 15 -12 33 -16 124 -22 487 -44 487 -29 0 6 -61 13
-143 17 -141 6 -295 21 -349 32 -16 3 -28 1 -28 -4z"/>
<path d="M16163 1477 c-12 -25 -36 -61 -53 -81 -17 -19 -29 -39 -26 -44 3 -5
-13 -13 -37 -18 l-42 -8 50 -4 c46 -3 52 -6 73 -42 l23 -40 -128 0 c-152 0
-359 15 -496 35 -91 14 -103 18 -150 56 -40 32 -46 40 -27 36 117 -28 614 -61
565 -38 -11 5 -56 10 -100 10 -140 2 -431 34 -508 57 -15 5 -14 -1 8 -51 43
-99 97 -178 170 -250 104 -104 216 -161 363 -182 65 -10 76 -6 41 15 -12 7
-19 16 -16 18 2 3 74 0 158 -6 89 -7 164 -8 177 -3 16 6 -37 13 -168 21 -105
7 -201 17 -213 22 -12 5 -40 24 -61 43 l-39 33 59 -7 c32 -5 158 -11 279 -15
219 -7 220 -7 241 -32 18 -22 22 -23 36 -9 9 9 18 14 21 11 3 -3 39 29 80 71
82 84 81 77 25 136 -16 17 -13 18 48 24 94 11 92 27 -4 24 -79 -2 -80 -2 -115
34 l-36 35 82 6 c153 12 197 18 197 27 0 11 -33 11 -184 -1 l-118 -9 -35 37
c-30 32 -33 37 -17 39 11 2 102 10 203 18 101 8 186 17 189 20 16 15 -27 16
-217 1 l-210 -17 -33 36 -33 37 -22 -45z m-558 -232 c66 -8 220 -18 342 -21
l223 -7 20 -35 c12 -19 18 -37 15 -40 -8 -8 -440 15 -550 29 -78 10 -96 16
-137 47 -27 20 -48 37 -48 39 0 4 3 4 135 -12z m195 -105 c85 -6 218 -14 294
-18 l140 -7 19 -32 19 -33 -142 0 c-151 0 -362 15 -420 31 -19 5 -53 25 -75
45 -35 31 -37 35 -15 30 14 -3 95 -11 180 -16z"/>
<path d="M15265 1472 c6 -6 57 -18 115 -26 122 -19 446 -32 415 -17 -11 5 -61
10 -110 10 -79 1 -263 18 -388 37 -29 5 -39 3 -32 -4z"/>
</g>
</svg>
