<svg width="16" height="16" viewBox="0 0 16 16" fill="none" xmlns="http://www.w3.org/2000/svg">
<path d="M8.00002 11.9998C6.93915 11.9998 5.92174 11.5784 5.17159 10.8283C4.42145 10.0781 4.00002 9.0607 4.00002 7.99984C4.00002 6.93897 4.42145 5.92156 5.17159 5.17141C5.92174 4.42126 6.93915 3.99984 8.00002 3.99984C9.06089 3.99984 10.0783 4.42126 10.8284 5.17141C11.5786 5.92156 12 6.93897 12 7.99984C12 9.0607 11.5786 10.0781 10.8284 10.8283C10.0783 11.5784 9.06089 11.9998 8.00002 11.9998ZM8.00002 10.6665C8.70726 10.6665 9.38554 10.3856 9.88564 9.88546C10.3857 9.38536 10.6667 8.70708 10.6667 7.99984C10.6667 7.29259 10.3857 6.61432 9.88564 6.11422C9.38554 5.61412 8.70726 5.33317 8.00002 5.33317C7.29278 5.33317 6.6145 5.61412 6.1144 6.11422C5.61431 6.61432 5.33335 7.29259 5.33335 7.99984C5.33335 8.70708 5.61431 9.38536 6.1144 9.88546C6.6145 10.3856 7.29278 10.6665 8.00002 10.6665V10.6665ZM7.33335 0.666504H8.66669V2.6665H7.33335V0.666504ZM7.33335 13.3332H8.66669V15.3332H7.33335V13.3332ZM2.34335 3.28584L3.28602 2.34317L4.70002 3.75717L3.75735 4.69984L2.34335 3.2865V3.28584ZM11.3 12.2425L12.2427 11.2998L13.6567 12.7138L12.714 13.6565L11.3 12.2425ZM12.714 2.3425L13.6567 3.28584L12.2427 4.69984L11.3 3.75717L12.714 2.34317V2.3425ZM3.75735 11.2998L4.70002 12.2425L3.28602 13.6565L2.34335 12.7138L3.75735 11.2998V11.2998ZM15.3334 7.33317V8.6665H13.3334V7.33317H15.3334ZM2.66669 7.33317V8.6665H0.666687V7.33317H2.66669Z" fill="#FFFFFF"/>
</svg>
