<svg width="16" height="16" viewBox="0 0 16 16" fill="none" xmlns="http://www.w3.org/2000/svg">
<path d="M0.666748 14.6665C0.666748 13.252 1.22865 11.8954 2.22885 10.8952C3.22904 9.89503 4.58559 9.33313 6.00008 9.33313C7.41457 9.33313 8.77112 9.89503 9.77132 10.8952C10.7715 11.8954 11.3334 13.252 11.3334 14.6665H10.0001C10.0001 13.6056 9.57865 12.5882 8.82851 11.838C8.07836 11.0879 7.06095 10.6665 6.00008 10.6665C4.93922 10.6665 3.9218 11.0879 3.17165 11.838C2.42151 12.5882 2.00008 13.6056 2.00008 14.6665H0.666748ZM6.00008 8.66646C3.79008 8.66646 2.00008 6.87646 2.00008 4.66646C2.00008 2.45646 3.79008 0.666461 6.00008 0.666461C8.21008 0.666461 10.0001 2.45646 10.0001 4.66646C10.0001 6.87646 8.21008 8.66646 6.00008 8.66646ZM6.00008 7.33313C7.47341 7.33313 8.66675 6.13979 8.66675 4.66646C8.66675 3.19313 7.47341 1.99979 6.00008 1.99979C4.52675 1.99979 3.33341 3.19313 3.33341 4.66646C3.33341 6.13979 4.52675 7.33313 6.00008 7.33313ZM14.3654 0.522461C15.0042 1.81035 15.3356 3.22886 15.3334 4.66646C15.3334 6.15513 14.9847 7.56246 14.3654 8.81046L13.2687 8.01313C13.7522 6.96377 14.0018 5.82184 14.0001 4.66646C14.0001 3.47179 13.7381 2.33779 13.2687 1.31979L14.3654 0.522461ZM12.1641 2.12246C12.497 2.92923 12.6678 3.79368 12.6667 4.66646C12.6678 5.53924 12.497 6.40369 12.1641 7.21046L11.0461 6.39713C11.2369 5.84008 11.3339 5.25527 11.3334 4.66646C11.3342 4.07769 11.2373 3.49288 11.0467 2.93579L12.1641 2.12246Z" fill="#F2F2F2"/>
</svg>
