<svg width="16" height="16" viewBox="0 0 16 16" fill="none" xmlns="http://www.w3.org/2000/svg">
<path d="M5.33335 6.89416V8.35683C4.53602 8.81816 4.00002 9.68016 4.00002 10.6668C4.00002 12.1402 5.19335 13.3335 6.66669 13.3335C7.65335 13.3335 8.51535 12.7975 8.97669 12.0002H10.4387C9.89002 13.5535 8.40802 14.6668 6.66669 14.6668C4.45735 14.6668 2.66669 12.8762 2.66669 10.6668C2.66669 8.92483 3.78002 7.4435 5.33335 6.89416V6.89416ZM8.00002 11.3335C6.89535 11.3335 6.00002 10.4382 6.00002 9.3335V6.66683C6.00002 5.97083 6.35602 5.3575 6.89535 4.9995C6.35535 4.64283 6.00002 4.0295 6.00002 3.3335C6.00002 2.22883 6.89535 1.3335 8.00002 1.3335C9.10469 1.3335 10 2.22883 10 3.3335C10 4.0295 9.64402 4.64283 9.10469 5.00083C9.64469 5.3575 10 5.97083 10 6.66683V9.9995L10.956 10.0002C11.388 10.0002 11.7914 10.2095 12.04 10.5575L12.0994 10.6475L13.9047 13.6575L12.762 14.3428L10.9554 11.3335L10 11.3328L8.00002 11.3335ZM8.00002 6.00016C7.63202 6.00016 7.33335 6.29883 7.33335 6.66683V9.3335C7.33335 9.7015 7.63202 10.0002 8.00002 10.0002H8.66602L8.66669 6.66683C8.66669 6.29883 8.36802 6.00016 8.00002 6.00016ZM8.00002 2.66683C7.63202 2.66683 7.33335 2.9655 7.33335 3.3335C7.33335 3.7015 7.63202 4.00016 8.00002 4.00016C8.36802 4.00016 8.66669 3.7015 8.66669 3.3335C8.66669 2.9655 8.36802 2.66683 8.00002 2.66683Z" fill="#FFFFFF"/>
</svg>
